<?xml version="1.0" encoding="UTF-8" standalone="no"?>
<svg width="166px" height="87px" viewBox="0 0 166 87" version="1.1" xmlns="http://www.w3.org/2000/svg" xmlns:xlink="http://www.w3.org/1999/xlink">
    <!-- Generator: Sketch 3.8.3 (29802) - http://www.bohemiancoding.com/sketch -->
    <title>Page 1</title>
    <desc>Created with Sketch.</desc>
    <defs>
        <polygon id="path-1" points="86.8697246 0.0488 0 0.0488 0 43.3793 0 86.7098 86.8697246 86.7098"></polygon>
    </defs>
    <g id="Digital-styleguide" stroke="none" stroke-width="1" fill="none" fill-rule="evenodd">
        <g id="UI-styleguide-logo" transform="translate(-779.000000, -771.000000)">
            <g id="Page-1" transform="translate(779.000000, 771.000000)">
                <g id="Group-3" transform="translate(0.000000, 0.151320)">
                    <mask id="mask-2" fill="white">
                        <use xlink:href="#path-1"></use>
                    </mask>
                    <g id="Clip-2"></g>
                    <path d="M0,43.379 C0,19.4486 19.446058,0.0482 43.4354638,0.0482 C67.4236667,0.0482 86.8697246,19.4486 86.8697246,43.379 C86.8697246,67.3094 67.4236667,86.7098 43.4354638,86.7098 C19.446058,86.7098 0,67.3094 0,43.379" id="Fill-1" fill="#FEFEFE" mask="url(#mask-2)"></path>
                </g>
                <g id="Group-138" transform="translate(3.608696, 3.951320)">
                    <path d="M155.224435,62.44584 L139.242725,62.44584 C139.916348,64.09224 140.288043,65.87664 140.288043,67.72464 C140.288043,71.73144 138.769986,75.88224 135.089116,78.80904 L161.504768,78.80904 L155.224435,62.44584 Z" id="Fill-4" fill="#FECC00"></path>
                    <path id="Fill-6" fill="#FECC00"></path>
                    <path d="M18.4175797,31.34256 C18.5583188,30.98136 18.7074783,30.62376 18.8662609,30.27216 C18.8927246,30.21216 18.9203913,30.15096 18.948058,30.09096 C19.1032319,29.75376 19.2656232,29.42256 19.4364348,29.09496 C19.4544783,29.05896 19.4713188,29.02176 19.4893623,28.98576 L6.04456522,19.47576 C4.53131884,21.99456 3.28271014,24.70776 2.35527536,27.58776 L18.389913,31.40856 C18.3983333,31.38696 18.4079565,31.36536 18.4175797,31.34256" id="Fill-8" fill="#FECC00"></path>
                    <path id="Fill-10" fill="#FECC00"></path>
                    <path id="Fill-12" fill="#FECC00"></path>
                    <path d="M22.9860681,24.06396 C23.0245609,24.02196 23.0666623,23.98476 23.106358,23.94276 C23.355358,23.67876 23.6115754,23.42076 23.8738072,23.16876 C23.9123,23.13156 23.9507928,23.09436 23.9892855,23.05836 C24.2948217,22.76916 24.6063725,22.48836 24.9263435,22.21476 L16.0140681,8.39436 C13.6407493,10.18716 11.4659087,12.24036 9.54848841,14.53476 L22.9980971,24.04956 L22.9860681,24.06396 Z" id="Fill-14" fill="#FECC00"></path>
                    <path id="Fill-16" fill="#FECC00"></path>
                    <path d="M16.8675246,39.96756 C16.8663217,39.87876 16.8687275,39.78996 16.8687275,39.70116 C16.8687275,39.66876 16.8663217,39.63636 16.8663217,39.60516 C16.8663217,39.55596 16.8699304,39.50916 16.8699304,39.45996 C16.8711333,39.17076 16.8795536,38.88156 16.8915826,38.59116 C16.8951913,38.50116 16.8988,38.41236 16.9048145,38.32356 C16.9216551,38.01156 16.9445101,37.69836 16.9757855,37.38396 C16.9805971,37.33596 16.9842058,37.28676 16.9890174,37.23876 C16.9902203,37.22196 16.9914232,37.20516 16.9926261,37.18836 C16.9890174,37.22316 16.9830029,37.25796 16.9793942,37.29276 L0.953176812,33.47196 C1.05061159,32.86836 1.16007536,32.27556 1.28036522,31.68396 C1.14082899,32.35356 1.01211884,33.02916 0.907466667,33.71316 C0.462394203,36.63876 0.36495942,39.53556 0.567046377,42.36876 L16.8663217,39.94716 L16.8675246,39.96756 Z" id="Fill-18" fill="#FECC00"></path>
                    <path id="Fill-20" fill="#FECC00"></path>
                    <path id="Fill-22" fill="#FECC00"></path>
                    <path d="M18.6431232,48.44484 C18.6154565,48.37644 18.5913986,48.30564 18.5637319,48.23724 C18.4338188,47.91804 18.3087174,47.59644 18.1920362,47.27124 C18.1559493,47.16924 18.1222681,47.06604 18.0873841,46.96284 C17.9827319,46.65564 17.8840942,46.34604 17.7926739,46.03284 C17.7758333,45.97884 17.756587,45.92604 17.7409493,45.87084 C17.7457609,45.89124 17.7505725,45.91164 17.7553841,45.93204 L1.4537029,48.35364 C2.12612319,51.27804 3.12573188,54.09444 4.42486232,56.75364 L18.6419203,48.44244 L18.6431232,48.44484 Z" id="Fill-24" fill="#FECC00"></path>
                    <path id="Fill-26" fill="#FECC00"></path>
                    <path d="M32.5017174,17.94504 L29.3934275,1.80144 C26.4980507,2.59344 23.7217609,3.71184 21.1090652,5.11824 L30.0213406,18.93504 C30.8236739,18.55824 31.652471,18.22824 32.5017174,17.94504" id="Fill-28" fill="#FECC00"></path>
                    <path d="M39.7596464,16.76676 C40.2179507,16.76676 40.6714435,16.78356 41.1225304,16.80996 L44.2801391,0.68556 C41.2548493,0.33396 38.2644435,0.33756 35.353429,0.66396 L38.4557043,16.80636 C38.8875449,16.78236 39.3217913,16.76676 39.7596464,16.76676" id="Fill-30" fill="#FECC00"></path>
                    <path d="M17.6810449,7.19136 C18.213929,6.83136 18.7552333,6.47976 19.3097696,6.14376 C18.7576391,6.47976 18.213929,6.83016 17.6810449,7.19136" id="Fill-32" fill="#FECC00"></path>
                    <path d="M6.34577101,60.22164 C6.0233942,59.70204 5.71545217,59.17644 5.41713333,58.64484 C5.71545217,59.17764 6.0233942,59.70324 6.34577101,60.22164" id="Fill-34" fill="#FECC00"></path>
                    <path d="M53.7661971,78.80988 L47.4882696,62.44668 L39.7512261,62.44668 C39.3927623,62.44668 39.0342986,62.43348 38.6746319,62.41548 C38.590429,62.41188 38.507429,62.40588 38.424429,62.40108 C38.210313,62.38788 37.9949942,62.37228 37.7796754,62.35068 C37.3430232,62.31468 36.9087768,62.26788 36.479342,62.20548 L31.9841101,78.02868 C32.5975884,78.15228 33.2158783,78.26508 33.8425884,78.35988 C35.8297768,78.66108 37.8025304,78.78828 39.7512261,78.78588 L39.7512261,78.80988 L53.7661971,78.80988 Z" id="Fill-36" fill="#FECC00"></path>
                    <path id="Fill-38" fill="#FECC00"></path>
                    <path d="M30.6539449,60.56616 C30.5480899,60.52056 30.4470464,60.46656 30.3411913,60.41976 C30.0909884,60.30576 29.8431913,60.19176 29.5978,60.07056 C29.4582638,60.00096 29.3199304,59.93016 29.1815971,59.85696 C28.9374087,59.72976 28.6956261,59.59656 28.4550464,59.46096 C28.3744522,59.41536 28.2902493,59.37456 28.210858,59.32776 C28.2289014,59.33976 28.245742,59.35176 28.2649884,59.36256 L18.1786841,72.36336 C17.6145246,71.99376 17.0587855,71.60976 16.5162783,71.20776 C16.044742,70.86576 15.5840319,70.51056 15.1305391,70.14336 C18.3891913,72.76896 22.0905101,74.89896 26.147887,76.38936 L30.6467275,60.56376 L30.6539449,60.56616 Z" id="Fill-40" fill="#FECC00"></path>
                    <path id="Fill-42" fill="#FECC00"></path>
                    <path d="M23.562858,55.74972 C23.4545971,55.64292 23.3559594,55.52772 23.2501043,55.41732 C23.0708725,55.23012 22.8904377,55.04292 22.7172203,54.84972 C22.6173797,54.73812 22.5199449,54.62412 22.4225101,54.51012 C22.222829,54.27852 22.0279594,54.04452 21.8379014,53.80572 C21.7982058,53.75532 21.7549014,53.70972 21.7152058,53.65932 L7.49694493,61.96812 C9.19664058,64.40772 11.1718,66.65532 13.3851333,68.66052 L23.467829,55.66212 C23.4966986,55.69332 23.5327855,55.71852 23.562858,55.74972" id="Fill-44" fill="#FECC00"></path>
                    <path id="Fill-46" fill="#FECC00"></path>
                    <polygon id="Fill-48" fill="#FECC00" points="20.537929 52.01028 20.5415377 52.01628 20.5307116 51.99948"></polygon>
                    <path id="Fill-50" fill="#FECC00"></path>
                    <path id="Fill-52" fill="#FECC00"></path>
                    <path id="Fill-54" fill="#FECC00"></path>
                    <path id="Fill-56" fill="#FECC00"></path>
                    <path d="M56.5643797,24.10152 L70.0272203,14.64192 C68.1326551,12.35472 65.9818725,10.27752 63.6013362,8.46072 L54.639742,22.25592 C55.315771,22.83432 55.9605246,23.44872 56.5643797,24.10152" id="Fill-58" fill="#FECC00"></path>
                    <path d="M62.5566188,37.56396 L78.9990391,37.56396 C78.668242,31.09476 76.7231551,24.95076 73.522242,19.58436 L60.0569957,29.04396 C61.4126623,31.63356 62.2859667,34.51116 62.5566188,37.56396" id="Fill-60" fill="#FECC00"></path>
                    <path d="M49.5566536,18.96108 L58.515842,5.16948 C55.9296101,3.76908 53.1581319,2.64708 50.2302768,1.84428 L47.0750739,17.96508 C47.9255232,18.25068 48.7555232,18.58188 49.5566536,18.96108" id="Fill-62" fill="#FECC00"></path>
                    <path id="Fill-64" fill="#FECC00"></path>
                    <path d="M57.8736145,25.64724 L71.2835275,16.22844 L71.2835275,16.22844 C71.2835275,16.22844 71.2690928,16.20924 71.2630783,16.19964 C71.0140783,15.86724 70.7578609,15.53964 70.4992377,15.21444 C70.4378899,15.13764 70.3753391,15.06084 70.3127884,14.98404 C70.2189623,14.86764 70.127542,14.75124 70.032513,14.63724 L70.0277014,14.64204 L56.5648609,24.10164 C57.0243681,24.59604 57.4598174,25.11324 57.8736145,25.64724" id="Fill-66" fill="#00395D"></path>
                    <path d="M57.8736145,25.64724 C58.2850058,26.17764 58.673542,26.72844 59.0380203,27.29484 L72.4419188,17.87724 L72.4491362,17.87124 C72.4010203,17.79804 72.3468899,17.72844 72.2963681,17.65644 C71.9944406,17.21124 71.6840928,16.77204 71.3641217,16.34124 C71.3364551,16.30284 71.3111942,16.26444 71.2835275,16.22844 L71.2835275,16.22844 L57.8736145,25.64724 Z" id="Fill-68" fill="#FEFEFE"></path>
                    <path d="M59.0377797,27.29484 C59.402258,27.86244 59.7426783,28.44444 60.0566348,29.04444 L73.5218812,19.58484 L73.5290986,19.58124 C73.4629391,19.47084 73.3907652,19.36644 73.3246058,19.25724 C73.1068812,18.90084 72.8843449,18.54804 72.6557942,18.19764 C72.5860261,18.09084 72.5210696,17.97804 72.4488957,17.87124 L72.4416783,17.87724 L59.0377797,27.29484 Z" id="Fill-70" fill="#00395D"></path>
                    <path d="M51.3463261,19.90968 L60.2706304,6.17448 L60.2730362,6.17328 C60.2561957,6.16368 60.240558,6.15528 60.2237174,6.14448 C59.8171377,5.89608 59.4033406,5.65728 58.9859348,5.42448 C58.9017319,5.37768 58.8163261,5.32968 58.7321232,5.28408 C58.6599493,5.24448 58.5889783,5.20368 58.5180072,5.16408 L58.5156014,5.16888 L49.556413,18.96168 C50.1686884,19.25088 50.7653261,19.56888 51.3463261,19.90968" id="Fill-72" fill="#00395D"></path>
                    <path d="M51.3463261,19.90968 C51.9273261,20.25168 52.4926884,20.61888 53.0400072,21.00768 L61.9607029,7.27368 L61.9643116,7.26768 C61.9113841,7.23048 61.8548478,7.19808 61.8007174,7.16208 C61.3724855,6.87168 60.9382391,6.59088 60.4979783,6.31848 C60.4209928,6.27168 60.3488188,6.21888 60.2730362,6.17328 L60.2706304,6.17448 L51.3463261,19.90968 Z" id="Fill-74" fill="#FEFEFE"></path>
                    <path d="M53.0396464,21.0078 C53.5917768,21.4014 54.1246609,21.8166 54.6395014,22.257 L63.6010957,8.4606 L63.6059072,8.4534 C63.514487,8.385 63.419458,8.3226 63.3280377,8.253 C62.9779942,7.9914 62.6219362,7.7346 62.2622696,7.4826 C62.1612261,7.413 62.0661971,7.3374 61.9639507,7.2678 L61.9615449,7.2738 L53.0396464,21.0078 Z" id="Fill-76" fill="#00395D"></path>
                    <path d="M43.1421971,17.01696 L46.2865739,0.96816 L46.2865739,0.96696 C46.0748638,0.93216 45.8727768,0.89016 45.6634725,0.86016 C45.2015594,0.78816 44.7408493,0.73776 44.2801391,0.68256 L44.2801391,0.68496 L41.1225304,16.81056 C41.8045739,16.85016 42.4781971,16.91856 43.1421971,17.01696" id="Fill-78" fill="#00395D"></path>
                    <path d="M43.1421971,17.01696 C43.8146174,17.11656 44.4750087,17.24736 45.1269797,17.40456 L48.2677478,1.35336 L48.2677478,1.35216 C48.2557188,1.34976 48.2448928,1.34736 48.2328638,1.34496 C47.6001391,1.20696 46.9589942,1.08336 46.3166464,0.97296 C46.3166464,0.97296 46.2961971,0.96816 46.2865739,0.96696 L46.2865739,0.96816 L43.1421971,17.01696 Z" id="Fill-80" fill="#FEFEFE"></path>
                    <path d="M45.1274609,17.4042 C45.7890551,17.5626 46.4374174,17.751 47.0761565,17.9646 L50.2301565,1.845 L50.2313594,1.839 C50.1664029,1.8222 50.1014464,1.8054 50.0364899,1.7886 C49.9330406,1.7598 49.8283884,1.7334 49.7249391,1.707 C49.2522,1.5834 48.7794609,1.467 48.3007072,1.3602 C48.2886783,1.3578 48.2790551,1.3542 48.2790551,1.3542 L48.268229,1.353 L45.1274609,17.4042 Z" id="Fill-82" fill="#00395D"></path>
                    <path d="M34.4535406,17.39016 L31.3608884,1.31856 C31.3356275,1.32336 31.3115696,1.32936 31.2875116,1.33536 C31.045729,1.38816 30.8051493,1.44456 30.5645696,1.50216 C30.5008159,1.51776 30.4370623,1.53216 30.3721058,1.54776 C30.0581493,1.62576 29.7429899,1.70736 29.4290333,1.79136 C29.4170043,1.79376 29.4061783,1.79616 29.3929464,1.79976 L29.3929464,1.80096 L32.5012362,17.94456 C33.1411783,17.73216 33.7907435,17.54736 34.4535406,17.39016" id="Fill-84" fill="#00395D"></path>
                    <path d="M34.4535406,17.39016 C35.1043087,17.23656 35.7659029,17.10696 36.4371203,17.00976 L33.3468739,0.93696 C33.286729,0.94776 33.2253812,0.95976 33.1664391,0.96936 C33.0257,0.99336 32.8861638,1.01856 32.7466275,1.04376 C32.5589754,1.07736 32.3701203,1.11216 32.1824681,1.14816 C32.0393232,1.17696 31.8949754,1.20696 31.7518304,1.23816 C31.6207145,1.26456 31.4908014,1.28856 31.3608884,1.31856 L34.4535406,17.39016 Z" id="Fill-86" fill="#FEFEFE"></path>
                    <path d="M36.437,17.00916 C37.101,16.91316 37.7746232,16.84356 38.4554638,16.80636 L35.3531884,0.66276 L35.3519855,0.65916 C35.2172609,0.67356 35.084942,0.69276 34.9514203,0.70836 C34.8804493,0.71676 34.8094783,0.72636 34.7397101,0.73476 C34.5099565,0.76476 34.2814058,0.79596 34.0528551,0.82956 C33.9313623,0.84756 33.8122754,0.86556 33.6919855,0.88476 C33.5777101,0.90276 33.461029,0.91836 33.3467536,0.93756 L36.437,17.00916 Z" id="Fill-88" fill="#00395D"></path>
                    <path d="M26.5306493,20.97144 L17.6544609,7.21104 L17.653258,7.20984 C17.6304029,7.22544 17.6075478,7.24344 17.5846928,7.25904 C17.2695333,7.47384 16.9579826,7.69584 16.6488377,7.92024 C16.5093014,8.02224 16.3697652,8.12544 16.230229,8.22864 C16.1580551,8.28384 16.0834754,8.33664 16.0113014,8.39064 L16.0137072,8.39424 L24.9259826,22.21584 C25.4420261,21.77664 25.9785188,21.36264 26.5306493,20.97144" id="Fill-90" fill="#00395D"></path>
                    <path d="M26.5306493,20.97144 C27.0803739,20.58264 27.6457362,20.21784 28.229142,19.87704 L19.3529536,6.11664 L19.3529536,6.11544 C19.3373159,6.12504 19.3240841,6.13584 19.3096493,6.14424 C18.755113,6.48024 18.2150116,6.83184 17.6809246,7.19184 C17.6713014,7.19784 17.6628812,7.20264 17.653258,7.20984 L17.6544609,7.21104 L26.5306493,20.97144 Z" id="Fill-92" fill="#FEFEFE"></path>
                    <path d="M28.2292623,19.87752 C28.8102623,19.53912 29.4081029,19.22232 30.0215812,18.93432 L21.1093058,5.11872 L21.1056971,5.11152 C20.9601464,5.19072 20.8170014,5.27352 20.6714507,5.35272 C20.5992768,5.39352 20.5259,5.43312 20.4537261,5.47392 C20.086842,5.68152 19.7223638,5.89272 19.3626971,6.10992 L19.3530739,6.11592 L19.3530739,6.11712 L28.2292623,19.87752 Z" id="Fill-94" fill="#00395D"></path>
                    <path d="M19.4900841,28.98708 L19.5069246,28.95828 C19.6380406,28.70988 19.775171,28.46628 19.9159101,28.22388 C19.9483884,28.16388 19.9820696,28.10508 20.0169536,28.04628 C20.1468667,27.82548 20.2815913,27.60828 20.4175188,27.39348 C20.4463884,27.34788 20.4728522,27.30228 20.5017217,27.25788 L20.5125478,27.23748 L7.12669275,17.76588 C6.84401159,18.18348 6.57335942,18.60948 6.30872174,19.04028 C6.24376522,19.14588 6.1776058,19.25148 6.11264928,19.35828 C6.0897942,19.39668 6.06573623,19.43388 6.04288116,19.47228 L6.04528696,19.47588 L19.4888812,28.98588 L19.4900841,28.98708 Z" id="Fill-96" fill="#00395D"></path>
                    <path d="M20.5120667,27.23748 L20.5277043,27.21588 C20.5481536,27.18348 20.5722116,27.15228 20.5926609,27.11988 C20.7321971,26.90868 20.8729362,26.70228 21.018487,26.49588 C21.0654,26.42868 21.1147188,26.36028 21.1628348,26.29308 C21.3168058,26.07948 21.4743855,25.86708 21.6355739,25.65828 C21.6524145,25.63788 21.6668493,25.61508 21.6848928,25.59468 L21.682487,25.59348 L8.29542899,16.12068 C7.92012464,16.61988 7.55925507,17.12988 7.20921159,17.64588 C7.19477681,17.66748 7.18034203,17.68908 7.16470435,17.70948 C7.15267536,17.72868 7.13944348,17.74668 7.12621159,17.76588 L20.5120667,27.23748 Z" id="Fill-98" fill="#FEFEFE"></path>
                    <path d="M21.6821261,25.59324 L21.6845319,25.59444 C21.7109957,25.55964 21.7410681,25.52484 21.7687348,25.49124 C21.9311261,25.28484 22.0959232,25.07964 22.2655319,24.87924 C22.3340971,24.79884 22.4026623,24.72204 22.4712275,24.64284 C22.6227928,24.47004 22.7731551,24.29604 22.9295319,24.12804 C22.9487783,24.10644 22.9668217,24.08484 22.9860681,24.06444 L22.9932855,24.05364 L9.54848841,14.53404 L9.54728551,14.53284 C9.47751739,14.61684 9.41496667,14.70564 9.34519855,14.79084 C8.98793768,15.22644 8.63428551,15.66804 8.29506812,16.12044 L21.6821261,25.59324 Z" id="Fill-100" fill="#00395D"></path>
                    <path d="M16.9791536,37.29324 C16.9827623,37.25844 16.9887768,37.22244 16.9923855,37.18764 C17.0320812,36.84924 17.0717768,36.51204 17.1222986,36.17244 C17.1247043,36.16044 17.1271101,36.14844 17.128313,36.13524 C17.1728203,35.85204 17.2257478,35.57124 17.2786754,35.29164 L1.31861739,31.48404 C1.30538551,31.55004 1.29335652,31.61724 1.28012464,31.68444 C1.16103768,32.27484 1.05037101,32.86884 0.95413913,33.47124 L16.9791536,37.29324 Z" id="Fill-102" fill="#00395D"></path>
                    <path d="M17.2792768,35.29116 C17.407987,34.62636 17.5643638,33.97236 17.7496101,33.32916 L1.78834928,29.52276 C1.72579855,29.75556 1.66926232,29.98956 1.61152319,30.22236 C1.54175507,30.50916 1.47318986,30.79716 1.40943623,31.08636 C1.37936377,31.21956 1.34808841,31.35156 1.31921884,31.48476 L17.2792768,35.29116 Z" id="Fill-104" fill="#FEFEFE"></path>
                    <path d="M17.749129,33.3288 C17.8417522,33.0036 17.9415928,32.6808 18.0486507,32.3616 L18.0498536,32.3568 C18.1533029,32.052 18.259158,31.752 18.3722304,31.4556 C18.3782449,31.4412 18.3830565,31.4256 18.3878681,31.4112 L18.389071,31.4088 L18.389071,31.4088 L2.35563623,27.5868 L2.35443333,27.5928 C2.22211449,28.0068 2.09701304,28.4256 1.97792609,28.8468 C1.93462174,28.9992 1.89011449,29.154 1.84801304,29.3076 C1.82876667,29.3808 1.80711449,29.4516 1.78786812,29.5236 L17.749129,33.3288 Z" id="Fill-106" fill="#00395D"></path>
                    <path d="M17.7409493,45.87144 C17.7180942,45.79104 17.6988478,45.70824 17.6771957,45.62784 C17.6278768,45.44904 17.5797609,45.26904 17.5352536,45.08904 C17.4702971,44.82864 17.4113551,44.56704 17.3536159,44.30424 C17.3463986,44.26704 17.3367754,44.22984 17.3283551,44.19264 C17.3151232,44.13384 17.3006884,44.07504 17.2886594,44.01624 C17.2862536,43.99824 17.2802391,43.98264 17.2766304,43.96464 L1.05313768,46.37424 L1.05193478,46.37424 L1.05674638,46.39344 C1.17342754,47.05104 1.30454348,47.70144 1.4525,48.34704 L1.4537029,48.35424 L17.7553841,45.93144 C17.7505725,45.91104 17.7457609,45.89184 17.7409493,45.87144" id="Fill-108" fill="#00395D"></path>
                    <path d="M17.2769913,43.96416 C17.2697739,43.92696 17.2673681,43.88616 17.2601507,43.84776 C17.2144406,43.60656 17.1759478,43.36296 17.1374551,43.12056 C17.1350493,43.10496 17.1314406,43.08936 17.1290348,43.07376 C17.0761072,42.73176 17.0267884,42.38856 16.9907014,42.04176 C16.9870928,42.01776 16.9822812,41.99496 16.9786725,41.97096 L0.757585507,44.37936 C0.764802899,44.44536 0.775628986,44.51016 0.784049275,44.57616 C0.803295652,44.73816 0.826150725,44.89776 0.847802899,45.05976 C0.909150725,45.49296 0.975310145,45.92496 1.04868696,46.35456 L1.05229565,46.37376 L1.05349855,46.37376 L17.2769913,43.96416 Z" id="Fill-110" fill="#FEFEFE"></path>
                    <path d="M16.9791536,41.97144 L16.9767478,41.94864 C16.9105884,41.29584 16.8769072,40.63464 16.8672841,39.96744 L16.8660812,39.94704 L0.566805797,42.36864 L0.561994203,42.36864 C0.574023188,42.53664 0.58966087,42.70224 0.604095652,42.86904 C0.617327536,43.03824 0.63055942,43.20744 0.646197101,43.37664 C0.678675362,43.71264 0.714762319,44.04624 0.756863768,44.37984 L16.9791536,41.97144 Z" id="Fill-112" fill="#00395D"></path>
                    <path d="M21.7155667,53.65908 L21.7143638,53.65908 C21.6746681,53.60748 21.6373783,53.55348 21.5964797,53.50188 C21.4689725,53.33508 21.343871,53.16708 21.2211754,52.99788 C21.1453928,52.89348 21.0720159,52.78908 20.9974362,52.68468 C20.869929,52.50228 20.7436246,52.31868 20.6221319,52.13268 C20.5956681,52.09308 20.5680014,52.05708 20.5415377,52.01628 L20.537929,52.01028 L6.38342174,60.28188 L6.38101594,60.28188 C6.40146522,60.31188 6.42311739,60.34308 6.44236377,60.37668 C6.77556667,60.90228 7.11839275,61.41948 7.47204493,61.93428 C7.48046522,61.94508 7.48768261,61.95708 7.4949,61.96908 L7.4961029,61.96788 L21.7155667,53.65908 Z" id="Fill-114" fill="#00395D"></path>
                    <path d="M20.537929,52.01028 L20.5307116,51.99948 C20.4922188,51.93948 20.4573348,51.87828 20.418842,51.81708 C20.300958,51.63228 20.1842768,51.44628 20.0712043,51.25788 C19.9870014,51.11748 19.9076101,50.97348 19.825813,50.83068 C19.742813,50.68548 19.659813,50.54268 19.5816246,50.39628 C19.5611754,50.36028 19.5407261,50.32668 19.5214797,50.29068 L19.5130594,50.27748 L5.35975507,58.54428 L5.35734928,58.54428 C5.37659565,58.57908 5.39824783,58.61148 5.4174942,58.64508 C5.71461014,59.17668 6.02375507,59.70228 6.34613188,60.22188 C6.35695797,60.23988 6.36898696,60.26268 6.38101594,60.28188 L6.38342174,60.28188 L20.537929,52.01028 Z" id="Fill-116" fill="#FEFEFE"></path>
                    <path d="M19.5088493,50.27004 C19.4992261,50.24964 19.4908058,50.22924 19.4823855,50.21244 C19.4270522,50.10684 19.3765304,50.00004 19.3236029,49.89564 C19.2406029,49.73124 19.1564,49.56804 19.0770087,49.40364 C18.9507043,49.13964 18.8304145,48.87084 18.7137333,48.60084 C18.6968928,48.56244 18.6788493,48.52524 18.6620087,48.48564 C18.6571971,48.47124 18.6499797,48.45804 18.6427623,48.44484 L18.6427623,48.44244 L4.42450145,56.75364 L4.42450145,56.75364 C4.43051594,56.76684 4.43893623,56.77884 4.44495072,56.79204 C4.72522609,57.36564 5.02354493,57.93684 5.33389275,58.49724 C5.34351594,58.51284 5.34953043,58.52964 5.35795072,58.54404 L5.35915362,58.54404 L19.5088493,50.27004 Z" id="Fill-118" fill="#00395D"></path>
                    <path d="M26.5583159,58.27044 L16.5165188,71.20764 C17.0590261,71.60964 17.6135623,71.99364 18.1789246,72.36324 L28.2640261,59.36244 C28.2459826,59.35164 28.229142,59.33964 28.2110986,59.32764 C28.1473449,59.29164 28.0872,59.25204 28.0258522,59.21484 C27.9163884,59.14884 27.8093304,59.08404 27.7010696,59.01684 C27.5013884,58.89324 27.3029101,58.76604 27.1068377,58.63764 C27.0190261,58.57884 26.9324174,58.52004 26.8446058,58.46004 C26.7616058,58.40364 26.6774029,58.35084 26.5956058,58.29444 C26.5823739,58.28604 26.5703449,58.28004 26.5583159,58.27044" id="Fill-120" fill="#00395D"></path>
                    <path d="M26.5583159,58.27044 C26.5378667,58.25724 26.522229,58.24164 26.5017797,58.22844 C26.3790841,58.14084 26.2599971,58.04964 26.1397072,57.96084 C26.0964029,57.92844 26.0530986,57.89724 26.0097942,57.86484 C25.7355333,57.65964 25.4660841,57.44844 25.2014464,57.23124 L25.1954319,57.22644 C25.1280696,57.17004 25.0558957,57.11724 24.9885333,57.05964 C24.9789101,57.05124 24.9680841,57.04524 24.9680841,57.04524 L14.9178667,69.97524 C14.9876348,70.03284 15.0598087,70.08804 15.1295768,70.14444 C15.5842725,70.51044 16.0449826,70.86564 16.5165188,71.20764 L26.5583159,58.27044 Z" id="Fill-122" fill="#FEFEFE"></path>
                    <path d="M24.958942,57.03768 C24.936087,57.01728 24.9144348,56.99568 24.8903768,56.97408 C24.7183623,56.82648 24.5511594,56.67528 24.3815507,56.52288 L24.3611014,56.50488 C24.0892464,56.25888 23.8222029,56.00928 23.5623768,55.75008 C23.5323043,55.71768 23.4974203,55.69248 23.4685507,55.66248 L13.3846522,68.66088 L13.3834493,68.66208 C13.670942,68.92008 13.9632464,69.17448 14.2591594,69.42528 C14.4359855,69.57408 14.6140145,69.72408 14.7932464,69.87168 C14.8353478,69.90648 14.8762464,69.94128 14.9183478,69.97488 L24.958942,57.03768 Z" id="Fill-124" fill="#00395D"></path>
                    <path d="M35.5489,62.04972 C35.5092043,62.04252 35.4695087,62.03652 35.4286101,62.02812 C35.1314942,61.97292 34.8367841,61.90812 34.5432768,61.83852 C34.5240304,61.83612 34.505987,61.83252 34.4879435,61.82892 L30.0095522,77.58012 C30.6422768,77.74452 31.2858275,77.88732 31.932987,78.02172 C31.9486246,78.02412 31.9654652,78.02772 31.9835087,78.03252 L31.9835087,78.02772 L36.4799435,62.20572 C36.1671899,62.16132 35.856842,62.10852 35.5489,62.04972" id="Fill-126" fill="#00395D"></path>
                    <path d="M34.4881841,61.8294 C34.4761551,61.827 34.465329,61.8222 34.4545029,61.8186 C33.8314014,61.6722 33.2155174,61.4994 32.6128652,61.3026 C32.6008362,61.299 32.5888072,61.2942 32.5767783,61.2906 C32.5647493,61.287 32.5539232,61.2858 32.5430971,61.2822 L28.0683145,77.0346 L28.0671116,77.0382 C28.2427348,77.0922 28.4243725,77.1366 28.6024014,77.187 C29.0679232,77.3226 29.5334449,77.4606 30.0097928,77.5806 L34.4881841,61.8294 Z" id="Fill-128" fill="#FEFEFE"></path>
                    <path d="M32.5428565,61.2822 C32.5260159,61.2738 32.5115812,61.2678 32.4935377,61.2606 C32.4935377,61.2606 32.4742913,61.2546 32.465871,61.2522 C32.1952188,61.161 31.9269725,61.0674 31.6623348,60.9678 C31.4975377,60.9054 31.3363493,60.8418 31.1727551,60.7758 C31.0416391,60.723 30.9093203,60.6714 30.7794072,60.6162 C30.7385087,60.5994 30.6952043,60.5838 30.6543058,60.5658 L30.6458855,60.5634 L26.1482478,76.389 L26.1482478,76.3902 C26.4850594,76.5138 26.8339,76.6218 27.177929,76.737 C27.4570014,76.8318 27.7324652,76.9338 28.0163493,77.0202 C28.0343928,77.0262 28.0500304,77.0334 28.066871,77.0382 L28.0680739,77.0346 L32.5428565,61.2822 Z" id="Fill-130" fill="#00395D"></path>
                    <path d="M116.481117,56.05728 L120.555335,56.05728 C126.040552,56.05728 126.797175,54.13008 126.797175,52.04688 C126.797175,50.96088 126.797175,48.42048 120.985972,48.42048 L116.481117,48.42048 L116.481117,56.05728 Z M116.481117,71.97648 L121.808755,71.97648 C122.929857,71.97648 128.53777,71.76528 128.53777,67.58208 C128.53777,64.47048 126.307596,62.89368 121.900175,62.89368 L116.481117,62.89368 L116.481117,71.97648 Z M121.08461,78.80928 L109.339509,78.80928 L109.339509,41.59008 L121.326393,41.59008 C129.283567,41.59008 134.231088,45.39528 134.231088,51.51648 C134.231088,54.63528 132.977668,57.20688 130.694567,58.94088 C133.867813,60.61488 135.969277,63.91968 135.969277,67.72728 C135.969277,74.77128 130.541799,78.80928 121.08461,78.80928 L121.08461,78.80928 Z" id="Fill-132" fill="#00395D"></path>
                    <polygon id="Fill-134" fill="#00395D" points="64.4839029 78.80988 58.4621928 78.80988 44.1801783 41.59308 52.0772072 41.59308 61.6210043 67.01148 71.4727435 41.59308 79.0894971 41.59308"></polygon>
                    <path d="M84.9491768,63.58488 L93.9059594,63.58488 L89.1954087,52.24128 L84.9491768,63.58488 Z M106.672322,78.81048 L100.30538,78.81048 L96.7039014,70.41888 L82.3400899,70.41888 L79.2366116,78.81048 L71.6691768,78.81048 L86.3589739,41.59008 L92.1978435,41.59008 L108.06167,78.81048 L106.672322,78.81048 Z" id="Fill-136" fill="#00395D"></path>
                </g>
            </g>
        </g>
    </g>
</svg>