<?xml version="1.0" encoding="UTF-8" standalone="no"?>
<svg width="135px" height="79px" viewBox="0 0 135 79" version="1.1" xmlns="http://www.w3.org/2000/svg" xmlns:xlink="http://www.w3.org/1999/xlink">
    <!-- Generator: Sketch 3.8.3 (29802) - http://www.bohemiancoding.com/sketch -->
    <title>UI-styleguide-logo</title>
    <desc>Created with Sketch.</desc>
    <defs>
        <rect id="path-1" x="868" y="2470" width="396" height="260"></rect>
        <mask id="mask-2" maskContentUnits="userSpaceOnUse" maskUnits="objectBoundingBox" x="0" y="0" width="396" height="260" fill="white">
            <use xlink:href="#path-1"></use>
        </mask>
        <polygon id="path-3" points="22.875 13.6732 22.875 0.0372 0.9152 0.0372 0.9152 13.6732 22.875 13.6732"></polygon>
    </defs>
    <g id="Digital-styleguide" stroke="none" stroke-width="1" fill="none" fill-rule="evenodd">
        <g id="UI-styleguide-logo" transform="translate(-999.000000, -2543.000000)">
            <use id="Rectangle-250" stroke="#EBEBEB" mask="url(#mask-2)" stroke-width="2" xlink:href="#path-1"></use>
            <g id="Page-1" transform="translate(999.000000, 2544.000000)">
                <g id="Group-162" transform="translate(0.000000, 0.650700)">
                    <g id="Group-3" transform="translate(111.000000, 52.000000)">
                        <mask id="mask-4" fill="white">
                            <use xlink:href="#path-3"></use>
                        </mask>
                        <g id="Clip-2"></g>
                        <path d="M17.6542,0.0372 L4.3682,0.0372 C4.9282,1.4092 5.2372,2.8962 5.2372,4.4362 C5.2372,7.7752 3.9752,11.2342 0.9152,13.6732 L22.8752,13.6732 L17.6542,0.0372 Z" id="Fill-1" fill="#FECC00" mask="url(#mask-4)"></path>
                    </g>
                    <path d="M14.9233,26.1178 C15.0403,25.8168 15.1643,25.5188 15.2963,25.2258 C15.3183,25.1758 15.3413,25.1248 15.3643,25.0748 C15.4933,24.7938 15.6283,24.5178 15.7703,24.2448 C15.7853,24.2148 15.7993,24.1838 15.8143,24.1538 L4.6373,16.2288 C3.3793,18.3278 2.3413,20.5888 1.5703,22.9888 L14.9003,26.1728 C14.9073,26.1548 14.9153,26.1358 14.9233,26.1178" id="Fill-4" fill="#FECC00"></path>
                    <path id="Fill-6" fill="#FECC00"></path>
                    <path d="M18.7212,20.0523 C18.7532,20.0173 18.7882,19.9863 18.8212,19.9513 C19.0282,19.7313 19.2412,19.5163 19.4592,19.3063 C19.4912,19.2753 19.5232,19.2443 19.5552,19.2143 C19.8092,18.9733 20.0682,18.7393 20.3342,18.5123 L12.9252,6.9943 C10.9522,8.4883 9.1442,10.1993 7.5502,12.1113 L18.7312,20.0403 L18.7212,20.0523 Z" id="Fill-8" fill="#FECC00"></path>
                    <path id="Fill-10" fill="#FECC00"></path>
                    <path d="M13.6347,33.3053 C13.6337,33.2313 13.6357,33.1573 13.6357,33.0833 C13.6357,33.0563 13.6337,33.0293 13.6337,33.0033 C13.6337,32.9623 13.6367,32.9233 13.6367,32.8823 C13.6377,32.6413 13.6447,32.4003 13.6547,32.1583 C13.6577,32.0833 13.6607,32.0093 13.6657,31.9353 C13.6797,31.6753 13.6987,31.4143 13.7247,31.1523 C13.7287,31.1123 13.7317,31.0713 13.7357,31.0313 C13.7367,31.0173 13.7377,31.0033 13.7387,30.9893 C13.7357,31.0183 13.7307,31.0473 13.7277,31.0763 L0.4047,27.8923 C0.4857,27.3893 0.5767,26.8953 0.6767,26.4023 C0.5607,26.9603 0.4537,27.5233 0.3667,28.0933 C-0.0033,30.5313 -0.0843,32.9453 0.0837,35.3063 L13.6337,33.2883 L13.6347,33.3053 Z" id="Fill-12" fill="#FECC00"></path>
                    <path id="Fill-14" fill="#FECC00"></path>
                    <path id="Fill-16" fill="#FECC00"></path>
                    <path d="M15.1108,40.3697 C15.0878,40.3127 15.0678,40.2537 15.0448,40.1967 C14.9368,39.9307 14.8328,39.6627 14.7358,39.3917 C14.7058,39.3067 14.6778,39.2207 14.6488,39.1347 C14.5618,38.8787 14.4798,38.6207 14.4038,38.3597 C14.3898,38.3147 14.3738,38.2707 14.3608,38.2247 C14.3648,38.2417 14.3688,38.2587 14.3728,38.2757 L0.8208,40.2937 C1.3798,42.7307 2.2108,45.0777 3.2908,47.2937 L15.1098,40.3677 L15.1108,40.3697 Z" id="Fill-18" fill="#FECC00"></path>
                    <path id="Fill-20" fill="#FECC00"></path>
                    <path d="M26.6318,14.9532 L24.0478,1.5002 C21.6408,2.1602 19.3328,3.0922 17.1608,4.2642 L24.5698,15.7782 C25.2368,15.4642 25.9258,15.1892 26.6318,14.9532" id="Fill-22" fill="#FECC00"></path>
                    <path id="Fill-24" fill="#FECC00"></path>
                    <path id="Fill-26" fill="#FECC00"></path>
                    <path id="Fill-28" fill="#FECC00"></path>
                    <path id="Fill-30" fill="#FECC00"></path>
                    <path id="Fill-32" fill="#FECC00"></path>
                    <path id="Fill-34" fill="#FECC00"></path>
                    <path d="M32.6655,13.9713 C33.0465,13.9713 33.4235,13.9853 33.7985,14.0073 L36.4235,0.5703 C33.9085,0.2773 31.4225,0.2803 29.0025,0.5523 L31.5815,14.0043 C31.9405,13.9843 32.3015,13.9713 32.6655,13.9713" id="Fill-36" fill="#FECC00"></path>
                    <path id="Fill-38" fill="#FECC00"></path>
                    <path d="M14.311,5.9918 C14.754,5.6918 15.204,5.3988 15.665,5.1188 C15.206,5.3988 14.754,5.6908 14.311,5.9918" id="Fill-40" fill="#FECC00"></path>
                    <path d="M44.3095,65.6739 L39.0905,52.0379 L32.6585,52.0379 C32.3605,52.0379 32.0625,52.0269 31.7635,52.0119 C31.6935,52.0089 31.6245,52.0039 31.5555,51.9999 C31.3775,51.9889 31.1985,51.9759 31.0195,51.9579 C30.6565,51.9279 30.2955,51.8889 29.9385,51.8369 L26.2015,65.0229 C26.7115,65.1259 27.2255,65.2199 27.7465,65.2989 C29.3985,65.5499 31.0385,65.6559 32.6585,65.6539 L32.6585,65.6739 L44.3095,65.6739 Z" id="Fill-42" fill="#FECC00"></path>
                    <path id="Fill-44" fill="#FECC00"></path>
                    <path d="M25.0957,50.4708 C25.0077,50.4328 24.9237,50.3878 24.8357,50.3488 C24.6277,50.2538 24.4217,50.1588 24.2177,50.0578 C24.1017,49.9998 23.9867,49.9408 23.8717,49.8798 C23.6687,49.7738 23.4677,49.6628 23.2677,49.5498 C23.2007,49.5118 23.1307,49.4778 23.0647,49.4388 C23.0797,49.4488 23.0937,49.4588 23.1097,49.4678 L14.7247,60.3018 C14.2557,59.9938 13.7937,59.6738 13.3427,59.3388 C12.9507,59.0538 12.5677,58.7578 12.1907,58.4518 C14.8997,60.6398 17.9767,62.4148 21.3497,63.6568 L25.0897,50.4688 L25.0957,50.4708 Z" id="Fill-46" fill="#FECC00"></path>
                    <path id="Fill-48" fill="#FECC00"></path>
                    <path d="M19.2007,46.4571 C19.1107,46.3681 19.0287,46.2721 18.9407,46.1801 C18.7917,46.0241 18.6417,45.8681 18.4977,45.7071 C18.4147,45.6141 18.3337,45.5191 18.2527,45.4241 C18.0867,45.2311 17.9247,45.0361 17.7667,44.8371 C17.7337,44.7951 17.6977,44.7571 17.6647,44.7151 L5.8447,51.6391 C7.2577,53.6721 8.8997,55.5451 10.7397,57.2161 L19.1217,46.3841 C19.1457,46.4101 19.1757,46.4311 19.2007,46.4571" id="Fill-50" fill="#FECC00"></path>
                    <path id="Fill-52" fill="#FECC00"></path>
                    <polygon id="Fill-54" fill="#FECC00" points="16.686 43.3409 16.689 43.3459 16.68 43.3319"></polygon>
                    <path id="Fill-56" fill="#FECC00"></path>
                    <path id="Fill-58" fill="#FECC00"></path>
                    <path id="Fill-60" fill="#FECC00"></path>
                    <path id="Fill-62" fill="#FECC00"></path>
                    <path d="M46.6357,20.0836 L57.8277,12.2006 C56.2527,10.2946 54.4647,8.5636 52.4857,7.0496 L45.0357,18.5456 C45.5977,19.0276 46.1337,19.5396 46.6357,20.0836" id="Fill-64" fill="#FECC00"></path>
                    <path d="M51.6172,31.3023 L65.2862,31.3023 C65.0112,25.9113 63.3942,20.7913 60.7332,16.3193 L49.5392,24.2023 C50.6662,26.3603 51.3922,28.7583 51.6172,31.3023" id="Fill-66" fill="#FECC00"></path>
                    <path d="M40.81,15.7999 L48.258,4.3069 C46.108,3.1399 43.804,2.2049 41.37,1.5359 L38.747,14.9699 C39.454,15.2079 40.144,15.4839 40.81,15.7999" id="Fill-68" fill="#FECC00"></path>
                    <path id="Fill-70" fill="#FECC00"></path>
                    <path id="Fill-72" fill="#FECC00"></path>
                    <path d="M47.7241,21.3717 L58.8721,13.5227 L58.8721,13.5227 C58.8721,13.5227 58.8601,13.5067 58.8551,13.4987 C58.6481,13.2217 58.4351,12.9487 58.2201,12.6777 C58.1691,12.6137 58.1171,12.5497 58.0651,12.4857 C57.9871,12.3887 57.9111,12.2917 57.8321,12.1967 L57.8281,12.2007 L46.6361,20.0837 C47.0181,20.4957 47.3801,20.9267 47.7241,21.3717" id="Fill-74" fill="#00395D"></path>
                    <path d="M47.7241,21.3717 C48.0661,21.8137 48.3891,22.2727 48.6921,22.7447 L59.8351,14.8967 L59.8411,14.8917 C59.8011,14.8307 59.7561,14.7727 59.7141,14.7127 C59.4631,14.3417 59.2051,13.9757 58.9391,13.6167 C58.9161,13.5847 58.8951,13.5527 58.8721,13.5227 L58.8721,13.5227 L47.7241,21.3717 Z" id="Fill-76" fill="#FEFEFE"></path>
                    <path d="M48.6919,22.7447 C48.9949,23.2177 49.2779,23.7027 49.5389,24.2027 L60.7329,16.3197 L60.7389,16.3167 C60.6839,16.2247 60.6239,16.1377 60.5689,16.0467 C60.3879,15.7497 60.2029,15.4557 60.0129,15.1637 C59.9549,15.0747 59.9009,14.9807 59.8409,14.8917 L59.8349,14.8967 L48.6919,22.7447 Z" id="Fill-78" fill="#00395D"></path>
                    <path d="M42.2978,16.5904 L49.7168,5.1444 L49.7188,5.1434 C49.7048,5.1354 49.6918,5.1284 49.6778,5.1194 C49.3398,4.9124 48.9958,4.7134 48.6488,4.5194 C48.5788,4.4804 48.5078,4.4404 48.4378,4.4024 C48.3778,4.3694 48.3188,4.3354 48.2598,4.3024 L48.2578,4.3064 L40.8098,15.8004 C41.3188,16.0414 41.8148,16.3064 42.2978,16.5904" id="Fill-80" fill="#00395D"></path>
                    <path d="M42.2978,16.5904 C42.7808,16.8754 43.2508,17.1814 43.7058,17.5054 L51.1218,6.0604 L51.1248,6.0554 C51.0808,6.0244 51.0338,5.9974 50.9888,5.9674 C50.6328,5.7254 50.2718,5.4914 49.9058,5.2644 C49.8418,5.2254 49.7818,5.1814 49.7188,5.1434 L49.7168,5.1444 L42.2978,16.5904 Z" id="Fill-82" fill="#FEFEFE"></path>
                    <path d="M43.7055,17.5055 C44.1645,17.8335 44.6075,18.1795 45.0355,18.5465 L52.4855,7.0495 L52.4895,7.0435 C52.4135,6.9865 52.3345,6.9345 52.2585,6.8765 C51.9675,6.6585 51.6715,6.4445 51.3725,6.2345 C51.2885,6.1765 51.2095,6.1135 51.1245,6.0555 L51.1225,6.0605 L43.7055,17.5055 Z" id="Fill-84" fill="#00395D"></path>
                    <path d="M35.4775,14.1798 L38.0915,0.8058 L38.0915,0.8048 C37.9155,0.7758 37.7475,0.7408 37.5735,0.7158 C37.1895,0.6558 36.8065,0.6138 36.4235,0.5678 L36.4235,0.5698 L33.7985,14.0078 C34.3655,14.0408 34.9255,14.0978 35.4775,14.1798" id="Fill-86" fill="#00395D"></path>
                    <path d="M35.4775,14.1798 C36.0365,14.2628 36.5855,14.3718 37.1275,14.5028 L39.7385,1.1268 L39.7385,1.1258 C39.7285,1.1238 39.7195,1.1218 39.7095,1.1198 C39.1835,1.0048 38.6505,0.9018 38.1165,0.8098 C38.1165,0.8098 38.0995,0.8058 38.0915,0.8048 L38.0915,0.8058 L35.4775,14.1798 Z" id="Fill-88" fill="#FEFEFE"></path>
                    <path d="M37.1279,14.5025 C37.6779,14.6345 38.2169,14.7915 38.7479,14.9695 L41.3699,1.5365 L41.3709,1.5315 C41.3169,1.5175 41.2629,1.5035 41.2089,1.4895 C41.1229,1.4655 41.0359,1.4435 40.9499,1.4215 C40.5569,1.3185 40.1639,1.2215 39.7659,1.1325 C39.7559,1.1305 39.7479,1.1275 39.7479,1.1275 L39.7389,1.1265 L37.1279,14.5025 Z" id="Fill-90" fill="#00395D"></path>
                    <path d="M28.2544,14.4908 L25.6834,1.0978 C25.6624,1.1018 25.6424,1.1068 25.6224,1.1118 C25.4214,1.1558 25.2214,1.2028 25.0214,1.2508 C24.9684,1.2638 24.9154,1.2758 24.8614,1.2888 C24.6004,1.3538 24.3384,1.4218 24.0774,1.4918 C24.0674,1.4938 24.0584,1.4958 24.0474,1.4988 L24.0474,1.4998 L26.6314,14.9528 C27.1634,14.7758 27.7034,14.6218 28.2544,14.4908" id="Fill-92" fill="#00395D"></path>
                    <path d="M28.2544,14.4908 C28.7954,14.3628 29.3454,14.2548 29.9034,14.1738 L27.3344,0.7798 C27.2844,0.7888 27.2334,0.7988 27.1844,0.8068 C27.0674,0.8268 26.9514,0.8478 26.8354,0.8688 C26.6794,0.8968 26.5224,0.9258 26.3664,0.9558 C26.2474,0.9798 26.1274,1.0048 26.0084,1.0308 C25.8994,1.0528 25.7914,1.0728 25.6834,1.0978 L28.2544,14.4908 Z" id="Fill-94" fill="#FEFEFE"></path>
                    <path d="M29.9033,14.1734 C30.4553,14.0934 31.0153,14.0354 31.5813,14.0044 L29.0023,0.5514 L29.0013,0.5484 C28.8893,0.5604 28.7793,0.5764 28.6683,0.5894 C28.6093,0.5964 28.5503,0.6044 28.4923,0.6114 C28.3013,0.6364 28.1113,0.6624 27.9213,0.6904 C27.8203,0.7054 27.7213,0.7204 27.6213,0.7364 C27.5263,0.7514 27.4293,0.7644 27.3343,0.7804 L29.9033,14.1734 Z" id="Fill-96" fill="#00395D"></path>
                    <path d="M21.6679,17.4752 L14.2889,6.0082 L14.2879,6.0072 C14.2689,6.0202 14.2499,6.0352 14.2309,6.0482 C13.9689,6.2272 13.7099,6.4122 13.4529,6.5992 C13.3359,6.6842 13.2209,6.7702 13.1049,6.8562 C13.0449,6.9022 12.9829,6.9462 12.9229,6.9912 L12.9249,6.9942 L20.3339,18.5122 C20.7629,18.1462 21.2089,17.8012 21.6679,17.4752" id="Fill-98" fill="#00395D"></path>
                    <path d="M21.6679,17.4752 C22.1249,17.1512 22.5949,16.8472 23.0799,16.5632 L15.7009,5.0962 L15.7009,5.0952 C15.6879,5.1032 15.6769,5.1122 15.6649,5.1192 C15.2039,5.3992 14.7549,5.6922 14.3109,5.9922 C14.3029,5.9972 14.2959,6.0012 14.2879,6.0072 L14.2889,6.0082 L21.6679,17.4752 Z" id="Fill-100" fill="#FEFEFE"></path>
                    <path d="M23.08,16.5636 C23.563,16.2816 24.06,16.0176 24.57,15.7776 L17.161,4.2646 L17.158,4.2586 C17.037,4.3246 16.917,4.3936 16.797,4.4596 C16.737,4.4936 16.676,4.5266 16.616,4.5606 C16.311,4.7336 16.008,4.9096 15.709,5.0906 L15.701,5.0956 L15.701,5.0966 L23.08,16.5636 Z" id="Fill-102" fill="#00395D"></path>
                    <path d="M15.8149,24.1549 L15.8289,24.1309 C15.9379,23.9239 16.0519,23.7209 16.1689,23.5189 C16.1959,23.4689 16.2239,23.4199 16.2529,23.3709 C16.3609,23.1869 16.4729,23.0059 16.5859,22.8269 C16.6099,22.7889 16.6319,22.7509 16.6559,22.7139 L16.6649,22.6969 L5.5369,14.8039 C5.3019,15.1519 5.0769,15.5069 4.8569,15.8659 C4.8029,15.9539 4.7479,16.0419 4.6939,16.1309 C4.6749,16.1629 4.6549,16.1949 4.6359,16.2259 L4.6379,16.2289 L15.8149,24.1539 L15.8149,24.1549 Z" id="Fill-104" fill="#00395D"></path>
                    <path d="M16.6645,22.6969 L16.6775,22.6789 C16.6945,22.6519 16.7145,22.6259 16.7315,22.5989 C16.8475,22.4229 16.9645,22.2509 17.0855,22.0789 C17.1245,22.0229 17.1655,21.9659 17.2055,21.9099 C17.3335,21.7319 17.4645,21.5549 17.5985,21.3809 C17.6125,21.3639 17.6245,21.3449 17.6395,21.3279 L17.6375,21.3269 L6.5085,13.4329 C6.1965,13.8489 5.8965,14.2739 5.6055,14.7039 C5.5935,14.7219 5.5815,14.7399 5.5685,14.7569 C5.5585,14.7729 5.5475,14.7879 5.5365,14.8039 L16.6645,22.6969 Z" id="Fill-106" fill="#FEFEFE"></path>
                    <path d="M17.6372,21.3267 L17.6392,21.3277 C17.6612,21.2987 17.6862,21.2697 17.7092,21.2417 C17.8442,21.0697 17.9812,20.8987 18.1222,20.7317 C18.1782,20.6647 18.2362,20.6017 18.2932,20.5357 C18.4192,20.3907 18.5442,20.2467 18.6742,20.1057 C18.6902,20.0877 18.7052,20.0697 18.7212,20.0527 L18.7272,20.0437 L7.5502,12.1107 L7.5492,12.1097 C7.4912,12.1797 7.4392,12.2537 7.3812,12.3247 C7.0842,12.6877 6.7902,13.0557 6.5082,13.4327 L17.6372,21.3267 Z" id="Fill-108" fill="#00395D"></path>
                    <path d="M13.7275,31.0767 C13.7305,31.0477 13.7355,31.0177 13.7385,30.9887 C13.7705,30.7067 13.8045,30.4257 13.8465,30.1427 C13.8485,30.1327 13.8505,30.1227 13.8515,30.1117 C13.8885,29.8757 13.9325,29.6417 13.9765,29.4087 L0.7085,26.2357 C0.6975,26.2907 0.6875,26.3467 0.6765,26.4027 C0.5775,26.8947 0.4855,27.3897 0.4055,27.8917 L13.7275,31.0767 Z" id="Fill-110" fill="#00395D"></path>
                    <path d="M13.977,29.4083 C14.083,28.8543 14.214,28.3093 14.368,27.7733 L1.099,24.6013 C1.047,24.7953 1,24.9893 0.952,25.1843 C0.894,25.4233 0.837,25.6633 0.784,25.9043 C0.759,26.0153 0.733,26.1253 0.709,26.2363 L13.977,29.4083 Z" id="Fill-112" fill="#FEFEFE"></path>
                    <path d="M14.3676,27.773 C14.4446,27.502 14.5276,27.233 14.6166,26.967 L14.6176,26.963 C14.7036,26.709 14.7916,26.459 14.8856,26.212 C14.8906,26.2 14.8946,26.187 14.8986,26.175 L14.8996,26.173 L14.8996,26.173 L1.5706,22.988 L1.5696,22.993 C1.4596,23.338 1.3556,23.687 1.2566,24.038 C1.2206,24.165 1.1836,24.294 1.1486,24.422 C1.1326,24.483 1.1146,24.542 1.0986,24.602 L14.3676,27.773 Z" id="Fill-114" fill="#00395D"></path>
                    <path d="M14.3608,38.2252 C14.3418,38.1582 14.3258,38.0892 14.3078,38.0222 C14.2668,37.8732 14.2268,37.7232 14.1898,37.5732 C14.1358,37.3562 14.0868,37.1382 14.0388,36.9192 C14.0328,36.8882 14.0248,36.8572 14.0178,36.8262 C14.0068,36.7772 13.9948,36.7282 13.9848,36.6792 C13.9828,36.6642 13.9778,36.6512 13.9748,36.6362 L0.4878,38.6442 L0.4868,38.6442 L0.4908,38.6602 C0.5878,39.2082 0.6968,39.7502 0.8198,40.2882 L0.8208,40.2942 L14.3728,38.2752 C14.3688,38.2582 14.3648,38.2422 14.3608,38.2252" id="Fill-116" fill="#00395D"></path>
                    <path d="M13.9751,36.6358 C13.9691,36.6048 13.9671,36.5708 13.9611,36.5388 C13.9231,36.3378 13.8911,36.1348 13.8591,35.9328 C13.8571,35.9198 13.8541,35.9068 13.8521,35.8938 C13.8081,35.6088 13.7671,35.3228 13.7371,35.0338 C13.7341,35.0138 13.7301,34.9948 13.7271,34.9748 L0.2421,36.9818 C0.2481,37.0368 0.2571,37.0908 0.2641,37.1458 C0.2801,37.2808 0.2991,37.4138 0.3171,37.5488 C0.3681,37.9098 0.4231,38.2698 0.4841,38.6278 L0.4871,38.6438 L0.4881,38.6438 L13.9751,36.6358 Z" id="Fill-118" fill="#FEFEFE"></path>
                    <path d="M13.7275,34.9752 L13.7255,34.9562 C13.6705,34.4122 13.6425,33.8612 13.6345,33.3052 L13.6335,33.2882 L0.0835,35.3062 L0.0795,35.3062 C0.0895,35.4462 0.1025,35.5842 0.1145,35.7232 C0.1255,35.8642 0.1365,36.0052 0.1495,36.1462 C0.1765,36.4262 0.2065,36.7042 0.2415,36.9822 L13.7275,34.9752 Z" id="Fill-120" fill="#00395D"></path>
                    <path d="M17.665,44.7149 L17.664,44.7149 C17.631,44.6719 17.6,44.6269 17.566,44.5839 C17.46,44.4449 17.356,44.3049 17.254,44.1639 C17.191,44.0769 17.13,43.9899 17.068,43.9029 C16.962,43.7509 16.857,43.5979 16.756,43.4429 C16.734,43.4099 16.711,43.3799 16.689,43.3459 L16.686,43.3409 L4.919,50.2339 L4.917,50.2339 C4.934,50.2589 4.952,50.2849 4.968,50.3129 C5.245,50.7509 5.53,51.1819 5.824,51.6109 C5.831,51.6199 5.837,51.6299 5.843,51.6399 L5.844,51.6389 L17.665,44.7149 Z" id="Fill-122" fill="#00395D"></path>
                    <path d="M16.686,43.3409 L16.68,43.3319 C16.648,43.2819 16.619,43.2309 16.587,43.1799 C16.489,43.0259 16.392,42.8709 16.298,42.7139 C16.228,42.5969 16.162,42.4769 16.094,42.3579 C16.025,42.2369 15.956,42.1179 15.891,41.9959 C15.874,41.9659 15.857,41.9379 15.841,41.9079 L15.834,41.8969 L4.068,48.7859 L4.066,48.7859 C4.082,48.8149 4.1,48.8419 4.116,48.8699 C4.363,49.3129 4.62,49.7509 4.888,50.1839 C4.897,50.1989 4.907,50.2179 4.917,50.2339 L4.919,50.2339 L16.686,43.3409 Z" id="Fill-124" fill="#FEFEFE"></path>
                    <path d="M15.8305,41.8907 C15.8225,41.8737 15.8155,41.8567 15.8085,41.8427 C15.7625,41.7547 15.7205,41.6657 15.6765,41.5787 C15.6075,41.4417 15.5375,41.3057 15.4715,41.1687 C15.3665,40.9487 15.2665,40.7247 15.1695,40.4997 C15.1555,40.4677 15.1405,40.4367 15.1265,40.4037 C15.1225,40.3917 15.1165,40.3807 15.1105,40.3697 L15.1105,40.3677 L3.2905,47.2937 L3.2905,47.2937 C3.2955,47.3047 3.3025,47.3147 3.3075,47.3257 C3.5405,47.8037 3.7885,48.2797 4.0465,48.7467 C4.0545,48.7597 4.0595,48.7737 4.0665,48.7857 L4.0675,48.7857 L15.8305,41.8907 Z" id="Fill-126" fill="#00395D"></path>
                    <path d="M21.6909,48.5577 L13.3429,59.3387 C13.7939,59.6737 14.2549,59.9937 14.7249,60.3017 L23.1089,49.4677 C23.0939,49.4587 23.0799,49.4487 23.0649,49.4387 C23.0119,49.4087 22.9619,49.3757 22.9109,49.3447 C22.8199,49.2897 22.7309,49.2357 22.6409,49.1797 C22.4749,49.0767 22.3099,48.9707 22.1469,48.8637 C22.0739,48.8147 22.0019,48.7657 21.9289,48.7157 C21.8599,48.6687 21.7899,48.6247 21.7219,48.5777 C21.7109,48.5707 21.7009,48.5657 21.6909,48.5577" id="Fill-128" fill="#00395D"></path>
                    <path d="M21.6909,48.5577 C21.6739,48.5467 21.6609,48.5337 21.6439,48.5227 C21.5419,48.4497 21.4429,48.3737 21.3429,48.2997 C21.3069,48.2727 21.2709,48.2467 21.2349,48.2197 C21.0069,48.0487 20.7829,47.8727 20.5629,47.6917 L20.5579,47.6877 C20.5019,47.6407 20.4419,47.5967 20.3859,47.5487 C20.3779,47.5417 20.3689,47.5367 20.3689,47.5367 L12.0139,58.3117 C12.0719,58.3597 12.1319,58.4057 12.1899,58.4527 C12.5679,58.7577 12.9509,59.0537 13.3429,59.3387 L21.6909,48.5577 Z" id="Fill-130" fill="#FEFEFE"></path>
                    <path d="M20.3613,47.5304 C20.3423,47.5134 20.3243,47.4954 20.3043,47.4774 C20.1613,47.3544 20.0223,47.2284 19.8813,47.1014 L19.8643,47.0864 C19.6383,46.8814 19.4163,46.6734 19.2003,46.4574 C19.1753,46.4304 19.1463,46.4094 19.1223,46.3844 L10.7393,57.2164 L10.7383,57.2174 C10.9773,57.4324 11.2203,57.6444 11.4663,57.8534 C11.6133,57.9774 11.7613,58.1024 11.9103,58.2254 C11.9453,58.2544 11.9793,58.2834 12.0143,58.3114 L20.3613,47.5304 Z" id="Fill-132" fill="#00395D"></path>
                    <path d="M29.165,51.7071 C29.132,51.7011 29.099,51.6961 29.065,51.6891 C28.818,51.6431 28.573,51.5891 28.329,51.5311 C28.313,51.5291 28.298,51.5261 28.283,51.5231 L24.56,64.6491 C25.086,64.7861 25.621,64.9051 26.159,65.0171 C26.172,65.0201 26.186,65.0221 26.201,65.0261 L26.201,65.0221 L29.939,51.8371 C29.679,51.8001 29.421,51.7561 29.165,51.7071" id="Fill-134" fill="#00395D"></path>
                    <path d="M28.2832,51.5235 C28.2732,51.5215 28.2642,51.5175 28.2552,51.5145 C27.7372,51.3925 27.2252,51.2485 26.7242,51.0845 C26.7142,51.0815 26.7042,51.0775 26.6942,51.0745 C26.6842,51.0715 26.6752,51.0705 26.6662,51.0675 L22.9462,64.1945 L22.9452,64.1975 C23.0912,64.2425 23.2422,64.2795 23.3902,64.3215 C23.7772,64.4345 24.1642,64.5495 24.5602,64.6495 L28.2832,51.5235 Z" id="Fill-136" fill="#FEFEFE"></path>
                    <path d="M26.666,51.0675 C26.652,51.0605 26.64,51.0555 26.625,51.0495 C26.625,51.0495 26.609,51.0445 26.602,51.0425 C26.377,50.9665 26.154,50.8885 25.934,50.8055 C25.797,50.7535 25.663,50.7005 25.527,50.6455 C25.418,50.6015 25.308,50.5585 25.2,50.5125 C25.166,50.4985 25.13,50.4855 25.096,50.4705 L25.089,50.4685 L21.35,63.6565 L21.35,63.6575 C21.63,63.7605 21.92,63.8505 22.206,63.9465 C22.438,64.0255 22.667,64.1105 22.903,64.1825 C22.917,64.1875 22.931,64.1935 22.945,64.1975 L22.946,64.1945 L26.666,51.0675 Z" id="Fill-138" fill="#00395D"></path>
                    <path d="M96.4459,46.7134 L99.8329,46.7134 C104.3929,46.7134 105.0219,45.1074 105.0219,43.3714 C105.0219,42.4664 105.0219,40.3494 100.1909,40.3494 L96.4459,40.3494 L96.4459,46.7134 Z M96.4459,59.9794 L100.8749,59.9794 C101.8069,59.9794 106.4689,59.8034 106.4689,56.3174 C106.4689,53.7244 104.6149,52.4104 100.9509,52.4104 L96.4459,52.4104 L96.4459,59.9794 Z M100.2729,65.6734 L90.5089,65.6734 L90.5089,34.6574 L100.4739,34.6574 C107.0889,34.6574 111.2019,37.8284 111.2019,42.9294 C111.2019,45.5284 110.1599,47.6714 108.2619,49.1164 C110.8999,50.5114 112.6469,53.2654 112.6469,56.4384 C112.6469,62.3084 108.1349,65.6734 100.2729,65.6734 L100.2729,65.6734 Z" id="Fill-140" fill="#00395D"></path>
                    <polygon id="Fill-142" fill="#00395D" points="53.2194 65.6739 48.2134 65.6739 36.3404 34.6599 42.9054 34.6599 50.8394 55.8419 59.0294 34.6599 65.3614 34.6599"></polygon>
                    <path d="M70.2326,52.9864 L77.6786,52.9864 L73.7626,43.5334 L70.2326,52.9864 Z M88.2916,65.6744 L82.9986,65.6744 L80.0046,58.6814 L68.0636,58.6814 L65.4836,65.6744 L59.1926,65.6744 L71.4046,34.6574 L76.2586,34.6574 L89.4466,65.6744 L88.2916,65.6744 Z" id="Fill-144" fill="#00395D"></path>
                    <path id="Fill-146" fill="#FECC00"></path>
                    <path id="Fill-148" fill="#FECC00"></path>
                    <path id="Fill-150" fill="#FECC00"></path>
                    <path id="Fill-152" fill="#FECC00"></path>
                    <path id="Fill-154" fill="#FECC00"></path>
                    <path id="Fill-156" fill="#FECC00"></path>
                    <path id="Fill-158" fill="#FECC00"></path>
                    <path d="M4.8877,50.1837 C4.6197,49.7507 4.3637,49.3127 4.1157,48.8697 C4.3637,49.3137 4.6197,49.7517 4.8877,50.1837" id="Fill-160" fill="#FECC00"></path>
                </g>
                <polygon id="Fill-164" fill="#FECC00" points="22.6885 75.3386 5.8755 75.3386 5.8755 72.0866 21.6885 72.0866"></polygon>
                <path d="M30.686,71.7773769 L30.686,70.1148769 L24.929,70.1148769 L24.929,71.7773769 L26.848,71.7773769 L26.848,76.5748769 L28.767,76.5748769 L28.767,71.7773769 L30.686,71.7773769 Z M35.293,76.5748769 L37.4685,76.5748769 L36.0815,74.3423769 C36.6895,73.9053769 37.022,73.2403769 37.022,72.4613769 C37.022,70.9793769 35.9485,70.1148769 34.2005,70.1148769 L31.2745,70.1148769 L31.2745,76.5748769 L33.184,76.5748769 L33.184,74.8743769 L34.2005,74.8743769 L34.2765,74.8743769 L35.293,76.5748769 Z M33.184,73.1833769 L33.184,71.7393769 L34.1815,71.7393769 C34.704,71.7393769 35.0935,72.0148769 35.0935,72.4423769 C35.0935,72.8888769 34.704,73.1833769 34.1815,73.1833769 L33.184,73.1833769 Z M42.4935,75.6533769 L42.8355,76.5748769 L44.8685,76.5748769 L42.1895,70.0768769 L40.318,70.0768769 L37.639,76.5748769 L39.6815,76.5748769 L40.014,75.6533769 L42.4935,75.6533769 Z M41.9235,74.0953769 L40.584,74.0953769 L41.249,72.2618769 L41.9235,74.0953769 Z M47.3,70.1148769 L45.3905,70.1148769 L45.3905,76.5748769 L47.3,76.5748769 L47.3,70.1148769 Z M54.339,70.1148769 L52.42,70.1148769 L52.42,73.2213769 L49.7315,70.1148769 L48.24,70.1148769 L48.24,76.5748769 L50.1495,76.5748769 L50.1495,73.5253769 L52.8475,76.5748769 L54.339,76.5748769 L54.339,70.1148769 Z M57.1885,70.1148769 L55.279,70.1148769 L55.279,76.5748769 L57.1885,76.5748769 L57.1885,70.1148769 Z M64.2275,70.1148769 L62.3085,70.1148769 L62.3085,73.2213769 L59.62,70.1148769 L58.1285,70.1148769 L58.1285,76.5748769 L60.038,76.5748769 L60.038,73.5253769 L62.736,76.5748769 L64.2275,76.5748769 L64.2275,70.1148769 Z M71.8935,72.8983769 L68.331,72.8983769 L68.331,74.2473769 L70.1075,74.2663769 C69.737,74.7508769 69.2145,74.9693769 68.6635,74.9693769 C67.628,74.9693769 66.963,74.2663769 66.963,73.3163769 C66.963,72.3948769 67.5805,71.6823769 68.559,71.6823769 C69.1385,71.6823769 69.623,71.9008769 69.8415,72.4708769 L71.827,72.4708769 C71.675,71.0078769 70.307,69.9723769 68.521,69.9723769 C66.469,69.9723769 65.0155,71.4068769 65.0155,73.3733769 C65.0155,75.3113769 66.45,76.7173769 68.54,76.7173769 C69.319,76.7173769 69.965,76.4513769 70.459,75.9763769 L70.5065,76.5748769 L71.8935,76.5748769 L71.8935,72.8983769 Z M79.977,76.5748769 L82.3045,76.5748769 L80.8225,75.1023769 L82.0765,72.9648769 L80.224,72.9648769 L79.6445,73.9338769 L78.533,72.8318769 C78.1245,72.4328769 77.8965,72.2333769 77.8965,71.9483769 C77.8965,71.6633769 78.1055,71.4923769 78.3715,71.4923769 C78.685,71.4923769 78.9035,71.7298769 78.9225,72.1098769 L80.566,72.1098769 C80.49,70.7988769 79.6635,69.9723769 78.267,69.9723769 C76.785,69.9723769 75.9965,70.8938769 75.9965,71.8818769 C75.9965,72.2618769 76.1105,72.6133769 76.3575,72.9933769 C75.7495,73.3258769 75.2745,73.8578769 75.2745,74.6843769 C75.2745,75.9098769 76.2625,76.7173769 77.773,76.7173769 C78.5235,76.7173769 79.1505,76.5748769 79.6635,76.2803769 L79.977,76.5748769 Z M77.849,75.2448769 C77.3645,75.2448769 77.013,74.9598769 77.013,74.5798769 C77.013,74.3708769 77.127,74.1998769 77.2885,74.0763769 C77.431,74.2188769 77.5925,74.3613769 77.754,74.5133769 L78.4285,75.1403769 C78.229,75.2163769 78.0295,75.2448769 77.849,75.2448769 L77.849,75.2448769 Z M88.0415,74.9408769 C87.1105,74.9408769 86.531,74.2283769 86.531,73.3448769 C86.531,72.4613769 87.1105,71.7488769 88.0415,71.7488769 C88.811,71.7488769 89.2955,72.2238769 89.419,72.8983769 L91.3855,72.8983769 C91.2715,71.1788769 89.951,69.9723769 88.07,69.9723769 C86.0275,69.9723769 84.5835,71.4068769 84.5835,73.3448769 C84.5835,75.2828769 86.0275,76.7173769 88.07,76.7173769 C89.951,76.7173769 91.2715,75.5108769 91.3855,73.7913769 L89.419,73.7913769 C89.2955,74.4658769 88.811,74.9408769 88.0415,74.9408769 L88.0415,74.9408769 Z M95.508,69.9723769 C93.4655,69.9723769 92.0215,71.4353769 92.0215,73.3448769 C92.0215,75.2543769 93.4655,76.7173769 95.508,76.7173769 C97.5505,76.7173769 98.9945,75.2543769 98.9945,73.3448769 C98.9945,71.4353769 97.5505,69.9723769 95.508,69.9723769 L95.508,69.9723769 Z M95.508,74.9218769 C94.6055,74.9218769 93.969,74.1903769 93.969,73.3448769 C93.969,72.4993769 94.6055,71.7678769 95.508,71.7678769 C96.4105,71.7678769 97.047,72.4993769 97.047,73.3448769 C97.047,74.1903769 96.4105,74.9218769 95.508,74.9218769 L95.508,74.9218769 Z M105.8815,70.1148769 L103.9625,70.1148769 L103.9625,73.2213769 L101.274,70.1148769 L99.7825,70.1148769 L99.7825,76.5748769 L101.692,76.5748769 L101.692,73.5253769 L104.39,76.5748769 L105.8815,76.5748769 L105.8815,70.1148769 Z M109.5575,69.9723769 C107.99,69.9723769 106.8975,70.7703769 106.8975,72.1383769 C106.8975,73.1738769 107.515,73.6963769 108.788,73.9908769 L109.871,74.2473769 C110.2985,74.3423769 110.3745,74.5228769 110.3745,74.7033769 C110.3745,74.9693769 110.118,75.1498769 109.681,75.1498769 C109.0635,75.1498769 108.6835,74.8458769 108.5885,74.3708769 L106.6315,74.3708769 C106.831,76.1758769 108.351,76.7173769 109.6525,76.7173769 C111.3815,76.7173769 112.4835,75.9003769 112.4835,74.5608769 C112.4835,73.4018769 111.6855,72.9078769 110.593,72.6418769 L109.529,72.3853769 C109.13,72.2903769 108.94,72.1763769 108.94,71.8913769 C108.94,71.5968769 109.2155,71.4163769 109.6335,71.4163769 C110.194,71.4163769 110.4125,71.7868769 110.498,72.1668769 L112.4265,72.1668769 C112.2555,70.3333769 110.574,69.9723769 109.5575,69.9723769 L109.5575,69.9723769 Z M119.437,70.1148769 L117.499,70.1148769 L117.499,73.5158769 C117.499,74.3993769 117.0525,74.9313769 116.321,74.9313769 C115.5895,74.9313769 115.143,74.3993769 115.143,73.5158769 L115.143,70.1148769 L113.205,70.1148769 L113.205,73.4493769 C113.205,75.5678769 114.364,76.7173769 116.321,76.7173769 C118.278,76.7173769 119.437,75.5678769 119.437,73.4493769 L119.437,70.1148769 Z M125.26,74.9218769 L122.1915,74.9218769 L122.1915,70.1148769 L120.282,70.1148769 L120.282,76.5748769 L125.26,76.5748769 L125.26,74.9218769 Z M128.93505,71.7773769 L128.93505,70.1148769 L123.17805,70.1148769 L123.17805,71.7773769 L125.09705,71.7773769 L125.09705,76.5748769 L127.01605,76.5748769 L127.01605,71.7773769 L128.93505,71.7773769 Z" id="TRAINING-&amp;-CONSULT" fill="#00395D"></path>
            </g>
        </g>
    </g>
</svg>