<?xml version="1.0" encoding="utf-8"?>
<!-- Generator: Adobe Illustrator 18.1.0, SVG Export Plug-In . SVG Version: 6.00 Build 0)  -->
<svg version="1.1" xmlns="http://www.w3.org/2000/svg" xmlns:xlink="http://www.w3.org/1999/xlink" x="0px" y="0px"
	 viewBox="0 0 141.2 84.7" enable-background="new 0 0 141.2 84.7" xml:space="preserve">
<g id="VAB">
	<g>
	</g>
	<g>
	</g>
	<g>
	</g>
	<g>
	</g>
	<path fill="#FFFFFF" d="M140.3,70.7l-12.1-32.1c-1-2.6-3.4-4.3-6.2-4.3H70.5C69.6,15.9,54.4,1.3,35.9,1.3C16.7,1.3,1.2,16.8,1.2,36
		c0,18.5,14.5,33.6,32.8,34.6v0h0.6c0.4,0,0.8,0,1.3,0S140.3,70.7,140.3,70.7z"/>
	<g>
		<path fill="#FFCC00" d="M131.9,55h-13.3c0.6,1.4,0.9,2.9,0.9,4.4c0,3.3-1.3,6.8-4.3,9.2h22L131.9,55z"/>
	</g>
	<g>
		<g>
			<path fill="#FFCC00" d="M7.9,19.1C8,19,8,18.9,8.1,18.8C8,18.9,8,19,7.9,19.1z"/>
		</g>
		<g>
			<path fill="#FFCC00" d="M18.1,29.1c0.1-0.3,0.2-0.6,0.4-0.9c0-0.1,0-0.1,0.1-0.2c0.1-0.3,0.3-0.6,0.4-0.8c0,0,0-0.1,0-0.1
				L7.8,19.2c-1.3,2.1-2.3,4.4-3.1,6.8L18.1,29.1C18.1,29.1,18.1,29.1,18.1,29.1z"/>
		</g>
		<g>
			<path fill="#FFCC00" d="M8.8,17.7C8.8,17.7,8.8,17.7,8.8,17.7C8.8,17.7,8.8,17.7,8.8,17.7z"/>
		</g>
		<g>
			<path fill="#FFCC00" d="M16.3,9.8c0.1-0.1,0.2-0.2,0.3-0.3C16.5,9.6,16.4,9.7,16.3,9.8z"/>
		</g>
		<g>
			<path fill="#FFCC00" d="M21.9,23c0,0,0.1-0.1,0.1-0.1c0.2-0.2,0.4-0.4,0.6-0.6c0,0,0.1-0.1,0.1-0.1c0.3-0.2,0.5-0.5,0.8-0.7
				L16.1,10c-2,1.5-3.8,3.2-5.4,5.1L21.9,23L21.9,23z"/>
		</g>
		<g>
			<path fill="#FFCC00" d="M19.9,25.7L19.9,25.7C19.9,25.7,19.9,25.7,19.9,25.7C19.9,25.6,19.9,25.7,19.9,25.7z"/>
		</g>
		<g>
			<path fill="#FFCC00" d="M16.8,36.3c0-0.1,0-0.1,0-0.2c0,0,0-0.1,0-0.1c0,0,0-0.1,0-0.1c0-0.2,0-0.5,0-0.7c0-0.1,0-0.1,0-0.2
				c0-0.3,0-0.5,0.1-0.8c0,0,0-0.1,0-0.1c0,0,0,0,0,0c0,0,0,0.1,0,0.1L3.6,30.9c0.1-0.5,0.2-1,0.3-1.5c-0.1,0.6-0.2,1.1-0.3,1.7
				c-0.4,2.4-0.5,4.9-0.3,7.2L16.8,36.3L16.8,36.3z"/>
		</g>
		<g>
			<path fill="#FFCC00" d="M4,28.9c0.1-0.2,0.1-0.5,0.2-0.7C4.1,28.4,4,28.6,4,28.9z"/>
		</g>
		<g>
			<path fill="#FFCC00" d="M3.4,39.1c0-0.1,0-0.3,0-0.4C3.3,38.8,3.3,39,3.4,39.1z"/>
		</g>
		<g>
			<path fill="#FFCC00" d="M4.4,27.4c0-0.1,0.1-0.3,0.1-0.4C4.4,27.1,4.4,27.3,4.4,27.4z"/>
		</g>
		<g>
			<path fill="#FFCC00" d="M3.5,40.5c0-0.1,0-0.3-0.1-0.4C3.5,40.2,3.5,40.4,3.5,40.5z"/>
		</g>
		<g>
			<path fill="#FFCC00" d="M17.2,39.6C17.2,39.6,17.2,39.6,17.2,39.6C17.2,39.6,17.2,39.5,17.2,39.6C17.2,39.5,17.2,39.6,17.2,39.6z
				"/>
		</g>
		<g>
			<path fill="#FFCC00" d="M16.9,37.9C16.9,38,16.9,38,16.9,37.9C16.9,38,16.9,37.9,16.9,37.9L16.9,37.9z"/>
		</g>
		<g>
			<path fill="#FFCC00" d="M18.3,43.3c0-0.1,0-0.1-0.1-0.2c-0.1-0.3-0.2-0.5-0.3-0.8c0-0.1-0.1-0.2-0.1-0.3
				c-0.1-0.3-0.2-0.5-0.2-0.8c0,0,0-0.1,0-0.1c0,0,0,0,0,0.1L4,43.3c0.6,2.4,1.4,4.8,2.5,7L18.3,43.3L18.3,43.3z"/>
		</g>
		<g>
			<path fill="#FFCC00" d="M19.8,7.5c0.1,0,0.1-0.1,0.2-0.1C19.9,7.5,19.9,7.5,19.8,7.5z"/>
		</g>
		<g>
			<path fill="#FFCC00" d="M29.8,17.9L27.3,4.5c-2.4,0.7-4.7,1.6-6.9,2.8l7.4,11.5C28.4,18.4,29.1,18.2,29.8,17.9z"/>
		</g>
		<g>
			<path fill="#FFCC00" d="M30,3.8c0.1,0,0.2,0,0.3-0.1C30.3,3.8,30.2,3.8,30,3.8z"/>
		</g>
		<g>
			<path fill="#FFCC00" d="M30.8,3.7c0.1,0,0.2,0,0.3,0C31,3.7,30.9,3.7,30.8,3.7z"/>
		</g>
		<g>
			<path fill="#FFCC00" d="M29.2,4c0.1,0,0.2-0.1,0.4-0.1C29.5,3.9,29.3,4,29.2,4z"/>
		</g>
		<g>
			<path fill="#FFCC00" d="M27.3,4.5c0.3-0.1,0.5-0.1,0.8-0.2C27.8,4.3,27.5,4.4,27.3,4.5z"/>
		</g>
		<g>
			<path fill="#FFCC00" d="M31.7,3.6c0.1,0,0.1,0,0.2,0C31.8,3.6,31.8,3.6,31.7,3.6z"/>
		</g>
		<g>
			<path fill="#FFCC00" d="M28.2,4.2c0.2,0,0.4-0.1,0.6-0.1C28.6,4.1,28.4,4.2,28.2,4.2z"/>
		</g>
		<g>
			<path fill="#FFCC00" d="M35.9,16.9c0.4,0,0.8,0,1.1,0l2.6-13.4c-2.5-0.3-5-0.3-7.4,0L34.8,17C35.2,16.9,35.5,16.9,35.9,16.9z"/>
		</g>
		<g>
			<path fill="#FFCC00" d="M41.3,3.8c0.5,0.1,1.1,0.2,1.6,0.3C42.4,4,41.9,3.9,41.3,3.8z"/>
		</g>
		<g>
			<path fill="#FFCC00" d="M4,43.3c-0.1-0.5-0.2-1.1-0.3-1.6C3.8,42.2,3.9,42.7,4,43.3z"/>
		</g>
		<g>
			<path fill="#FFCC00" d="M17.5,9c0.4-0.3,0.9-0.6,1.4-0.9C18.4,8.4,18,8.7,17.5,9z"/>
		</g>
		<g>
			<path fill="#FFCC00" d="M8.1,53.1c-0.3-0.4-0.5-0.9-0.8-1.3C7.6,52.3,7.8,52.7,8.1,53.1z"/>
		</g>
		<g>
			<path fill="#FFCC00" d="M47.5,68.6L42.3,55h-6.4c-0.3,0-0.6,0-0.9,0c-0.1,0-0.1,0-0.2,0c-0.2,0-0.4,0-0.5,0
				c-0.4,0-0.7-0.1-1.1-0.1L29.4,68c0.5,0.1,1,0.2,1.5,0.3c1.7,0.3,3.3,0.4,4.9,0.4v0H47.5z"/>
		</g>
		<g>
			<path fill="#FFCC00" d="M19,44.9L19,44.9C19,44.9,19,44.8,19,44.9C19,44.8,19,44.8,19,44.9z"/>
		</g>
		<g>
			<path fill="#FFCC00" d="M28.3,53.4c-0.1,0-0.2-0.1-0.3-0.1c-0.2-0.1-0.4-0.2-0.6-0.3c-0.1-0.1-0.2-0.1-0.3-0.2
				c-0.2-0.1-0.4-0.2-0.6-0.3c-0.1,0-0.1-0.1-0.2-0.1c0,0,0,0,0,0l-8.4,10.8c-0.5-0.3-0.9-0.6-1.4-1c-0.4-0.3-0.8-0.6-1.2-0.9
				c2.7,2.2,5.8,4,9.2,5.2L28.3,53.4L28.3,53.4z"/>
		</g>
		<g>
			<path fill="#FFCC00" d="M15.1,61.2c-0.1-0.1-0.3-0.2-0.4-0.4C14.8,60.9,15,61.1,15.1,61.2z"/>
		</g>
		<g>
			<path fill="#FFCC00" d="M22.4,49.4c-0.1-0.1-0.2-0.2-0.3-0.3c-0.1-0.2-0.3-0.3-0.4-0.5c-0.1-0.1-0.2-0.2-0.2-0.3
				c-0.2-0.2-0.3-0.4-0.5-0.6c0,0-0.1-0.1-0.1-0.1L9.1,54.6c1.4,2,3.1,3.9,4.9,5.6L22.4,49.4C22.4,49.4,22.4,49.4,22.4,49.4z"/>
		</g>
		<g>
			<path fill="#FFCC00" d="M31.5,54.5C31.5,54.5,31.5,54.5,31.5,54.5C31.5,54.5,31.5,54.5,31.5,54.5C31.5,54.5,31.5,54.5,31.5,54.5z
				"/>
		</g>
		<g>
			<polygon fill="#FFCC00" points="19.9,46.3 19.9,46.3 19.9,46.3 			"/>
		</g>
		<g>
			<path fill="#FFCC00" d="M23.6,50.5C23.6,50.5,23.6,50.5,23.6,50.5C23.6,50.5,23.5,50.5,23.6,50.5C23.5,50.5,23.6,50.5,23.6,50.5z
				"/>
		</g>
		<g>
			<path fill="#FFCC00" d="M24.9,51.5C24.9,51.5,24.9,51.5,24.9,51.5C24.9,51.5,24.9,51.5,24.9,51.5C24.9,51.5,24.9,51.5,24.9,51.5z
				"/>
		</g>
		<g>
			<path fill="#FFCC00" d="M29.9,54C29.9,54,29.9,54,29.9,54C29.9,54,29.9,54,29.9,54C29.8,54,29.9,54,29.9,54z"/>
		</g>
		<g>
			<path fill="#FFCC00" d="M61.3,15.4c0.1,0.1,0.1,0.1,0.2,0.2C61.4,15.6,61.3,15.5,61.3,15.4z"/>
		</g>
		<g>
			<path fill="#FFCC00" d="M49.8,23L61,15.2c-1.6-1.9-3.4-3.6-5.3-5.2l-7.5,11.5C48.8,22,49.3,22.5,49.8,23z"/>
		</g>
		<g>
			<path fill="#FFCC00" d="M54.8,34.3h13.7c-0.3-5.4-1.9-10.5-4.6-15l-11.2,7.9C53.9,29.3,54.6,31.7,54.8,34.3z"/>
		</g>
		<g>
			<path fill="#FFCC00" d="M44,18.8l7.4-11.5c-2.1-1.2-4.5-2.1-6.9-2.8L42,17.9C42.7,18.2,43.4,18.4,44,18.8z"/>
		</g>
		<g>
			<path fill="#FFCC00" d="M44.2,4.4c0.1,0,0.2,0,0.3,0.1C44.3,4.4,44.2,4.4,44.2,4.4z"/>
		</g>
		<g>
			<path fill="#FFCC00" d="M51.6,7.4c0.1,0,0.1,0.1,0.2,0.1C51.8,7.4,51.7,7.4,51.6,7.4z"/>
		</g>
		<g>
			<path fill="#003A5D" d="M50.9,24.3l11.1-7.8l0,0c0,0,0,0,0,0c-0.2-0.3-0.4-0.6-0.6-0.8c-0.1-0.1-0.1-0.1-0.2-0.2
				c-0.1-0.1-0.2-0.2-0.2-0.3l0,0L49.8,23C50.2,23.5,50.6,23.9,50.9,24.3z"/>
		</g>
		<g>
			<path fill="#FFFFFF" d="M50.9,24.3c0.3,0.4,0.7,0.9,1,1.4L63,17.9l0,0c0-0.1-0.1-0.1-0.1-0.2c-0.3-0.4-0.5-0.7-0.8-1.1
				c0,0,0-0.1-0.1-0.1l0,0L50.9,24.3z"/>
		</g>
		<g>
			<path fill="#003A5D" d="M51.9,25.7c0.3,0.5,0.6,1,0.8,1.5l11.2-7.9l0,0c-0.1-0.1-0.1-0.2-0.2-0.3c-0.2-0.3-0.4-0.6-0.6-0.9
				c-0.1-0.1-0.1-0.2-0.2-0.3l0,0L51.9,25.7z"/>
		</g>
		<g>
			<path fill="#003A5D" d="M45.5,19.6l7.4-11.4l0,0c0,0,0,0,0,0c-0.3-0.2-0.7-0.4-1-0.6c-0.1,0-0.1-0.1-0.2-0.1
				c-0.1,0-0.1-0.1-0.2-0.1l0,0L44,18.8C44.5,19,45,19.3,45.5,19.6z"/>
		</g>
		<g>
			<path fill="#FFFFFF" d="M45.5,19.6c0.5,0.3,1,0.6,1.4,0.9L54.3,9l0,0c0,0-0.1-0.1-0.1-0.1c-0.4-0.2-0.7-0.5-1.1-0.7
				c-0.1,0-0.1-0.1-0.2-0.1l0,0L45.5,19.6z"/>
		</g>
		<g>
			<path fill="#003A5D" d="M46.9,20.5c0.5,0.3,0.9,0.7,1.3,1L55.7,10l0,0c-0.1-0.1-0.2-0.1-0.2-0.2c-0.3-0.2-0.6-0.4-0.9-0.6
				c-0.1-0.1-0.2-0.1-0.2-0.2l0,0L46.9,20.5z"/>
		</g>
		<g>
			<path fill="#003A5D" d="M38.7,17.1l2.6-13.4v0c-0.2,0-0.3-0.1-0.5-0.1c-0.4-0.1-0.8-0.1-1.1-0.1v0L37,17
				C37.6,17,38.1,17.1,38.7,17.1z"/>
		</g>
		<g>
			<path fill="#FFFFFF" d="M38.7,17.1c0.6,0.1,1.1,0.2,1.7,0.3l2.6-13.4v0c0,0,0,0,0,0c-0.5-0.1-1.1-0.2-1.6-0.3c0,0,0,0,0,0v0
				L38.7,17.1z"/>
		</g>
		<g>
			<path fill="#003A5D" d="M40.3,17.5c0.5,0.1,1.1,0.3,1.6,0.5l2.6-13.4l0,0c-0.1,0-0.1,0-0.2,0c-0.1,0-0.2,0-0.3-0.1
				c-0.4-0.1-0.8-0.2-1.2-0.3c0,0,0,0,0,0l0,0L40.3,17.5z"/>
		</g>
		<g>
			<path fill="#003A5D" d="M31.5,17.5L28.9,4.1c0,0,0,0-0.1,0c-0.2,0-0.4,0.1-0.6,0.1c-0.1,0-0.1,0-0.2,0c-0.3,0.1-0.5,0.1-0.8,0.2
				c0,0,0,0,0,0v0l2.6,13.5C30.4,17.7,30.9,17.6,31.5,17.5z"/>
		</g>
		<g>
			<path fill="#FFFFFF" d="M31.5,17.5c0.5-0.1,1.1-0.2,1.6-0.3L30.5,3.7c-0.1,0-0.1,0-0.2,0c-0.1,0-0.2,0-0.3,0.1
				c-0.2,0-0.3,0.1-0.5,0.1c-0.1,0-0.2,0-0.4,0.1c-0.1,0-0.2,0-0.3,0.1L31.5,17.5z"/>
		</g>
		<g>
			<path fill="#003A5D" d="M33.1,17.1c0.6-0.1,1.1-0.1,1.7-0.2L32.2,3.5l0,0c-0.1,0-0.2,0-0.3,0c-0.1,0-0.1,0-0.2,0
				c-0.2,0-0.4,0.1-0.6,0.1c-0.1,0-0.2,0-0.3,0c-0.1,0-0.2,0-0.3,0L33.1,17.1z"/>
		</g>
		<g>
			<path fill="#003A5D" d="M24.9,20.4L17.5,9l0,0c0,0,0,0-0.1,0c-0.3,0.2-0.5,0.4-0.8,0.6c-0.1,0.1-0.2,0.2-0.3,0.3
				c-0.1,0-0.1,0.1-0.2,0.1l0,0l7.4,11.5C24,21.1,24.4,20.8,24.9,20.4z"/>
		</g>
		<g>
			<path fill="#FFFFFF" d="M24.9,20.4c0.5-0.3,0.9-0.6,1.4-0.9L18.9,8.1l0,0c0,0,0,0,0,0C18.4,8.4,18,8.7,17.5,9c0,0,0,0,0,0l0,0
				L24.9,20.4z"/>
		</g>
		<g>
			<path fill="#003A5D" d="M26.3,19.5c0.5-0.3,1-0.5,1.5-0.8L20.4,7.2l0,0c-0.1,0.1-0.2,0.1-0.4,0.2c-0.1,0-0.1,0.1-0.2,0.1
				c-0.3,0.2-0.6,0.3-0.9,0.5l0,0l0,0L26.3,19.5z"/>
		</g>
		<g>
			<path fill="#003A5D" d="M19,27.1L19,27.1c0.1-0.2,0.2-0.4,0.4-0.6c0,0,0.1-0.1,0.1-0.1c0.1-0.2,0.2-0.4,0.3-0.5
				c0,0,0-0.1,0.1-0.1l0,0L8.7,17.8c-0.2,0.3-0.5,0.7-0.7,1.1C8,18.9,8,19,7.9,19.1c0,0,0,0.1-0.1,0.1l0,0L19,27.1L19,27.1z"/>
		</g>
		<g>
			<path fill="#FFFFFF" d="M19.9,25.7L19.9,25.7C19.9,25.6,19.9,25.6,19.9,25.7c0.2-0.3,0.3-0.4,0.4-0.6c0-0.1,0.1-0.1,0.1-0.2
				c0.1-0.2,0.3-0.4,0.4-0.5c0,0,0,0,0-0.1l0,0L9.7,16.4c-0.3,0.4-0.6,0.8-0.9,1.3c0,0,0,0,0,0.1c0,0,0,0,0,0L19.9,25.7z"/>
		</g>
		<g>
			<path fill="#003A5D" d="M20.8,24.3L20.8,24.3C20.9,24.3,20.9,24.2,20.8,24.3c0.2-0.3,0.3-0.4,0.5-0.6c0.1-0.1,0.1-0.1,0.2-0.2
				c0.1-0.1,0.3-0.3,0.4-0.4c0,0,0,0,0-0.1l0,0l-11.2-7.9l0,0c-0.1,0.1-0.1,0.1-0.2,0.2c-0.3,0.4-0.6,0.7-0.9,1.1L20.8,24.3z"/>
		</g>
		<g>
			<path fill="#003A5D" d="M16.9,34C16.9,34,16.9,34,16.9,34c0-0.4,0.1-0.7,0.1-0.9c0,0,0,0,0,0c0-0.2,0.1-0.5,0.1-0.7L3.9,29.2
				c0,0.1,0,0.1,0,0.2c-0.1,0.5-0.2,1-0.3,1.5L16.9,34z"/>
		</g>
		<g>
			<path fill="#FFFFFF" d="M17.2,32.4c0.1-0.6,0.2-1.1,0.4-1.6L4.3,27.6c-0.1,0.2-0.1,0.4-0.1,0.6C4.1,28.4,4,28.6,4,28.9
				c0,0.1-0.1,0.2-0.1,0.3L17.2,32.4z"/>
		</g>
		<g>
			<path fill="#003A5D" d="M17.6,30.7c0.1-0.3,0.2-0.5,0.2-0.8l0,0c0.1-0.3,0.2-0.5,0.3-0.8c0,0,0,0,0,0l0,0h0L4.8,26l0,0
				c-0.1,0.3-0.2,0.7-0.3,1c0,0.1-0.1,0.3-0.1,0.4c0,0.1,0,0.1-0.1,0.2L17.6,30.7z"/>
		</g>
		<g>
			<path fill="#003A5D" d="M17.6,41.2c0-0.1,0-0.1-0.1-0.2c0-0.1-0.1-0.3-0.1-0.4c-0.1-0.2-0.1-0.4-0.2-0.7c0,0,0-0.1,0-0.1
				c0,0,0-0.1,0-0.1c0,0,0,0,0,0l-13.5,2h0l0,0c0.1,0.5,0.2,1.1,0.3,1.6l0,0L17.6,41.2C17.6,41.2,17.6,41.2,17.6,41.2z"/>
		</g>
		<g>
			<path fill="#FFFFFF" d="M17.2,39.6C17.2,39.6,17.2,39.5,17.2,39.6c-0.1-0.3-0.1-0.5-0.1-0.7c0,0,0,0,0,0c0-0.3-0.1-0.6-0.1-0.9
				c0,0,0,0,0-0.1l-13.5,2c0,0.1,0,0.1,0,0.2c0,0.1,0,0.3,0.1,0.4c0.1,0.4,0.1,0.7,0.2,1.1l0,0h0L17.2,39.6z"/>
		</g>
		<g>
			<path fill="#003A5D" d="M16.9,37.9L16.9,37.9c-0.1-0.6-0.1-1.1-0.1-1.7l0,0l-13.5,2l0,0c0,0.1,0,0.3,0,0.4c0,0.1,0,0.3,0,0.4
				c0,0.3,0.1,0.6,0.1,0.8L16.9,37.9z"/>
		</g>
		<g>
			<path fill="#003A5D" d="M20.9,47.7L20.9,47.7c0,0-0.1-0.1-0.1-0.1c-0.1-0.1-0.2-0.3-0.3-0.4c-0.1-0.1-0.1-0.2-0.2-0.3
				c-0.1-0.2-0.2-0.3-0.3-0.5c0,0,0-0.1-0.1-0.1l0,0L8.1,53.2h0c0,0,0,0.1,0.1,0.1c0.3,0.4,0.6,0.9,0.9,1.3c0,0,0,0,0,0l0,0
				L20.9,47.7L20.9,47.7z"/>
		</g>
		<g>
			<path fill="#FFFFFF" d="M19.9,46.3L19.9,46.3c0-0.1-0.1-0.1-0.1-0.2c-0.1-0.2-0.2-0.3-0.3-0.5c-0.1-0.1-0.1-0.2-0.2-0.4
				c-0.1-0.1-0.1-0.2-0.2-0.4c0,0,0-0.1,0-0.1l0,0L7.3,51.8h0c0,0,0,0.1,0,0.1c0.2,0.4,0.5,0.9,0.8,1.3c0,0,0,0,0,0h0L19.9,46.3z"/>
		</g>
		<g>
			<path fill="#003A5D" d="M19,44.9C19,44.8,19,44.8,19,44.9c-0.1-0.1-0.1-0.2-0.2-0.3c-0.1-0.1-0.1-0.3-0.2-0.4
				c-0.1-0.2-0.2-0.4-0.3-0.7c0,0,0-0.1,0-0.1c0,0,0,0,0,0l0,0L6.5,50.3h0c0,0,0,0,0,0c0.2,0.5,0.5,1,0.7,1.4c0,0,0,0,0,0h0L19,44.9
				z"/>
		</g>
		<g>
			<path fill="#003A5D" d="M24.9,51.5l-8.3,10.8c0.5,0.3,0.9,0.7,1.4,1l8.4-10.8c0,0,0,0,0,0c-0.1,0-0.1-0.1-0.2-0.1
				c-0.1-0.1-0.2-0.1-0.3-0.2c-0.2-0.1-0.3-0.2-0.5-0.3c-0.1,0-0.1-0.1-0.2-0.1C25.1,51.6,25,51.6,24.9,51.5
				C24.9,51.5,24.9,51.5,24.9,51.5z"/>
		</g>
		<g>
			<path fill="#FFFFFF" d="M24.9,51.5C24.9,51.5,24.9,51.5,24.9,51.5c-0.1-0.1-0.2-0.2-0.3-0.3c0,0-0.1-0.1-0.1-0.1
				c-0.2-0.2-0.5-0.3-0.7-0.5l0,0c-0.1,0-0.1-0.1-0.2-0.1c0,0,0,0,0,0l-8.4,10.8c0.1,0,0.1,0.1,0.2,0.1c0.4,0.3,0.8,0.6,1.2,0.9
				L24.9,51.5z"/>
		</g>
		<g>
			<path fill="#003A5D" d="M23.6,50.5C23.6,50.5,23.5,50.5,23.6,50.5c-0.2-0.2-0.3-0.3-0.5-0.4l0,0c-0.2-0.2-0.4-0.4-0.7-0.6
				c0,0-0.1,0-0.1-0.1l-8.4,10.8l0,0c0.2,0.2,0.5,0.4,0.7,0.6c0.1,0.1,0.3,0.2,0.4,0.4c0,0,0.1,0.1,0.1,0.1L23.6,50.5z"/>
		</g>
		<g>
			<path fill="#003A5D" d="M32.4,54.7C32.3,54.7,32.3,54.7,32.4,54.7c-0.3-0.1-0.6-0.1-0.8-0.2c0,0,0,0,0,0l-3.7,13.1
				c0.5,0.1,1.1,0.3,1.6,0.4c0,0,0,0,0,0l0,0l3.7-13.2C32.9,54.8,32.6,54.7,32.4,54.7z"/>
		</g>
		<g>
			<path fill="#FFFFFF" d="M31.5,54.5C31.5,54.5,31.5,54.5,31.5,54.5c-0.5-0.1-1.1-0.3-1.6-0.4c0,0,0,0,0,0c0,0,0,0,0,0l-3.7,13.1
				l0,0c0.1,0,0.3,0.1,0.4,0.1c0.4,0.1,0.8,0.2,1.2,0.3L31.5,54.5z"/>
		</g>
		<g>
			<path fill="#003A5D" d="M29.9,54C29.9,54,29.8,54,29.9,54C29.8,54,29.8,54,29.9,54c-0.3-0.1-0.5-0.2-0.7-0.3
				c-0.1-0.1-0.3-0.1-0.4-0.2c-0.1,0-0.2-0.1-0.3-0.1c0,0-0.1,0-0.1,0l0,0l-3.7,13.2l0,0c0.3,0.1,0.6,0.2,0.9,0.3
				c0.2,0.1,0.5,0.2,0.7,0.2c0,0,0,0,0,0l0,0L29.9,54z"/>
		</g>
	</g>
	<g>
		<path fill="#003A5D" d="M103.5,68.6h-9.8v-31h10c6.6,0,10.7,3.2,10.7,8.3c0,2.6-1,4.7-2.9,6.2c2.6,1.4,4.4,4.1,4.4,7.3
			C115.9,65.3,111.3,68.6,103.5,68.6L103.5,68.6z M99.7,62.9h4.4c0.9,0,5.6-0.2,5.6-3.7c0-2.6-1.9-3.9-5.5-3.9h-4.5V62.9L99.7,62.9z
			 M99.7,49.7h3.4c4.6,0,5.2-1.6,5.2-3.3c0-0.9,0-3-4.8-3h-3.7V49.7L99.7,49.7z"/>
	</g>
	<g>
		<polygon fill="#003A5D" points="56.4,68.6 51.4,68.6 39.5,37.6 46.1,37.6 54,58.8 62.2,37.6 68.6,37.6 56.4,68.6 		"/>
	</g>
	<g>
		<path fill="#003A5D" d="M91.5,68.6h-5.3l-3-7H71.3l-2.6,7h-6.3l12.2-31h4.9l13.2,31H91.5z M73.4,56h7.4L77,46.5L73.4,56L73.4,56z"
			/>
	</g>
</g>
<g id="Baseline_NL" display="none">
	
		<text transform="matrix(1 0 0 1 7.4187 98.8157)" display="inline" fill="#FFFFFF" font-family="'Campton-Book'" font-size="12.4769">weet er wel weg mee</text>
</g>
<g id="Bijstand_FR__x28_assistance_x29_" display="none">
	<g display="inline">
		<polygon fill="#FFCC00" points="64.7,82.5 9,82.5 9,79.3 63.7,79.3 		"/>
	</g>
	
		<text transform="matrix(1 0 0 1 65.0092 84.1718)" display="inline" fill="#FFFFFF" font-family="'Campton-ExtraBold'" font-size="9.9863">assistance</text>
</g>
<g id="Bijstand_NL" display="none">
	<g display="inline">
		<polygon fill="#FFCC00" points="78.9,82.5 9,82.5 9,79.3 77.9,79.3 		"/>
	</g>
	
		<text transform="matrix(1 0 0 1 79.5591 84.1718)" display="inline" fill="#FFFFFF" font-family="'Campton-ExtraBold'" font-size="9.9863">bijstand</text>
</g>
<g id="Banden_NL">
	<g>
		<polygon fill="#FFCC00" points="85.9,82.5 9,82.5 9,79.3 84.9,79.3 		"/>
	</g>
	<g>
		<path fill="#FFFFFF" d="M95.7,82.3c0,1.1-0.9,1.9-2.4,1.9h-3.7v-6.8H93c1.5,0,2.4,0.7,2.4,1.8c0,0.6-0.3,1.3-0.9,1.5
			C95.3,80.9,95.7,81.6,95.7,82.3z M91.6,80.1h1.1c0.5,0,0.8-0.2,0.8-0.6c0-0.4-0.3-0.5-0.8-0.5h-1.1V80.1z M92.9,82.6
			c0.6,0,0.8-0.2,0.8-0.6c0-0.4-0.3-0.5-0.8-0.5h-1.3v1.1H92.9z"/>
		<path fill="#FFFFFF" d="M98.2,83.2l-0.3,1h-2.1l2.8-6.8h2l2.8,6.8h-2.1l-0.4-1H98.2z M99.5,79.6l-0.7,1.9h1.4L99.5,79.6z"/>
		<path fill="#FFFFFF" d="M110.3,84.2h-1.6l-2.8-3.2v3.2h-2v-6.8h1.6l2.8,3.3v-3.3h2V84.2z"/>
		<path fill="#FFFFFF" d="M114.2,77.4c2.2,0,3.7,1.3,3.7,3.4c0,2.1-1.5,3.4-3.7,3.4h-2.9v-6.8H114.2z M114.2,82.4
			c0.9,0,1.6-0.7,1.6-1.6c0-0.9-0.7-1.6-1.6-1.6h-0.8v3.2H114.2z"/>
		<path fill="#FFFFFF" d="M120.7,80h2.8v1.6h-2.8v0.9h3.3v1.7h-5.3v-6.8h5.3v1.7h-3.3V80z"/>
		<path fill="#FFFFFF" d="M131.2,84.2h-1.6l-2.8-3.2v3.2h-2v-6.8h1.6l2.8,3.3v-3.3h2V84.2z"/>
	</g>
</g>
<g id="Tweedehands_NL" display="none">
	<g display="inline">
		<polygon fill="#FFCC00" points="49.9,82.5 9,82.5 9,79.3 48.9,79.3 		"/>
	</g>
	
		<text transform="matrix(1 0 0 1 52.1171 84.1718)" display="inline" fill="#FFFFFF" font-family="'Campton-ExtraBold'" font-size="9.9863">tweedehands</text>
</g>
<g id="Rijschool_NL" display="none">
	<g display="inline">
		<polygon fill="#FFCC00" points="69,82.5 9,82.5 9,79.3 68,79.3 		"/>
	</g>
	<g display="inline">
		<path fill="#FFFFFF" d="M74.1,82.4v1.8h-2v-6.8h3.1c1.8,0,3,0.9,3,2.5c0,0.9-0.4,1.6-1.1,2.1l1.6,2.2h-2.4L75,82.4H74.1z
			 M75.2,80.6c0.5,0,1-0.3,1-0.8c0-0.4-0.4-0.7-1-0.7h-1v1.5H75.2z"/>
		<path fill="#FFFFFF" d="M81.1,84.2h-2v-6.8h2V84.2z"/>
		<path fill="#FFFFFF" d="M87.5,81.3c0,1.9-1.1,3-2.9,3c-1.7,0-2.8-1-2.9-2.7h2c0,0.6,0.4,0.9,0.9,0.9c0.6,0,0.9-0.4,0.9-1.2v-4h2
			V81.3z"/>
		<path fill="#FFFFFF" d="M94.2,79.5h-2c-0.1-0.4-0.3-0.7-0.9-0.7c-0.4,0-0.7,0.2-0.7,0.5c0,0.3,0.2,0.4,0.5,0.5l1.1,0.3
			c1.1,0.3,2,0.8,2,2c0,1.4-1.2,2.3-3,2.3c-1.4,0-3-0.5-3.2-2.4h2c0.1,0.5,0.5,0.8,1.2,0.8c0.5,0,0.7-0.2,0.7-0.4
			c0-0.2-0.1-0.3-0.5-0.4l-1.1-0.3c-1.3-0.3-2-0.9-2-2c0-1.4,1.1-2.3,2.8-2.3C92.2,77.2,94,77.6,94.2,79.5z"/>
		<path fill="#FFFFFF" d="M99.9,81.2h2.1c-0.1,1.8-1.5,3.1-3.5,3.1c-2.1,0-3.7-1.5-3.7-3.5c0-2,1.5-3.5,3.7-3.5c2,0,3.4,1.3,3.5,3.1
			h-2.1c-0.1-0.7-0.6-1.2-1.4-1.2c-1,0-1.6,0.7-1.6,1.7c0,0.9,0.6,1.7,1.6,1.7C99.3,82.5,99.8,82,99.9,81.2z"/>
		<path fill="#FFFFFF" d="M109.2,84.2h-2v-2.4h-2.4v2.4h-2v-6.8h2V80h2.4v-2.6h2V84.2z"/>
		<path fill="#FFFFFF" d="M117.4,80.8c0,2-1.5,3.5-3.7,3.5s-3.7-1.5-3.7-3.5s1.5-3.5,3.7-3.5S117.4,78.8,117.4,80.8z M115.4,80.8
			c0-0.9-0.7-1.7-1.6-1.7c-0.9,0-1.6,0.8-1.6,1.7c0,0.9,0.7,1.7,1.6,1.7C114.7,82.4,115.4,81.7,115.4,80.8z"/>
		<path fill="#FFFFFF" d="M125.4,80.8c0,2-1.5,3.5-3.7,3.5s-3.7-1.5-3.7-3.5s1.5-3.5,3.7-3.5S125.4,78.8,125.4,80.8z M123.4,80.8
			c0-0.9-0.7-1.7-1.6-1.7s-1.6,0.8-1.6,1.7c0,0.9,0.7,1.7,1.6,1.7S123.4,81.7,123.4,80.8z"/>
		<path fill="#FFFFFF" d="M131.5,84.2h-5.2v-6.8h2v5h3.2V84.2z"/>
	</g>
</g>
<g id="Diagnose_NL" display="none">
	<g display="inline">
		<polygon fill="#FFCC00" points="75.9,82.5 9,82.5 9,79.3 74.9,79.3 		"/>
	</g>
	
		<text transform="matrix(1 0 0 1 77.2421 84.1718)" display="inline" fill="#FFFFFF" font-family="'Campton-ExtraBold'" font-size="9.9863">diagnose</text>
</g>
<g id="Fleet_Services_NL" display="none">
	<g display="inline">
		<polygon fill="#FFCC00" points="45.9,82.5 9,82.5 9,79.3 44.9,79.3 		"/>
	</g>
	
		<text transform="matrix(1 0 0 1 47.2338 84.1718)" display="inline" fill="#FFFFFF" font-family="'Campton-ExtraBold'" font-size="9.9863">fleet services</text>
</g>
<g id="Telematics_NL" display="none">
	<g display="inline">
		<polygon fill="#FFCC00" points="65.9,82.5 9,82.5 9,79.3 64.9,79.3 		"/>
	</g>
	
		<text transform="matrix(1 0 0 1 66.7768 84.1718)" display="inline" fill="#FFFFFF" font-family="'Campton-ExtraBold'" font-size="9.9863">telematics</text>
</g>
<g id="Training__x26__Consult_NL" display="none">
	<g display="inline">
		<polygon fill="#FFCC00" points="25.9,82.5 9,82.5 9,79.3 24.9,79.3 		"/>
	</g>
	
		<text transform="matrix(1 0 0 1 26.2753 84.1718)" display="inline" fill="#FFFFFF" font-family="'Campton-ExtraBold'" font-size="9.5">training &amp; consult</text>
</g>
<g id="Media_NL" display="none">
	<g display="inline">
		<polygon fill="#FFCC00" points="95.9,82.5 9,82.5 9,79.3 94.9,79.3 		"/>
	</g>
	
		<text transform="matrix(1 0 0 1 98.9126 84.1718)" display="inline" fill="#FFFFFF" font-family="'Campton-ExtraBold'" font-size="9.9863">media</text>
</g>
</svg>
