<?xml version="1.0" encoding="utf-8"?>
<!-- Generator: Adobe Illustrator 18.1.0, SVG Export Plug-In . SVG Version: 6.00 Build 0)  -->
<svg version="1.1" id="Layer_1" xmlns="http://www.w3.org/2000/svg" xmlns:xlink="http://www.w3.org/1999/xlink" x="0px" y="0px"
	 viewBox="68 124 368 219" enable-background="new 68 124 368 219" xml:space="preserve">
<path fill="#FFFFFF" d="M429,305l-30.9-81.9c-2.6-6.6-8.7-11-15.8-11H250.9c-2.3-46.7-41.1-84-88.3-84c-49,0-88.6,39.6-88.6,88.6
	c0,47.2,37,85.8,83.7,88.3l0,0h1.5c1,0,2,0,3.3,0C163.6,305.3,429,305,429,305z"/>
<g>
	<path fill="#FFCC00" d="M407.6,265.2h-33.9c1.5,3.6,2.3,7.4,2.3,11.2c0,8.4-3.3,17.4-11,23.5h56.2L407.6,265.2z"/>
</g>
<g>
	<g>
		<path fill="#FFCC00" d="M91.1,173.6c0.3-0.3,0.3-0.5,0.5-0.8C91.4,173,91.4,173.3,91.1,173.6z"/>
	</g>
	<g>
		<path fill="#FFCC00" d="M117.4,199.1c0.3-0.8,0.5-1.5,1-2.3c0-0.3,0-0.3,0.3-0.5c0.3-0.8,0.8-1.5,1-2V194l-28.6-20.2
			c-3.3,5.4-5.9,11.2-7.9,17.4L117.4,199.1C117.2,199.1,117.4,199.1,117.4,199.1z"/>
	</g>
	<g>
		<path fill="#FFCC00" d="M93.4,170L93.4,170L93.4,170z"/>
	</g>
	<g>
		<path fill="#FFCC00" d="M112.6,149.8c0.3-0.3,0.5-0.5,0.8-0.8C113.3,149.3,113.1,149.6,112.6,149.8z"/>
	</g>
	<g>
		<path fill="#FFCC00" d="M127.1,183.5l0.3-0.3c0.5-0.5,1-1,1.5-1.5l0.3-0.3c0.8-0.5,1.3-1.3,2-1.8l-18.9-29.6
			c-5.1,3.8-9.7,8.2-13.8,13L127.1,183.5L127.1,183.5z"/>
	</g>
	<g>
		<path fill="#FFCC00" d="M121.7,190.1L121.7,190.1L121.7,190.1L121.7,190.1z"/>
	</g>
	<g>
		<path fill="#FFCC00" d="M114.1,217.2c0-0.3,0-0.3,0-0.5v-0.3v-0.3c0-0.5,0-1.3,0-1.8c0-0.3,0-0.3,0-0.5c0-0.8,0-1.3,0.3-2v-0.3
			l0,0v0.3l-33.9-8.2c0.3-1.3,0.5-2.6,0.8-3.8c-0.3,1.5-0.5,2.8-0.8,4.3c-1,6.1-1.3,12.5-0.8,18.4L114.1,217.2L114.1,217.2z"/>
	</g>
	<g>
		<path fill="#FFCC00" d="M81.2,198.3c0.3-0.5,0.3-1.3,0.5-1.8C81.4,197.3,81.4,197.8,81.2,198.3z"/>
	</g>
	<g>
		<path fill="#FFCC00" d="M79.6,224.6c0-0.3,0-0.8,0-1C79.6,223.8,79.6,224.1,79.6,224.6z"/>
	</g>
	<g>
		<path fill="#FFCC00" d="M82.2,194.7c0-0.3,0.3-0.8,0.3-1C82.4,194,82.2,194.2,82.2,194.7z"/>
	</g>
	<g>
		<path fill="#FFCC00" d="M80.1,228.2c0-0.3,0-0.8-0.3-1C79.9,227.4,79.9,227.9,80.1,228.2z"/>
	</g>
	<g>
		<path fill="#FFCC00" d="M114.9,225.9L114.9,225.9C114.9,225.9,114.9,225.6,114.9,225.9C114.9,225.6,114.9,225.6,114.9,225.9z"/>
	</g>
	<g>
		<path fill="#FFCC00" d="M114.3,221.5L114.3,221.5L114.3,221.5L114.3,221.5z"/>
	</g>
	<g>
		<path fill="#FFCC00" d="M117.9,235.3c0-0.3,0-0.3-0.3-0.5c-0.3-0.8-0.5-1.3-0.8-2c0-0.3-0.3-0.5-0.3-0.8c-0.3-0.8-0.5-1.3-0.5-2
			v-0.3c0,0,0,0,0,0.3l-34.7,5.1c1.5,6.1,3.6,12.3,6.4,17.9L117.9,235.3L117.9,235.3z"/>
	</g>
	<g>
		<path fill="#FFCC00" d="M121.7,144c0.3,0,0.3-0.3,0.5-0.3C122,143.7,121.7,144,121.7,144z"/>
	</g>
	<g>
		<path fill="#FFCC00" d="M147.3,170.5l-6.6-34.5c-6.1,1.8-12,4.1-17.6,7.1l18.9,29.4C143.7,171.8,145.5,171,147.3,170.5z"/>
	</g>
	<g>
		<path fill="#FFCC00" d="M147.8,134.5c0.3,0,0.5,0,0.8-0.3C148.3,134.5,148,134.5,147.8,134.5z"/>
	</g>
	<g>
		<path fill="#FFCC00" d="M149.8,134.3c0.3,0,0.5,0,0.8,0C150.3,134,150.1,134.3,149.8,134.3z"/>
	</g>
	<g>
		<path fill="#FFCC00" d="M145.5,135c0.3,0,0.5-0.3,1-0.3C146.2,134.8,146,134.8,145.5,135z"/>
	</g>
	<g>
		<path fill="#FFCC00" d="M140.6,136c0.8-0.3,1.3-0.3,2-0.5C141.9,135.8,141.4,136,140.6,136z"/>
	</g>
	<g>
		<path fill="#FFCC00" d="M151.9,133.7c0.3,0,0.3,0,0.5,0C152.4,133.7,152.1,133.7,151.9,133.7z"/>
	</g>
	<g>
		<path fill="#FFCC00" d="M143.2,135.5c0.5,0,1-0.3,1.5-0.3C144.2,135.3,143.7,135.3,143.2,135.5z"/>
	</g>
	<g>
		<path fill="#FFCC00" d="M162.6,167.9c1,0,2,0,2.8,0l6.6-34.2c-6.4-0.8-12.8-0.8-18.9,0l6.6,34.5
			C160.8,167.9,161.6,167.9,162.6,167.9z"/>
	</g>
	<g>
		<path fill="#FFCC00" d="M176.6,134.3c1.3,0.3,2.8,0.5,4.1,0.8C179.2,134.8,177.9,134.5,176.6,134.3z"/>
	</g>
	<g>
		<path fill="#FFCC00" d="M81.4,235.1c-0.3-1.3-0.5-2.8-0.8-4.1C80.7,232.3,80.9,233.8,81.4,235.1z"/>
	</g>
	<g>
		<path fill="#FFCC00" d="M115.9,147.5c1-0.8,2.3-1.5,3.6-2.3C117.9,146,116.9,146.8,115.9,147.5z"/>
	</g>
	<g>
		<path fill="#FFCC00" d="M91.6,260.3c-0.8-1-1.3-2.3-2-3.3C90.4,258,91.1,259.3,91.6,260.3z"/>
	</g>
	<g>
		<path fill="#FFCC00" d="M192.4,299.9l-13.3-34.7h-16.3c-0.8,0-1.5,0-2.3,0c-0.3,0-0.3,0-0.5,0c-0.5,0-1,0-1.3,0
			c-1,0-1.8-0.3-2.8-0.3l-9.4,33.7c1.3,0.3,2.6,0.5,3.8,0.8c4.3,0.8,8.4,1,12.5,1l0,0h29.6V299.9z"/>
	</g>
	<g>
		<path fill="#FFCC00" d="M119.7,239.2L119.7,239.2L119.7,239.2L119.7,239.2z"/>
	</g>
	<g>
		<path fill="#FFCC00" d="M143.2,261.1c-0.3,0-0.5-0.3-0.8-0.3c-0.5-0.3-1-0.5-1.5-0.8c-0.3-0.3-0.5-0.3-0.8-0.5
			c-0.5-0.3-1-0.5-1.5-0.8c-0.3,0-0.3-0.3-0.5-0.3l0,0l-21.4,27.6c-1.3-0.8-2.3-1.5-3.6-2.6c-1-0.8-2-1.5-3.1-2.3
			c6.9,5.6,14.8,10.2,23.5,13.3L143.2,261.1L143.2,261.1z"/>
	</g>
	<g>
		<path fill="#FFCC00" d="M109.7,281c-0.3-0.3-0.8-0.5-1-1C109,280.2,109.2,280.5,109.7,281z"/>
	</g>
	<g>
		<path fill="#FFCC00" d="M128.1,250.9c-0.3-0.3-0.5-0.5-0.8-0.8c-0.3-0.5-0.8-0.8-1-1.3c-0.3-0.3-0.5-0.5-0.5-0.8
			c-0.5-0.5-0.8-1-1.3-1.5l-0.3-0.3l-30.1,17.6c3.6,5.1,7.9,10,12.5,14.3L128.1,250.9C128.1,250.6,128.1,250.9,128.1,250.9z"/>
	</g>
	<g>
		<path fill="#FFCC00" d="M151.6,263.9C151.4,263.9,151.4,263.9,151.6,263.9C151.4,263.9,151.4,263.9,151.6,263.9
			C151.4,263.9,151.6,263.9,151.6,263.9z"/>
	</g>
	<g>
		<path fill="#FFCC00" d="M121.7,243L121.7,243L121.7,243z"/>
	</g>
	<g>
		<path fill="#FFCC00" d="M131.2,253.7L131.2,253.7C131.2,253.7,131.2,253.4,131.2,253.7C131.2,253.4,131.2,253.4,131.2,253.7z"/>
	</g>
	<g>
		<path fill="#FFCC00" d="M134.5,256.3L134.5,256.3C134.5,256.3,134.8,256.3,134.5,256.3L134.5,256.3z"/>
	</g>
	<g>
		<path fill="#FFCC00" d="M147.3,262.6L147.3,262.6L147.3,262.6L147.3,262.6z"/>
	</g>
	<g>
		<path fill="#FFCC00" d="M227.4,164.1c0.3,0.3,0.3,0.3,0.5,0.5C227.7,164.4,227.7,164.4,227.4,164.1z"/>
	</g>
	<g>
		<path fill="#FFCC00" d="M198.3,183.5l28.6-20.2c-4.1-4.8-8.7-9.2-13.5-13.3l-19.1,29.4C195.5,181,197,182.2,198.3,183.5z"/>
	</g>
	<g>
		<path fill="#FFCC00" d="M211.1,212.1h35c-0.8-13.8-4.8-26.8-11.7-38.3L205.7,194C208.5,199.6,210.3,205.7,211.1,212.1z"/>
	</g>
	<g>
		<path fill="#FFCC00" d="M183.5,172.5l18.9-29.4c-5.4-3.1-11.5-5.4-17.6-7.1l-6.6,34.2C179.9,171,181.7,171.8,183.5,172.5z"/>
	</g>
	<g>
		<path fill="#FFCC00" d="M183.8,136c0.3,0,0.5,0,0.8,0.3C184.3,136,184,136,183.8,136z"/>
	</g>
	<g>
		<path fill="#FFCC00" d="M202.9,143.4c0.3,0,0.3,0.3,0.5,0.3C203.2,143.7,202.9,143.7,202.9,143.4z"/>
	</g>
	<g>
		<path fill="#003A5D" d="M201.1,186.8l28.3-19.9l0,0l0,0c-0.5-0.8-1-1.5-1.5-2c-0.3-0.3-0.3-0.3-0.5-0.5c-0.3-0.3-0.5-0.5-0.5-0.8
			l0,0l-28.6,20.2C199.3,184.5,200.1,185.8,201.1,186.8z"/>
	</g>
	<g>
		<path fill="#FFFFFF" d="M201.1,186.8c0.8,1,1.8,2.3,2.6,3.6l28.3-19.9l0,0c0-0.3-0.3-0.3-0.3-0.5c-0.8-1-1.3-1.8-2-2.8
			c0,0,0-0.3-0.3-0.3l0,0L201.1,186.8z"/>
	</g>
	<g>
		<path fill="#003A5D" d="M203.4,190.4c0.8,1.3,1.5,2.6,2,3.8l28.6-20.2l0,0c-0.3-0.3-0.3-0.5-0.5-0.8c-0.5-0.8-1-1.5-1.5-2.3
			c-0.3-0.3-0.3-0.5-0.5-0.8l0,0L203.4,190.4z"/>
	</g>
	<g>
		<path fill="#003A5D" d="M187.1,174.6l18.9-29.1l0,0l0,0c-0.8-0.5-1.8-1-2.6-1.5c-0.3,0-0.3-0.3-0.5-0.3s-0.3-0.3-0.5-0.3l0,0
			l-18.9,29.1C184.8,173.3,186.1,173.8,187.1,174.6z"/>
	</g>
	<g>
		<path fill="#FFFFFF" d="M187.1,174.6c1.3,0.8,2.6,1.5,3.6,2.3l18.9-29.1l0,0l-0.3-0.3c-1-0.5-1.8-1.3-2.8-1.8
			c-0.3,0-0.3-0.3-0.5-0.3l0,0L187.1,174.6z"/>
	</g>
	<g>
		<path fill="#003A5D" d="M190.7,176.9c1.3,0.8,2.3,1.8,3.3,2.6l19.1-29.4l0,0c-0.3-0.3-0.5-0.3-0.5-0.5c-0.8-0.5-1.5-1-2.3-1.5
			c-0.3-0.3-0.5-0.3-0.5-0.5l0,0L190.7,176.9z"/>
	</g>
	<g>
		<path fill="#003A5D" d="M169.7,168.5l6.6-34.2l0,0c-0.3,0-0.8,0-1.3,0c-1-0.3-2-0.3-2.8-0.3l0,0l-6.6,34.2
			C166.9,168.2,168.5,168.2,169.7,168.5z"/>
	</g>
	<g>
		<path fill="#FFFFFF" d="M169.7,168.5c1.5,0.3,2.8,0.5,4.3,0.8l6.6-34.2l0,0l0,0c-1.3-0.3-2.8-0.5-4.1-0.8l0,0l0,0L169.7,168.5z"/>
	</g>
	<g>
		<path fill="#003A5D" d="M174.1,169.2c1.3,0.3,2.8,0.8,4.1,1.3l6.6-34.2l0,0c-0.3,0-0.3,0-0.5,0c-0.3,0-0.5,0-0.8-0.3
			c-1-0.3-2-0.5-3.1-0.8l0,0l0,0L174.1,169.2z"/>
	</g>
	<g>
		<path fill="#003A5D" d="M151.4,169.2l-6.6-34.2c0,0,0,0-0.3,0c-0.5,0-1,0.3-1.5,0.3c-0.3,0-0.3,0-0.5,0c-0.8,0.3-1.3,0.3-2,0.5
			l0,0l0,0l6.6,34.5C148.5,170,149.8,169.7,151.4,169.2z"/>
	</g>
	<g>
		<path fill="#FFFFFF" d="M151.4,169.2c1.3-0.3,2.8-0.5,4.1-0.8l-6.4-34.2c-0.3,0-0.3,0-0.5,0s-0.5,0-0.8,0.3
			c-0.5,0-0.8,0.3-1.3,0.3c-0.3,0-0.5,0-1,0.3c-0.3,0-0.5,0-0.8,0.3L151.4,169.2z"/>
	</g>
	<g>
		<path fill="#003A5D" d="M155.4,168.5c1.5-0.3,2.8-0.3,4.3-0.5l-6.6-34.2l0,0c-0.3,0-0.5,0-0.8,0c-0.3,0-0.3,0-0.5,0
			c-0.5,0-1,0.3-1.5,0.3c-0.3,0-0.5,0-0.8,0c-0.3,0-0.5,0-0.8,0L155.4,168.5z"/>
	</g>
	<g>
		<path fill="#003A5D" d="M134.5,176.9l-18.9-29.4l0,0c0,0,0,0-0.3,0c-0.8,0.5-1.3,1-2,1.5c-0.3,0.3-0.5,0.5-0.8,0.8
			c-0.3,0-0.3,0.3-0.5,0.3l0,0l18.9,29.4C132.2,178.7,133.2,177.6,134.5,176.9z"/>
	</g>
	<g>
		<path fill="#FFFFFF" d="M134.5,176.9c1.3-0.8,2.3-1.5,3.6-2.3l-18.9-29.4l0,0l0,0c-1.3,0.8-2.3,1.5-3.6,2.3l0,0l0,0L134.5,176.9z"
			/>
	</g>
	<g>
		<path fill="#003A5D" d="M138.1,174.6c1.3-0.8,2.6-1.3,3.8-2L123,143.2l0,0c-0.3,0.3-0.5,0.3-1,0.5c-0.3,0-0.3,0.3-0.5,0.3
			c-0.8,0.5-1.5,0.8-2.3,1.3l0,0l0,0L138.1,174.6z"/>
	</g>
	<g>
		<path fill="#003A5D" d="M119.7,194L119.7,194c0.3-0.5,0.5-1,1-1.5l0.3-0.3c0.3-0.5,0.5-1,0.8-1.3c0,0,0-0.3,0.3-0.3l0,0L93.4,170
			c-0.5,0.8-1.3,1.8-1.8,2.8c-0.3,0.3-0.3,0.5-0.5,0.8c0,0,0,0.3-0.3,0.3l0,0L119.7,194L119.7,194z"/>
	</g>
	<g>
		<path fill="#FFFFFF" d="M121.7,190.1L121.7,190.1C121.7,190.1,122,190.1,121.7,190.1c0.5-0.8,0.8-1,1-1.5c0-0.3,0.3-0.3,0.3-0.5
			c0.3-0.5,0.8-1,1-1.3c0,0,0,0,0-0.3l0,0l-28.3-20.2c-0.8,1-1.5,2-2.3,3.3c0,0,0,0,0,0.3l0,0L121.7,190.1z"/>
	</g>
	<g>
		<path fill="#003A5D" d="M124.3,186.8L124.3,186.8C124.3,186.6,124.3,186.6,124.3,186.8c0.5-0.8,0.8-1,1.3-1.5
			c0.3-0.3,0.3-0.3,0.5-0.5s0.8-0.8,1-1c0,0,0,0,0-0.3l0,0l-28.6-20.2l0,0c-0.3,0.3-0.3,0.3-0.5,0.5c-0.8,1-1.5,1.8-2.3,2.8
			L124.3,186.8z"/>
	</g>
	<g>
		<path fill="#003A5D" d="M114.3,211.6L114.3,211.6c0-1,0.3-1.8,0.3-2.3l0,0c0-0.5,0.3-1.3,0.3-1.8l-33.9-8.2c0,0.3,0,0.3,0,0.5
			c-0.3,1.3-0.5,2.6-0.8,3.8L114.3,211.6z"/>
	</g>
	<g>
		<path fill="#FFFFFF" d="M114.9,207.2c0.3-1.5,0.5-2.8,1-4.1L81.9,195c0,0.5-0.3,1-0.3,1.5c-0.3,0.5-0.3,1.3-0.5,1.8
			c0,0.3-0.3,0.5-0.3,0.8L114.9,207.2z"/>
	</g>
	<g>
		<path fill="#003A5D" d="M115.9,203.2c0.3-0.8,0.5-1.3,0.5-2l0,0c0.3-0.8,0.5-1.3,0.8-2l0,0l0,0l0,0l-33.9-8.2l0,0
			c-0.3,0.8-0.5,1.8-0.8,2.6c0,0.3-0.3,0.8-0.3,1c0,0.3,0,0.3-0.3,0.5L115.9,203.2z"/>
	</g>
	<g>
		<path fill="#003A5D" d="M115.9,230c0-0.3,0-0.3-0.3-0.5c0-0.3-0.3-0.8-0.3-1c-0.3-0.5-0.3-1-0.5-1.8v-0.3v-0.3l0,0l-34.5,5.1l0,0
			l0,0c0.3,1.3,0.5,2.8,0.8,4.1l0,0L115.9,230L115.9,230z"/>
	</g>
	<g>
		<path fill="#FFFFFF" d="M114.9,225.9C114.9,225.6,114.9,225.6,114.9,225.9c-0.3-0.8-0.3-1.3-0.3-1.8l0,0c0-0.8-0.3-1.5-0.3-2.3
			c0,0,0,0,0-0.3l-34.5,5.1c0,0.3,0,0.3,0,0.5s0,0.8,0.3,1c0.3,1,0.3,1.8,0.5,2.8l0,0l0,0L114.9,225.9z"/>
	</g>
	<g>
		<path fill="#003A5D" d="M114.3,221.5L114.3,221.5c-0.3-1.5-0.3-2.8-0.3-4.3l0,0l-34.5,5.1l0,0c0,0.3,0,0.8,0,1c0,0.3,0,0.8,0,1
			c0,0.8,0.3,1.5,0.3,2L114.3,221.5z"/>
	</g>
	<g>
		<path fill="#003A5D" d="M124.3,246.6L124.3,246.6l-0.3-0.3c-0.3-0.3-0.5-0.8-0.8-1c-0.3-0.3-0.3-0.5-0.5-0.8
			c-0.3-0.5-0.5-0.8-0.8-1.3c0,0,0-0.3-0.3-0.3l0,0l-29.9,17.6l0,0c0,0,0,0.3,0.3,0.3c0.8,1,1.5,2.3,2.3,3.3l0,0l0,0L124.3,246.6
			L124.3,246.6z"/>
	</g>
	<g>
		<path fill="#FFFFFF" d="M121.7,243L121.7,243c0-0.3-0.3-0.3-0.3-0.5c-0.3-0.5-0.5-0.8-0.8-1.3c-0.3-0.3-0.3-0.5-0.5-1
			c-0.3-0.3-0.3-0.5-0.5-1v-0.3l0,0l-30.1,17.9l0,0v0.3c0.5,1,1.3,2.3,2,3.3l0,0l0,0L121.7,243z"/>
	</g>
	<g>
		<path fill="#003A5D" d="M119.7,239.2L119.7,239.2c-0.3-0.3-0.3-0.5-0.5-0.8c-0.3-0.3-0.3-0.8-0.5-1c-0.3-0.5-0.5-1-0.8-1.8v-0.3
			l0,0l0,0l-30.1,17.6l0,0l0,0c0.5,1.3,1.3,2.6,1.8,3.6l0,0l0,0L119.7,239.2z"/>
	</g>
	<g>
		<path fill="#003A5D" d="M134.5,256.3l-21.2,27.6c1.3,0.8,2.3,1.8,3.6,2.6l21.4-27.6l0,0c-0.3,0-0.3-0.3-0.5-0.3
			c-0.3-0.3-0.5-0.3-0.8-0.5c-0.5-0.3-0.8-0.5-1.3-0.8c-0.3-0.3-0.5-0.5-0.5-0.5C135,256.5,134.8,256.5,134.5,256.3
			C134.8,256.3,134.5,256.3,134.5,256.3z"/>
	</g>
	<g>
		<path fill="#FFFFFF" d="M134.5,256.3L134.5,256.3c-0.3-0.3-0.5-0.5-0.8-0.8l-0.3-0.3c-0.5-0.5-1.3-0.8-1.8-1.3l0,0
			c-0.3,0-0.3-0.3-0.5-0.3l0,0l-21.4,27.6c0.3,0,0.3,0.3,0.5,0.3c1,0.8,2,1.5,3.1,2.3L134.5,256.3z"/>
	</g>
	<g>
		<path fill="#003A5D" d="M131.2,253.7C131.2,253.4,131.2,253.4,131.2,253.7c-0.5-0.5-0.8-0.8-1.3-1l0,0c-0.5-0.5-1-1-1.8-1.5
			c0,0-0.3,0-0.3-0.3l-21.4,27.6l0,0c0.5,0.5,1.3,1,1.8,1.5c0.3,0.3,0.8,0.5,1,1l0.3,0.3L131.2,253.7z"/>
	</g>
	<g>
		<path fill="#003A5D" d="M153.6,264.2C153.6,264.2,153.4,264.2,153.6,264.2c-0.8-0.3-1.5-0.3-2-0.5l0,0l-9.4,33.4
			c1.3,0.3,2.8,0.8,4.1,1l0,0l0,0l9.4-33.4C154.9,264.4,154.4,264.4,153.6,264.2z"/>
	</g>
	<g>
		<path fill="#FFFFFF" d="M151.4,263.9L151.4,263.9c-1.3-0.3-2.8-0.8-4.1-1l0,0l0,0l-9.4,33.2l0,0c0.3,0,0.8,0.3,1,0.3
			c1,0.3,2,0.5,3.1,0.8L151.4,263.9z"/>
	</g>
	<g>
		<path fill="#003A5D" d="M147.3,262.6L147.3,262.6L147.3,262.6c-0.8-0.3-1.3-0.5-1.8-0.8c-0.3-0.3-0.8-0.3-1-0.5
			c-0.3,0-0.5-0.3-0.8-0.3h-0.3l0,0l-9.4,33.7l0,0c0.8,0.3,1.5,0.5,2.3,0.8c0.5,0.3,1.3,0.5,1.8,0.5l0,0l0,0L147.3,262.6z"/>
	</g>
</g>
<path fill="#003A5D" d="M355.5,257.8c4.8-3.8,7.4-9.2,7.4-15.8c0-13-10.5-21.2-27.3-21.2h-25.5v79.1h25c20.2,0,31.6-8.7,31.6-23.5
	C366.8,268.2,362.2,261.4,355.5,257.8z M325.7,235.3h9.4c12.3,0,12.3,5.4,12.3,7.7c0,4.3-1.5,8.4-13.3,8.4h-8.4V235.3z M336.7,285.3
	h-11.2V266h11.5c9.2,0,14,3.3,14,10C350.9,284.8,338.9,285.3,336.7,285.3z"/>
<g>
	<polygon fill="#003A5D" points="215.2,299.9 202.4,299.9 172,220.8 188.6,220.8 209,274.9 230,220.8 246,220.8 	"/>
</g>
<path fill="#003A5D" d="M273.9,220.8h-12.5l-31.1,79.1h16.1l6.6-17.9h30.4l7.7,17.9h13.5h3.1L273.9,220.8z M258.6,267.5l8.9-24.2
	l10,24.2H258.6z"/>
<g id="Baseline_NL" display="none">
	
		<text transform="matrix(1 0 0 1 89.9683 376.9455)" display="inline" fill="#FFFFFF" font-family="'Campton-Book'" font-size="31.8451">weet er wel weg mee</text>
</g>
<g id="Bijstand_FR__x28_assistance_x29_" display="none">
	<g display="inline">
		<polygon fill="#FFCC00" points="236.1,335.4 94.2,335.4 94.2,327.2 233.5,327.2 		"/>
	</g>
	
		<text transform="matrix(1 0 0 1 236.9594 339.5689)" display="inline" fill="#FFFFFF" font-family="'Campton-ExtraBold'" font-size="25.4883">assistance</text>
</g>
<g id="Bijstand_NL" display="none">
	<g display="inline">
		<polygon fill="#FFCC00" points="272.3,335.4 94.2,335.4 94.2,327.2 269.8,327.2 		"/>
	</g>
	
		<text transform="matrix(1 0 0 1 274.0951 339.5689)" display="inline" fill="#FFFFFF" font-family="'Campton-ExtraBold'" font-size="25.4883">bijstand</text>
</g>
<g id="Banden_NL" display="none">
	<g display="inline">
		<polygon fill="#FFCC00" points="290.2,335.4 94.2,335.4 94.2,327.2 287.6,327.2 		"/>
	</g>
	
		<text transform="matrix(1 0 0 1 297.7216 339.5689)" display="inline" fill="#FFFFFF" font-family="'Campton-ExtraBold'" font-size="25.4883">Banden</text>
</g>
<g id="Tweedehands_NL" display="none">
	<g display="inline">
		<polygon fill="#FFCC00" points="198.3,335.4 94.2,335.4 94.2,327.2 195.8,327.2 		"/>
	</g>
	
		<text transform="matrix(1 0 0 1 204.0539 339.5689)" display="inline" fill="#FFFFFF" font-family="'Campton-ExtraBold'" font-size="25.4883">tweedehands</text>
</g>
<g id="Rijschool_NL">
	<g>
		<polygon fill="#FFCC00" points="247.1,335.4 94.2,335.4 94.2,327.2 244.5,327.2 		"/>
	</g>
	<g>
		<path fill="#FFFFFF" d="M260.1,335.1v4.6H255v-17.4h7.9c4.6,0,7.7,2.3,7.7,6.4c0,2.3-1,4.1-2.8,5.4l4.1,5.6h-6.4l-3.1-4.6
			L260.1,335.1L260.1,335.1z M262.9,330.5c1.3,0,2.6-0.8,2.6-2c0-1-1-1.8-2.6-1.8h-2.6v3.8H262.9z"/>
		<path fill="#FFFFFF" d="M277.9,339.5h-5.1v-17.4h5.1V339.5z"/>
		<path fill="#FFFFFF" d="M294.3,332.3c0,4.8-2.8,7.7-7.4,7.7c-4.3,0-7.1-2.6-7.4-6.9h5.1c0,1.5,1,2.3,2.3,2.3c1.5,0,2.3-1,2.3-3.1
			v-10.2h5.1V332.3z"/>
		<path fill="#FFFFFF" d="M311.4,327.7h-5.1c-0.3-1-0.8-1.8-2.3-1.8c-1,0-1.8,0.5-1.8,1.3c0,0.8,0.5,1,1.3,1.3l2.8,0.8
			c2.8,0.8,5.1,2,5.1,5.1c0,3.6-3.1,5.9-7.7,5.9c-3.6,0-7.7-1.3-8.2-6.1h5.1c0.3,1.3,1.3,2,3.1,2c1.3,0,1.8-0.5,1.8-1
			s-0.3-0.8-1.3-1l-2.8-0.8c-3.3-0.8-5.1-2.3-5.1-5.1c0-3.6,2.8-5.9,7.1-5.9C306.5,321.8,310.9,322.9,311.4,327.7z"/>
		<path fill="#FFFFFF" d="M325.9,332.1h5.4c-0.3,4.6-3.8,7.9-8.9,7.9c-5.4,0-9.4-3.8-9.4-8.9s3.8-8.9,9.4-8.9c5.1,0,8.7,3.3,8.9,7.9
			h-5.4c-0.3-1.8-1.5-3.1-3.6-3.1c-2.6,0-4.1,1.8-4.1,4.3c0,2.3,1.5,4.3,4.1,4.3C324.4,335.1,325.7,333.8,325.9,332.1z"/>
		<path fill="#FFFFFF" d="M349.9,339.5h-5.1v-6.1h-6.1v6.1h-5.1v-17.4h5.1v6.6h6.1v-6.6h5.1V339.5z"/>
		<path fill="#FFFFFF" d="M370.6,331c0,5.1-3.8,8.9-9.4,8.9s-9.4-3.8-9.4-8.9s3.8-8.9,9.4-8.9S370.6,325.7,370.6,331z M365.5,331
			c0-2.3-1.8-4.3-4.1-4.3s-4.1,2-4.1,4.3s1.8,4.3,4.1,4.3C363.7,335.1,365.5,333.1,365.5,331z"/>
		<path fill="#FFFFFF" d="M391,331c0,5.1-3.8,8.9-9.4,8.9s-9.4-3.8-9.4-8.9s3.8-8.9,9.4-8.9S391,325.7,391,331z M385.9,331
			c0-2.3-1.8-4.3-4.1-4.3c-2.3,0-4.1,2-4.1,4.3s1.8,4.3,4.1,4.3C384.1,335.4,385.9,333.1,385.9,331z"/>
		<path fill="#FFFFFF" d="M406.6,339.5h-13.3v-17.4h5.1v12.8h8.2V339.5z"/>
	</g>
</g>
<g id="Diagnose_NL" display="none">
	<g display="inline">
		<polygon fill="#FFCC00" points="264.7,335.4 94.2,335.4 94.2,327.2 262.1,327.2 		"/>
	</g>
	
		<text transform="matrix(1 0 0 1 268.1807 339.5689)" display="inline" fill="#FFFFFF" font-family="'Campton-ExtraBold'" font-size="25.4883">diagnose</text>
</g>
<g id="Fleet_Services_NL" display="none">
	<g display="inline">
		<polygon fill="#FFCC00" points="188.1,335.4 94.2,335.4 94.2,327.2 185.6,327.2 		"/>
	</g>
	
		<text transform="matrix(1 0 0 1 191.5899 339.5689)" display="inline" fill="#FFFFFF" font-family="'Campton-ExtraBold'" font-size="25.4883">fleet services</text>
</g>
<g id="Telematics_NL" display="none">
	<g display="inline">
		<polygon fill="#FFCC00" points="239.2,335.4 94.2,335.4 94.2,327.2 236.6,327.2 		"/>
	</g>
	
		<text transform="matrix(1 0 0 1 241.4697 339.5689)" display="inline" fill="#FFFFFF" font-family="'Campton-ExtraBold'" font-size="25.4883">telematics</text>
</g>
<g id="Training__x26__Consult_NL" display="none">
	<g display="inline">
		<polygon fill="#FFCC00" points="137.1,335.4 94.2,335.4 94.2,327.2 134.5,327.2 		"/>
	</g>
	
		<text transform="matrix(1 0 0 1 138.0981 339.5689)" display="inline" fill="#FFFFFF" font-family="'Campton-ExtraBold'" font-size="24.2471">training &amp; consult</text>
</g>
<g id="Media_NL" display="none">
	<g display="inline">
		<polygon fill="#FFCC00" points="315.7,335.4 94.2,335.4 94.2,327.2 313.2,327.2 		"/>
	</g>
	
		<text transform="matrix(1 0 0 1 323.4916 339.5689)" display="inline" fill="#FFFFFF" font-family="'Campton-ExtraBold'" font-size="25.4883">media</text>
</g>
</svg>
