<?xml version="1.0" encoding="UTF-8" standalone="no"?>
<svg width="162px" height="95px" viewBox="0 0 162 95" version="1.1" xmlns="http://www.w3.org/2000/svg" xmlns:xlink="http://www.w3.org/1999/xlink">
    <!-- Generator: Sketch 3.8.3 (29802) - http://www.bohemiancoding.com/sketch -->
    <title>UI-styleguide-logo</title>
    <desc>Created with Sketch.</desc>
    <defs>
        <rect id="path-1" x="406" y="70" width="395" height="260"></rect>
        <mask id="mask-2" maskContentUnits="userSpaceOnUse" maskUnits="objectBoundingBox" x="0" y="0" width="395" height="260" fill="white">
            <use xlink:href="#path-1"></use>
        </mask>
        <polygon id="path-3" points="26.4841418 16.3483913 26.4841418 0.0444782609 0.0996059702 0.0444782609 0.0996059702 16.3483913 26.4841418 16.3483913"></polygon>
    </defs>
    <g id="Digital-styleguide" stroke="none" stroke-width="1" fill="none" fill-rule="evenodd">
        <g id="UI-styleguide-logo" transform="translate(-986.000000, -1724.000000)">
            <g id="merklabel-baseline-descriptor" transform="translate(462.000000, 1590.000000)" stroke="#EBEBEB" stroke-width="2">
                <use id="Rectangle-250" mask="url(#mask-2)" xlink:href="#path-1"></use>
            </g>
            <g id="Page-1" transform="translate(985.000000, 1725.000000)">
                <g id="Group-162" transform="translate(0.000000, 0.778011)">
                    <g id="Group-3" transform="translate(134.365672, 62.173913)">
                        <mask id="mask-4" fill="white">
                            <use xlink:href="#path-3"></use>
                        </mask>
                        <g id="Clip-2"></g>
                        <path d="M20.2113896,0.0444782609 L4.2483597,0.0444782609 C4.92119552,1.68491304 5.29245672,3.46284783 5.29245672,5.30415217 C5.29245672,9.29643478 3.77617313,13.4321957 0.0996059702,16.3483913 L26.4843821,16.3483913 L20.2113896,0.0444782609 Z" id="Fill-1" fill="#FECC00" mask="url(#mask-4)"></path>
                    </g>
                    <path d="M17.9302336,31.2278043 C18.0708082,30.867913 18.2197933,30.5116087 18.3783903,30.1612826 C18.4048231,30.1015 18.4324575,30.0405217 18.4600918,29.9807391 C18.6150843,29.6447609 18.7772858,29.3147609 18.9478978,28.9883478 C18.9659201,28.9524783 18.982741,28.915413 19.0007634,28.8795435 L5.57168134,19.404 C4.06020373,21.9136739 2.81305448,24.6170435 1.88670373,27.4866087 L17.9025993,31.2935652 C17.9110097,31.2720435 17.9206216,31.2493261 17.9302336,31.2278043" id="Fill-4" fill="#FECC00"></path>
                    <path id="Fill-6" fill="#FECC00"></path>
                    <path d="M22.4933821,23.9755761 C22.5318299,23.9337283 22.5738821,23.896663 22.6135313,23.8548152 C22.8622403,23.5917717 23.1181582,23.3347065 23.3800836,23.0836196 C23.4185313,23.0465543 23.4569791,23.0094891 23.4954269,22.9736196 C23.800606,22.6854674 24.1117925,22.4056848 24.4313896,22.1342717 L15.5295313,8.36275 C13.1589866,10.1490543 10.9866881,12.1948152 9.07150896,14.4809022 L22.505397,23.9612283 L22.4933821,23.9755761 Z" id="Fill-8" fill="#FECC00"></path>
                    <path id="Fill-10" fill="#FECC00"></path>
                    <path d="M16.3819903,39.8215543 C16.3807888,39.7330761 16.3831918,39.6445978 16.3831918,39.5561196 C16.3831918,39.523837 16.3807888,39.4915543 16.3807888,39.4604674 C16.3807888,39.4114457 16.3843933,39.3648152 16.3843933,39.3157935 C16.3855948,39.0276413 16.3940052,38.7394891 16.4060201,38.4501413 C16.4096246,38.3604674 16.4132291,38.2719891 16.4192366,38.1835109 C16.4360575,37.8726413 16.4588858,37.5605761 16.4901246,37.2473152 C16.4949306,37.1994891 16.4985351,37.1504674 16.503341,37.1026413 C16.5045425,37.0859022 16.505744,37.069163 16.5069455,37.0524239 C16.503341,37.0870978 16.4973336,37.1217717 16.4937291,37.1564457 L0.48624403,33.3494891 C0.583564925,32.7480761 0.692900746,32.1574239 0.81305,31.5679674 C0.673676866,32.2351413 0.545117164,32.9082935 0.440587313,33.5898152 C-0.00396492537,36.5048152 -0.101285821,39.3911196 0.100564925,42.2140543 L16.3807888,39.8012283 L16.3819903,39.8215543 Z" id="Fill-12" fill="#FECC00"></path>
                    <path id="Fill-14" fill="#FECC00"></path>
                    <path id="Fill-16" fill="#FECC00"></path>
                    <path d="M18.1555134,48.2681196 C18.1278791,48.1999674 18.1038493,48.1294239 18.0762149,48.0612717 C17.9464537,47.7432283 17.8214985,47.4227935 17.7049537,47.0987717 C17.668909,46.9971413 17.6352672,46.8943152 17.6004239,46.7914891 C17.495894,46.4854022 17.3973716,46.1769239 17.3060582,45.8648587 C17.2892373,45.8110543 17.2700134,45.7584457 17.254394,45.7034457 C17.2592,45.7237717 17.264006,45.7440978 17.2688119,45.7644239 L0.986185075,48.17725 C1.6578194,51.0910543 2.6562597,53.89725 3.95387164,56.5468152 L18.1543119,48.2657283 L18.1555134,48.2681196 Z" id="Fill-18" fill="#FECC00"></path>
                    <path id="Fill-20" fill="#FECC00"></path>
                    <path d="M31.997909,17.8788261 L28.8932522,1.79371739 C26.0012597,2.58284783 23.2282149,3.69719565 20.6185731,5.0985 L29.5204313,18.8652391 C30.3218269,18.4898043 31.1496552,18.161 31.997909,17.8788261" id="Fill-22" fill="#FECC00"></path>
                    <path id="Fill-24" fill="#FECC00"></path>
                    <path id="Fill-26" fill="#FECC00"></path>
                    <path id="Fill-28" fill="#FECC00"></path>
                    <path id="Fill-30" fill="#FECC00"></path>
                    <path id="Fill-32" fill="#FECC00"></path>
                    <path id="Fill-34" fill="#FECC00"></path>
                    <path d="M39.2473545,16.7048152 C39.7051231,16.7048152 40.1580858,16.7215543 40.6086455,16.7478587 L43.7625634,0.681880435 C40.7408097,0.331554348 37.7538993,0.335141304 34.8462873,0.660358696 L37.9449366,16.7442717 C38.3762724,16.7203587 38.8100112,16.7048152 39.2473545,16.7048152" id="Fill-36" fill="#FECC00"></path>
                    <path id="Fill-38" fill="#FECC00"></path>
                    <path d="M17.1945597,7.1641087 C17.7268209,6.80541304 18.2674925,6.45508696 18.8213806,6.12030435 C18.2698955,6.45508696 17.7268209,6.80421739 17.1945597,7.1641087" id="Fill-40" fill="#FECC00"></path>
                    <path d="M53.2375336,78.5231413 L46.966944,62.2192283 L39.238944,62.2192283 C38.8808993,62.2192283 38.5228545,62.2060761 38.1636082,62.1881413 C38.0795037,62.1845543 37.9966007,62.1785761 37.9136978,62.1737935 C37.6998321,62.1606413 37.4847649,62.1450978 37.2696978,62.1235761 C36.833556,62.0877065 36.3998172,62.0410761 35.9708843,61.9789022 L31.4809067,77.7447717 C32.0936679,77.8679239 32.7112351,77.9803152 33.3372127,78.0747717 C35.3220784,78.3748804 37.2925261,78.5016196 39.238944,78.4992283 L39.238944,78.5231413 L53.2375336,78.5231413 Z" id="Fill-42" fill="#FECC00"></path>
                    <path id="Fill-44" fill="#FECC00"></path>
                    <path d="M30.1522963,60.3455217 C30.0465649,60.300087 29.9456396,60.2462826 29.8399082,60.1996522 C29.5899978,60.0860652 29.3424903,59.9724783 29.0973858,59.8517174 C28.9580127,59.7823696 28.819841,59.7118261 28.6816694,59.6388913 C28.4377664,59.5121522 28.1962664,59.3794348 27.9559679,59.2443261 C27.8754679,59.1988913 27.7913634,59.1582391 27.7120649,59.1116087 C27.7300873,59.1235652 27.7469082,59.1355217 27.7661321,59.1462826 L17.6916172,72.0999783 C17.1281172,71.7317174 16.5730276,71.3491087 16.0311545,70.9485652 C15.5601694,70.6078043 15.0999978,70.2538913 14.6470351,69.8880217 C17.9018784,72.5041087 21.5988709,74.6263913 25.6515052,76.1113913 L30.1450873,60.3431304 L30.1522963,60.3455217 Z" id="Fill-46" fill="#FECC00"></path>
                    <path id="Fill-48" fill="#FECC00"></path>
                    <path d="M23.0694978,55.5465326 C22.9613634,55.4401196 22.862841,55.325337 22.7571097,55.215337 C22.5780873,55.0288152 22.3978634,54.8422935 22.2248485,54.6497935 C22.1251246,54.5385978 22.0278037,54.4250109 21.9304828,54.3114239 C21.7310351,54.080663 21.5363933,53.8475109 21.3465575,53.6095761 C21.3069082,53.5593587 21.2636545,53.5139239 21.2240052,53.4637065 L7.02236343,61.7424022 C8.72007239,64.173163 10.6929231,66.4126196 12.9036694,68.4105543 L22.9745799,55.45925 C23.0034157,55.490337 23.0394604,55.5154457 23.0694978,55.5465326" id="Fill-50" fill="#FECC00"></path>
                    <path id="Fill-52" fill="#FECC00"></path>
                    <polygon id="Fill-54" fill="#FECC00" points="20.0481045 51.8206413 20.051709 51.8266196 20.0408955 51.8098804"></polygon>
                    <path id="Fill-56" fill="#FECC00"></path>
                    <path id="Fill-58" fill="#FECC00"></path>
                    <path id="Fill-60" fill="#FECC00"></path>
                    <path id="Fill-62" fill="#FECC00"></path>
                    <path d="M56.0324455,24.013 L69.47955,14.5876739 C67.5871993,12.3087609 65.4389306,10.239087 63.0611769,8.42886957 L54.1100575,22.174087 C54.7852963,22.7503913 55.4292963,23.3625652 56.0324455,24.013" id="Fill-64" fill="#FECC00"></path>
                    <path d="M62.0176806,37.426663 L78.4408821,37.426663 C78.1104716,30.9809022 76.1676582,24.859163 72.9704866,19.5122065 L59.5209791,28.9375326 C60.8750612,31.51775 61.7473448,34.3849239 62.0176806,37.426663" id="Fill-66" fill="#FECC00"></path>
                    <path d="M49.0329104,18.8911848 L57.9816269,5.14955435 C55.3984179,3.75422826 52.6301791,2.63629348 49.7057463,1.83640217 L46.5542313,17.8987935 C47.4036866,18.1833587 48.2327164,18.5133587 49.0329104,18.8911848" id="Fill-68" fill="#FECC00"></path>
                    <path id="Fill-70" fill="#FECC00"></path>
                    <path id="Fill-72" fill="#FECC00"></path>
                    <path d="M57.34015,25.5531196 L70.7343888,16.1684457 L70.7343888,16.1684457 C70.7343888,16.1684457 70.7199709,16.1493152 70.7139634,16.13975 C70.4652545,15.8085543 70.2093366,15.4821413 69.9510157,15.1581196 C69.8897396,15.0815978 69.8272619,15.0050761 69.7647843,14.9285543 C69.6710679,14.8125761 69.5797545,14.6965978 69.4848366,14.5830109 L69.4800306,14.5877935 L56.0329261,24.0131196 C56.4918963,24.5057283 56.9268366,25.0210543 57.34015,25.5531196" id="Fill-74" fill="#00395D"></path>
                    <path d="M57.34015,25.5531196 C57.7510604,26.0815978 58.1391425,26.6304022 58.5031948,27.19475 L71.8914261,17.8112717 L71.8986351,17.8052935 C71.8505754,17.7323587 71.7965082,17.6630109 71.7460455,17.5912717 C71.4444709,17.1476848 71.1344858,16.7100761 70.8148888,16.280837 C70.7872545,16.2425761 70.7620231,16.2043152 70.7343888,16.1684457 L70.7343888,16.1684457 L57.34015,25.5531196 Z" id="Fill-76" fill="#FEFEFE"></path>
                    <path d="M58.5029545,27.19475 C58.8670067,27.7602935 59.2070291,28.3401848 59.5206187,28.9380109 L72.9701261,19.5126848 L72.9773351,19.5090978 C72.911253,19.3990978 72.8391634,19.2950761 72.7730813,19.1862717 C72.5556112,18.831163 72.3333351,18.4796413 72.1050515,18.1305109 C72.0353649,18.0240978 71.9704843,17.9117065 71.8983948,17.8052935 L71.8911858,17.8112717 L58.5029545,27.19475 Z" id="Fill-78" fill="#00395D"></path>
                    <path d="M50.820491,19.8363478 L59.7343642,6.15091304 L59.7367672,6.14971739 C59.7199463,6.14015217 59.7043269,6.13178261 59.687506,6.12102174 C59.2814015,5.87352174 58.8680881,5.63558696 58.4511701,5.40363043 C58.3670657,5.357 58.2817597,5.30917391 58.1976552,5.26373913 C58.1255657,5.22428261 58.0546776,5.18363043 57.9837896,5.14417391 L57.9813866,5.14895652 L49.0326701,18.8917826 C49.6442299,19.1799348 50.2401701,19.4967826 50.820491,19.8363478" id="Fill-80" fill="#00395D"></path>
                    <path d="M50.820491,19.8363478 C51.4008119,20.1771087 51.9655134,20.5429783 52.5121925,20.9303696 L61.4224612,7.24613043 L61.4260657,7.24015217 C61.3732,7.20308696 61.3167299,7.17080435 61.2626627,7.13493478 C60.8349313,6.84558696 60.4011925,6.56580435 59.9614463,6.2943913 C59.8845507,6.24776087 59.8124612,6.19515217 59.7367672,6.14971739 L59.7343642,6.15091304 L50.820491,19.8363478 Z" id="Fill-82" fill="#FEFEFE"></path>
                    <path d="M52.5118321,20.9304891 C53.0633172,21.322663 53.5955784,21.7363587 54.1098172,22.175163 L63.0609366,8.42875 L63.0657425,8.42157609 C62.9744291,8.35342391 62.8795112,8.29125 62.7881978,8.22190217 C62.4385634,7.96125 62.0829216,7.70538043 61.7236754,7.45429348 C61.62275,7.38494565 61.5278321,7.30961957 61.4257052,7.24027174 L61.4233022,7.24625 L52.5118321,20.9304891 Z" id="Fill-84" fill="#00395D"></path>
                    <path d="M42.6259515,16.9541087 L45.766653,0.963456522 L45.766653,0.96226087 C45.5551903,0.927586957 45.3533396,0.88573913 45.1442799,0.855847826 C44.6829067,0.784108696 44.2227351,0.733891304 43.7625634,0.678891304 L43.7625634,0.681282609 L40.6086455,16.7484565 C41.2898918,16.787913 41.9627276,16.8560652 42.6259515,16.9541087" id="Fill-86" fill="#00395D"></path>
                    <path d="M42.6259515,16.9541087 C43.2975858,17.0533478 43.9572052,17.1836739 44.6084142,17.3403043 L47.7455112,1.34726087 L47.7455112,1.34606522 C47.7334963,1.34367391 47.7226828,1.34128261 47.7106679,1.3388913 C47.0786828,1.2013913 46.4382873,1.07823913 45.7966903,0.96823913 C45.7966903,0.96823913 45.7762649,0.963456522 45.766653,0.96226087 L45.766653,0.963456522 L42.6259515,16.9541087 Z" id="Fill-88" fill="#FEFEFE"></path>
                    <path d="M44.6088948,17.3399457 C45.2697157,17.4977717 45.9173201,17.6854891 46.5553127,17.8983152 L49.7056261,1.83711957 L49.7068276,1.8311413 C49.641947,1.81440217 49.5770664,1.79766304 49.5121858,1.78092391 C49.4088575,1.75222826 49.3043276,1.72592391 49.2009993,1.69961957 C48.7288127,1.57646739 48.2566261,1.46048913 47.7784321,1.35407609 C47.7664172,1.35168478 47.7568052,1.34809783 47.7568052,1.34809783 L47.7459918,1.34690217 L44.6088948,17.3399457 Z" id="Fill-90" fill="#00395D"></path>
                    <path d="M33.9474507,17.3259565 L30.8584134,1.31258696 C30.8331821,1.31736957 30.8091522,1.32334783 30.7851224,1.32932609 C30.5436224,1.38193478 30.3033239,1.43813043 30.0630254,1.49552174 C29.9993463,1.51106522 29.9356672,1.52541304 29.8707866,1.54095652 C29.557197,1.61867391 29.242406,1.69997826 28.9288164,1.78367391 C28.9168015,1.78606522 28.9059881,1.78845652 28.8927716,1.79204348 L28.8927716,1.79323913 L31.9974284,17.8783478 C32.6366224,17.6667174 33.2854284,17.482587 33.9474507,17.3259565" id="Fill-92" fill="#00395D"></path>
                    <path d="M33.9474507,17.3259565 C34.5974582,17.172913 35.2582791,17.0437826 35.9287119,16.9469348 L32.8420776,0.932369565 C32.782003,0.943130435 32.7207269,0.955086957 32.6618537,0.964652174 C32.5212791,0.988565217 32.381906,1.01367391 32.2425328,1.03878261 C32.0551,1.07226087 31.8664657,1.10693478 31.6790328,1.14280435 C31.5360552,1.1715 31.3918761,1.2013913 31.2488985,1.23247826 C31.1179358,1.25878261 30.9881746,1.28269565 30.8584134,1.31258696 L33.9474507,17.3259565 Z" id="Fill-94" fill="#FEFEFE"></path>
                    <path d="M35.9285918,16.9464565 C36.5918157,16.8508043 37.2646515,16.7814565 37.9446963,16.7443913 L34.846047,0.659282609 L34.8448455,0.655695652 C34.7102784,0.670043478 34.5781142,0.689173913 34.4447485,0.704717391 C34.3738604,0.713086957 34.3029724,0.722652174 34.2332858,0.731021739 C34.0038007,0.760913043 33.7755172,0.792 33.5472336,0.825478261 C33.4258828,0.843413043 33.3069351,0.861347826 33.1867858,0.880478261 C33.072644,0.898413043 32.9560993,0.913956522 32.8419575,0.933086957 L35.9285918,16.9464565 Z" id="Fill-96" fill="#00395D"></path>
                    <path d="M26.0338201,20.8942609 L17.1680067,7.18371739 L17.1668052,7.18252174 C17.1439769,7.19806522 17.1211485,7.216 17.0983201,7.23154348 C16.7835291,7.44556522 16.4723425,7.66676087 16.163559,7.89034783 C16.0229843,7.99197826 15.8848127,8.09480435 15.7454396,8.19763043 C15.67335,8.25263043 15.5988575,8.30523913 15.5267679,8.35904348 L15.5291709,8.36263043 L24.4310291,22.1341522 C24.9464694,21.6965435 25.4823351,21.2840435 26.0338201,20.8942609" id="Fill-98" fill="#00395D"></path>
                    <path d="M26.0338201,20.8942609 C26.5829022,20.5068696 27.1476037,20.1433913 27.7303276,19.8038261 L18.8645142,6.09328261 L18.8645142,6.09208696 C18.8488948,6.10165217 18.8356784,6.11241304 18.8212604,6.12078261 C18.2673724,6.45556522 17.7279022,6.8058913 17.1944396,7.16458696 C17.1848276,7.17056522 17.1764172,7.17534783 17.1668052,7.18252174 L17.1680067,7.18371739 L26.0338201,20.8942609 Z" id="Fill-100" fill="#FEFEFE"></path>
                    <path d="M27.7304478,19.8043043 C28.3107687,19.4671304 28.9079104,19.1514783 29.5206716,18.8645217 L20.6188134,5.09897826 L20.615209,5.09180435 C20.4698284,5.17071739 20.3256493,5.25321739 20.1814701,5.33213043 C20.1093806,5.37278261 20.0360896,5.41223913 19.964,5.4528913 C19.5975448,5.65973913 19.2334925,5.87017391 18.8742463,6.08658696 L18.8646343,6.09256522 L18.8646343,6.09376087 L27.7304478,19.8043043 Z" id="Fill-102" fill="#00395D"></path>
                    <path d="M19.0014843,28.8808587 L19.0183052,28.852163 C19.1492679,28.604663 19.2862381,28.3619457 19.4268127,28.1204239 C19.459253,28.0606413 19.4928948,28.0020543 19.5277381,27.9434674 C19.6574993,27.7234674 19.7920664,27.5070543 19.9278351,27.2930326 C19.9566709,27.2475978 19.9831037,27.202163 20.0119396,27.1579239 L20.022753,27.1375978 L6.65254403,17.7003152 C6.37019328,18.1164022 6.09985746,18.5408587 5.8355291,18.9700978 C5.77064851,19.0753152 5.70456642,19.1805326 5.63968582,19.2869457 C5.61685746,19.3252065 5.59282761,19.3634674 5.56999925,19.4005326 L5.57240224,19.4041196 L19.0014843,28.879663 L19.0014843,28.8808587 Z" id="Fill-104" fill="#00395D"></path>
                    <path d="M20.0222724,27.1375978 L20.0378918,27.1160761 C20.0583172,27.0837935 20.082347,27.0527065 20.1027724,27.0204239 C20.2421455,26.8099891 20.3827201,26.604337 20.5281007,26.3986848 C20.574959,26.3317283 20.6242201,26.2635761 20.6722799,26.1966196 C20.8260709,25.9837935 20.9834664,25.772163 21.1444664,25.5641196 C21.1612873,25.5437935 21.1757052,25.5210761 21.1937276,25.50075 L21.1913246,25.4995543 L7.81991418,16.0610761 C7.44504851,16.5584674 7.08460075,17.0666196 6.73496642,17.58075 C6.72054851,17.6022717 6.7061306,17.6237935 6.69051119,17.6441196 C6.67849627,17.66325 6.66527985,17.6811848 6.65206343,17.7003152 L20.0222724,27.1375978 Z" id="Fill-106" fill="#FEFEFE"></path>
                    <path d="M21.1909642,25.4993152 L21.1933672,25.5005109 C21.2198,25.465837 21.2498373,25.431163 21.2774716,25.3976848 C21.4396731,25.1920326 21.6042776,24.9875761 21.7736881,24.7879022 C21.8409716,24.7077935 21.9106582,24.6324674 21.9791433,24.5535543 C22.1305313,24.3801848 22.2807179,24.2080109 22.4369119,24.0394239 C22.4561358,24.0179022 22.4741582,23.9963804 22.4933821,23.9760543 L22.500591,23.9652935 L9.07150896,14.4801848 L9.07030746,14.4789891 C9.0006209,14.5626848 8.93814328,14.651163 8.86845672,14.7360543 C8.51161343,15.1700761 8.15837463,15.6100761 7.81955373,16.060837 L21.1909642,25.4993152 Z" id="Fill-108" fill="#00395D"></path>
                    <path d="M16.4934888,37.1569239 C16.4970933,37.12225 16.5031007,37.0863804 16.5067052,37.0517065 C16.545153,36.7145326 16.5860037,36.3785543 16.6364664,36.0401848 C16.6388694,36.0282283 16.6412724,36.0162717 16.6424739,36.0031196 C16.6869291,35.7209457 16.7397948,35.441163 16.7926604,35.1625761 L0.851257463,31.3687717 C0.838041045,31.4345326 0.826026119,31.5014891 0.812809701,31.5684457 C0.69386194,32.1567065 0.583324627,32.7485543 0.487205224,33.3487717 L16.4934888,37.1569239 Z" id="Fill-110" fill="#00395D"></path>
                    <path d="M16.7932612,35.1620978 C16.9206194,34.4997065 17.0780149,33.8480761 17.2630448,33.2072065 L1.3204403,29.4145978 C1.25796269,29.6465543 1.20149254,29.8785109 1.1438209,30.111663 C1.07413433,30.3974239 1.00564925,30.6843804 0.941970149,30.9725326 C0.911932836,31.10525 0.88069403,31.2367717 0.851858209,31.3694891 L16.7932612,35.1620978 Z" id="Fill-112" fill="#FEFEFE"></path>
                    <path d="M17.2625642,33.2068478 C17.3550791,32.8828261 17.454803,32.5611957 17.5617358,32.2431522 L17.5629373,32.2383696 C17.6662657,31.9346739 17.771997,31.6357609 17.8849373,31.3404348 C17.8909448,31.326087 17.8957507,31.3105435 17.9005567,31.2961957 L17.9017582,31.2938043 L17.9017582,31.2938043 L1.88706418,27.4856522 L1.88586269,27.4916304 C1.75369851,27.9041304 1.62874328,28.321413 1.50979552,28.741087 C1.46654179,28.8929348 1.42208657,29.0471739 1.38003433,29.2002174 C1.36081045,29.2731522 1.33918358,29.3436957 1.3199597,29.4154348 L17.2625642,33.2068478 Z" id="Fill-114" fill="#00395D"></path>
                    <path d="M17.254394,45.7040435 C17.2315657,45.6239348 17.2123418,45.5414348 17.1907149,45.4613261 C17.1414537,45.2831739 17.093394,45.1038261 17.0489388,44.9244783 C16.9840582,44.6650217 16.9251851,44.4043696 16.8675134,44.1425217 C16.8603045,44.1054565 16.8506925,44.0683913 16.8422821,44.0313261 C16.8290657,43.9727391 16.8146478,43.9141522 16.8026328,43.8555652 C16.8002299,43.8376304 16.7942224,43.822087 16.7906179,43.8041522 L0.58608806,46.2050217 L0.584886567,46.2050217 L0.589692537,46.2241522 C0.706237313,46.8793696 0.8372,47.527413 0.984983582,48.1706739 L0.986185075,48.1778478 L17.2688119,45.7638261 C17.264006,45.7435 17.2592,45.7243696 17.254394,45.7040435" id="Fill-116" fill="#00395D"></path>
                    <path d="M16.7909784,43.8036739 C16.7837694,43.7666087 16.7813664,43.7259565 16.7741575,43.6876957 C16.7285007,43.4473696 16.690053,43.2046522 16.6516052,42.9631304 C16.6492022,42.947587 16.6455978,42.9320435 16.6431948,42.9165 C16.5903291,42.5757391 16.5410679,42.2337826 16.5050231,41.8882391 C16.5014187,41.8643261 16.4966127,41.8416087 16.4930082,41.8176957 L0.290881343,44.2173696 C0.298090299,44.2831304 0.308903731,44.3476957 0.317314179,44.4134565 C0.33653806,44.5748696 0.359366418,44.7338913 0.380993284,44.8953043 C0.442269403,45.3269348 0.508351493,45.7573696 0.581642537,46.185413 L0.585247015,46.2045435 L0.586448507,46.2045435 L16.7909784,43.8036739 Z" id="Fill-118" fill="#FEFEFE"></path>
                    <path d="M16.4934888,41.8181739 L16.4910858,41.7954565 C16.4250037,41.1450217 16.3913619,40.4862174 16.38175,39.8214348 L16.3805485,39.8011087 L0.100324627,42.2139348 L0.0955186567,42.2139348 C0.107533582,42.3813261 0.123152985,42.5463261 0.137570896,42.7125217 C0.150787313,42.8811087 0.164003731,43.0496957 0.179623134,43.2182826 C0.212063433,43.5530652 0.248108209,43.8854565 0.290160448,44.2178478 L16.4934888,41.8181739 Z" id="Fill-120" fill="#00395D"></path>
                    <path d="M21.2243657,53.4634674 L21.2231642,53.4634674 C21.1835149,53.4120543 21.1462687,53.35825 21.1054179,53.306837 C20.9780597,53.1406413 20.8531045,52.97325 20.7305522,52.804663 C20.6548582,52.7006413 20.5815672,52.5966196 20.5070746,52.4925978 C20.3797164,52.3108587 20.2535597,52.1279239 20.132209,51.9425978 C20.1057761,51.9031413 20.0781418,51.8672717 20.051709,51.8266196 L20.0481045,51.8206413 L5.91014179,60.0622717 L5.90773881,60.0622717 C5.92816418,60.092163 5.94979104,60.12325 5.96901493,60.1567283 C6.30182836,60.6804239 6.64425373,61.19575 6.99749254,61.7086848 C7.00590299,61.7194457 7.01311194,61.7314022 7.0203209,61.7433587 L7.02152239,61.742163 L21.2243657,53.4634674 Z" id="Fill-122" fill="#00395D"></path>
                    <path d="M20.0481045,51.8206413 L20.0408955,51.8098804 C20.0024478,51.7500978 19.9676045,51.6891196 19.9291567,51.6281413 C19.8114104,51.4440109 19.6948657,51.2586848 19.5819254,51.0709674 C19.4978209,50.9310761 19.4185224,50.7875978 19.3368209,50.6453152 C19.2539179,50.5006413 19.1710149,50.3583587 19.0929179,50.2124891 C19.0724925,50.1766196 19.0520672,50.1431413 19.0328433,50.1072717 L19.0244328,50.0941196 L4.88767164,58.3309674 L4.88526866,58.3309674 C4.90449254,58.3656413 4.9261194,58.3979239 4.94534328,58.4314022 C5.24211194,58.9610761 5.55089552,59.4847717 5.87289552,60.0024891 C5.88370896,60.0204239 5.89572388,60.0431413 5.90773881,60.0622717 L5.91014179,60.0622717 L20.0481045,51.8206413 Z" id="Fill-124" fill="#FEFEFE"></path>
                    <path d="M19.0202276,50.0867065 C19.0106157,50.0663804 19.0022052,50.0460543 18.9937948,50.0293152 C18.9385261,49.9240978 18.8880634,49.8176848 18.8351978,49.713663 C18.7522948,49.5498587 18.6681903,49.38725 18.5888918,49.2234457 C18.4627351,48.9604022 18.3425858,48.6925761 18.226041,48.4235543 C18.2092201,48.3852935 18.1911978,48.3482283 18.1743769,48.3087717 C18.1695709,48.2944239 18.1623619,48.2812717 18.155153,48.2681196 L18.155153,48.2657283 L3.95351119,56.5468152 L3.95351119,56.5468152 C3.95951866,56.5599674 3.9679291,56.5719239 3.97393657,56.5850761 C4.25388433,57.1565978 4.55185448,57.7257283 4.86183955,58.2840978 C4.87145149,58.2996413 4.87745896,58.3163804 4.8858694,58.3307283 L4.8870709,58.3307283 L19.0202276,50.0867065 Z" id="Fill-126" fill="#00395D"></path>
                    <path d="M26.0614545,58.0581196 L16.0313948,70.9484457 C16.5732679,71.3489891 17.127156,71.7315978 17.6918575,72.0998587 L27.7651709,59.146163 C27.7471485,59.1354022 27.7303276,59.1234457 27.7123052,59.1114891 C27.6486261,59.0756196 27.5885515,59.036163 27.5272754,58.9990978 C27.4179396,58.933337 27.3110067,58.8687717 27.2028724,58.8018152 C27.0034246,58.678663 26.8051784,58.5519239 26.6093351,58.4239891 C26.5216261,58.3654022 26.4351187,58.3068152 26.3474097,58.2470326 C26.2645067,58.190837 26.1804022,58.1382283 26.0987007,58.0820326 C26.0854843,58.073663 26.0734694,58.0676848 26.0614545,58.0581196" id="Fill-128" fill="#00395D"></path>
                    <path d="M26.0614545,58.0581196 C26.0410291,58.0449674 26.0254097,58.0294239 26.0049843,58.0162717 C25.8824321,57.9289891 25.7634843,57.8381196 25.6433351,57.7496413 C25.6000813,57.7173587 25.5568276,57.6862717 25.5135739,57.6539891 C25.2396336,57.4495326 24.9704993,57.2390978 24.7061709,57.0226848 L24.7001634,57.0179022 C24.6328799,56.9617065 24.5607903,56.9090978 24.4935067,56.8517065 C24.4838948,56.843337 24.4730813,56.8373587 24.4730813,56.8373587 L14.4346112,69.7205109 C14.5042978,69.7779022 14.5763873,69.8329022 14.6460739,69.8890978 C15.1002381,70.2537717 15.5604097,70.6076848 16.0313948,70.9484457 L26.0614545,58.0581196 Z" id="Fill-130" fill="#FEFEFE"></path>
                    <path d="M24.46395,56.8298261 C24.4411216,56.8095 24.4194948,56.7879783 24.3954649,56.7664565 C24.2236515,56.6193913 24.056644,56.4687391 23.8872336,56.3168913 L23.8668082,56.2989565 C23.5952709,56.0538478 23.3285396,55.8051522 23.0690172,55.5468913 C23.0389799,55.5146087 23.0041366,55.4895 22.9753007,55.4596087 L12.9031888,68.410913 L12.9019873,68.4121087 C13.189144,68.6691739 13.4811067,68.9226522 13.7766739,69.1725435 C13.9532933,69.3208043 14.1311142,69.4702609 14.3101366,69.6173261 C14.3521888,69.652 14.3930396,69.6866739 14.4350918,69.7201522 L24.46395,56.8298261 Z" id="Fill-132" fill="#00395D"></path>
                    <path d="M35.0415299,61.8237065 C35.0018806,61.8165326 34.9622313,61.8105543 34.9213806,61.8021848 C34.6246119,61.7471848 34.3302463,61.6826196 34.0370821,61.6132717 C34.0178582,61.6108804 33.9998358,61.6072935 33.9818134,61.6037065 L29.5086567,77.297837 C30.1406418,77.4616413 30.7834403,77.6039239 31.4298433,77.737837 C31.4454627,77.7414239 31.4622836,77.7438152 31.480306,77.7485978 L31.480306,77.7438152 L35.9714851,61.9791413 C35.659097,61.9349022 35.3491119,61.8822935 35.0415299,61.8237065" id="Fill-134" fill="#00395D"></path>
                    <path d="M33.9820537,61.6041848 C33.9700388,61.6017935 33.9592254,61.5970109 33.9484119,61.5934239 C33.3260388,61.4475543 32.7108746,61.2753804 32.1089269,61.0792935 C32.0969119,61.0757065 32.084897,61.0709239 32.0728821,61.067337 C32.0608672,61.06375 32.0500537,61.0625543 32.0392403,61.0589674 L27.5696881,76.7542935 L27.5684866,76.7578804 C27.7439045,76.8116848 27.9253299,76.8559239 28.1031507,76.9061413 C28.5681284,77.04125 29.033106,77.17875 29.508897,77.2983152 L33.9820537,61.6041848 Z" id="Fill-136" fill="#FEFEFE"></path>
                    <path d="M32.039,61.0589674 C32.0221791,61.0505978 32.0077612,61.0446196 31.9897388,61.0374457 C31.9897388,61.0374457 31.9705149,61.0314674 31.9621045,61.0290761 C31.6917687,60.9382065 31.4238358,60.8449457 31.1595075,60.7457065 C30.994903,60.6835326 30.833903,60.620163 30.6705,60.5544022 C30.5395373,60.5017935 30.4073731,60.4503804 30.2776119,60.3953804 C30.2367612,60.3786413 30.1935075,60.3630978 30.1526567,60.345163 L30.1442463,60.3427717 L25.6518657,76.1110326 L25.6518657,76.1122283 C25.9882836,76.2353804 26.3367164,76.3429891 26.6803433,76.4577717 C26.9590896,76.5522283 27.2342313,76.6538587 27.5177836,76.7399457 C27.5346045,76.7459239 27.5514254,76.7530978 27.5682463,76.7578804 L27.5694478,76.7542935 L32.039,61.0589674 Z" id="Fill-138" fill="#00395D"></path>
                    <path d="M115.879029,55.8529783 L119.948484,55.8529783 C125.42729,55.8529783 126.183029,53.9327609 126.183029,51.8571087 C126.183029,50.7750435 126.183029,48.2438478 120.378619,48.2438478 L115.879029,48.2438478 L115.879029,55.8529783 Z M115.879029,71.7145 L121.20044,71.7145 C122.320231,71.7145 127.921589,71.5040652 127.921589,67.3360217 C127.921589,64.2356957 125.694022,62.6646087 121.291753,62.6646087 L115.879029,62.6646087 L115.879029,71.7145 Z M120.477141,78.5225435 L108.745768,78.5225435 L108.745768,41.4381957 L120.718641,41.4381957 C128.666514,41.4381957 133.608253,45.2296087 133.608253,51.3286304 C133.608253,54.4361304 132.356298,56.998413 130.075865,58.7261304 C133.245402,60.3940652 135.34441,63.6868913 135.34441,67.4806957 C135.34441,74.4991739 129.923275,78.5225435 120.477141,78.5225435 L120.477141,78.5225435 Z" id="Fill-140" fill="#00395D"></path>
                    <polygon id="Fill-142" fill="#00395D" points="63.9427119 78.5231413 57.9280403 78.5231413 43.6627194 41.4411848 51.5505179 41.4411848 61.0831597 66.7674891 70.9233836 41.4411848 78.5312343 41.4411848"></polygon>
                    <path d="M84.3839448,63.3533043 L93.3302582,63.3533043 L88.6252134,52.0508043 L84.3839448,63.3533043 Z M106.081699,78.5237391 L99.7221985,78.5237391 L96.1249299,70.1625435 L81.7779075,70.1625435 L78.6780567,78.5237391 L71.1194672,78.5237391 L85.792094,41.4381957 L91.6241388,41.4381957 L107.469422,78.5237391 L106.081699,78.5237391 Z" id="Fill-144" fill="#00395D"></path>
                    <path id="Fill-146" fill="#FECC00"></path>
                    <path id="Fill-148" fill="#FECC00"></path>
                    <path id="Fill-150" fill="#FECC00"></path>
                    <path id="Fill-154" fill="#FECC00"></path>
                    <path d="M5.87253507,60.00225 C5.55053507,59.4845326 5.24295299,58.960837 4.94498284,58.431163 C5.24295299,58.9620326 5.55053507,59.4857283 5.87253507,60.00225" id="Fill-160" fill="#FECC00"></path>
                </g>
                <polygon id="Fill-164" fill="#FECC00" points="99.3541813 90.0787609 7.0591291 90.0787609 7.0591291 86.1905 98.1526888 86.1905"></polygon>
                <path d="M109.73436,87.5487126 C110.453373,87.2730907 110.848831,86.4462251 110.848831,85.739195 C110.848831,84.4210034 109.782294,83.5581871 107.98476,83.5581871 L103.862415,83.5581871 L103.862415,91.7070079 L108.284349,91.7070079 C110.153784,91.7070079 111.208338,90.7842738 111.208338,89.418148 C111.208338,88.5792988 110.681061,87.7644167 109.73436,87.5487126 L109.73436,87.5487126 Z M106.271111,85.439606 L107.553352,85.439606 C108.176497,85.439606 108.512037,85.6433266 108.512037,86.0987018 C108.512037,86.5181264 108.164513,86.8057319 107.553352,86.8057319 L106.271111,86.8057319 L106.271111,85.439606 Z M106.271111,89.8016219 L106.271111,88.4474796 L107.840957,88.4474796 C108.536004,88.4474796 108.847576,88.6512001 108.847576,89.0826083 C108.847576,89.526 108.536004,89.8016219 107.828974,89.8016219 L106.271111,89.8016219 Z M116.984414,90.5446026 L117.415822,91.7070079 L119.980304,91.7070079 L116.60094,83.5102529 L114.240178,83.5102529 L110.860814,91.7070079 L113.43728,91.7070079 L113.856704,90.5446026 L116.984414,90.5446026 Z M116.2654,88.5792988 L114.575718,88.5792988 L115.414567,86.2664717 L116.2654,88.5792988 Z M128.344828,83.5581871 L125.924149,83.5581871 L125.924149,87.4768112 L122.532802,83.5581871 L120.651383,83.5581871 L120.651383,91.7070079 L123.060078,91.7070079 L123.060078,87.8602852 L126.463409,91.7070079 L128.344828,91.7070079 L128.344828,83.5581871 Z M129.543184,83.5581871 L129.543184,91.7070079 L132.970483,91.7070079 C135.582899,91.7070079 137.4044,90.1012109 137.4044,87.620614 C137.4044,85.1520006 135.582899,83.5581871 132.970483,83.5581871 L129.543184,83.5581871 Z M131.95188,89.5739342 L131.95188,85.6912608 L132.970483,85.6912608 C134.108921,85.6912608 134.94777,86.4941593 134.94777,87.620614 C134.94777,88.7590522 134.108921,89.5739342 132.970483,89.5739342 L131.95188,89.5739342 Z M140.783764,85.5834088 L144.702388,85.5834088 L144.702388,83.5581871 L138.375068,83.5581871 L138.375068,91.7070079 L144.702388,91.7070079 L144.702388,89.6817863 L140.783764,89.6817863 L140.783764,88.6152494 L144.13916,88.6152494 L144.13916,86.6739127 L140.783764,86.6739127 L140.783764,85.5834088 Z M153.366502,83.5581871 L150.945823,83.5581871 L150.945823,87.4768112 L147.554475,83.5581871 L145.673056,83.5581871 L145.673056,91.7070079 L148.081752,91.7070079 L148.081752,87.8602852 L151.485083,91.7070079 L153.366502,91.7070079 L153.366502,83.5581871 Z" id="BANDEN" fill="#00395D"></path>
            </g>
        </g>
    </g>
</svg>