<svg viewBox="0 0 290 149" xmlns="http://www.w3.org/2000/svg"><title>logo--color</title><g fill="none" fill-rule="evenodd"><path d="M277.634 117h-18.8a26.375 26.375 0 0 1 1.97 9.981c0 7.577-2.863 15.425-9.804 20.957h38.48L277.634 117" fill="#FDD21F"/><path d="M216.469 105.355h7.685c10.347 0 11.774-3.644 11.774-7.583 0-2.053 0-6.857-10.962-6.857h-8.497v14.44zm0 30.1h10.05c2.114 0 12.692-.396 12.692-8.308 0-5.882-4.207-8.865-12.52-8.865h-10.222v17.174zm8.683 12.92H203V78h22.608c15.01 0 24.342 7.197 24.342 18.772 0 5.894-2.364 10.757-6.67 14.036 5.985 3.167 9.95 9.416 9.95 16.613 0 13.322-10.239 20.955-28.078 20.955zm-104.853-.004h-11.36L82 78h14.896l18 48.062L133.48 78h14.37l-27.55 70.371m36.75-28.782h16.895l-8.886-21.447-8.01 21.447zm40.976 28.789h-12.01l-6.791-15.865h-27.097l-5.851 15.865H132L159.71 78h11.013l29.924 70.378h-2.621z" fill="#00304A"/><path d="M11 35.601c.12-.202.245-.4.37-.601-.125.202-.25.402-.37.601m23.296 22.837a42.755 42.755 0 0 1 1.922-4.25c.034-.068.065-.138.1-.206L10.956 36A73.614 73.614 0 0 0 4 51.339l30.244 7.226c.016-.043.034-.084.052-.127M13 32.12l.082-.12-.082.12m29.347 12.509c.073-.08.152-.152.227-.23a41.918 41.918 0 0 1 1.665-1.672 45.186 45.186 0 0 1 1.768-1.595L29.196 15A74.167 74.167 0 0 0 17 26.608l25.37 17.993c-.01.01-.014.019-.023.028m-4.327 5.41a.598.598 0 0 0-.02.038.918.918 0 0 1 .052-.077l-.032.039m-7.083 24.624c-.002-.168.004-.338.002-.504l-.002-.181c0-.093.004-.182.004-.275.005-.547.018-1.093.043-1.643a36.105 36.105 0 0 1 .157-2.282c.01-.091.016-.184.025-.275.002-.032.007-.063.007-.097a5.329 5.329 0 0 1-.025.2L.92 62.38c.182-1.141.39-2.262.615-3.381a75.63 75.63 0 0 0-.701 3.835 73.835 73.835 0 0 0-.645 16.368l30.746-4.579.002.039M.08 80.96C.05 80.64.026 80.32 0 80c.027.32.05.64.08.96m1.043 2.954C1.082 83.61 1.039 83.306 1 83c.039.306.082.61.123.914m30.909-1.694c.007.036.016.066.022.098-.02-.107-.034-.211-.054-.318.014.073.018.15.032.22m-1.03-4.177c.007.045.016.086.02.132-.006-.06-.015-.116-.022-.175.002.014 0 .027.002.043m3.422 12.822c-.054-.13-.097-.261-.15-.393a41.018 41.018 0 0 1-.7-1.826c-.069-.193-.132-.388-.198-.583a41.56 41.56 0 0 1-.556-1.757c-.032-.102-.07-.204-.098-.306.01.036.016.075.028.113L2 90.695a73.775 73.775 0 0 0 5.604 15.883L34.422 90.86s.002 0 .002.005m26.066-58.34L54.627 2A74.164 74.164 0 0 0 39 8.272l16.811 26.123a43.227 43.227 0 0 1 4.679-1.87M61 1.143c.263-.048.526-.098.792-.143a44.33 44.33 0 0 0-.792.143m2-.039c.227-.036.454-.07.68-.104-.226.032-.453.068-.68.104m-4 .066c.27-.057.542-.116.812-.17-.27.054-.542.113-.812.17m6-1.12l.4-.05-.4.05m9.311 30.859c.865 0 1.72.031 2.573.081L82.838.502A74.117 74.117 0 0 0 66 .458l5.852 30.525a44.17 44.17 0 0 1 2.46-.074m25.775 117.485l-11.842-30.938H73.651c-.674 0-1.352-.027-2.03-.061-.157-.007-.314-.016-.473-.025a38.73 38.73 0 0 1-1.216-.095 43.49 43.49 0 0 1-2.45-.275L59 146.917c1.16.236 2.326.447 3.506.626 3.75.57 7.47.812 11.145.808v.043h26.436M36.05 94.109l.025.04c-.027-.05-.048-.101-.075-.149.018.034.032.073.05.109m21.232 19.233c-.2-.087-.39-.189-.59-.277-.472-.213-.94-.431-1.4-.66a42.009 42.009 0 0 1-2.156-1.153c-.154-.086-.31-.164-.463-.252.037.023.068.048.102.066l-19.023 24.582a66.625 66.625 0 0 1-3.136-2.183A66.133 66.133 0 0 1 28 131.453a73.478 73.478 0 0 0 20.784 11.808l8.484-29.924c.007.002.011.002.014.005m-30.275 17.502c-.338-.279-.673-.563-1.007-.844.334.284.67.565 1.007.844m16.298-26.889c-.202-.204-.39-.422-.588-.629-.34-.354-.678-.71-1.005-1.075-.19-.211-.374-.427-.558-.642a41.256 41.256 0 0 1-1.103-1.33c-.075-.095-.156-.184-.229-.279L13 115.71a74.67 74.67 0 0 0 11.107 12.655l19.02-24.578c.055.059.121.107.178.168m20.861 12.084A2.182 2.182 0 0 1 64 116c.02.007.04.016.064.02.034.007.068.014.102.019M38.014 97.02l.006.014c-.006-.014-.013-.023-.02-.034l.014.02m8.116 10.1c.017.014.038.027.056.041-.061-.05-.122-.107-.186-.161.045.04.086.082.13.12M49 109c.036.025.068.057.107.08.02.018.045.029.068.045A8.323 8.323 0 0 0 49 109m11.093 6.04c.02.008.04.01.064.017-.055-.016-.105-.039-.157-.057.032.014.061.025.093.04M132 27c.118.145.236.29.352.436-.116-.146-.234-.29-.352-.436m-26.37 17.574l25.397-17.886A74.363 74.363 0 0 0 118.907 15L102 41.087a42.844 42.844 0 0 1 3.63 3.487m11.085 25.423h31.015c-.626-12.233-4.293-23.85-10.33-33.997L112 53.887a42.902 42.902 0 0 1 4.715 16.11M92.681 34.363l16.9-26.078A73.798 73.798 0 0 0 93.95 2L88 32.48a43.34 43.34 0 0 1 4.681 1.883M93 2c.197.052.395.102.588.154-.193-.052-.39-.102-.588-.154m17 7c.161.086.322.177.481.265-.159-.088-.32-.179-.481-.265" fill="#FDD21F"/><path d="M108.471 47.818l25.295-17.807v-.002l-.039-.052a76.913 76.913 0 0 0-1.792-2.301c-.177-.218-.35-.438-.529-.656l-.009.01L106 44.895c.869.937 1.69 1.912 2.471 2.922" fill="#00304A"/><path d="M108 47.81a43.954 43.954 0 0 1 2.196 3.115l25.284-17.807.014-.01c-.091-.138-.193-.27-.289-.408a73.283 73.283 0 0 0-1.758-2.487c-.052-.07-.1-.145-.152-.213v.002L108 47.81" fill="#FFF"/><path d="M110 50.816a43.893 43.893 0 0 1 1.922 3.308l25.4-17.886.013-.005c-.125-.208-.261-.408-.386-.612-.41-.676-.83-1.341-1.262-2.004-.133-.204-.254-.415-.39-.617l-.013.01L110 50.815M96.376 36.882L113.21 10.91l.002-.003c-.03-.018-.059-.034-.09-.054-.77-.47-1.548-.921-2.335-1.362-.16-.088-.32-.179-.481-.265-.134-.075-.268-.152-.404-.227l-.002.01L93 35.086a43.717 43.717 0 0 1 3.376 1.795" fill="#00304A"/><path d="M96 36.973a44.443 44.443 0 0 1 3.192 2.076l16.83-25.968.007-.012c-.103-.07-.21-.131-.309-.202a73.308 73.308 0 0 0-2.457-1.592c-.146-.089-.282-.189-.427-.275l-.002.002L96 36.973" fill="#FFF"/><path d="M99 38.98a42.8 42.8 0 0 1 3.018 2.362l16.906-26.087.01-.011c-.173-.132-.352-.25-.525-.381a81.178 81.178 0 0 0-2.013-1.457c-.188-.131-.367-.274-.56-.406l-.007.011L99 38.981m-18.193-8.098L86.74.538V.535c-.397-.063-.781-.145-1.176-.201-.869-.137-1.74-.232-2.61-.334v.005L77 30.493a43.78 43.78 0 0 1 3.807.39" fill="#00304A"/><path d="M81 31.348a43.36 43.36 0 0 1 3.746.733l5.925-30.35c-.023-.007-.046-.01-.066-.014A82.763 82.763 0 0 0 86.93 1v.002L81 31.348" fill="#FFF"/><path d="M84 31.35c1.246.3 2.471.656 3.674 1.06l5.951-30.48v-.01c-.12-.032-.245-.061-.367-.095-.193-.053-.39-.102-.588-.155a75.839 75.839 0 0 0-2.684-.653c-.023-.007-.041-.014-.062-.016L84 31.35m-19.457.039L58.71 1c-.048.01-.093.023-.139.032-.456.1-.91.206-1.363.317l-.361.084c-.595.148-1.187.302-1.781.461-.02.007-.043.01-.066.018v.002l5.863 30.525a43.3 43.3 0 0 1 3.68-1.05" fill="#00304A"/><path d="M63.834 32.11c1.23-.29 2.475-.535 3.741-.719L61.746 1c-.113.02-.227.043-.34.061-.266.046-.529.096-.792.143-.354.061-.71.127-1.064.195-.27.055-.543.114-.813.17-.245.05-.492.096-.737.153l5.834 30.388" fill="#FFF"/><path d="M67.83 30.915a42.077 42.077 0 0 1 3.806-.383L65.785.007 65.782 0c-.254.027-.503.064-.755.093l-.4.05a80.843 80.843 0 0 0-1.976.284c-.215.034-.435.063-.651.097l5.83 30.391m-18.988 8.106L32.097 13.002V13l-.131.093a77.763 77.763 0 0 0-2.553 1.833c-.136.105-.277.202-.413.307l.005.007 16.81 26.132a43.334 43.334 0 0 1 3.027-2.351" fill="#00304A"/><path d="M48.745 39.09a42.613 42.613 0 0 1 3.204-2.069L35.206 11.002 35.204 11c-.027.018-.055.039-.08.054a76.282 76.282 0 0 0-3.072 1.979c-.018.014-.034.023-.052.036v.003L48.745 39.09" fill="#FFF"/><path d="M52.745 36.92a43.168 43.168 0 0 1 3.381-1.783L39.315 9.014 39.305 9c-.274.15-.544.306-.816.458a77.233 77.233 0 0 0-2.469 1.43l-.02.011.002.002 16.743 26.02M36.368 54.218a41.152 41.152 0 0 1 .801-1.443c.063-.112.127-.225.192-.336.245-.416.497-.826.756-1.232.054-.087.104-.175.156-.26l.02-.038L13.045 33a66.68 66.68 0 0 0-1.54 2.41c-.125.202-.25.399-.37.601-.043.075-.089.145-.134.218l.005.004 25.36 17.982.003.003" fill="#00304A"/><path d="M38.25 50.02c.01-.014.02-.025.031-.038.039-.062.082-.12.123-.184.26-.397.529-.79.8-1.178l.273-.386c.293-.403.588-.803.892-1.198.034-.04.061-.081.093-.122l-.005-.002L15.205 29a71.328 71.328 0 0 0-2.048 2.886l-.082.12c-.025.037-.05.07-.075.105l25.25 17.91" fill="#FFF"/><path d="M40.252 46.911l.004.002c.05-.065.107-.129.16-.195.305-.39.616-.778.936-1.157.127-.15.259-.295.388-.445.286-.329.57-.655.865-.975.036-.039.07-.082.106-.12.01-.01.014-.019.023-.028L17.364 26h-.002c-.132.157-.25.327-.381.486A73.613 73.613 0 0 0 15 29l25.252 17.91m-9.024 22.074c.009-.066.018-.131.025-.2.075-.637.15-1.277.245-1.919l.013-.07c.082-.536.182-1.064.284-1.595L1.69 58c-.027.127-.048.252-.075.379A84.698 84.698 0 0 0 1 61.759l30.228 7.225" fill="#00304A"/><path d="M32.105 65.907a42.85 42.85 0 0 1 .885-3.71L2.883 55c-.116.44-.223.88-.332 1.323-.134.542-.26 1.087-.38 1.634-.058.251-.117.501-.171.75l30.105 7.2" fill="#FFF"/><path d="M32.107 61.857a48.8 48.8 0 0 1 .565-1.829c.003-.006.005-.009.005-.013.193-.572.395-1.14.606-1.7.011-.03.02-.056.032-.084v-.004h.002L3.073 51c-.002.002-.002.007-.004.011a77.19 77.19 0 0 0-.71 2.37c-.082.29-.164.58-.243.873-.037.136-.08.27-.116.406l30.107 7.197m.373 23.751c-.043-.155-.081-.309-.12-.46a39.54 39.54 0 0 1-.268-1.02 47.533 47.533 0 0 1-.342-1.484c-.016-.072-.034-.14-.048-.21-.025-.112-.052-.223-.075-.336-.007-.032-.016-.062-.023-.098L1.002 86.558H1l.007.037a78.798 78.798 0 0 0 .75 3.707l30.75-4.58-.027-.114" fill="#00304A"/><path d="M32.163 81.767c-.014-.07-.019-.148-.032-.22-.086-.457-.159-.917-.232-1.376-.004-.03-.011-.059-.016-.086a39.625 39.625 0 0 1-.263-1.953c-.004-.046-.013-.087-.02-.132L1 82.554c.016.125.036.245.05.37.038.306.082.61.122.914.116.82.241 1.638.38 2.45.004.012.004.023.006.037h.002l30.603-4.558" fill="#FFF"/><path d="M30.965 77.828c-.002-.016 0-.03-.002-.043a42.627 42.627 0 0 1-.209-3.746L30.752 74 .007 78.579H0c.02.315.052.63.077.946.027.32.05.64.08.96.06.633.131 1.266.208 1.897l30.6-4.554m8.96 22.29h-.002c-.075-.098-.145-.198-.222-.298-.24-.315-.477-.633-.708-.953a40.02 40.02 0 0 1-1.13-1.634c-.05-.074-.102-.145-.152-.22-.002-.006-.005-.006-.007-.013l-26.7 15.64H11l.116.18a91.61 91.61 0 0 0 1.942 2.947c.016.02.03.043.043.064l.002-.003 26.822-15.71" fill="#00304A"/><path d="M37.635 97.29c-.005-.004-.01-.014-.014-.02-.072-.114-.14-.23-.21-.343-.225-.35-.443-.701-.656-1.057-.16-.268-.311-.538-.466-.808-.154-.275-.313-.547-.46-.824-.037-.066-.075-.13-.111-.197L35.693 94 9.005 109.647H9c.036.064.077.125.111.19a78.662 78.662 0 0 0 1.752 2.98c.023.036.043.077.068.113h.004l26.7-15.64" fill="#FFF"/><path d="M35.453 94.456c-.018-.037-.031-.075-.05-.11-.104-.197-.2-.399-.3-.598-.156-.311-.314-.62-.464-.93-.238-.5-.465-1.008-.685-1.516-.032-.075-.066-.145-.098-.22l-.034-.077c0-.005-.002-.005-.002-.005L7.002 106.717H7c.014.023.027.048.039.07a74.987 74.987 0 0 0 1.676 3.227c.019.028.03.06.046.089h.004l26.688-15.647M48.942 109L30 133.464a66.625 66.625 0 0 0 3.136 2.183l19.023-24.582c-.034-.018-.066-.043-.102-.066-.118-.068-.231-.14-.35-.213a52.166 52.166 0 0 1-1.731-1.091l-.497-.336c-.154-.105-.315-.205-.47-.314-.022-.016-.047-.027-.067-.045" fill="#00304A"/><path d="M48.957 109.33c-.038-.022-.07-.054-.106-.08-.232-.165-.457-.335-.686-.505l-.242-.182a41.157 41.157 0 0 1-1.537-1.207c-.129-.106-.263-.206-.39-.315L45.94 107 27 131.462c.132.11.268.213.4.32a66.133 66.133 0 0 0 2.616 2.013l18.941-24.465" fill="#FFF"/><path d="M45.835 106.603c-.043-.039-.084-.08-.13-.12-.324-.28-.64-.566-.96-.854a42.575 42.575 0 0 1-1.545-1.461c-.056-.061-.122-.109-.177-.168l-19.02 24.578-.003.002c.542.49 1.094.971 1.652 1.446.333.28.67.565 1.007.844l.236.195 18.94-24.462m20.614 9.814c-.075-.013-.152-.024-.227-.04a38.456 38.456 0 0 1-1.672-.359 1.211 1.211 0 0 1-.102-.018L56 145.783c1.193.31 2.405.58 3.626.833.032.007.063.013.095.022l.002-.009 8.482-29.917a40.48 40.48 0 0 1-1.756-.295" fill="#00304A"/><path d="M64.112 116.035c-.023-.005-.043-.014-.064-.02a42.492 42.492 0 0 1-3.473-.976l-.068-.023c-.023-.007-.044-.01-.064-.016l-8.44 29.785-.003.007c.331.102.674.186 1.01.281.878.257 1.756.518 2.654.745l8.448-29.783" fill="#FFF"/><path d="M60.064 114.36c-.031-.017-.06-.028-.093-.042-.018-.002-.036-.009-.054-.016a47.761 47.761 0 0 1-1.514-.537c-.31-.116-.617-.239-.923-.363-.247-.1-.497-.198-.742-.302-.077-.032-.159-.061-.238-.095-.003-.003-.007-.003-.014-.005l-8.484 29.924-.002.002c.638.234 1.296.438 1.942.656.529.179 1.049.372 1.584.535.032.012.064.025.095.034l.003-.007 8.44-29.785" fill="#00304A"/></g></svg>