<?xml version="1.0" encoding="UTF-8" standalone="no"?>
<svg viewBox="0 0 290 149" version="1.1" xmlns="http://www.w3.org/2000/svg" xmlns:xlink="http://www.w3.org/1999/xlink">
    <!-- Generator: Sketch 3.8.3 (29802) - http://www.bohemiancoding.com/sketch -->
    <title>logo--color</title>
    <desc>Created with Sketch.</desc>
    <defs></defs>
    <g id="Page-1" stroke="none" stroke-width="1" fill="none" fill-rule="evenodd">
        <g id="logo--color">
            <path d="M277.633626,117 L258.834888,117 C260.105533,120.11308 260.804387,123.487096 260.804387,126.98137 C260.804387,134.557591 257.940898,142.406092 251,147.937936 L289.480122,147.937936 L277.633626,117" id="Fill-4" fill="#FDD21F"></path>
            <path d="M216.468837,105.355171 L224.15397,105.355171 C234.50065,105.355171 235.927857,101.711143 235.927857,97.7721434 C235.927857,95.7186904 235.927857,90.9151986 224.966275,90.9151986 L216.468837,90.9151986 L216.468837,105.355171 L216.468837,105.355171 Z M216.468837,135.455843 L226.518277,135.455843 C228.632993,135.455843 239.211113,135.058766 239.211113,127.146732 C239.211113,121.265461 235.00437,118.281715 226.690722,118.281715 L216.468837,118.281715 L216.468837,135.455843 L216.468837,135.455843 Z M225.152334,148.375579 L203,148.375579 L203,78 L225.608404,78 C240.617898,78 249.950332,85.1972962 249.950332,96.7715105 C249.950332,102.666396 247.586025,107.528882 243.279446,110.807599 C249.265091,113.975136 253.22905,120.223986 253.22905,127.421282 C253.22905,140.742634 242.991282,148.375579 225.152334,148.375579 L225.152334,148.375579 Z" id="Fill-5" fill="#00304A"></path>
            <polyline id="Fill-6" fill="#00304A" points="120.298601 148.371041 108.939942 148.371041 82 78 96.8960433 78 114.896091 126.062146 133.479273 78 147.848907 78 120.298601 148.371041"></polyline>
            <path d="M157.049858,119.588664 L173.944898,119.588664 L165.059459,98.1419918 L157.049858,119.588664 L157.049858,119.588664 Z M198.025889,148.377848 L186.016025,148.377848 L179.224882,132.512938 L152.128378,132.512938 L146.276604,148.377848 L132,148.377848 L159.709136,78 L170.722906,78 L200.646595,148.377848 L198.025889,148.377848 L198.025889,148.377848 Z" id="Fill-7" fill="#00304A"></path>
            <path d="M11,35.6012874 C11.1202575,35.3993456 11.245053,35.2019418 11.3698484,35 C11.245053,35.2019418 11.1202575,35.4016146 11,35.6012874" id="Fill-8" fill="#FDD21F"></path>
            <path d="M34.2958066,58.4382288 C34.5612806,57.7552572 34.8426377,57.0813615 35.1421469,56.4142729 C35.1943341,56.3008225 35.2465213,56.187372 35.2964395,56.0716526 C35.5891416,55.4363301 35.8954578,54.8078146 36.2176571,54.1883752 C36.2516922,54.1203049 36.2834584,54.0499657 36.3174935,53.9818954 L10.9567812,36 C8.10236806,40.7649187 5.74713684,45.8951477 4,51.3385 L34.2436194,58.5652933 C34.2595024,58.5221822 34.2776545,58.48134 34.2958066,58.4382288" id="Fill-9" fill="#FDD21F"></path>
            <path d="M13,32.1202575 C13.0272281,32.0794153 13.0544562,32.0408422 13.0816843,32 C13.0544562,32.0408422 13.0272281,32.0794153 13,32.1202575" id="Fill-10" fill="#FDD21F"></path>
            <path d="M30,14.5831353 C30.260936,14.3880005 30.5241411,14.1928658 30.7873461,14 C30.5241411,14.1928658 30.260936,14.3880005 30,14.5831353" id="Fill-11" fill="#FDD21F"></path>
            <path d="M42.3470982,44.628718 C42.4197065,44.5493027 42.4991218,44.4766944 42.5739991,44.3995481 C43.0436839,43.9003661 43.5269828,43.4125292 44.0216268,42.9360373 C44.091966,42.8656981 44.1668433,42.7953588 44.2394516,42.7272885 C44.8157799,42.1804574 45.4034532,41.6472403 46.0070095,41.1321753 L29.1959227,15 C24.7191682,18.3898993 20.6168002,22.2721735 17,26.6082494 L42.3697883,44.6014899 C42.3607123,44.6105659 42.3561742,44.6196419 42.3470982,44.628718" id="Fill-12" fill="#FDD21F"></path>
            <path d="M38.0204211,50.0385732 C38.0136141,50.0499182 38.006807,50.0635322 38,50.0771463 C38.0158831,50.0499182 38.0340351,50.0249591 38.0521872,50 C38.0408422,50.0136141 38.0317661,50.0249591 38.0204211,50.0385732" id="Fill-13" fill="#FDD21F"></path>
            <path d="M30.9368019,74.6629683 C30.9345329,74.4950617 30.9413399,74.324886 30.9390709,74.1592483 C30.9390709,74.0957161 30.9368019,74.0367219 30.9368019,73.9777276 C30.9368019,73.8846983 30.9413399,73.7962069 30.9413399,73.7031776 C30.9458779,73.1563464 30.959492,72.6095153 30.9844511,72.0604151 C30.9912581,71.8902395 30.9980651,71.7223328 31.0071412,71.5544261 C31.0389073,70.9644838 31.0842875,70.3722725 31.1410127,69.7777922 C31.1500887,69.6870318 31.1568958,69.5940025 31.1659718,69.5032421 C31.1682408,69.471476 31.1727788,69.4397099 31.1727788,69.4056747 C31.1659718,69.473745 31.1568958,69.5395463 31.1478197,69.6053475 L0.920083405,62.3808232 C1.10160412,61.2395118 1.31035293,60.1186214 1.53498481,59 C1.27404879,60.266107 1.03126484,61.543559 0.833861068,62.834625 C-0.00794122709,68.3687377 -0.191730946,73.8461251 0.189462546,79.2032551 L30.9345329,74.6243952 C30.9345329,74.6380092 30.9368019,74.6470852 30.9368019,74.6629683" id="Fill-14" fill="#FDD21F"></path>
            <path d="M2,57.6336864 C2.12025747,57.0868553 2.24732197,56.5422931 2.38119349,56 C2.24732197,56.5422931 2.12025747,57.0868553 2,57.6336864" id="Fill-15" fill="#FDD21F"></path>
            <path d="M0.0794153108,80.9597908 C0.0499181954,80.6398605 0.0272281066,80.3199303 0,80 C0.0272281066,80.3199303 0.0499181954,80.6398605 0.0794153108,80.9597908" id="Fill-16" fill="#FDD21F"></path>
            <path d="M3,53.8735684 C3.07941531,53.5808663 3.16109963,53.2904331 3.24278395,53 C3.16109963,53.2904331 3.07941531,53.5808663 3,53.8735684" id="Fill-17" fill="#FDD21F"></path>
            <path d="M1.12252648,83.9144106 C1.08168432,83.6103634 1.03857315,83.3063162 1,83 C1.03857315,83.3063162 1.08168432,83.6103634 1.12252648,83.9144106" id="Fill-18" fill="#FDD21F"></path>
            <path d="M32.0317661,82.2200939 C32.0385732,82.256398 32.0476492,82.2858951 32.0544562,82.3176612 C32.0340351,82.2110178 32.0204211,82.1066434 32,82 C32.0136141,82.0726083 32.0181521,82.1497546 32.0317661,82.2200939" id="Fill-19" fill="#FDD21F"></path>
            <path d="M31.002269,78.0431112 C31.009076,78.0884913 31.0181521,78.1293335 31.0226901,78.1747137 C31.0158831,78.1157195 31.006807,78.0589942 31,78 C31.002269,78.0136141 31,78.0272281 31.002269,78.0431112" id="Fill-20" fill="#FDD21F"></path>
            <path d="M34.4241369,90.864755 C34.3696807,90.7354215 34.3265695,90.603819 34.2743823,90.4722165 C34.0270604,89.8709292 33.7933524,89.2628348 33.5732586,88.6456644 C33.5051883,88.4527986 33.4416561,88.2576638 33.3758548,88.0625291 C33.178451,87.4839318 32.9923923,86.8962585 32.8199476,86.3063162 C32.7881815,86.2042108 32.7496084,86.1021054 32.7223803,86 C32.7314563,86.0363041 32.7382633,86.0748773 32.7496084,86.1134504 L2,90.6945794 C3.26610696,96.224154 5.15165334,101.549518 7.60445194,106.577642 L34.4218679,90.860217 C34.4218679,90.860217 34.4241369,90.860217 34.4241369,90.864755" id="Fill-21" fill="#FDD21F"></path>
            <path d="M38,9.2291699 C38.1361405,9.1520236 38.2722811,9.07487729 38.4106906,9 C38.2722811,9.07487729 38.1361405,9.1520236 38,9.2291699" id="Fill-22" fill="#FDD21F"></path>
            <path d="M60.4897831,32.5249765 L54.6266642,2 C49.1628908,3.49754586 43.9260183,5.61226214 39,8.27154055 L55.8110868,34.3946398 C57.3245157,33.68444 58.8855938,33.0604626 60.4897831,32.5249765" id="Fill-23" fill="#FDD21F"></path>
            <path d="M61,1.14294756 C61.263205,1.09529837 61.5264101,1.04538018 61.7918841,1 C61.5264101,1.04538018 61.263205,1.09302936 61,1.14294756" id="Fill-24" fill="#FDD21F"></path>
            <path d="M63,1.10437441 C63.2269009,1.06807027 63.4538018,1.03403513 63.6807027,1 C63.4538018,1.03176612 63.2269009,1.06807027 63,1.10437441" id="Fill-25" fill="#FDD21F"></path>
            <path d="M59,1.17017567 C59.2700121,1.11345044 59.5422931,1.05445621 59.8123052,1 C59.5422931,1.05445621 59.2700121,1.11345044 59,1.17017567" id="Fill-26" fill="#FDD21F"></path>
            <path d="M55,2.4606088 C55.5944803,2.30177818 56.1866916,2.14748558 56.781172,2 C56.1844226,2.14748558 55.5922113,2.29950917 55,2.4606088" id="Fill-27" fill="#FDD21F"></path>
            <path d="M65,0.0499181954 C65.1338715,0.0340351332 65.265474,0.0158830622 65.3993456,0 C65.265474,0.0158830622 65.1338715,0.0340351332 65,0.0499181954" id="Fill-28" fill="#FDD21F"></path>
            <path d="M57,1.31766124 C57.4538018,1.20647981 57.9076036,1.09983639 58.3636743,1 C57.9076036,1.09983639 57.4538018,1.20647981 57,1.31766124" id="Fill-29" fill="#FDD21F"></path>
            <path d="M74.3113795,30.9085356 C75.1758719,30.9085356 76.0312883,30.9403017 76.8844356,30.9902199 L82.8383149,0.501547539 C77.1317576,-0.163272063 71.4932705,-0.156465037 66,0.45843637 L71.8517739,30.9834129 C72.6663481,30.9380327 73.4854603,30.9085356 74.3113795,30.9085356" id="Fill-30" fill="#FDD21F"></path>
            <path d="M86,1 C87.2139198,1.21101783 88.4210325,1.44245673 89.6168002,1.70566176 C88.4210325,1.44245673 87.2184578,1.20874882 86,1" id="Fill-31" fill="#FDD21F"></path>
            <path d="M1.74877293,90.6939465 C1.46968484,89.4732197 1.22236287,88.2434169 1,87 C1.21782485,88.2434169 1.46741583,89.4732197 1.74877293,90.6939465" id="Fill-32" fill="#FDD21F"></path>
            <path d="M32,12.9785757 C33.0051709,12.3001421 34.0262249,11.6353225 35.072238,11 C34.0284939,11.6353225 33.0051709,12.2956041 32,12.9785757" id="Fill-33" fill="#FDD21F"></path>
            <path d="M10.7516749,112.979209 C10.1435805,111.998997 9.5627142,111.002902 9,110 C9.5627142,111.005171 10.1435805,112.001266 10.7516749,112.979209" id="Fill-34" fill="#FDD21F"></path>
            <path d="M100.087213,148.394007 L88.2452555,117.456071 L73.6509903,117.456071 C72.9770947,117.456071 72.2986611,117.428843 71.6202274,117.394808 C71.4636658,117.388001 71.3071042,117.378924 71.1482736,117.369848 C70.74439,117.344889 70.3382374,117.313123 69.9320848,117.27455 C69.1084346,117.204211 68.2915914,117.115719 67.4815552,117 L59,146.916882 C60.1594635,147.152859 61.3257341,147.363877 62.5056187,147.543129 C66.2562904,148.11265 69.975196,148.355434 73.6509903,148.350896 L73.6509903,148.394007 L100.087213,148.394007" id="Fill-35" fill="#FDD21F"></path>
            <path d="M36.0499182,94.1089124 C36.0589942,94.1225265 36.0680703,94.1384095 36.0748773,94.1497546 C36.0476492,94.0998364 36.0272281,94.0476492 36,94 C36.0181521,94.0340351 36.0317661,94.0726083 36.0499182,94.1089124" id="Fill-36" fill="#FDD21F"></path>
            <path d="M57.2815596,113.341617 C57.0818868,113.255395 56.8912901,113.153289 56.6916173,113.064798 C56.2196635,112.851511 55.7522476,112.633686 55.2916388,112.404516 C55.0284338,112.275183 54.7674978,112.139042 54.5065618,112.002902 C54.0436839,111.760118 53.5876132,111.510527 53.1360804,111.25186 C52.9817878,111.165638 52.8252262,111.088491 52.6732026,111 C52.7095067,111.02269 52.7412728,111.047649 52.775308,111.065801 L33.7519375,135.648243 C32.6855033,134.949389 31.6394902,134.223306 30.6161672,133.465457 C29.7244467,132.81652 28.8576854,132.144894 28,131.452846 C34.1490141,136.415168 41.1307544,140.444928 48.7841214,143.260768 L57.2679456,113.337079 C57.2747526,113.339348 57.2792906,113.339348 57.2815596,113.341617" id="Fill-37" fill="#FDD21F"></path>
            <path d="M27.0074399,130.844071 C26.6693576,130.564983 26.3335443,130.281357 26,130 C26.3335443,130.283626 26.6693576,130.564983 27.0074399,130.844071" id="Fill-38" fill="#FDD21F"></path>
            <path d="M43.3048826,103.954882 C43.1029408,103.750672 42.9146131,103.532847 42.7172093,103.326367 C42.376858,102.972402 42.0387757,102.616167 41.7120384,102.250857 C41.5214416,102.039839 41.3376519,101.824283 41.1538622,101.608727 C40.7772067,101.173078 40.4096273,100.730621 40.0511239,100.279088 C39.9762466,100.18379 39.8945623,100.095298 39.821954,100 L13,115.710617 C16.2083786,120.325782 19.9340911,124.575635 24.1067985,128.36488 L43.1278999,103.786976 C43.1823561,103.84597 43.2481574,103.893619 43.3048826,103.954882" id="Fill-39" fill="#FDD21F"></path>
            <path d="M64.1656376,116.038573 C64.1089124,116.027228 64.0567252,116.015883 64,116 C64.0204211,116.006807 64.0408422,116.015883 64.0635322,116.020421 C64.0975674,116.027228 64.1316025,116.034035 64.1656376,116.038573" id="Fill-40" fill="#FDD21F"></path>
            <path d="M38.0136141,97.0204211 C38.0158831,97.0272281 38.0181521,97.0272281 38.0204211,97.0340351 C38.0136141,97.0204211 38.006807,97.011345 38,97 C38.004538,97.006807 38.009076,97.0158831 38.0136141,97.0204211" id="Fill-41" fill="#FDD21F"></path>
            <path d="M46.1293335,107.120257 C46.1474856,107.133872 46.1679067,107.147486 46.1860587,107.1611 C46.1247955,107.111181 46.0635322,107.054456 46,107 C46.0453802,107.040842 46.0862223,107.081684 46.1293335,107.120257" id="Fill-42" fill="#FDD21F"></path>
            <path d="M49,109 C49.0363041,109.024959 49.0680703,109.056725 49.1066434,109.079415 C49.1270645,109.097567 49.1520236,109.108912 49.1747137,109.124795 C49.1157195,109.081684 49.0589942,109.040842 49,109" id="Fill-43" fill="#FDD21F"></path>
            <path d="M60.0930294,115.040842 C60.1134504,115.047649 60.1338715,115.049918 60.1565616,115.056725 C60.1021054,115.040842 60.0521872,115.018152 60,115 C60.0317661,115.013614 60.0612632,115.024959 60.0930294,115.040842" id="Fill-44" fill="#FDD21F"></path>
            <path d="M132,27 C132.117988,27.1452166 132.235977,27.2904331 132.351696,27.4356497 C132.235977,27.2904331 132.117988,27.1452166 132,27" id="Fill-45" fill="#FDD21F"></path>
            <path d="M105.630414,44.5742618 L131.027431,26.6876647 C127.453742,22.3629338 123.394485,18.4352794 118.906385,15 L102,41.0867951 C103.277452,42.1781884 104.491372,43.3421899 105.630414,44.5742618" id="Fill-46" fill="#FDD21F"></path>
            <path d="M116.715,69.9965601 L147.730083,69.9965601 C147.103836,57.7643332 143.437118,46.1470077 137.399285,36 L112,53.886597 C114.557173,58.7831182 116.204473,64.2242015 116.715,69.9965601" id="Fill-47" fill="#FDD21F"></path>
            <path d="M92.6809653,34.3628737 L109.580543,8.2851546 C104.702174,5.63949025 99.4721089,3.51796694 93.9516103,2 L88,32.4795963 C89.6041893,33.0218894 91.1675364,33.6458669 92.6809653,34.3628737" id="Fill-48" fill="#FDD21F"></path>
            <path d="M93,2 C93.1974038,2.0521872 93.3948075,2.1021054 93.5876733,2.1542926 C93.3948075,2.1021054 93.1974038,2.0521872 93,2" id="Fill-49" fill="#FDD21F"></path>
            <path d="M110,9 C110.1611,9.08622234 110.322199,9.17698269 110.48103,9.26547404 C110.322199,9.17698269 110.1611,9.08622234 110,9" id="Fill-50" fill="#FDD21F"></path>
            <path d="M108.470951,47.8181565 L133.765862,30.0109748 L133.765862,30.0087058 C133.752248,29.9905537 133.738634,29.9724016 133.727289,29.9565186 C133.257604,29.3257341 132.774305,28.7062947 132.286468,28.0913933 C132.170748,27.9461767 132.05276,27.8009601 131.934772,27.6557436 C131.757789,27.4379187 131.585344,27.2178249 131.406092,27 L131.397016,27.009076 L106,44.895673 C106.86903,45.8327737 107.690412,46.8084475 108.470951,47.8181565" id="Fill-51" fill="#00304A"></path>
            <path d="M108,47.8094507 C108.776001,48.8146216 109.508891,49.8538277 110.196401,50.9247999 L135.479967,33.1176182 L135.493581,33.1085422 C135.40282,32.9701326 135.300715,32.8385301 135.205416,32.7001206 C134.635895,31.8583183 134.050491,31.03013 133.446935,30.2132868 C133.394747,30.1429476 133.347098,30.0680703 133.294911,30 L133.294911,30.002269 L108,47.8094507" id="Fill-52" fill="#FFFFFF"></path>
            <path d="M110,50.8162577 C110.685241,51.8894989 111.329639,52.9899682 111.921851,54.1244727 L137.321136,36.2378757 L137.33475,36.2333377 C137.209955,36.0245888 137.073814,35.8249161 136.949018,35.6207053 C136.538328,34.9445406 136.118561,34.279721 135.68745,33.6171704 C135.553578,33.4129596 135.433321,33.2019418 135.29718,33 L135.283566,33.009076 L110,50.8162577" id="Fill-53" fill="#00304A"></path>
            <path d="M96.3762852,36.8815811 L113.210062,10.9105055 L113.212331,10.9082365 C113.182834,10.8900844 113.153337,10.8742013 113.121571,10.8537803 C112.352377,10.3840954 111.574107,9.93256265 110.786761,9.49237493 C110.62793,9.40388358 110.46683,9.31312323 110.305731,9.22690089 C110.171859,9.1520236 110.037988,9.07487729 109.901847,9 L109.899578,9.00907604 L93,35.0867951 C94.1549255,35.6358953 95.2780849,36.2371826 96.3762852,36.8815811" id="Fill-54" fill="#00304A"></path>
            <path d="M96,36.9733447 C97.0959313,37.6200122 98.1600965,38.3143289 99.1924955,39.0494878 L116.021734,13.0806811 L116.028541,13.0693361 C115.926436,12.9989968 115.819793,12.9377336 115.719956,12.8673943 C114.912189,12.3205632 114.093077,11.7896151 113.26262,11.2745501 C113.117403,11.1860587 112.981262,11.0862223 112.836046,11 L112.833777,11.002269 L96,36.9733447" id="Fill-55" fill="#FFFFFF"></path>
            <path d="M99,38.9801517 C100.041475,39.7243866 101.048915,40.5094637 102.017782,41.3421899 L118.924167,15.2553948 L118.933243,15.2440498 C118.760798,15.1124473 118.581547,14.9944588 118.409102,14.8628563 C117.746551,14.3682124 117.077194,13.8826445 116.396491,13.4061526 C116.208163,13.2745501 116.028912,13.1316025 115.836046,13 L115.829239,13.011345 L99,38.9801517" id="Fill-56" fill="#00304A"></path>
            <path d="M80.8073969,30.8834799 L86.7385861,0.537755105 L86.7385861,0.535486096 C86.3415096,0.471953847 85.9580471,0.390269528 85.5632395,0.333544306 C84.6942091,0.197403773 83.8229097,0.1021054 82.9538793,0 L82.9538793,0.00453801776 L77,30.4932104 C78.284259,30.5703567 79.554904,30.6974212 80.8073969,30.8834799" id="Fill-57" fill="#00304A"></path>
            <path d="M81,31.3479938 C82.268376,31.5363215 83.5163308,31.7859125 84.7461337,32.0808837 L90.6705159,1.73062086 C90.6478258,1.72381383 90.6251357,1.72154482 90.6047146,1.71700681 C89.4089469,1.45380178 88.2018342,1.22236287 86.9879144,1.01134504 C86.9697624,1.00907604 86.9493413,1.00453802 86.9311892,1 L86.9311892,1.00226901 L81,31.3479938" id="Fill-58" fill="#FFFFFF"></path>
            <path d="M84,31.3502628 C85.2456859,31.649772 86.4709507,32.0060064 87.6735254,32.4098899 L93.6251357,1.93029364 L93.6251357,1.9189486 C93.5048782,1.88718247 93.3800827,1.85768536 93.2575562,1.82365022 C93.0646905,1.77146302 92.8672867,1.72154482 92.6698829,1.66935762 C91.7804315,1.43791871 90.886442,1.21555584 89.9856454,1.01588306 C89.9629553,1.00907604 89.9448033,1.00226901 89.9243822,1 L84,31.3502628" id="Fill-59" fill="#00304A"></path>
            <path d="M64.5434514,31.3888359 L58.7098295,1 C58.6621803,1.00907604 58.6168002,1.02269009 58.57142,1.03176612 C58.1153492,1.13160252 57.6615474,1.23824593 57.2077456,1.34942737 C57.0897572,1.37665547 56.9672307,1.40388358 56.8469732,1.4333807 C56.2524929,1.58086627 55.6602816,1.73515888 55.0658013,1.8939895 C55.0453802,1.90079653 55.0226901,1.90306553 55,1.91214157 L55,1.91441058 L60.8631189,32.4393871 C62.0679627,32.0377725 63.2932275,31.6860761 64.5434514,31.3888359" id="Fill-60" fill="#00304A"></path>
            <path d="M63.8336218,32.1103808 C65.0634246,31.8199476 66.3091105,31.5748947 67.5752175,31.391105 L61.7461337,1 C61.6326832,1.02042108 61.5192328,1.04311117 61.4057823,1.06126324 C61.1403083,1.10664342 60.8771033,1.15656161 60.6138982,1.2042108 C60.2599328,1.26547404 59.9036985,1.3312753 59.5497331,1.39934556 C59.279721,1.45380178 59.0074399,1.51279601 58.7374279,1.56952123 C58.4923749,1.61943942 58.245053,1.6648196 58,1.72154482 L63.8336218,32.1103808" id="Fill-61" fill="#FFFFFF"></path>
            <path d="M67.8290838,30.915246 C69.0815767,30.7314563 70.3522217,30.6021228 71.6364807,30.5317835 L65.7847068,0.00680702664 L65.7824378,0 C65.5283088,0.0272281066 65.2787178,0.0635322487 65.0268578,0.0930293641 C64.8929863,0.108912426 64.7613838,0.127064497 64.6275123,0.14294756 C64.1941316,0.199672782 63.7630199,0.258667012 63.3319082,0.322199261 C63.1050073,0.356234394 62.8781064,0.390269528 62.6512055,0.42657367 C62.4356497,0.460608803 62.2155558,0.490105918 62,0.524141052 L67.8290838,30.915246" id="Fill-62" fill="#00304A"></path>
            <path d="M48.8424827,39.0209939 L32.0971971,13.002269 L32.0971971,13 C32.054086,13.0294971 32.0109748,13.0612632 31.9655946,13.0930294 C31.3711143,13.499182 30.78571,13.9189486 30.2003057,14.3432533 C29.9371007,14.536119 29.6738956,14.7312538 29.4129596,14.9263885 C29.2768191,15.0307629 29.1361405,15.1283303 29,15.2327047 L29.004538,15.2395118 L45.8156248,41.3716871 C46.7890296,40.5434988 47.7987386,39.7606907 48.8424827,39.0209939" id="Fill-63" fill="#00304A"></path>
            <path d="M48.7452855,39.09033 C49.7799536,38.3551711 50.8486568,37.6631234 51.9491261,37.0209939 L35.2061095,11.002269 L35.2038405,11 C35.1766124,11.0181521 35.1493843,11.0385732 35.1244252,11.0544562 C34.0784121,11.6897787 33.0573581,12.3545983 32.0521872,13.033032 C32.0340351,13.046646 32.0181521,13.055722 32,13.0693361 L32,13.0716051 L48.7452855,39.09033" id="Fill-64" fill="#FFFFFF"></path>
            <path d="M52.7452855,36.9201543 C53.8412168,36.2802938 54.9689142,35.6812754 56.1261088,35.1367133 L39.315022,9.01361405 L39.3059459,9 C39.0313959,9.14975459 38.7613838,9.3063162 38.4891027,9.45833979 C38.3506932,9.53321709 38.2145527,9.61036339 38.0784121,9.68750969 C37.3863644,10.0777792 36.6988547,10.4771248 36.0204211,10.8878154 C36.0136141,10.8923534 36.006807,10.8946224 36,10.8991604 L36.002269,10.9014294 L52.7452855,36.9201543" id="Fill-65" fill="#00304A"></path>
            <path d="M36.3675193,54.217502 C36.3788643,54.201619 36.3879404,54.1834669 36.3970164,54.1653148 C36.6466074,53.693361 36.9030054,53.2327522 37.1684794,52.7744124 C37.2320117,52.663231 37.2955439,52.5497805 37.3613452,52.4385991 C37.6063981,52.0233705 37.8582581,51.6126799 38.1169251,51.2065273 C38.1713814,51.1203049 38.2212995,51.0318136 38.2734868,50.9478603 C38.2802938,50.9342462 38.2871008,50.9206321 38.2939078,50.9092871 L13.044377,33 C12.5111599,33.7918841 12.0029019,34.5951132 11.50372,35.4096874 C11.3789245,35.6116292 11.254129,35.809033 11.1338715,36.0109748 C11.0907604,36.0858521 11.0453802,36.1561914 11,36.2287996 L11.004538,36.2333377 L36.3652503,54.215233 L36.3675193,54.217502" id="Fill-66" fill="#00304A"></path>
            <path d="M38.2495308,50.0200983 C38.2608759,50.0064842 38.2699519,49.9951392 38.281297,49.9815251 C38.3198701,49.9202619 38.3629813,49.8612677 38.4038234,49.7977354 C38.6647595,49.4006589 38.9325025,49.0081203 39.2047836,48.6201198 C39.2955439,48.4907863 39.3863043,48.3637218 39.4770646,48.2343883 C39.7697668,47.8305047 40.0647379,47.4311591 40.3687851,47.0363516 C40.4028203,46.9955094 40.4300484,46.9546673 40.4618145,46.9138251 L40.4572765,46.9115561 L15.2054766,29 C14.4975459,29.9439077 13.8168432,30.9082365 13.1565616,31.8861793 C13.1293335,31.9270215 13.1021054,31.9655946 13.0748773,32.0064368 C13.0499182,32.0427409 13.0249591,32.076776 13,32.1108112 L38.2495308,50.0200983" id="Fill-67" fill="#FFFFFF"></path>
            <path d="M40.2517998,46.9111859 L40.2563379,46.9134549 C40.3062561,46.8476536 40.3629813,46.7841214 40.4151685,46.7183201 C40.7214847,46.3280506 41.0323389,45.94005 41.3522691,45.5611256 C41.4793336,45.411371 41.6109362,45.2661544 41.7402697,45.1163998 C42.0261648,44.7873935 42.3097909,44.4606563 42.6047621,44.140726 C42.6410662,44.1021529 42.6751013,44.0590417 42.7114055,44.0204685 C42.7204815,44.0113925 42.7250195,44.0023165 42.7340956,43.9932404 L17.3643073,26 L17.3620382,26 C17.2304357,26.1565616 17.1124473,26.3267373 16.9808448,26.4855679 C16.3069491,27.3092181 15.6398605,28.1442134 15,28.9996297 L40.2517998,46.9111859" id="Fill-68" fill="#00304A"></path>
            <path d="M31.2277363,68.984272 C31.2368124,68.9184707 31.2458884,68.8526695 31.2526954,68.7845992 C31.3275727,68.1470077 31.40245,67.5071472 31.4977484,66.8650177 C31.5022864,66.8423276 31.5068244,66.8196375 31.5113624,66.7946784 C31.5930467,66.2591923 31.6928831,65.7305133 31.7949885,65.1995652 L1.6897787,58 C1.66255059,58.1270645 1.64212951,58.25186 1.61490141,58.3789245 C1.39026953,59.4975459 1.18152071,60.6184362 1,61.7597477 L31.2277363,68.984272" id="Fill-69" fill="#00304A"></path>
            <path d="M32.1052098,65.9071257 C32.3457248,64.6500948 32.6429649,63.4134849 32.9901233,62.1972962 L2.88264445,55 C2.766925,55.4401877 2.66028158,55.8803754 2.55136916,56.3228322 C2.41749763,56.8651253 2.29043314,57.4096874 2.17017567,57.9565186 C2.11345044,58.2083786 2.05445621,58.4579695 2,58.7075605 L32.1052098,65.9071257" id="Fill-70" fill="#FFFFFF"></path>
            <path d="M32.1074788,61.8572075 C32.2844615,61.2423061 32.4727893,60.6319427 32.6724621,60.0283863 C32.6747311,60.0215793 32.6770001,60.0193103 32.6770001,60.0147723 C32.8698658,59.442982 33.0718076,58.8757298 33.2828254,58.3152846 C33.2941705,58.2857875 33.3032465,58.2585594 33.3145916,58.2313313 L33.3145916,58.2267933 L33.3168606,58.2267933 L3.0732412,51 C3.07097219,51.002269 3.07097219,51.006807 3.06870318,51.011345 C2.81911221,51.7941531 2.58540429,52.5860372 2.3585034,53.3801903 C2.27681908,53.6706235 2.19513476,53.9610566 2.11571945,54.2537587 C2.07941531,54.3898993 2.03630414,54.5237708 2,54.6599113 L32.1074788,61.8572075" id="Fill-71" fill="#00304A"></path>
            <path d="M32.4802292,85.6077241 C32.4371181,85.4534315 32.3985449,85.2991389 32.3599717,85.1471153 C32.2669424,84.809033 32.176182,84.4686817 32.0922287,84.1283303 C31.9697022,83.6359554 31.8562518,83.1390425 31.7496084,82.6443985 C31.7337253,82.5717902 31.7155732,82.50372 31.7019592,82.4333807 C31.6770001,82.3221993 31.649772,82.2110178 31.6270819,82.0975674 C31.6202749,82.0658013 31.6111988,82.0363041 31.6043918,82 L1.00226901,86.5584388 L1,86.5584388 C1.00226901,86.5720529 1.00453802,86.5833979 1.00680703,86.594743 C1.2291699,87.8381599 1.47649187,89.0679627 1.75557996,90.2886894 C1.75557996,90.2932275 1.75557996,90.2977655 1.75784897,90.3023035 L32.5074573,85.7211746 C32.4961123,85.6826014 32.4893053,85.6440283 32.4802292,85.6077241" id="Fill-72" fill="#00304A"></path>
            <path d="M32.162568,81.7665547 C32.1489539,81.6962155 32.1444159,81.6190692 32.1308019,81.5464609 C32.0445795,81.0903901 31.9719712,80.6297813 31.8993629,80.1714415 C31.8948249,80.1419444 31.8880179,80.1124473 31.8834799,80.0852192 C31.7813745,79.4385516 31.6906141,78.7873461 31.6202749,78.1316025 C31.6157368,78.0862223 31.6066608,78.0453802 31.5998538,78 L1,82.5539008 C1.01588306,82.6786963 1.03630414,82.7989538 1.0499182,82.9237493 C1.08849135,83.2300655 1.13160252,83.5341127 1.17244467,83.8381599 C1.28816413,84.6572721 1.41295962,85.4763843 1.55136916,86.2886894 C1.55590718,86.3000345 1.55590718,86.3113795 1.55817618,86.3249936 L1.56044519,86.3249936 L32.162568,81.7665547" id="Fill-73" fill="#FFFFFF"></path>
            <path d="M30.9651642,77.827818 C30.9628952,77.8119349 30.9651642,77.7983209 30.9628952,77.7847068 C30.8358307,76.550366 30.7722984,75.2978731 30.7541464,74.0385732 C30.7541464,74.0226901 30.7518774,74.0136141 30.7518774,74 L0.00680702664,78.5788599 L0,78.5788599 C0.0204210799,78.8942522 0.0521872043,79.2096444 0.077146302,79.5250366 C0.104374409,79.8449669 0.127064497,80.1648971 0.156561613,80.4848274 C0.217824853,81.1178809 0.288164128,81.7509343 0.36531043,82.3817188 L30.9651642,77.827818" id="Fill-74" fill="#00304A"></path>
            <path d="M39.9253252,100.117618 L39.9230562,100.117618 C39.8481789,100.020051 39.7778396,99.9202144 39.7006933,99.820378 C39.4601784,99.5049858 39.2242015,99.1873246 38.9927626,98.8673943 C38.849815,98.6722595 38.7114055,98.4748558 38.5707269,98.275183 C38.330212,97.9325627 38.091966,97.5831353 37.8627961,97.2337079 C37.812878,97.1588306 37.7606907,97.0884913 37.7107726,97.0136141 C37.7085035,97.006807 37.7062345,97.006807 37.7039655,97 L11.004538,112.640278 L11,112.640278 C11.0363041,112.697003 11.0771463,112.758267 11.1157195,112.81953 C11.7419659,113.815625 12.3909024,114.791299 13.0579911,115.766972 C13.0738741,115.787394 13.0874882,115.810084 13.1011022,115.830505 L13.1033712,115.828236 L39.9253252,100.117618" id="Fill-75" fill="#00304A"></path>
            <path d="M37.6348921,97.2900629 C37.6303541,97.2855249 37.625816,97.2764488 37.621278,97.2696418 C37.5486697,97.1561914 37.4805995,97.0404719 37.4102602,96.9270215 C37.1856283,96.5775941 36.9678035,96.2258977 36.7545166,95.8696633 C36.595686,95.6019203 36.4436624,95.3319082 36.2893698,95.0618962 C36.1350772,94.7873461 35.9762466,94.515065 35.828761,94.2382459 C35.7924569,94.1724447 35.7538837,94.1089124 35.7175796,94.0408422 C35.7107726,94.0294971 35.7016965,94.0136141 35.6926205,94 L9.00453802,109.647085 L9,109.647085 C9.03630414,109.710617 9.0771463,109.771881 9.11118144,109.837682 C9.67389564,110.840584 10.2547619,111.836679 10.8628563,112.816891 C10.8855464,112.853195 10.9059675,112.894037 10.9309266,112.930341 L10.9354646,112.930341 L37.6348921,97.2900629" id="Fill-76" fill="#FFFFFF"></path>
            <path d="M35.4533714,94.4557005 C35.4352193,94.4193964 35.4216052,94.3808232 35.4034532,94.3467881 C35.2990788,94.1493843 35.2037804,93.9474425 35.103944,93.7477698 C34.9473824,93.4369155 34.7885518,93.1283303 34.6387972,92.8174761 C34.4005513,92.3182942 34.1736504,91.8100362 33.9535565,91.3017782 C33.9217904,91.2269009 33.8877552,91.1565616 33.8559891,91.0816843 C33.8469131,91.0567252 33.833299,91.0317661 33.821954,91.004538 C33.821954,91 33.819685,91 33.819685,91 L7.00226901,106.717425 L7,106.717425 C7.01361405,106.740115 7.02722811,106.765074 7.03857315,106.787764 C7.56725222,107.87235 8.13223543,108.952398 8.71537071,110.014294 C8.73352279,110.041523 8.74486783,110.073289 8.76075089,110.102786 L8.76528891,110.102786 L35.4533714,94.4557005" id="Fill-77" fill="#00304A"></path>
            <path d="M48.9416861,109 L30,133.464454 C31.023323,134.222303 32.0693361,134.948386 33.1357703,135.64724 L52.1591407,111.064798 C52.1251056,111.046646 52.0933395,111.021687 52.0570353,110.998997 C51.9390469,110.930927 51.8255964,110.858318 51.707608,110.78571 C51.5033972,110.663184 51.3014554,110.538388 51.0972446,110.411324 C50.7205891,110.177616 50.3462026,109.937101 49.9763542,109.694317 C49.8107165,109.583135 49.6450789,109.471954 49.4794412,109.358503 C49.3251486,109.254129 49.164049,109.154293 49.0097564,109.04538 C48.9870663,109.029497 48.9621072,109.018152 48.9416861,109" id="Fill-78" fill="#00304A"></path>
            <path d="M48.9571989,109.330272 C48.9186258,109.307582 48.8868597,109.275816 48.8505555,109.250857 C48.6191166,109.085219 48.3944847,108.915043 48.1653148,108.744868 C48.0836305,108.685874 48.0042152,108.62461 47.9225309,108.563347 C47.4051969,108.175347 46.8946699,107.776001 46.3977569,107.36531 C46.3932189,107.363041 46.3886809,107.358503 46.3864119,107.356234 C46.2570784,107.249591 46.1232069,107.149755 45.9961424,107.040842 C45.9779903,107.027228 45.9575692,107.013614 45.9394171,107 L27,131.462185 C27.1316025,131.571097 27.267743,131.675472 27.3993456,131.782115 C28.2570309,132.474163 29.1237923,133.145789 30.0155128,133.794726 L48.9571989,109.330272" id="Fill-79" fill="#FFFFFF"></path>
            <path d="M45.8346725,106.602553 C45.7915613,106.56398 45.7507191,106.523138 45.705339,106.482296 C45.3808707,106.203208 45.0654785,105.917313 44.7455482,105.629148 C44.7342032,105.617803 44.7205891,105.606458 44.7069751,105.595113 C44.194179,105.129966 43.6904591,104.658013 43.2003532,104.167907 C43.1436279,104.106643 43.0778267,104.058994 43.0233705,104 L24.002269,128.577904 L24,128.580173 C24.5422931,129.070279 25.0936623,129.551309 25.6518385,130.025532 C25.9853828,130.306889 26.3211961,130.590515 26.6592784,130.869603 C26.7386937,130.935404 26.81584,131.001206 26.8952553,131.064738 L45.8346725,106.602553" id="Fill-80" fill="#00304A"></path>
            <path d="M66.4487859,116.417498 C66.3739086,116.403884 66.2967623,116.392539 66.221885,116.376655 C65.6614398,116.270012 65.1055326,116.149755 64.5496255,116.018152 C64.5155903,116.013614 64.4815552,116.006807 64.4475201,116 L56,145.783011 C57.1934987,146.093865 58.4051494,146.363877 59.6258762,146.615737 C59.6576423,146.622544 59.6894084,146.629351 59.7211746,146.638427 L59.7234436,146.629351 L68.2049988,116.712469 C67.6150565,116.626246 67.0296522,116.528679 66.4487859,116.417498" id="Fill-81" fill="#00304A"></path>
            <path d="M64.1119694,116.034668 C64.0892793,116.03013 64.0688582,116.021054 64.0484372,116.014247 C62.8730906,115.737428 61.711358,115.410691 60.5745846,115.038573 C60.5518945,115.031766 60.5292044,115.02269 60.5065143,115.015883 C60.4838242,115.009076 60.4634031,115.006807 60.442982,115 L52.002269,144.78528 L52,144.792087 C52.3312753,144.894192 52.6738956,144.978145 53.009709,145.073444 C53.8878154,145.329842 54.7659218,145.590778 55.6644493,145.817679 L64.1119694,116.034668" id="Fill-82" fill="#FFFFFF"></path>
            <path d="M60.0643202,114.359136 C60.0325541,114.343253 60.003057,114.331908 59.9712909,114.318294 C59.9531388,114.316025 59.9349867,114.309218 59.9168346,114.302411 C59.4085767,114.129966 58.9025877,113.952984 58.4034057,113.764656 C58.0925515,113.648937 57.7862353,113.52641 57.4799191,113.401615 C57.2325971,113.301778 56.9830062,113.204211 56.7379532,113.099836 C56.6608069,113.06807 56.5791226,113.038573 56.4997073,113.004538 C56.4974383,113.002269 56.4929002,113.002269 56.4860932,113 L48.002269,142.923689 L48,142.925958 C48.6375915,143.159666 49.2956041,143.363877 49.9422716,143.581702 C50.4709507,143.760953 50.9905537,143.953819 51.5260398,144.117188 C51.5578059,144.128533 51.5895721,144.142147 51.6213382,144.151223 L51.6236072,144.144416 L60.0643202,114.359136" id="Fill-83" fill="#00304A"></path>
        </g>
    </g>
</svg>