<svg width="166" height="105" viewBox="0 0 166 105" xmlns="http://www.w3.org/2000/svg" xmlns:xlink="http://www.w3.org/1999/xlink"><title>Page 1</title><defs><path id="a" d="M86.87.049H0v86.66h86.87z"/></defs><g fill="none" fill-rule="evenodd"><g transform="translate(0 .151)"><mask id="b" fill="#fff"><use xlink:href="#a"/></mask><path d="M0 43.379C0 19.449 19.446.049 43.435.049s43.435 19.4 43.435 43.33-19.446 43.33-43.435 43.33S0 67.31 0 43.38" fill="#FEFEFE" mask="url(#b)"/></g><path d="M158.833 66.397h-15.982a13.92 13.92 0 0 1 1.046 5.279c0 4.007-1.518 8.158-5.2 11.084h26.416l-6.28-16.363zM22.026 35.294a22.067 22.067 0 0 1 1.02-2.248l.052-.109-13.445-9.51a38.896 38.896 0 0 0-3.689 8.112l16.035 3.82.027-.065m4.569-7.279c.038-.042.08-.079.12-.12a22.195 22.195 0 0 1 .883-.885c.306-.29.617-.57.937-.844l-8.912-13.82a39.236 39.236 0 0 0-6.466 6.14l13.45 9.515-.012.014zm-6.119 15.904c-.001-.089.001-.178.001-.267l-.002-.096c0-.049.004-.096.004-.145a23.329 23.329 0 0 1 .105-2.076l.014-.145c0-.017.002-.034.003-.05-.003.034-.01.07-.013.104l-16.026-3.82a44.49 44.49 0 0 1 .327-1.789c-.14.67-.268 1.345-.373 2.03a39.013 39.013 0 0 0-.34 8.655l16.299-2.422.001.02zm1.776 8.477c-.028-.068-.052-.139-.08-.207a24.02 24.02 0 0 1-.371-.966c-.036-.102-.07-.206-.105-.309a21.994 21.994 0 0 1-.295-.93c-.016-.054-.036-.107-.051-.162l.014.061-16.302 2.422a39.084 39.084 0 0 0 2.972 8.4l14.217-8.311v.002zm13.858-30.5L33.002 5.753a39.424 39.424 0 0 0-8.284 3.317l8.912 13.816a22.809 22.809 0 0 1 2.48-.99m7.258-1.178c.459 0 .912.017 1.363.043L47.89 4.637a39.317 39.317 0 0 0-8.927-.022l3.102 16.143c.432-.024.866-.04 1.304-.04m14.006 62.043l-6.278-16.363H43.36c-.359 0-.717-.013-1.077-.031-.084-.004-.167-.01-.25-.015-.214-.013-.43-.028-.645-.05a21.11 21.11 0 0 1-1.3-.145L35.593 81.98a38.73 38.73 0 0 0 1.858.331 39.04 39.04 0 0 0 5.909.426v.024h14.015zM34.263 64.517c-.106-.045-.207-.1-.313-.146a19.443 19.443 0 0 1-1.16-.563c-.244-.127-.486-.26-.726-.396-.08-.045-.165-.086-.244-.133.018.012.034.024.054.035l-10.087 13a34.441 34.441 0 0 1-1.662-1.155 32.861 32.861 0 0 1-1.386-1.064 38.958 38.958 0 0 0 11.018 6.246l4.498-15.826.008.002zm-7.091-4.816c-.109-.107-.207-.222-.313-.332-.18-.188-.36-.375-.533-.568-.1-.112-.197-.226-.295-.34-.2-.231-.394-.465-.584-.704-.04-.05-.083-.096-.123-.146l-14.218 8.308a39.507 39.507 0 0 0 5.888 6.693l10.083-12.999c.028.032.064.057.095.088m-3.025-3.739l.003.006-.01-.017zm36.026-27.909l13.463-9.46a39.332 39.332 0 0 0-6.426-6.181l-8.962 13.795a22.985 22.985 0 0 1 1.925 1.846m5.992 13.462h16.443c-.331-6.469-2.276-12.613-5.477-17.98l-13.465 9.46a22.648 22.648 0 0 1 2.5 8.52M53.165 22.912l8.96-13.791a39.092 39.092 0 0 0-8.286-3.325l-3.155 16.12c.85.286 1.68.617 2.481.996" fill="#FECC00"/><path d="M61.482 29.599l13.41-9.42-.02-.028a43.11 43.11 0 0 0-.764-.985 13.42 13.42 0 0 0-.187-.23c-.093-.117-.185-.233-.28-.347l-.005.004-13.462 9.46c.46.494.895 1.012 1.308 1.546" fill="#00395D"/><path d="M61.482 29.599c.412.53.8 1.08 1.165 1.647L76.05 21.83l.007-.006c-.048-.074-.102-.143-.153-.215a37.59 37.59 0 0 0-.932-1.315c-.028-.039-.053-.077-.08-.113L61.482 29.6z" fill="#FEFEFE"/><path d="M62.646 31.246c.365.568.705 1.15 1.02 1.75l13.465-9.46.007-.003c-.066-.11-.139-.215-.205-.324-.217-.357-.44-.71-.669-1.06-.07-.107-.134-.22-.206-.326l-.008.006-13.404 9.417zm-7.691-7.385l8.924-13.735.003-.001c-.017-.01-.033-.018-.05-.03-.406-.248-.82-.486-1.237-.72l-.254-.14-.214-.12-.003.005-8.959 13.793c.612.29 1.209.607 1.79.948" fill="#00395D"/><path d="M54.955 23.861c.581.342 1.146.71 1.694 1.098l8.92-13.734.004-.006c-.053-.037-.11-.07-.164-.106-.428-.29-.862-.57-1.302-.843-.077-.047-.15-.1-.225-.145h-.003l-8.924 13.736z" fill="#FEFEFE"/><path d="M56.648 24.96c.552.393 1.085.808 1.6 1.248l8.962-13.796.005-.007c-.092-.069-.187-.131-.278-.2-.35-.262-.706-.52-1.066-.771-.101-.07-.196-.145-.298-.215l-.003.006-8.922 13.734zm-9.898-3.992L49.896 4.92c-.211-.036-.414-.078-.623-.108-.462-.072-.922-.122-1.383-.177v.002l-3.16 16.125c.682.04 1.356.108 2.02.206" fill="#00395D"/><path d="M46.75 20.968c.673.1 1.334.23 1.986.388l3.14-16.051v-.002l-.034-.007a43.91 43.91 0 0 0-1.917-.372l-.03-.006v.001l-3.144 16.05z" fill="#FEFEFE"/><path d="M48.736 21.356c.662.158 1.31.346 1.949.56l3.154-16.12.001-.006-.195-.05c-.103-.029-.208-.055-.311-.082-.473-.123-.946-.24-1.425-.346l-.021-.006-.011-.002-3.14 16.052zm-10.674-.015L34.97 5.27a37.088 37.088 0 0 0-.796.184l-.193.045a54.438 54.438 0 0 0-.98.252v.001l3.109 16.144a23.31 23.31 0 0 1 1.952-.555" fill="#00395D"/><path d="M38.062 21.341a23.158 23.158 0 0 1 1.984-.38l-3.09-16.073-.18.033c-.142.024-.281.049-.42.074-.188.034-.377.068-.565.104l-.43.09c-.132.027-.262.05-.391.08l3.092 16.072z" fill="#FEFEFE"/><path d="M40.046 20.96a22.802 22.802 0 0 1 2.018-.202L38.962 4.614l-.001-.004c-.135.015-.267.034-.4.05l-.213.026a42.956 42.956 0 0 0-1.047.15c-.115.018-.231.034-.346.053l3.09 16.071zm-9.906 3.963l-8.877-13.76-.001-.002-.069.05a38.696 38.696 0 0 0-1.354.969c-.072.055-.147.108-.219.162l.002.004 8.913 13.821a22.905 22.905 0 0 1 1.604-1.244" fill="#00395D"/><path d="M30.14 24.923c.55-.389 1.114-.754 1.698-1.095l-8.876-13.76v-.001l-.044.029c-.554.336-1.094.687-1.628 1.047l-.028.018.001.001 8.876 13.76z" fill="#FEFEFE"/><path d="M31.838 23.829a22.905 22.905 0 0 1 1.792-.943L24.718 9.07l-.004-.007c-.145.079-.288.162-.434.241l-.218.121c-.366.208-.73.419-1.09.636l-.01.006v.001l8.876 13.76zm-8.739 9.109l.017-.028c.13-.249.268-.492.409-.735.032-.06.066-.119.1-.177.13-.221.265-.438.401-.653.03-.046.056-.091.084-.136l.011-.02-13.386-9.472c-.282.418-.553.844-.818 1.275l-.196.318-.07.114.003.003 13.444 9.51v.001z" fill="#00395D"/><path d="M24.12 31.189l.016-.022c.02-.032.045-.063.065-.096.14-.211.28-.417.426-.624l.145-.203c.154-.213.311-.426.472-.634.017-.02.032-.044.05-.064l-.003-.001-13.387-9.473a38.549 38.549 0 0 0-1.13 1.589l-.04.056 13.387 9.472z" fill="#FEFEFE"/><path d="M25.29 29.545h.003l.084-.102c.163-.207.328-.412.497-.612l.206-.237c.151-.173.302-.347.458-.515l.057-.063.007-.011-13.445-9.52h-.001c-.07.083-.132.172-.202.257-.357.436-.711.877-1.05 1.33l13.387 9.473zm-4.702 11.7c.003-.035.01-.071.013-.106.04-.338.08-.676.13-1.015.002-.012.005-.024.006-.037.045-.284.097-.564.15-.844l-15.96-3.808-.038.2c-.12.591-.23 1.185-.326 1.788l16.025 3.822z" fill="#00395D"/><path d="M20.888 39.242a22.62 22.62 0 0 1 .47-1.962L5.397 33.474c-.063.233-.119.467-.177.7-.07.286-.138.574-.202.864-.03.133-.061.265-.09.398l15.96 3.806z" fill="#FEFEFE"/><path d="M21.358 37.28c.092-.325.192-.648.3-.967v-.005c.104-.305.21-.605.323-.901l.016-.044v-.003L5.965 31.538v.006a38.76 38.76 0 0 0-.377 1.254c-.044.153-.088.307-.13.46l-.06.217 15.96 3.805zm-.008 12.543c-.023-.08-.042-.163-.064-.244a20.87 20.87 0 0 1-.324-1.323c-.007-.038-.017-.075-.025-.112-.013-.059-.028-.118-.04-.176-.002-.018-.008-.034-.012-.052l-16.223 2.41H4.66l.004.019c.117.657.248 1.308.396 1.953l.001.008 16.302-2.423-.014-.06" fill="#00395D"/><path d="M20.886 47.915c-.008-.037-.01-.078-.017-.116-.046-.241-.084-.485-.123-.727l-.008-.047a20.858 20.858 0 0 1-.139-1.032c-.003-.024-.008-.047-.012-.07L4.367 48.33c.006.066.017.13.026.196.019.162.042.322.063.484.062.433.128.865.201 1.295l.004.02h.001l16.224-2.41z" fill="#FEFEFE"/><path d="M20.588 45.923l-.003-.023c-.066-.653-.1-1.314-.109-1.981l-.001-.02-16.3 2.421h-.004c.012.168.027.334.042.5a28.192 28.192 0 0 0 .152 1.511l16.223-2.408zm4.736 11.687c-.04-.051-.078-.105-.119-.157a24.87 24.87 0 0 1-.375-.504c-.076-.104-.15-.209-.224-.313a21.225 21.225 0 0 1-.375-.552c-.027-.04-.054-.076-.08-.116l-.004-.006-14.155 8.271H9.99c.02.03.042.061.061.095a50.5 50.5 0 0 0 1.053 1.592l14.22-8.31z" fill="#00395D"/><path d="M24.147 55.962l-.008-.011c-.038-.06-.073-.121-.111-.183a24.14 24.14 0 0 1-.348-.559c-.084-.14-.164-.284-.245-.427-.083-.145-.166-.288-.245-.434l-.06-.106-.008-.013-14.154 8.267h-.002l.06.1c.297.532.606 1.058.929 1.577l.035.06h.002l14.155-8.271z" fill="#FEFEFE"/><path d="M23.118 54.221l-.027-.057c-.055-.106-.106-.213-.159-.317-.083-.164-.167-.328-.246-.492a23.027 23.027 0 0 1-.364-.803l-.051-.115a.253.253 0 0 0-.02-.04v-.003L8.033 60.705c.006.013.015.025.02.038.28.574.58 1.145.89 1.706.01.015.015.032.024.046l14.15-8.274zm7.049 8.001L20.125 75.159c.543.402 1.097.786 1.663 1.156l10.085-13.001-.053-.035c-.064-.036-.124-.076-.185-.113a29.216 29.216 0 0 1-.92-.577 33.652 33.652 0 0 1-.262-.178c-.083-.056-.167-.109-.249-.165-.013-.009-.025-.015-.037-.024" fill="#00395D"/><path d="M30.167 62.222c-.02-.013-.036-.029-.057-.042-.122-.088-.241-.179-.362-.268l-.13-.096a22.864 22.864 0 0 1-.808-.633l-.006-.005c-.067-.057-.14-.11-.207-.167a.135.135 0 0 0-.02-.014l-10.05 12.93c.07.057.142.112.211.169.455.366.916.721 1.387 1.063l10.042-12.937z" fill="#FEFEFE"/><path d="M28.568 60.989l-.069-.064c-.172-.147-.34-.298-.509-.45l-.02-.019a22.548 22.548 0 0 1-.799-.755c-.03-.032-.065-.057-.094-.087L16.993 72.612v.001c.287.258.579.513.875.764.177.148.355.298.534.446.042.035.083.07.125.103l10.04-12.937zm10.59 5.012c-.04-.007-.08-.013-.12-.022a18.42 18.42 0 0 1-.886-.19.451.451 0 0 1-.055-.009l-4.479 15.751a39.988 39.988 0 0 0 1.974.453v-.005l4.497-15.822a19.81 19.81 0 0 1-.931-.156" fill="#00395D"/><path d="M38.097 65.78c-.012-.002-.023-.006-.034-.01a22.57 22.57 0 0 1-1.841-.516l-.037-.012c-.012-.004-.022-.005-.033-.008l-4.475 15.752-.001.004c.175.054.357.098.535.148.466.136.931.274 1.407.394l4.479-15.751z" fill="#FEFEFE"/><path d="M36.152 65.234a.611.611 0 0 0-.05-.022l-.027-.008c-.271-.092-.54-.185-.804-.285a24.32 24.32 0 0 1-.49-.192c-.13-.053-.263-.104-.393-.16-.04-.016-.084-.032-.125-.05l-.008-.002-4.498 15.825v.002c.337.123.686.231 1.03.346.279.095.554.197.838.284l.05.018.002-.004 4.475-15.752zm83.938-5.225h4.074c5.485 0 6.242-1.928 6.242-4.01 0-1.087 0-3.627-5.811-3.627h-4.505v7.637zm0 15.919h5.327c1.122 0 6.73-.211 6.73-4.395 0-3.111-2.23-4.688-6.638-4.688h-5.42v9.083zm4.603 6.833h-11.745V45.54h11.987c7.957 0 12.905 3.806 12.905 9.927 0 3.119-1.254 5.69-3.537 7.424a9.882 9.882 0 0 1 5.275 8.787c0 7.044-5.428 11.082-14.885 11.082zm-56.6 0H62.07L47.789 45.544h7.897l9.544 25.419 9.851-25.419h7.617zm20.465-15.225h8.957l-4.71-11.343-4.247 11.343zm21.723 15.226h-6.367l-3.601-8.392H85.949l-3.104 8.392h-7.567l14.69-37.22h5.839l15.863 37.22h-1.389zM21.615 93.954h-1.482l-1.752 4.82-1.647-4.82H15.55l-1.647 4.82-1.737-4.82h-1.482l2.62 6.992h1.228l1.617-4.776 1.617 4.776h1.228l2.62-6.992zm7.81 3.429c-.016-2.157-1.438-3.654-3.444-3.654-2.156 0-3.654 1.602-3.654 3.728 0 2.067 1.498 3.713 3.684 3.713 1.572 0 2.83-.838 3.234-2.08h-1.483c-.284.538-.883.868-1.707.868-1.422 0-2.245-.958-2.38-2.141h5.72c.014-.135.03-.24.03-.434zm-3.444-2.486c1.167 0 1.931.809 2.05 2.051h-4.326c.18-1.153.973-2.05 2.276-2.05zm12.27 2.486c-.014-2.157-1.437-3.654-3.443-3.654-2.156 0-3.653 1.602-3.653 3.728 0 2.067 1.497 3.713 3.683 3.713 1.572 0 2.83-.838 3.234-2.08H36.59c-.285.538-.883.868-1.707.868-1.422 0-2.246-.958-2.38-2.141h5.719c.015-.135.03-.24.03-.434zm-3.443-2.486c1.168 0 1.932.809 2.051 2.051h-4.327c.18-1.153.974-2.05 2.276-2.05zm10.355 4.821c-.36.105-.794.18-1.168.18-.958 0-1.452-.464-1.452-1.557v-3.234h2.62v-1.153h-2.62v-2.575h-1.378v2.575h-1.721v1.153h1.721v3.234c0 1.811.944 2.83 2.576 2.83.539 0 .928-.06 1.632-.27l-.21-1.183zm13.029-2.335c-.015-2.157-1.438-3.654-3.444-3.654-2.156 0-3.653 1.602-3.653 3.728 0 2.067 1.497 3.713 3.683 3.713 1.572 0 2.83-.838 3.234-2.08H56.53c-.285.538-.884.868-1.707.868-1.422 0-2.246-.958-2.38-2.141h5.719c.015-.135.03-.24.03-.434zm-3.444-2.486c1.168 0 1.932.809 2.051 2.051h-4.327c.18-1.153.973-2.05 2.276-2.05zm6.851-.943h-1.377v6.992h1.377v-4.477c.63-.868 1.513-1.347 2.635-1.377v-1.303c-1.093 0-1.99.45-2.635 1.198v-1.033zm18.479 0h-1.482l-1.752 4.82-1.647-4.82h-1.183l-1.647 4.82-1.737-4.82h-1.482l2.62 6.992h1.228l1.617-4.776 1.617 4.776h1.228l2.62-6.992zm7.81 3.429c-.016-2.157-1.438-3.654-3.444-3.654-2.156 0-3.653 1.602-3.653 3.728 0 2.067 1.497 3.713 3.683 3.713 1.572 0 2.83-.838 3.234-2.08h-1.482c-.285.538-.884.868-1.707.868-1.423 0-2.246-.958-2.38-2.141h5.719c.014-.135.03-.24.03-.434zm-3.444-2.486c1.168 0 1.931.809 2.051 2.051h-4.327c.18-1.153.973-2.05 2.276-2.05zm7-4.581h-1.377v10.63h1.378v-10.63zm16.864 3.638h-1.482l-1.752 4.82-1.647-4.82h-1.183l-1.647 4.82-1.737-4.82h-1.482l2.62 6.992h1.228l1.617-4.776 1.617 4.776h1.228l2.62-6.992zm7.81 3.429c-.016-2.157-1.438-3.654-3.444-3.654-2.156 0-3.653 1.602-3.653 3.728 0 2.067 1.497 3.713 3.683 3.713 1.572 0 2.83-.838 3.234-2.08h-1.482c-.285.538-.884.868-1.707.868-1.423 0-2.246-.958-2.38-2.141h5.719c.014-.135.03-.24.03-.434zm-3.444-2.486c1.168 0 1.931.809 2.051 2.051h-4.327c.18-1.153.973-2.05 2.276-2.05zm11.088-.943v.599c-.629-.524-1.452-.824-2.395-.824-1.977 0-3.519 1.527-3.519 3.624 0 1.886 1.542 3.518 3.519 3.518.943 0 1.766-.3 2.395-.823v1.003c0 1.407-.883 2.23-2.156 2.23-1.168 0-1.961-.613-2.126-1.512h-1.392c.21 1.632 1.632 2.755 3.518 2.755 2.081 0 3.534-1.332 3.534-3.473v-7.097h-1.378zm-2.2 5.72c-1.363 0-2.336-1.139-2.336-2.321 0-1.378.973-2.426 2.335-2.426.854 0 1.647.344 2.201 1.153v2.44c-.554.809-1.347 1.153-2.2 1.153zm18.807-5.945c-1.182 0-1.976.405-2.71 1.168-.524-.749-1.362-1.168-2.35-1.168-.959 0-1.572.315-2.096.854v-.63h-1.378v6.993h1.378v-4.851c.524-.764 1.182-1.123 1.826-1.123 1.168 0 1.857.764 1.857 2.096v3.878h1.377v-3.953c0-.3-.03-.599-.09-.868.54-.824 1.228-1.153 1.917-1.153 1.168 0 1.856.764 1.856 2.096v3.878h1.363v-3.953c0-1.991-1.258-3.264-2.95-3.264zm12.107 3.654c-.015-2.157-1.437-3.654-3.444-3.654-2.156 0-3.653 1.602-3.653 3.728 0 2.067 1.497 3.713 3.683 3.713 1.572 0 2.83-.838 3.234-2.08h-1.482c-.285.538-.883.868-1.707.868-1.422 0-2.246-.958-2.38-2.141h5.719c.015-.135.03-.24.03-.434zm-3.444-2.486c1.168 0 1.932.809 2.051 2.051h-4.327c.18-1.153.974-2.05 2.276-2.05zm12.271 2.486c-.015-2.157-1.437-3.654-3.443-3.654-2.156 0-3.653 1.602-3.653 3.728 0 2.067 1.497 3.713 3.683 3.713 1.572 0 2.83-.838 3.234-2.08h-1.482c-.285.538-.884.868-1.707.868-1.423 0-2.246-.958-2.38-2.141h5.719c.014-.135.03-.24.03-.434zm-3.443-2.486c1.168 0 1.931.809 2.051 2.051h-4.327c.18-1.153.973-2.05 2.276-2.05z" fill="#00395D"/></g></svg>