<svg xmlns="http://www.w3.org/2000/svg" viewBox="68 124 368 219"><path fill="#FFF" d="M429 305l-30.9-81.9c-2.6-6.6-8.7-11-15.8-11H250.9c-2.3-46.7-41.1-84-88.3-84-49 0-88.6 39.6-88.6 88.6 0 47.2 37 85.8 83.7 88.3h4.8c1.1.3 266.5 0 266.5 0z"/><path fill="#FC0" d="M407.6 265.2h-33.9c1.5 3.6 2.3 7.4 2.3 11.2 0 8.4-3.3 17.4-11 23.5h56.2l-13.6-34.7zM91.1 173.6c.3-.3.3-.5.5-.8-.2.2-.2.5-.5.8zm26.3 25.5c.3-.8.5-1.5 1-2.3 0-.3 0-.3.3-.5.3-.8.8-1.5 1-2v-.3l-28.6-20.2c-3.3 5.4-5.9 11.2-7.9 17.4l34.2 7.9c-.2 0 0 0 0 0zm-24-29.1zm19.2-20.2l.8-.8c-.1.3-.3.6-.8.8zm14.5 33.7l.3-.3 1.5-1.5.3-.3c.8-.5 1.3-1.3 2-1.8L112.3 150c-5.1 3.8-9.7 8.2-13.8 13l28.6 20.5zm-5.4 6.6zm-7.6 27.1v-3.4c0-.8 0-1.3.3-2v-.3.3l-33.9-8.2c.3-1.3.5-2.6.8-3.8-.3 1.5-.5 2.8-.8 4.3-1 6.1-1.3 12.5-.8 18.4l34.4-5.3zm-32.9-18.9c.3-.5.3-1.3.5-1.8-.3.8-.3 1.3-.5 1.8zm-1.6 26.3v-1 1zm2.6-29.9c0-.3.3-.8.3-1-.1.3-.3.5-.3 1zm-2.1 33.5c0-.3 0-.8-.3-1 .1.2.1.7.3 1zm34.8-2.3s0-.3 0 0c0-.3 0-.3 0 0zm-.6-4.4zm3.6 13.8c0-.3 0-.3-.3-.5-.3-.8-.5-1.3-.8-2 0-.3-.3-.5-.3-.8-.3-.8-.5-1.3-.5-2v-.3.3l-34.7 5.1c1.5 6.1 3.6 12.3 6.4 17.9l30.2-17.7zm3.8-91.3c.3 0 .3-.3.5-.3-.2 0-.5.3-.5.3zm25.6 26.5l-6.6-34.5c-6.1 1.8-12 4.1-17.6 7.1l18.9 29.4c1.7-.7 3.5-1.5 5.3-2zm.5-36c.3 0 .5 0 .8-.3-.3.3-.6.3-.8.3zm2-.2h.8c-.3-.3-.5 0-.8 0zm-4.3.7c.3 0 .5-.3 1-.3-.3.1-.5.1-1 .3zm-4.9 1c.8-.3 1.3-.3 2-.5-.7.3-1.2.5-2 .5zm11.3-2.3zm-8.7 1.8c.5 0 1-.3 1.5-.3-.5.1-1 .1-1.5.3zm19.4 32.4h2.8l6.6-34.2c-6.4-.8-12.8-.8-18.9 0l6.6 34.5c1.1-.3 1.9-.3 2.9-.3zm14-33.6c1.3.3 2.8.5 4.1.8-1.5-.3-2.8-.6-4.1-.8z"/><path fill="#FC0" d="M81.4 235.1c-.3-1.3-.5-2.8-.8-4.1.1 1.3.3 2.8.8 4.1zm34.5-87.6c1-.8 2.3-1.5 3.6-2.3-1.6.8-2.6 1.6-3.6 2.3zM91.6 260.3c-.8-1-1.3-2.3-2-3.3.8 1 1.5 2.3 2 3.3zm100.8 39.6l-13.3-34.7h-20.4c-1 0-1.8-.3-2.8-.3l-9.4 33.7c1.3.3 2.6.5 3.8.8 4.3.8 8.4 1 12.5 1h29.6v-.5zm-72.7-60.7zm23.5 21.9c-.3 0-.5-.3-.8-.3-.5-.3-1-.5-1.5-.8-.3-.3-.5-.3-.8-.5-.5-.3-1-.5-1.5-.8-.3 0-.3-.3-.5-.3L116.7 286c-1.3-.8-2.3-1.5-3.6-2.6-1-.8-2-1.5-3.1-2.3 6.9 5.6 14.8 10.2 23.5 13.3l9.7-33.3zM109.7 281c-.3-.3-.8-.5-1-1 .3.2.5.5 1 1zm18.4-30.1l-.8-.8c-.3-.5-.8-.8-1-1.3-.3-.3-.5-.5-.5-.8-.5-.5-.8-1-1.3-1.5l-.3-.3-30.1 17.6c3.6 5.1 7.9 10 12.5 14.3l21.5-27.2c0-.3 0 0 0 0zm23.5 13c-.2 0-.2 0 0 0-.2 0-.2 0 0 0-.2 0 0 0 0 0zM121.7 243zm9.5 10.7s0-.3 0 0c0-.3 0-.3 0 0zm3.3 2.6s.3 0 0 0zm12.8 6.3zm80.1-98.5l.5.5-.5-.5zm-29.1 19.4l28.6-20.2c-4.1-4.8-8.7-9.2-13.5-13.3l-19.1 29.4c1.2 1.6 2.7 2.8 4 4.1zm12.8 28.6h35c-.8-13.8-4.8-26.8-11.7-38.3L205.7 194c2.8 5.6 4.6 11.7 5.4 18.1zm-27.6-39.6l18.9-29.4c-5.4-3.1-11.5-5.4-17.6-7.1l-6.6 34.2c1.7.8 3.5 1.6 5.3 2.3zm.3-36.5c.3 0 .5 0 .8.3-.3-.3-.6-.3-.8-.3zm19.1 7.4c.3 0 .3.3.5.3-.2 0-.5 0-.5-.3z"/><path fill="#003A5D" d="M201.1 186.8l28.3-19.9c-.5-.8-1-1.5-1.5-2l-.5-.5c-.3-.3-.5-.5-.5-.8l-28.6 20.2c1 .7 1.8 2 2.8 3z"/><path fill="#FFF" d="M201.1 186.8c.8 1 1.8 2.3 2.6 3.6l28.3-19.9c0-.3-.3-.3-.3-.5-.8-1-1.3-1.8-2-2.8 0 0 0-.3-.3-.3l-28.3 19.9z"/><path fill="#003A5D" d="M203.4 190.4c.8 1.3 1.5 2.6 2 3.8L234 174c-.3-.3-.3-.5-.5-.8-.5-.8-1-1.5-1.5-2.3-.3-.3-.3-.5-.5-.8l-28.1 20.3zm-16.3-15.8l18.9-29.1c-.8-.5-1.8-1-2.6-1.5-.3 0-.3-.3-.5-.3s-.3-.3-.5-.3l-18.9 29.1c1.3.8 2.6 1.3 3.6 2.1z"/><path fill="#FFF" d="M187.1 174.6c1.3.8 2.6 1.5 3.6 2.3l18.9-29.1-.3-.3c-1-.5-1.8-1.3-2.8-1.8-.3 0-.3-.3-.5-.3l-18.9 29.2z"/><path fill="#003A5D" d="M190.7 176.9c1.3.8 2.3 1.8 3.3 2.6l19.1-29.4c-.3-.3-.5-.3-.5-.5-.8-.5-1.5-1-2.3-1.5-.3-.3-.5-.3-.5-.5l-19.1 29.3zm-21-8.4l6.6-34.2H175c-1-.3-2-.3-2.8-.3l-6.6 34.2c1.3 0 2.9 0 4.1.3z"/><path fill="#FFF" d="M169.7 168.5c1.5.3 2.8.5 4.3.8l6.6-34.2c-1.3-.3-2.8-.5-4.1-.8l-6.8 34.2z"/><path fill="#003A5D" d="M174.1 169.2c1.3.3 2.8.8 4.1 1.3l6.6-34.2h-.5c-.3 0-.5 0-.8-.3-1-.3-2-.5-3.1-.8l-6.3 34zm-22.7 0l-6.6-34.2h-.3c-.5 0-1 .3-1.5.3h-.5c-.8.3-1.3.3-2 .5l6.6 34.5c1.4-.3 2.7-.6 4.3-1.1z"/><path fill="#FFF" d="M151.4 169.2c1.3-.3 2.8-.5 4.1-.8l-6.4-34.2h-.5c-.2 0-.5 0-.8.3-.5 0-.8.3-1.3.3-.3 0-.5 0-1 .3-.3 0-.5 0-.8.3l6.7 33.8z"/><path fill="#003A5D" d="M155.4 168.5c1.5-.3 2.8-.3 4.3-.5l-6.6-34.2h-1.3c-.5 0-1 .3-1.5.3h-1.6l6.7 34.4zm-20.9 8.4l-18.9-29.4h-.3c-.8.5-1.3 1-2 1.5l-.8.8c-.3 0-.3.3-.5.3l18.9 29.4c1.3-.8 2.3-1.9 3.6-2.6z"/><path fill="#FFF" d="M134.5 176.9c1.3-.8 2.3-1.5 3.6-2.3l-18.9-29.4c-1.3.8-2.3 1.5-3.6 2.3l18.9 29.4z"/><path fill="#003A5D" d="M138.1 174.6c1.3-.8 2.6-1.3 3.8-2L123 143.2c-.3.3-.5.3-1 .5-.3 0-.3.3-.5.3-.8.5-1.5.8-2.3 1.3l18.9 29.3zM119.7 194c.3-.5.5-1 1-1.5l.3-.3c.3-.5.5-1 .8-1.3 0 0 0-.3.3-.3L93.4 170c-.5.8-1.3 1.8-1.8 2.8-.3.3-.3.5-.5.8 0 0 0 .3-.3.3l28.9 20.1z"/><path fill="#FFF" d="M121.7 190.1s.3 0 0 0c.5-.8.8-1 1-1.5 0-.3.3-.3.3-.5.3-.5.8-1 1-1.3v-.3l-28.3-20.2c-.8 1-1.5 2-2.3 3.3v.3l28.3 20.2z"/><path fill="#003A5D" d="M124.3 186.8c0-.2 0-.2 0 0 .5-.8.8-1 1.3-1.5l.5-.5 1-1v-.3l-28.6-20.2-.5.5c-.8 1-1.5 1.8-2.3 2.8l28.6 20.2zm-10 24.8c0-1 .3-1.8.3-2.3 0-.5.3-1.3.3-1.8L81 199.3v.5c-.3 1.3-.5 2.6-.8 3.8l34.1 8z"/><path fill="#FFF" d="M114.9 207.2c.3-1.5.5-2.8 1-4.1l-34-8.1c0 .5-.3 1-.3 1.5-.3.5-.3 1.3-.5 1.8 0 .3-.3.5-.3.8l34.1 8.1z"/><path fill="#003A5D" d="M115.9 203.2c.3-.8.5-1.3.5-2 .3-.8.5-1.3.8-2L83.3 191c-.3.8-.5 1.8-.8 2.6 0 .3-.3.8-.3 1 0 .3 0 .3-.3.5l34 8.1zm0 26.8c0-.3 0-.3-.3-.5 0-.3-.3-.8-.3-1-.3-.5-.3-1-.5-1.8v-.6l-34.5 5.1c.3 1.3.5 2.8.8 4.1l34.8-5.3z"/><path fill="#FFF" d="M114.9 225.9c0-.3 0-.3 0 0-.3-.8-.3-1.3-.3-1.8 0-.8-.3-1.5-.3-2.3v-.3l-34.5 5.1v.5c0 .2 0 .8.3 1 .3 1 .3 1.8.5 2.8l34.3-5z"/><path fill="#003A5D" d="M114.3 221.5c-.3-1.5-.3-2.8-.3-4.3l-34.5 5.1v2c0 .8.3 1.5.3 2l34.5-4.8zm10 25.1l-.3-.3c-.3-.3-.5-.8-.8-1-.3-.3-.3-.5-.5-.8-.3-.5-.5-.8-.8-1.3 0 0 0-.3-.3-.3l-29.9 17.6s0 .3.3.3c.8 1 1.5 2.3 2.3 3.3l30-17.5z"/><path fill="#FFF" d="M121.7 243c0-.3-.3-.3-.3-.5-.3-.5-.5-.8-.8-1.3-.3-.3-.3-.5-.5-1-.3-.3-.3-.5-.5-1v-.3l-30.1 17.9v.3c.5 1 1.3 2.3 2 3.3l30.2-17.4z"/><path fill="#003A5D" d="M119.7 239.2c-.3-.3-.3-.5-.5-.8-.3-.3-.3-.8-.5-1-.3-.5-.5-1-.8-1.8v-.3l-30.1 17.6c.5 1.3 1.3 2.6 1.8 3.6l30.1-17.3zm14.8 17.1l-21.2 27.6c1.3.8 2.3 1.8 3.6 2.6l21.4-27.6c-.3 0-.3-.3-.5-.3-.3-.3-.5-.3-.8-.5-.5-.3-.8-.5-1.3-.8l-.5-.5c-.2-.3-.4-.3-.7-.5.3 0 0 0 0 0z"/><path fill="#FFF" d="M134.5 256.3l-.8-.8-.3-.3c-.5-.5-1.3-.8-1.8-1.3-.3 0-.3-.3-.5-.3l-21.4 27.6c.3 0 .3.3.5.3 1 .8 2 1.5 3.1 2.3l21.2-27.5z"/><path fill="#003A5D" d="M131.2 253.7c0-.3 0-.3 0 0-.5-.5-.8-.8-1.3-1-.5-.5-1-1-1.8-1.5 0 0-.3 0-.3-.3l-21.4 27.6c.5.5 1.3 1 1.8 1.5.3.3.8.5 1 1l.3.3 21.7-27.6zm22.4 10.5s-.2 0 0 0c-.8-.3-1.5-.3-2-.5l-9.4 33.4c1.3.3 2.8.8 4.1 1l9.4-33.4c-.8-.3-1.3-.3-2.1-.5z"/><path fill="#FFF" d="M151.4 263.9c-1.3-.3-2.8-.8-4.1-1l-9.4 33.2c.3 0 .8.3 1 .3 1 .3 2 .5 3.1.8l9.4-33.3z"/><path fill="#003A5D" d="M147.3 262.6c-.8-.3-1.3-.5-1.8-.8-.3-.3-.8-.3-1-.5-.3 0-.5-.3-.8-.3h-.3l-9.4 33.7c.8.3 1.5.5 2.3.8.5.3 1.3.5 1.8.5l9.2-33.4zm208.2-4.8c4.8-3.8 7.4-9.2 7.4-15.8 0-13-10.5-21.2-27.3-21.2h-25.5v79.1h25c20.2 0 31.6-8.7 31.6-23.5.1-8.2-4.5-15-11.2-18.6zm-29.8-22.5h9.4c12.3 0 12.3 5.4 12.3 7.7 0 4.3-1.5 8.4-13.3 8.4h-8.4v-16.1zm11 50h-11.2V266H337c9.2 0 14 3.3 14 10-.1 8.8-12.1 9.3-14.3 9.3zm-121.5 14.6h-12.8L172 220.8h16.6l20.4 54.1 21-54.1h16zm58.7-79.1h-12.5l-31.1 79.1h16.1L253 282h30.4l7.7 17.9h16.6l-33.8-79.1zm-15.3 46.7l8.9-24.2 10 24.2h-18.9z"/><path fill="#FC0" d="M247.1 335.4H94.2v-8.2h150.3z"/><path d="M260.1 335.1v4.6H255v-17.4h7.9c4.6 0 7.7 2.3 7.7 6.4 0 2.3-1 4.1-2.8 5.4l4.1 5.6h-6.4l-3.1-4.6h-2.3zm2.8-4.6c1.3 0 2.6-.8 2.6-2 0-1-1-1.8-2.6-1.8h-2.6v3.8h2.6zm15 9h-5.1v-17.4h5.1v17.4zm16.4-7.2c0 4.8-2.8 7.7-7.4 7.7-4.3 0-7.1-2.6-7.4-6.9h5.1c0 1.5 1 2.3 2.3 2.3 1.5 0 2.3-1 2.3-3.1v-10.2h5.1v10.2zm17.1-4.6h-5.1c-.3-1-.8-1.8-2.3-1.8-1 0-1.8.5-1.8 1.3s.5 1 1.3 1.3l2.8.8c2.8.8 5.1 2 5.1 5.1 0 3.6-3.1 5.9-7.7 5.9-3.6 0-7.7-1.3-8.2-6.1h5.1c.3 1.3 1.3 2 3.1 2 1.3 0 1.8-.5 1.8-1s-.3-.8-1.3-1l-2.8-.8c-3.3-.8-5.1-2.3-5.1-5.1 0-3.6 2.8-5.9 7.1-5.9 3.1-.6 7.5.5 8 5.3zm14.5 4.4h5.4c-.3 4.6-3.8 7.9-8.9 7.9-5.4 0-9.4-3.8-9.4-8.9s3.8-8.9 9.4-8.9c5.1 0 8.7 3.3 8.9 7.9h-5.4c-.3-1.8-1.5-3.1-3.6-3.1-2.6 0-4.1 1.8-4.1 4.3 0 2.3 1.5 4.3 4.1 4.3 2.1-.5 3.4-1.8 3.6-3.5zm24 7.4h-5.1v-6.1h-6.1v6.1h-5.1v-17.4h5.1v6.6h6.1v-6.6h5.1v17.4zm20.7-8.5c0 5.1-3.8 8.9-9.4 8.9s-9.4-3.8-9.4-8.9 3.8-8.9 9.4-8.9 9.4 3.6 9.4 8.9zm-5.1 0c0-2.3-1.8-4.3-4.1-4.3s-4.1 2-4.1 4.3 1.8 4.3 4.1 4.3c2.3-.2 4.1-2.2 4.1-4.3zm25.5 0c0 5.1-3.8 8.9-9.4 8.9s-9.4-3.8-9.4-8.9 3.8-8.9 9.4-8.9 9.4 3.6 9.4 8.9zm-5.1 0c0-2.3-1.8-4.3-4.1-4.3s-4.1 2-4.1 4.3 1.8 4.3 4.1 4.3c2.3.1 4.1-2.2 4.1-4.3zm20.7 8.5h-13.3v-17.4h5.1v12.8h8.2v4.6z" fill="#FFF"/></svg>