<svg width="162" height="95" viewBox="0 0 162 95" xmlns="http://www.w3.org/2000/svg" xmlns:xlink="http://www.w3.org/1999/xlink"><title>UI-styleguide-logo</title><defs><path id="a" d="M462 2470h396v260H462z"/><mask id="c" x="0" y="0" width="396" height="260" fill="#fff"><use xlink:href="#a"/></mask><path id="b" d="M462 2470h396v260H462z"/><mask id="d" x="0" y="0" width="396" height="260" fill="#fff"><use xlink:href="#b"/></mask><path id="e" d="M26.484 16.348V.044H.1v16.304h26.384z"/></defs><g transform="translate(-580 -2535)" fill="none" fill-rule="evenodd"><use stroke="#EBEBEB" mask="url(#c)" stroke-width="2" xlink:href="#a"/><use stroke="#EBEBEB" mask="url(#d)" stroke-width="2" xlink:href="#b"/><g transform="translate(714.366 2597.952)"><mask id="f" fill="#fff"><use xlink:href="#e"/></mask><path d="M20.211.044H4.248a13.84 13.84 0 0 1 1.044 5.26c0 3.992-1.516 8.128-5.192 11.044h26.384L20.211.044z" fill="#FECC00" mask="url(#f)"/></g><path d="M597.93 2567.006a21.957 21.957 0 0 1 1.018-2.24l.053-.108-13.43-9.476a38.71 38.71 0 0 0-3.684 8.083l16.016 3.807.027-.066m4.563-7.252c.039-.042.08-.08.12-.121a22.141 22.141 0 0 1 .882-.881c.306-.289.617-.568.936-.84l-8.901-13.771a39.15 39.15 0 0 0-6.458 6.118l13.433 9.48-.012.015zm-6.111 15.846c-.001-.089.001-.177.001-.266l-.002-.096c0-.049.003-.095.003-.144a23.187 23.187 0 0 1 .106-2.069l.013-.144.004-.05c-.004.034-.01.069-.013.103l-16.008-3.806c.098-.602.207-1.193.327-1.782-.14.667-.268 1.34-.372 2.022a38.778 38.778 0 0 0-.34 8.624l16.28-2.413.001.02zm1.774 8.446c-.028-.068-.052-.139-.08-.207-.13-.318-.255-.638-.371-.962-.036-.102-.07-.205-.105-.307a21.875 21.875 0 0 1-.294-.927c-.017-.054-.036-.107-.052-.162l.015.061-16.283 2.413a38.88 38.88 0 0 0 2.968 8.37l14.2-8.281.002.002zm13.842-30.389l-3.105-16.085a39.435 39.435 0 0 0-8.274 3.305l8.901 13.766c.802-.375 1.63-.704 2.478-.986m7.249-1.174c.458 0 .911.017 1.362.043l3.154-16.066a39.367 39.367 0 0 0-8.917-.022l3.099 16.084c.431-.024.865-.04 1.302-.04m13.991 61.819l-6.271-16.304h-7.728c-.358 0-.716-.013-1.075-.03-.084-.004-.167-.01-.25-.015a16.859 16.859 0 0 1-.644-.05c-.436-.036-.87-.083-1.3-.145l-4.49 15.766c.614.123 1.231.235 1.857.33 1.985.3 3.956.427 5.902.424v.024h13.999zm-23.086-18.177c-.105-.046-.206-.1-.312-.146-.25-.114-.498-.228-.743-.348a25.065 25.065 0 0 1-1.141-.607c-.08-.046-.165-.087-.244-.133.018.012.035.024.054.034l-10.074 12.954a35.036 35.036 0 0 1-1.66-1.151 32.32 32.32 0 0 1-1.385-1.061 38.938 38.938 0 0 0 11.005 6.223l4.493-15.768.007.003zm-7.082-4.799c-.109-.107-.207-.222-.313-.332-.179-.186-.36-.373-.532-.565-.1-.111-.197-.225-.295-.339a23.2 23.2 0 0 1-.583-.701c-.04-.05-.083-.096-.123-.146l-14.202 8.278a39.394 39.394 0 0 0 5.882 6.669l10.07-12.952c.03.031.065.056.095.088m-3.021-3.726l.004.006-.011-.017zm35.984-27.808l13.448-9.425a39.244 39.244 0 0 0-6.419-6.16l-8.95 13.746a23.006 23.006 0 0 1 1.921 1.839m5.986 13.414h16.423c-.33-6.446-2.273-12.568-5.47-17.915l-13.45 9.426a22.525 22.525 0 0 1 2.497 8.489m-12.985-18.535l8.949-13.742a39.102 39.102 0 0 0-8.276-3.314l-3.152 16.063c.85.284 1.679.614 2.479.992" fill="#FECC00"/><path d="M637.34 2561.331l13.394-9.385-.02-.028a42.968 42.968 0 0 0-.763-.982l-.186-.23c-.094-.115-.185-.231-.28-.345l-.005.005-13.447 9.425c.459.493.894 1.008 1.307 1.54" fill="#00395D"/><path d="M637.34 2561.331c.411.529.8 1.077 1.163 1.642l13.388-9.384.008-.006c-.048-.073-.102-.142-.153-.214a37.455 37.455 0 0 0-.931-1.31c-.028-.038-.053-.077-.08-.113l-13.395 9.385z" fill="#FEFEFE"/><path d="M638.503 2562.973c.364.565.704 1.145 1.018 1.743l13.45-9.425.006-.004c-.066-.11-.138-.214-.204-.323-.217-.355-.44-.706-.668-1.055-.07-.107-.135-.22-.207-.326l-.007.006-13.388 9.384zm-7.683-7.359l8.914-13.685.003-.001-.05-.029a36.803 36.803 0 0 0-1.236-.717l-.253-.14-.214-.12-.003.005-8.948 13.743c.611.288 1.207.605 1.787.944" fill="#00395D"/><path d="M630.82 2555.614c.58.341 1.146.707 1.692 1.094l8.91-13.684.004-.006c-.053-.037-.11-.07-.163-.105-.428-.29-.862-.57-1.302-.84-.076-.047-.149-.1-.224-.145h-.003l-8.914 13.686z" fill="#FEFEFE"/><path d="M632.512 2556.709c.551.392 1.084.805 1.598 1.244l8.95-13.746.006-.007c-.092-.069-.186-.13-.278-.2-.35-.26-.705-.517-1.064-.768-.101-.069-.196-.144-.298-.214l-.003.006-8.911 13.685zm-9.886-3.977l3.14-15.99v-.002c-.21-.034-.413-.076-.622-.106-.461-.072-.921-.122-1.381-.177v.002l-3.154 16.067c.68.04 1.354.108 2.017.206" fill="#00395D"/><path d="M622.626 2552.732c.672.1 1.331.23 1.982.386l3.138-15.993-.035-.008a43.955 43.955 0 0 0-1.914-.37s-.02-.006-.03-.007v.001l-3.141 15.991z" fill="#FEFEFE"/><path d="M624.609 2553.118c.66.158 1.308.346 1.946.558l3.15-16.06.002-.007-.195-.05c-.103-.029-.208-.055-.311-.081a40.4 40.4 0 0 0-1.423-.346.096.096 0 0 1-.021-.006l-.011-.001-3.137 15.993zm-10.662-.014l-3.089-16.013c-.025.004-.049.01-.073.016-.241.053-.482.11-.722.167l-.192.045a54.483 54.483 0 0 0-.978.251v.001l3.104 16.085c.64-.211 1.288-.395 1.95-.552" fill="#00395D"/><path d="M613.947 2553.104c.65-.153 1.311-.282 1.982-.38l-3.087-16.014-.18.033-.42.074c-.187.033-.376.068-.563.104a27.49 27.49 0 0 0-.43.09c-.131.026-.26.05-.39.08l3.088 16.013z" fill="#FEFEFE"/><path d="M615.929 2552.724a22.83 22.83 0 0 1 2.016-.202l-3.099-16.085-.001-.003c-.135.014-.267.033-.4.049l-.212.026a43.006 43.006 0 0 0-1.046.15c-.114.017-.23.033-.345.052l3.087 16.013zm-9.895 3.948l-8.866-13.71-.001-.001c-.023.015-.046.033-.069.049a40.241 40.241 0 0 0-1.353.966c-.072.055-.146.107-.218.161l.002.004 8.902 13.771a22.9 22.9 0 0 1 1.603-1.24" fill="#00395D"/><path d="M606.034 2556.672c.549-.387 1.114-.75 1.696-1.09l-8.865-13.71v-.002l-.044.029c-.554.335-1.093.685-1.627 1.044-.01.006-.018.01-.027.018h.001l8.866 13.711z" fill="#FEFEFE"/><path d="M607.73 2555.582c.58-.337 1.178-.653 1.79-.94l-8.901-13.765-.004-.007c-.145.079-.29.161-.434.24l-.217.12c-.366.208-.73.418-1.09.635l-.01.006 8.866 13.711zm-8.729 9.077l.017-.029c.131-.247.268-.49.409-.732.032-.06.066-.118.1-.177.13-.22.265-.436.4-.65.03-.045.056-.09.085-.135l.01-.02-13.37-9.438c-.282.416-.552.84-.816 1.27l-.196.317-.07.114.002.003 13.43 9.476z" fill="#00395D"/><path d="M600.022 2562.916l.016-.022c.02-.032.044-.063.065-.096.14-.21.28-.416.425-.621l.144-.202c.154-.213.311-.425.472-.633.017-.02.032-.043.05-.063l-.003-.001-13.371-9.439a38.41 38.41 0 0 0-1.085 1.52l-.044.063-.039.056 13.37 9.438z" fill="#FEFEFE"/><path d="M601.191 2561.277l.002.002c.027-.035.057-.07.084-.103.163-.206.327-.41.497-.61.067-.08.137-.156.205-.234.152-.174.302-.346.458-.515l.056-.063.008-.01-13.43-9.486v-.001c-.07.084-.133.172-.203.257-.356.434-.71.874-1.048 1.325l13.371 9.438zm-4.698 11.658l.014-.105a29.468 29.468 0 0 1 .135-1.049c.045-.282.098-.562.15-.84l-15.94-3.794-.04.2c-.118.588-.229 1.18-.325 1.78l16.006 3.808z" fill="#00395D"/><path d="M596.793 2570.94a22.35 22.35 0 0 1 .47-1.955l-15.943-3.792a40.756 40.756 0 0 0-.378 1.558c-.03.132-.061.264-.09.397l15.941 3.792z" fill="#FEFEFE"/><path d="M597.263 2568.985c.092-.324.192-.646.299-.964v-.005c.104-.303.21-.602.323-.898l.016-.044v-.002l-16.014-3.808-.001.006a38.5 38.5 0 0 0-.376 1.25c-.043.15-.088.305-.13.458l-.06.215 15.943 3.792zm-.009 12.497c-.022-.08-.042-.163-.063-.243a20.754 20.754 0 0 1-.323-1.318l-.026-.112-.04-.175c-.002-.018-.008-.034-.011-.052l-16.205 2.401h-.001l.005.02c.116.654.247 1.302.395 1.946l.001.007 16.283-2.414-.015-.06" fill="#00395D"/><path d="M596.791 2579.582c-.007-.037-.01-.078-.017-.116-.045-.24-.084-.483-.122-.725l-.009-.046a20.518 20.518 0 0 1-.138-1.029l-.012-.07-16.202 2.4c.007.065.018.13.026.195.02.162.042.32.064.482.061.432.127.862.2 1.29l.004.02h.001l16.205-2.401z" fill="#FEFEFE"/><path d="M596.493 2577.596l-.002-.023a22.97 22.97 0 0 1-.11-1.974v-.02l-16.28 2.413h-.005c.012.167.027.332.042.499.013.168.026.337.042.505.032.335.068.667.11 1l16.203-2.4zm4.731 11.645c-.04-.05-.078-.105-.119-.156a24.785 24.785 0 0 1-.374-.502c-.076-.104-.15-.208-.224-.312a21.145 21.145 0 0 1-.375-.55c-.026-.04-.054-.076-.08-.116l-.004-.006-14.138 8.241h-.002c.02.03.042.061.061.095a52.047 52.047 0 0 0 1.051 1.586h.002l14.202-8.28z" fill="#00395D"/><path d="M600.048 2587.599l-.007-.011c-.039-.06-.073-.12-.112-.182-.118-.184-.234-.37-.347-.557-.084-.14-.163-.283-.245-.426-.083-.144-.166-.287-.244-.432l-.06-.106-.009-.013-14.136 8.237h-.003l.06.1c.297.53.606 1.054.928 1.572l.035.06h.002l14.138-8.242z" fill="#FEFEFE"/><path d="M599.02 2585.865l-.026-.058c-.055-.105-.106-.211-.159-.315-.083-.164-.167-.327-.246-.49a25.071 25.071 0 0 1-.363-.8l-.052-.115c-.004-.015-.012-.028-.019-.04v-.003l-14.201 8.28.02.04c.28.57.578 1.14.888 1.698.01.016.015.032.024.047h.001l14.133-8.244zm7.041 7.971l-10.03 12.89c.542.401 1.096.784 1.66 1.152l10.074-12.954c-.018-.01-.035-.023-.053-.034-.063-.036-.123-.076-.185-.113a29.195 29.195 0 0 1-.918-.575 33.616 33.616 0 0 1-.262-.177c-.082-.056-.167-.109-.248-.165-.014-.008-.026-.014-.038-.024" fill="#00395D"/><path d="M606.061 2593.836c-.02-.013-.036-.029-.056-.042-.123-.087-.242-.178-.362-.266-.043-.033-.086-.064-.13-.096a22.83 22.83 0 0 1-.807-.631l-.006-.005c-.067-.056-.14-.109-.206-.166-.01-.009-.02-.015-.02-.015l-10.04 12.884c.07.057.142.112.212.168.454.365.914.719 1.385 1.06l10.03-12.89z" fill="#FEFEFE"/><path d="M604.464 2592.608l-.069-.064a29.785 29.785 0 0 1-.508-.45l-.02-.017a22.5 22.5 0 0 1-.798-.752c-.03-.032-.065-.057-.094-.087l-10.072 12.95-.001.002a42.52 42.52 0 0 0 1.408 1.205c.042.035.083.07.125.103l10.029-12.89zm10.578 4.994c-.04-.007-.08-.013-.12-.022-.297-.055-.592-.12-.885-.189a.758.758 0 0 1-.055-.01l-4.473 15.695c.632.164 1.274.306 1.92.44l.051.01v-.004l4.491-15.765a19.832 19.832 0 0 1-.93-.155" fill="#00395D"/><path d="M613.982 2597.382c-.012-.002-.023-.007-.034-.01a22.586 22.586 0 0 1-1.84-.515l-.035-.012c-.012-.003-.023-.004-.034-.008l-4.47 15.695v.004c.175.054.356.098.534.148.465.135.93.273 1.406.392l4.473-15.694z" fill="#FEFEFE"/><path d="M612.039 2596.837a.611.611 0 0 0-.05-.022l-.027-.008a23 23 0 0 1-.802-.283 24.327 24.327 0 0 1-.49-.192c-.13-.052-.263-.104-.392-.159-.041-.016-.084-.032-.125-.05l-.009-.002-4.492 15.768v.001c.336.123.685.231 1.028.346.28.094.554.196.838.282.017.006.033.013.05.018l.001-.004 4.47-15.695zm83.84-5.206h4.07c5.478 0 6.234-1.92 6.234-3.996 0-1.082 0-3.613-5.804-3.613h-4.5v7.609zm0 15.862h5.321c1.12 0 6.722-.21 6.722-4.379 0-3.1-2.228-4.671-6.63-4.671h-5.413v9.05zm4.598 6.808h-11.731v-37.085h11.973c7.948 0 12.89 3.792 12.89 9.89 0 3.108-1.253 5.67-3.533 7.398a9.843 9.843 0 0 1 5.268 8.755c0 7.018-5.42 11.042-14.867 11.042zm-56.534 0h-6.015l-14.265-37.082h7.888l9.532 25.327 9.84-25.327h7.608zm20.441-15.17h8.946l-4.705-11.302-4.241 11.302zm21.698 15.17h-6.36l-3.597-8.36h-14.347l-3.1 8.36h-7.559l14.673-37.085h5.832l15.845 37.086h-1.387z" fill="#00395D"/><path d="M655.323 2625.079h-68.264v-3.889h67.062z" fill="#FECC00"/><path d="M665.544 2620.655v-2.097h-7.262v2.097h2.42v6.052h2.421v-6.052h2.421zm3.164-.072h3.918v-2.025H666.3v8.149h6.327v-2.025h-3.918v-1.067h3.355v-1.941h-3.355v-1.09zm11.168 4.039h-3.87v-6.064h-2.41v8.149h6.28v-2.085zm3.212-4.039h3.919v-2.025h-6.328v8.149h6.328v-2.025h-3.92v-1.067h3.356v-1.941h-3.355v-1.09zm13.997-2.025h-1.858l-2.696 3.799-2.696-3.799h-1.858v8.149h2.42l-.011-3.655 1.51 2.265v.036h1.27v-.012l1.498-2.265v3.631h2.42v-8.149zm6.794 6.987l.432 1.162h2.564l-3.38-8.197h-2.36l-3.38 8.197h2.577l.42-1.162h3.127zm-.719-1.966h-1.69l.84-2.313.85 2.313zm8.64-2.924v-2.097h-7.262v2.097h2.421v6.052h2.42v-6.052h2.422zm3.164-2.097h-2.409v8.149h2.41v-8.149zm5.369 6.088c-1.175 0-1.906-.899-1.906-2.013 0-1.115.731-2.014 1.906-2.014.97 0 1.582.6 1.737 1.45h2.481c-.144-2.169-1.81-3.69-4.182-3.69-2.577 0-4.398 1.809-4.398 4.254 0 2.444 1.821 4.254 4.398 4.254 2.372 0 4.038-1.522 4.182-3.691h-2.48c-.156.85-.768 1.45-1.738 1.45zm8.197-6.268c-1.978 0-3.356 1.007-3.356 2.733 0 1.306.78 1.965 2.385 2.336l1.366.324c.54.12.635.348.635.575 0 .336-.323.563-.875.563-.779 0-1.258-.383-1.378-.982h-2.468c.251 2.277 2.169 2.96 3.81 2.96 2.181 0 3.571-1.03 3.571-2.72 0-1.463-1.006-2.086-2.384-2.421l-1.342-.324c-.504-.12-.743-.263-.743-.623 0-.371.347-.6.874-.6.707 0 .983.468 1.09.948h2.434c-.216-2.313-2.337-2.769-3.62-2.769z" fill="#00395D"/></g></svg>