<svg xmlns="http://www.w3.org/2000/svg" viewBox="0 0 141.2 84.7"><path fill="#FFF" d="M140.3 70.7l-12.1-32.1c-1-2.6-3.4-4.3-6.2-4.3H70.5c-.9-18.4-16.1-33-34.6-33C16.7 1.3 1.2 16.8 1.2 36c0 18.5 14.5 33.6 32.8 34.6h1.9l104.4.1z"/><path fill="#FC0" d="M131.9 55h-13.3c.6 1.4.9 2.9.9 4.4 0 3.3-1.3 6.8-4.3 9.2h22L131.9 55zM7.9 19.1c.1-.1.1-.2.2-.3-.1.1-.1.2-.2.3zm10.2 10c.1-.3.2-.6.4-.9 0-.1 0-.1.1-.2.1-.3.3-.6.4-.8v-.1L7.8 19.2c-1.3 2.1-2.3 4.4-3.1 6.8l13.4 3.1zM8.8 17.7zm7.5-7.9l.3-.3-.3.3zM21.9 23l.1-.1.6-.6.1-.1c.3-.2.5-.5.8-.7L16.1 10c-2 1.5-3.8 3.2-5.4 5.1L21.9 23zm-2 2.7c0-.1 0 0 0 0zm-3.1 10.6V35c0-.3 0-.5.1-.8v-.1.1L3.6 30.9l.3-1.5c-.1.6-.2 1.1-.3 1.7-.4 2.4-.5 4.9-.3 7.2l13.5-2zM4 28.9c.1-.2.1-.5.2-.7-.1.2-.2.4-.2.7zm-.6 10.2v-.4c-.1.1-.1.3 0 .4zm1-11.7c0-.1.1-.3.1-.4-.1.1-.1.3-.1.4zm-.9 13.1c0-.1 0-.3-.1-.4.1.1.1.3.1.4zm13.7-.9s0-.1 0 0c0-.1 0 0 0 0zm-.3-1.7c0 .1 0 .1 0 0 0 .1 0 0 0 0zm1.4 5.4c0-.1 0-.1-.1-.2-.1-.3-.2-.5-.3-.8 0-.1-.1-.2-.1-.3-.1-.3-.2-.5-.2-.8v-.1.1L4 43.3c.6 2.4 1.4 4.8 2.5 7l11.8-7zm1.5-35.8c.1 0 .1-.1.2-.1-.1.1-.1.1-.2.1zm10 10.4L27.3 4.5c-2.4.7-4.7 1.6-6.9 2.8l7.4 11.5c.6-.4 1.3-.6 2-.9zM30 3.8c.1 0 .2 0 .3-.1 0 .1-.1.1-.3.1zm.8-.1h.3-.3zm-1.6.3c.1 0 .2-.1.4-.1-.1 0-.3.1-.4.1zm-1.9.5c.3-.1.5-.1.8-.2-.3 0-.6.1-.8.2zm4.4-.9h.2-.2zm-3.5.6c.2 0 .4-.1.6-.1-.2 0-.4.1-.6.1zm7.7 12.7H37l2.6-13.4c-2.5-.3-5-.3-7.4 0L34.8 17c.4-.1.7-.1 1.1-.1zm5.4-13.1c.5.1 1.1.2 1.6.3-.5-.1-1-.2-1.6-.3zM4 43.3c-.1-.5-.2-1.1-.3-1.6.1.5.2 1 .3 1.6zM17.5 9c.4-.3.9-.6 1.4-.9-.5.3-.9.6-1.4.9zM8.1 53.1c-.3-.4-.5-.9-.8-1.3.3.5.5.9.8 1.3zm39.4 15.5L42.3 55h-8c-.4 0-.7-.1-1.1-.1L29.4 68l1.5.3c1.7.3 3.3.4 4.9.4h11.7zM19 44.9s0-.1 0 0c0-.1 0-.1 0 0zm9.3 8.5c-.1 0-.2-.1-.3-.1l-.6-.3c-.1-.1-.2-.1-.3-.2l-.6-.3c-.1 0-.1-.1-.2-.1l-8.4 10.8c-.5-.3-.9-.6-1.4-1l-1.2-.9c2.7 2.2 5.8 4 9.2 5.2l3.8-13.1zm-13.2 7.8c-.1-.1-.3-.2-.4-.4l.4.4zm7.3-11.8l-.3-.3c-.1-.2-.3-.3-.4-.5-.1-.1-.2-.2-.2-.3-.2-.2-.3-.4-.5-.6l-.1-.1-11.8 7c1.4 2 3.1 3.9 4.9 5.6l8.4-10.8zm9.1 5.1zm-11.6-8.2zm3.7 4.2s-.1 0 0 0c-.1 0 0 0 0 0zm1.3 1zm5 2.5c-.1 0 0 0 0 0zm31.4-38.6l.2.2c-.1 0-.2-.1-.2-.2zM49.8 23L61 15.2c-1.6-1.9-3.4-3.6-5.3-5.2l-7.5 11.5c.6.5 1.1 1 1.6 1.5zm5 11.3h13.7c-.3-5.4-1.9-10.5-4.6-15l-11.2 7.9c1.2 2.1 1.9 4.5 2.1 7.1zM44 18.8l7.4-11.5c-2.1-1.2-4.5-2.1-6.9-2.8L42 17.9c.7.3 1.4.5 2 .9zm.2-14.4c.1 0 .2 0 .3.1-.2-.1-.3-.1-.3-.1zm7.4 3c.1 0 .1.1.2.1 0-.1-.1-.1-.2-.1z"/><path fill="#003A5D" d="M50.9 24.3L62 16.5c-.2-.3-.4-.6-.6-.8l-.2-.2c-.1-.1-.2-.2-.2-.3L49.8 23c.4.5.8.9 1.1 1.3z"/><path fill="#FFF" d="M50.9 24.3c.3.4.7.9 1 1.4L63 17.9c0-.1-.1-.1-.1-.2-.3-.4-.5-.7-.8-1.1 0 0 0-.1-.1-.1l-11.1 7.8z"/><path fill="#003A5D" d="M51.9 25.7c.3.5.6 1 .8 1.5l11.2-7.9c-.1-.1-.1-.2-.2-.3l-.6-.9c-.1-.1-.1-.2-.2-.3l-11 7.9zm-6.4-6.1l7.4-11.4c-.3-.2-.7-.4-1-.6-.1 0-.1-.1-.2-.1s-.1-.1-.2-.1L44 18.8c.5.2 1 .5 1.5.8z"/><path fill="#FFF" d="M45.5 19.6c.5.3 1 .6 1.4.9L54.3 9l-.1-.1c-.4-.2-.7-.5-1.1-.7-.1 0-.1-.1-.2-.1l-7.4 11.5z"/><path fill="#003A5D" d="M46.9 20.5c.5.3.9.7 1.3 1L55.7 10c-.1-.1-.2-.1-.2-.2l-.9-.6c-.1-.1-.2-.1-.2-.2l-7.5 11.5zm-8.2-3.4l2.6-13.4c-.2 0-.3-.1-.5-.1-.4-.1-.8-.1-1.1-.1L37 17c.6 0 1.1.1 1.7.1z"/><path fill="#FFF" d="M38.7 17.1c.6.1 1.1.2 1.7.3L43 4c-.5-.1-1.1-.2-1.6-.3l-2.7 13.4z"/><path fill="#003A5D" d="M40.3 17.5c.5.1 1.1.3 1.6.5l2.6-13.4h-.2c-.1 0-.2 0-.3-.1l-1.2-.3-2.5 13.3zm-8.8 0L28.9 4.1h-.1c-.2 0-.4.1-.6.1H28c-.3.1-.5.1-.8.2l2.6 13.5c.6-.2 1.1-.3 1.7-.4z"/><path fill="#FFF" d="M31.5 17.5c.5-.1 1.1-.2 1.6-.3L30.5 3.7h-.2c-.1 0-.2 0-.3.1-.2 0-.3.1-.5.1-.1 0-.2 0-.4.1-.1 0-.2 0-.3.1l2.7 13.4z"/><path fill="#003A5D" d="M33.1 17.1c.6-.1 1.1-.1 1.7-.2L32.2 3.5h-.5c-.2 0-.4.1-.6.1h-.6l2.6 13.5zm-8.2 3.3L17.5 9h-.1c-.3.2-.5.4-.8.6l-.3.3c-.1 0-.1.1-.2.1l7.4 11.5c.5-.4.9-.7 1.4-1.1z"/><path fill="#FFF" d="M24.9 20.4c.5-.3.9-.6 1.4-.9L18.9 8.1c-.5.3-.9.6-1.4.9l7.4 11.4z"/><path fill="#003A5D" d="M26.3 19.5c.5-.3 1-.5 1.5-.8L20.4 7.2c-.1.1-.2.1-.4.2-.1 0-.1.1-.2.1-.3.2-.6.3-.9.5l7.4 11.5zM19 27.1c.1-.2.2-.4.4-.6l.1-.1c.1-.2.2-.4.3-.5 0 0 0-.1.1-.1l-11.2-8c-.2.3-.5.7-.7 1.1 0 0 0 .1-.1.2 0 0 0 .1-.1.1L19 27.1z"/><path fill="#FFF" d="M19.9 25.7c0-.1 0-.1 0 0 .2-.3.3-.4.4-.6 0-.1.1-.1.1-.2.1-.2.3-.4.4-.5v-.1L9.7 16.4c-.3.4-.6.8-.9 1.3v.1l11.1 7.9z"/><path fill="#003A5D" d="M20.8 24.3c.1 0 .1-.1 0 0 .2-.3.3-.4.5-.6l.2-.2.4-.4V23l-11.2-7.9-.2.2c-.3.4-.6.7-.9 1.1l11.2 7.9zM16.9 34c0-.4.1-.7.1-.9 0-.2.1-.5.1-.7L3.9 29.2v.2l-.3 1.5L16.9 34z"/><path fill="#FFF" d="M17.2 32.4c.1-.6.2-1.1.4-1.6L4.3 27.6c-.1.2-.1.4-.1.6-.1.2-.2.4-.2.7 0 .1-.1.2-.1.3l13.3 3.2z"/><path fill="#003A5D" d="M17.6 30.7c.1-.3.2-.5.2-.8.1-.3.2-.5.3-.8L4.8 26c-.1.3-.2.7-.3 1 0 .1-.1.3-.1.4 0 .1 0 .1-.1.2l13.3 3.1zm0 10.5c0-.1 0-.1-.1-.2 0-.1-.1-.3-.1-.4-.1-.2-.1-.4-.2-.7v-.2l-13.5 2c.1.5.2 1.1.3 1.6l13.6-2.1z"/><path fill="#FFF" d="M17.2 39.6s0-.1 0 0c-.1-.3-.1-.5-.1-.7 0-.3-.1-.6-.1-.9v-.1l-13.5 2v.2c0 .1 0 .3.1.4.1.4.1.7.2 1.1l13.4-2z"/><path fill="#003A5D" d="M16.9 37.9c-.1-.6-.1-1.1-.1-1.7l-13.5 2v.8c0 .3.1.6.1.8l13.5-1.9zm4 9.8l-.1-.1c-.1-.1-.2-.3-.3-.4-.1-.1-.1-.2-.2-.3-.1-.2-.2-.3-.3-.5 0 0 0-.1-.1-.1L8.1 53.2s0 .1.1.1c.3.4.6.9.9 1.3l11.8-6.9z"/><path fill="#FFF" d="M19.9 46.3c0-.1-.1-.1-.1-.2-.1-.2-.2-.3-.3-.5-.1-.1-.1-.2-.2-.4-.1-.1-.1-.2-.2-.4v-.1L7.3 51.8v.1c.2.4.5.9.8 1.3l11.8-6.9z"/><path fill="#003A5D" d="M19 44.9c0-.1 0-.1 0 0-.1-.1-.1-.2-.2-.3-.1-.1-.1-.3-.2-.4-.1-.2-.2-.4-.3-.7v-.1L6.5 50.3c.2.5.5 1 .7 1.4L19 44.9zm5.9 6.6l-8.3 10.8c.5.3.9.7 1.4 1l8.4-10.8c-.1 0-.1-.1-.2-.1-.1-.1-.2-.1-.3-.2-.2-.1-.3-.2-.5-.3-.1 0-.1-.1-.2-.1-.1-.2-.2-.2-.3-.3z"/><path fill="#FFF" d="M24.9 51.5l-.3-.3-.1-.1c-.2-.2-.5-.3-.7-.5-.1 0-.1-.1-.2-.1l-8.4 10.8c.1 0 .1.1.2.1l1.2.9 8.3-10.8z"/><path fill="#003A5D" d="M23.6 50.5s-.1 0 0 0c-.2-.2-.3-.3-.5-.4-.2-.2-.4-.4-.7-.6 0 0-.1 0-.1-.1l-8.4 10.8c.2.2.5.4.7.6.1.1.3.2.4.4l.1.1 8.5-10.8zm8.8 4.2c-.1 0-.1 0 0 0-.3-.1-.6-.1-.8-.2l-3.7 13.1c.5.1 1.1.3 1.6.4l3.7-13.2c-.3 0-.6-.1-.8-.1z"/><path fill="#FFF" d="M31.5 54.5c-.5-.1-1.1-.3-1.6-.4l-3.7 13.1c.1 0 .3.1.4.1l1.2.3 3.7-13.1z"/><path fill="#003A5D" d="M29.9 54s-.1 0 0 0c-.1 0-.1 0 0 0-.3-.1-.5-.2-.7-.3-.1-.1-.3-.1-.4-.2-.1 0-.2-.1-.3-.1h-.1l-3.7 13.2.9.3c.2.1.5.2.7.2L29.9 54zm73.6 14.6h-9.8v-31h10c6.6 0 10.7 3.2 10.7 8.3 0 2.6-1 4.7-2.9 6.2 2.6 1.4 4.4 4.1 4.4 7.3 0 5.9-4.6 9.2-12.4 9.2zm-3.8-5.7h4.4c.9 0 5.6-.2 5.6-3.7 0-2.6-1.9-3.9-5.5-3.9h-4.5v7.6zm0-13.2h3.4c4.6 0 5.2-1.6 5.2-3.3 0-.9 0-3-4.8-3h-3.7v6.3h-.1zM56.4 68.6h-5l-11.9-31h6.6L54 58.8l8.2-21.2h6.4l-12.2 31zm35.1 0h-5.3l-3-7H71.3l-2.6 7h-6.3l12.2-31h4.9l13.2 31h-1.2zM73.4 56h7.4L77 46.5 73.4 56z"/><path fill="#FC0" d="M85.9 82.5H9v-3.2h75.9z"/><path d="M95.7 82.3c0 1.1-.9 1.9-2.4 1.9h-3.7v-6.8H93c1.5 0 2.4.7 2.4 1.8 0 .6-.3 1.3-.9 1.5.8.2 1.2.9 1.2 1.6zm-4.1-2.2h1.1c.5 0 .8-.2.8-.6 0-.4-.3-.5-.8-.5h-1.1v1.1zm1.3 2.5c.6 0 .8-.2.8-.6 0-.4-.3-.5-.8-.5h-1.3v1.1h1.3zm5.3.6l-.3 1h-2.1l2.8-6.8h2l2.8 6.8h-2.1l-.4-1h-2.7zm1.3-3.6l-.7 1.9h1.4l-.7-1.9zm10.8 4.6h-1.6l-2.8-3.2v3.2h-2v-6.8h1.6l2.8 3.3v-3.3h2v6.8zm3.9-6.8c2.2 0 3.7 1.3 3.7 3.4 0 2.1-1.5 3.4-3.7 3.4h-2.9v-6.8h2.9zm0 5c.9 0 1.6-.7 1.6-1.6 0-.9-.7-1.6-1.6-1.6h-.8v3.2h.8zm6.5-2.4h2.8v1.6h-2.8v.9h3.3v1.7h-5.3v-6.8h5.3v1.7h-3.3v.9zm10.5 4.2h-1.6l-2.8-3.2v3.2h-2v-6.8h1.6l2.8 3.3v-3.3h2v6.8z" fill="#FFF"/></svg>