<svg width="135" height="79" viewBox="0 0 135 79" xmlns="http://www.w3.org/2000/svg" xmlns:xlink="http://www.w3.org/1999/xlink"><title>UI-styleguide-logo</title><defs><path id="a" d="M868 2470h396v260H868z"/><mask id="b" x="0" y="0" width="396" height="260" fill="#fff"><use xlink:href="#a"/></mask><path id="c" d="M22.875 13.673V.037H.915v13.636h21.96z"/></defs><g transform="translate(-999 -2543)" fill="none" fill-rule="evenodd"><use stroke="#EBEBEB" mask="url(#b)" stroke-width="2" xlink:href="#a"/><g transform="translate(1110 2596.65)"><mask id="d" fill="#fff"><use xlink:href="#c"/></mask><path d="M17.654.037H4.368c.56 1.372.87 2.86.87 4.4 0 3.338-1.263 6.797-4.323 9.236h21.96L17.655.037z" fill="#FECC00" mask="url(#d)"/></g><path d="M1013.923 2570.769a18.414 18.414 0 0 1 .847-1.873l.044-.091-11.177-7.925a32.451 32.451 0 0 0-3.067 6.76l13.33 3.184.023-.055m3.798-6.066c.032-.035.067-.066.1-.101.207-.22.42-.435.638-.645l.096-.092c.254-.241.513-.475.78-.702l-7.41-11.518a32.651 32.651 0 0 0-5.375 5.117l11.181 7.929-.01.012zm-5.086 13.253v-.222l-.001-.08c0-.041.003-.08.003-.121a19.487 19.487 0 0 1 .088-1.73l.01-.121.004-.042-.011.087-13.323-3.184c.08-.503.172-.997.272-1.49a32.109 32.109 0 0 0-.31 1.691 32.589 32.589 0 0 0-.283 7.213l13.55-2.018v.017zm1.475 7.064c-.022-.057-.042-.116-.065-.173a20.55 20.55 0 0 1-.31-.805c-.03-.085-.057-.17-.086-.257a18.36 18.36 0 0 1-.245-.775c-.014-.045-.03-.089-.043-.135l.012.051-13.552 2.018a32.622 32.622 0 0 0 2.47 7l11.819-6.926v.002zm11.522-25.416l-2.584-13.453a32.729 32.729 0 0 0-6.887 2.764l7.409 11.514a18.935 18.935 0 0 1 2.062-.825m6.034-.982c.38 0 .758.014 1.133.036l2.625-13.437a32.607 32.607 0 0 0-7.421-.018l2.579 13.452c.358-.02.72-.033 1.083-.033m11.645 51.703l-5.22-13.636h-6.431c-.299 0-.597-.011-.896-.026-.07-.003-.138-.008-.207-.012a13.964 13.964 0 0 1-.537-.042c-.363-.03-.724-.07-1.08-.121l-3.738 13.186c.51.103 1.024.197 1.545.276 1.652.25 3.292.357 4.912.355v.02h11.652zm-19.214-15.203c-.088-.038-.172-.083-.26-.122a16.15 16.15 0 0 1-.964-.469 20.83 20.83 0 0 1-.604-.33c-.067-.038-.137-.072-.203-.111.015.01.029.02.045.029l-8.385 10.834a29.158 29.158 0 0 1-1.382-.963 32.367 32.367 0 0 0 8.007 4.318l3.74-13.189.006.002zm-5.896-4.014c-.09-.09-.171-.185-.26-.277-.148-.156-.298-.312-.442-.473a16.556 16.556 0 0 1-.245-.283 19.383 19.383 0 0 1-.486-.587c-.033-.042-.07-.08-.102-.122l-11.82 6.924a32.898 32.898 0 0 0 4.895 5.577l8.382-10.832c.024.026.054.047.079.073m-2.515-3.116l.003.005-.009-.014zm29.95-23.258l11.192-7.883a32.733 32.733 0 0 0-5.342-5.15l-7.45 11.495c.562.482 1.098.994 1.6 1.538m4.981 11.219h13.67a32.53 32.53 0 0 0-4.554-14.983l-11.194 7.883a18.908 18.908 0 0 1 2.078 7.1m-10.807-15.503l7.448-11.492a32.453 32.453 0 0 0-6.888-2.771l-2.623 13.434c.707.238 1.397.514 2.063.83" fill="#FECC00"/><path d="M1046.724 2566.022l11.148-7.849-.017-.024a35.915 35.915 0 0 0-.79-1.013c-.078-.097-.154-.194-.233-.289l-.004.004-11.192 7.883c.382.412.744.843 1.088 1.288" fill="#00395D"/><path d="M1046.724 2566.022c.342.442.665.901.968 1.373l11.143-7.848.006-.005c-.04-.06-.085-.119-.127-.179a31.325 31.325 0 0 0-.775-1.096c-.023-.032-.044-.064-.067-.094l-11.148 7.85z" fill="#FEFEFE"/><path d="M1047.692 2567.395c.303.473.586.958.847 1.458l11.194-7.883.006-.003c-.055-.092-.115-.179-.17-.27a35.307 35.307 0 0 0-.556-.883c-.058-.089-.112-.183-.172-.272l-.006.005-11.143 7.848zm-6.394-6.154l7.419-11.446h.002l-.041-.025a30.005 30.005 0 0 0-1.03-.6l-.21-.117-.178-.1-.002.004-7.448 11.494c.509.241 1.005.506 1.488.79" fill="#00395D"/><path d="M1041.298 2561.241c.483.285.953.591 1.408.915l7.416-11.445.003-.005c-.044-.03-.091-.058-.136-.088a30.83 30.83 0 0 0-1.083-.703c-.064-.039-.124-.083-.187-.12h-.002l-7.42 11.446z" fill="#FEFEFE"/><path d="M1042.706 2562.156c.459.328.902.674 1.33 1.041l7.45-11.497.003-.006c-.076-.057-.155-.109-.23-.167a35.72 35.72 0 0 0-.887-.642c-.084-.058-.163-.12-.248-.179l-.002.005-7.417 11.445zm-8.229-3.326l2.614-13.373v-.001c-.175-.03-.343-.065-.517-.09-.385-.06-.768-.101-1.15-.147v.001l-2.626 13.439c.567.032 1.127.09 1.68.171" fill="#00395D"/><path d="M1034.477 2558.83c.56.084 1.108.193 1.65.324l2.612-13.377-.03-.007a36.425 36.425 0 0 0-1.592-.31l-.025-.005v.001l-2.615 13.374z" fill="#FEFEFE"/><path d="M1036.128 2559.153c.55.132 1.089.29 1.62.467l2.622-13.433v-.005l-.161-.042c-.086-.024-.173-.046-.26-.068-.392-.103-.785-.2-1.183-.289l-.018-.005h-.01l-2.61 13.375zm-8.874-.011l-2.57-13.393a30.769 30.769 0 0 0-.662.153l-.16.038a45.167 45.167 0 0 0-.815.21l2.584 13.454a19.206 19.206 0 0 1 1.623-.462" fill="#00395D"/><path d="M1027.254 2559.142a19.05 19.05 0 0 1 1.65-.317l-2.57-13.394-.15.027a38.569 38.569 0 0 0-.818.149c-.119.024-.239.049-.358.075-.109.022-.217.042-.325.067l2.571 13.393z" fill="#FEFEFE"/><path d="M1028.903 2558.824c.552-.08 1.112-.138 1.678-.169l-2.579-13.453v-.003c-.113.012-.223.028-.334.041l-.176.022a35.63 35.63 0 0 0-.87.125c-.096.015-.193.028-.288.044l2.57 13.393zm-8.235 3.302l-7.38-11.467v-.001c-.02.013-.038.028-.057.04a35.263 35.263 0 0 0-1.126.809c-.06.046-.122.09-.182.135l.002.003 7.409 11.518c.429-.366.875-.711 1.334-1.037" fill="#00395D"/><path d="M1020.668 2562.126c.457-.324.927-.628 1.412-.912l-7.38-11.467v-.001c-.012.008-.023.017-.035.024-.461.28-.91.573-1.354.873l-.023.015 7.38 11.468z" fill="#FEFEFE"/><path d="M1022.08 2561.214c.483-.282.98-.546 1.49-.786l-7.409-11.513-.003-.006c-.121.066-.241.135-.361.201l-.181.101a37.03 37.03 0 0 0-.907.53l-.008.005v.001l7.379 11.467zm-7.265 7.592l.014-.024c.109-.207.223-.41.34-.612a19.726 19.726 0 0 1 .417-.692l.07-.113.009-.017-11.128-7.893c-.235.348-.46.703-.68 1.062-.054.088-.11.176-.163.265l-.058.095.002.003 11.177 7.925z" fill="#00395D"/><path d="M1015.664 2567.348l.013-.018c.017-.027.037-.053.054-.08.116-.176.233-.348.354-.52l.12-.17c.128-.177.26-.354.393-.528.015-.017.027-.036.042-.053l-.002-.001-11.13-7.894a33.137 33.137 0 0 0-.939 1.324l-.032.047 11.128 7.893z" fill="#FEFEFE"/><path d="M1016.637 2565.977l.002.001c.022-.029.047-.058.07-.086.135-.172.272-.343.413-.51.056-.067.114-.13.171-.196.126-.145.251-.289.381-.43l.047-.053.006-.009-11.177-7.933c-.059.07-.11.143-.169.214-.297.363-.59.731-.873 1.108l11.13 7.894zm-3.91 9.75l.011-.088c.032-.282.066-.563.108-.846l.005-.03c.037-.237.081-.47.125-.704l-13.268-3.173c-.01.055-.02.111-.032.167-.099.492-.19.987-.27 1.49l13.321 3.184z" fill="#00395D"/><path d="M1012.977 2574.059c.106-.554.237-1.099.391-1.635l-13.269-3.172c-.052.194-.099.388-.147.583-.058.239-.115.479-.168.72-.025.111-.051.221-.075.332l13.268 3.172z" fill="#FEFEFE"/><path d="M1013.368 2572.424c.077-.271.16-.54.249-.806v-.004a23.7 23.7 0 0 1 .269-.751l.013-.037v-.002l-13.328-3.185-.001.005c-.11.345-.214.694-.313 1.045l-.108.384-.05.18 13.269 3.17zm-.008 10.452l-.052-.203a17.426 17.426 0 0 1-.27-1.103c-.005-.031-.013-.062-.02-.093l-.033-.147c-.002-.015-.007-.028-.01-.043l-13.487 2.008h-.001l.004.016c.097.548.206 1.09.329 1.628v.006l13.553-2.02-.012-.05" fill="#00395D"/><path d="M1012.975 2581.287c-.006-.031-.008-.065-.014-.097-.038-.202-.07-.405-.102-.607l-.007-.039a17.421 17.421 0 0 1-.115-.86l-.01-.059-13.485 2.007c.006.055.015.11.022.164.016.135.035.268.053.403.051.361.106.721.167 1.08l.003.015h.001l13.487-2.008z" fill="#FEFEFE"/><path d="M1012.727 2579.626l-.002-.02a19.16 19.16 0 0 1-.09-1.65l-.001-.017-13.55 2.018h-.004c.01.14.023.278.035.417a28.859 28.859 0 0 0 .127 1.259l13.486-2.007zm3.938 9.74h-.001c-.033-.043-.064-.088-.098-.131-.106-.14-.21-.28-.312-.42l-.186-.261a17.69 17.69 0 0 1-.312-.46c-.022-.033-.045-.063-.067-.097l-.003-.005-11.767 6.893h-.002c.017.025.035.05.051.079.277.438.562.869.856 1.298l.019.029.001-.001 11.821-6.924z" fill="#00395D"/><path d="M1015.686 2587.992l-.006-.01c-.032-.05-.061-.1-.093-.151a20.125 20.125 0 0 1-.289-.466c-.07-.117-.136-.237-.204-.356-.069-.121-.138-.24-.203-.362l-.05-.088-.007-.011-11.766 6.889h-.002c.016.029.034.056.05.084.247.443.504.88.772 1.314l.029.05h.002l11.767-6.893z" fill="#FEFEFE"/><path d="M1014.83 2586.541l-.022-.048c-.046-.088-.088-.177-.132-.264-.069-.137-.139-.273-.205-.41-.105-.22-.205-.444-.302-.669l-.043-.096a.211.211 0 0 0-.016-.034v-.002l-11.82 6.926.017.032c.233.478.481.954.74 1.421.008.013.013.027.02.04l11.763-6.896zm5.86 6.667l-8.347 10.781c.45.335.912.655 1.382.963l8.384-10.834-.044-.029c-.053-.03-.103-.063-.154-.094a24.278 24.278 0 0 1-.764-.48 27.972 27.972 0 0 1-.218-.149c-.07-.047-.14-.09-.207-.138-.011-.007-.021-.012-.031-.02" fill="#00395D"/><path d="M1020.69 2593.208c-.016-.01-.03-.024-.046-.035-.102-.073-.201-.149-.301-.223l-.108-.08a19.014 19.014 0 0 1-.672-.528l-.005-.004c-.056-.047-.116-.09-.172-.139a.112.112 0 0 0-.017-.012l-8.355 10.775c.058.048.118.094.176.141.378.305.76.601 1.153.886l8.348-10.78z" fill="#FEFEFE"/><path d="M1019.361 2592.181l-.057-.053c-.143-.123-.282-.249-.423-.376l-.017-.015a18.764 18.764 0 0 1-.664-.629c-.025-.027-.054-.048-.078-.073l-8.383 10.832v.001c.238.215.481.427.727.636.147.124.295.25.444.372l.104.086 8.347-10.78zm8.804 4.177l-.1-.018c-.247-.046-.492-.1-.736-.158a.628.628 0 0 1-.046-.008l-3.723 13.126c.526.137 1.061.256 1.599.368l.042.009v-.004l3.738-13.185c-.26-.037-.518-.081-.774-.13" fill="#00395D"/><path d="M1027.283 2596.174c-.01-.002-.019-.006-.028-.009a18.727 18.727 0 0 1-1.53-.43l-.03-.01-.029-.007-3.72 13.127v.003c.145.045.296.082.444.124.387.113.774.228 1.17.328l3.723-13.126z" fill="#FEFEFE"/><path d="M1025.666 2595.718a.507.507 0 0 0-.041-.018l-.023-.007a20.254 20.254 0 0 1-1.075-.397c-.109-.044-.219-.087-.327-.133-.034-.014-.07-.027-.104-.042l-.007-.002-3.739 13.188v.001c.28.103.57.193.856.29.232.078.461.163.697.235l.042.015.001-.003 3.72-13.127zm69.78-4.354h3.387c4.56 0 5.189-1.606 5.189-3.342 0-.905 0-3.022-4.831-3.022h-3.745v6.364zm0 13.266h4.429c.932 0 5.594-.176 5.594-3.662 0-2.593-1.854-3.907-5.518-3.907h-4.505v7.57zm3.827 5.694h-9.764v-31.016h9.965c6.615 0 10.728 3.171 10.728 8.272 0 2.6-1.042 4.742-2.94 6.187a8.237 8.237 0 0 1 4.385 7.322c0 5.87-4.512 9.235-12.374 9.235zm-47.053.001h-5.007l-11.873-31.014h6.565l7.934 21.182 8.19-21.182h6.332zm17.013-12.688h7.446l-3.916-9.453-3.53 9.453zm18.059 12.688h-5.293l-2.994-6.993h-11.941l-2.58 6.993h-6.291l12.212-31.017h4.854l13.188 31.017h-1.155z" fill="#00395D"/><path d="M1021.688 2619.339h-16.813v-3.252h15.813z" fill="#FECC00"/><path d="M1029.686 2615.777v-1.662h-5.757v1.662h1.919v4.798h1.919v-4.798h1.919zm4.607 4.798h2.175l-1.387-2.233c.609-.437.941-1.102.941-1.88 0-1.483-1.073-2.347-2.822-2.347h-2.926v6.46h1.91v-1.7h1.092l1.017 1.7zm-2.109-3.392v-1.444h.998c.522 0 .911.276.911.703 0 .447-.389.741-.912.741h-.997zm9.31 2.47l.342.922h2.033l-2.68-6.498h-1.871l-2.679 6.498h2.042l.333-.922h2.48zm-.57-1.558h-1.34l.665-1.833.674 1.833zm5.376-3.98h-1.91v6.46h1.91v-6.46zm7.039 0h-1.919v3.106l-2.689-3.106h-1.491v6.46h1.91v-3.05l2.697 3.05h1.492v-6.46zm2.85 0h-1.91v6.46h1.91v-6.46zm7.039 0h-1.92v3.106l-2.688-3.106h-1.491v6.46h1.909v-3.05l2.698 3.05h1.492v-6.46zm7.666 2.783h-3.563v1.35l1.777.018a1.766 1.766 0 0 1-1.444.703c-1.036 0-1.701-.703-1.701-1.653 0-.921.618-1.634 1.596-1.634.58 0 1.064.219 1.283.789h1.985c-.152-1.463-1.52-2.499-3.306-2.499-2.052 0-3.505 1.435-3.505 3.401 0 1.938 1.434 3.344 3.524 3.344.779 0 1.425-.266 1.919-.74l.048.598h1.387v-3.677zm8.083 3.677h2.328l-1.482-1.473 1.254-2.137h-1.853l-.58.969-1.111-1.102c-.408-.4-.636-.599-.636-.884 0-.285.209-.456.475-.456.313 0 .531.238.55.618h1.644c-.076-1.311-.903-2.138-2.299-2.138-1.482 0-2.27.922-2.27 1.91 0 .38.113.731.36 1.111-.608.333-1.083.865-1.083 1.691 0 1.226.988 2.033 2.499 2.033.75 0 1.377-.142 1.89-.437l.314.295zm-2.128-1.33c-.484 0-.836-.285-.836-.665 0-.21.114-.38.276-.504.142.143.304.285.465.437l.675.627c-.2.076-.4.105-.58.105zm10.193-.304c-.931 0-1.511-.713-1.511-1.596 0-.884.58-1.596 1.51-1.596.77 0 1.255.475 1.378 1.15h1.967c-.114-1.72-1.435-2.927-3.316-2.927-2.042 0-3.486 1.435-3.486 3.373 0 1.938 1.444 3.372 3.486 3.372 1.881 0 3.202-1.206 3.316-2.926h-1.967c-.123.675-.608 1.15-1.377 1.15zm7.466-4.969c-2.042 0-3.486 1.463-3.486 3.373 0 1.91 1.444 3.372 3.486 3.372 2.043 0 3.487-1.463 3.487-3.372 0-1.91-1.444-3.373-3.487-3.373zm0 4.95c-.902 0-1.539-.732-1.539-1.577 0-.846.637-1.577 1.539-1.577.903 0 1.539.731 1.539 1.577 0 .845-.636 1.577-1.539 1.577zm10.374-4.807h-1.92v3.106l-2.688-3.106h-1.491v6.46h1.909v-3.05l2.698 3.05h1.492v-6.46zm3.676-.143c-1.568 0-2.66.798-2.66 2.166 0 1.036.617 1.558 1.89 1.853l1.083.256c.428.095.504.276.504.456 0 .266-.257.447-.694.447-.617 0-.998-.304-1.093-.78h-1.956c.199 1.806 1.719 2.347 3.02 2.347 1.73 0 2.831-.817 2.831-2.156 0-1.16-.798-1.653-1.89-1.92l-1.064-.256c-.399-.095-.589-.209-.589-.494 0-.294.275-.475.693-.475.561 0 .78.37.865.75h1.928c-.17-1.833-1.852-2.194-2.869-2.194zm9.879.143h-1.938v3.4c0 .884-.447 1.416-1.178 1.416-.731 0-1.178-.532-1.178-1.415v-3.401h-1.938v3.334c0 2.119 1.159 3.268 3.116 3.268s3.116-1.15 3.116-3.268v-3.334zm5.823 4.807h-3.068v-4.807h-1.91v6.46h4.978v-1.653zm3.675-3.145v-1.662h-5.757v1.662h1.92v4.798h1.918v-4.798h1.92z" fill="#00395D"/></g></svg>