<svg width="135" height="79" viewBox="0 0 135 79" xmlns="http://www.w3.org/2000/svg" xmlns:xlink="http://www.w3.org/1999/xlink"><title>UI-styleguide-logo</title><defs><path id="a" d="M462 2740h396v260H462z"/><mask id="c" x="0" y="0" width="396" height="260" fill="#fff"><use xlink:href="#a"/></mask><path id="b" d="M462 2740h396v260H462z"/><mask id="d" x="0" y="0" width="396" height="260" fill="#fff"><use xlink:href="#b"/></mask><path id="e" d="M22.875 13.673V.037H.915v13.636h21.96z"/></defs><g transform="translate(-592 -2814)" fill="none" fill-rule="evenodd"><use stroke="#EBEBEB" mask="url(#c)" stroke-width="2" xlink:href="#a"/><use stroke="#EBEBEB" mask="url(#d)" stroke-width="2" xlink:href="#b"/><g transform="translate(704 2866.65)"><mask id="f" fill="#fff"><use xlink:href="#e"/></mask><path d="M17.654.037H4.368c.56 1.372.87 2.86.87 4.4 0 3.338-1.263 6.797-4.323 9.236h21.96L17.655.037z" fill="#FECC00" mask="url(#f)"/></g><path d="M607.923 2840.769a18.414 18.414 0 0 1 .847-1.873l.044-.091-11.177-7.925a32.451 32.451 0 0 0-3.067 6.76l13.33 3.184.023-.055m3.798-6.066c.032-.035.067-.066.1-.101.207-.22.42-.435.638-.645l.096-.092c.254-.241.513-.475.78-.702l-7.41-11.518a32.651 32.651 0 0 0-5.375 5.117l11.181 7.929-.01.012zm-5.086 13.253v-.222l-.001-.08c0-.041.003-.08.003-.121a19.487 19.487 0 0 1 .088-1.73l.01-.121.004-.042-.011.087-13.323-3.184c.08-.503.172-.997.272-1.49a32.109 32.109 0 0 0-.31 1.691 32.589 32.589 0 0 0-.283 7.213l13.55-2.018v.017zm1.475 7.064c-.022-.057-.042-.116-.065-.173a20.55 20.55 0 0 1-.31-.805c-.03-.085-.057-.17-.086-.257a18.36 18.36 0 0 1-.245-.775c-.014-.045-.03-.089-.043-.135l.012.051-13.552 2.018a32.622 32.622 0 0 0 2.47 7l11.819-6.926v.002zm11.522-25.416l-2.584-13.453a32.729 32.729 0 0 0-6.887 2.764l7.409 11.514a18.935 18.935 0 0 1 2.062-.825m6.033-.982c.381 0 .758.014 1.133.036l2.625-13.437a32.607 32.607 0 0 0-7.42-.018l2.578 13.452c.36-.02.72-.033 1.084-.033m11.645 51.703l-5.22-13.636h-6.432c-.298 0-.596-.011-.895-.026-.07-.003-.139-.008-.208-.012a13.964 13.964 0 0 1-.536-.042c-.363-.03-.724-.07-1.08-.121l-3.737 13.186c.51.103 1.024.197 1.545.276 1.652.25 3.292.357 4.912.355v.02h11.65zm-19.214-15.203c-.088-.038-.172-.083-.26-.122a16.15 16.15 0 0 1-.964-.469 20.83 20.83 0 0 1-.604-.33c-.067-.038-.137-.072-.203-.111.015.01.029.02.045.029l-8.385 10.834a29.158 29.158 0 0 1-1.382-.963 32.367 32.367 0 0 0 8.007 4.318l3.74-13.189.006.002zm-5.896-4.014c-.09-.09-.171-.185-.26-.277-.148-.156-.298-.312-.442-.473a16.556 16.556 0 0 1-.245-.283 19.383 19.383 0 0 1-.486-.587c-.033-.042-.07-.08-.102-.122l-11.82 6.924a32.898 32.898 0 0 0 4.895 5.577l8.382-10.832c.024.026.054.047.079.073m-2.515-3.116l.003.005-.009-.014zm29.95-23.258l11.192-7.883a32.733 32.733 0 0 0-5.342-5.15l-7.45 11.495c.562.482 1.098.994 1.6 1.538m4.981 11.219h13.67a32.53 32.53 0 0 0-4.554-14.983l-11.194 7.883a18.908 18.908 0 0 1 2.078 7.1m-10.807-15.503l7.448-11.492a32.453 32.453 0 0 0-6.888-2.771l-2.623 13.434c.707.238 1.397.514 2.063.83" fill="#FECC00"/><path d="M640.724 2836.022l11.148-7.849-.017-.024a35.915 35.915 0 0 0-.79-1.013c-.078-.097-.154-.194-.233-.289l-.004.004-11.192 7.883c.382.412.744.843 1.088 1.288" fill="#00395D"/><path d="M640.724 2836.022c.342.442.665.901.968 1.373l11.143-7.848.006-.005c-.04-.06-.085-.119-.127-.179a31.325 31.325 0 0 0-.775-1.096c-.023-.032-.044-.064-.067-.094l-11.148 7.85z" fill="#FEFEFE"/><path d="M641.692 2837.395c.303.473.586.958.847 1.458l11.194-7.883.006-.003c-.055-.092-.115-.179-.17-.27a35.307 35.307 0 0 0-.556-.883c-.058-.089-.112-.183-.172-.272l-.006.005-11.143 7.848zm-6.394-6.154l7.419-11.446h.002l-.041-.025a30.005 30.005 0 0 0-1.03-.6l-.21-.117-.178-.1-.002.004-7.448 11.494c.509.241 1.005.506 1.488.79" fill="#00395D"/><path d="M635.298 2831.241c.483.285.953.591 1.408.915l7.416-11.445.003-.005c-.044-.03-.091-.058-.136-.088a30.83 30.83 0 0 0-1.083-.703c-.064-.039-.124-.083-.187-.12h-.002l-7.42 11.446z" fill="#FEFEFE"/><path d="M636.706 2832.156c.459.328.902.674 1.33 1.041l7.45-11.497.004-.006c-.076-.057-.155-.109-.231-.167a35.72 35.72 0 0 0-.886-.642c-.084-.058-.163-.12-.248-.179l-.002.005-7.417 11.445zm-8.229-3.326l2.614-13.373v-.001c-.176-.03-.344-.065-.518-.09-.384-.06-.767-.101-1.15-.147v.001l-2.625 13.439c.567.032 1.127.09 1.68.171" fill="#00395D"/><path d="M628.477 2828.83c.56.084 1.108.193 1.65.324l2.611-13.377-.029-.007a36.425 36.425 0 0 0-1.593-.31l-.025-.005v.001l-2.614 13.374z" fill="#FEFEFE"/><path d="M630.128 2829.153c.55.132 1.089.29 1.62.467l2.622-13.433v-.005l-.161-.042c-.086-.024-.173-.046-.26-.068-.392-.103-.785-.2-1.183-.289l-.018-.005h-.01l-2.61 13.375zm-8.874-.011l-2.57-13.393a30.769 30.769 0 0 0-.662.153l-.16.038a45.167 45.167 0 0 0-.815.21l2.584 13.454a19.206 19.206 0 0 1 1.623-.462" fill="#00395D"/><path d="M621.254 2829.142a19.05 19.05 0 0 1 1.65-.317l-2.57-13.394-.15.027a38.569 38.569 0 0 0-.818.149c-.119.024-.239.049-.358.075-.109.022-.217.042-.325.067l2.571 13.393z" fill="#FEFEFE"/><path d="M622.903 2828.824c.552-.08 1.112-.138 1.678-.169l-2.579-13.453v-.003c-.113.012-.223.028-.334.041l-.176.022a35.63 35.63 0 0 0-.87.125c-.096.015-.193.028-.288.044l2.57 13.393zm-8.235 3.302l-7.38-11.467v-.001c-.02.013-.038.028-.057.04a35.263 35.263 0 0 0-1.126.809c-.06.046-.122.09-.182.135l.002.003 7.409 11.518c.429-.366.875-.711 1.334-1.037" fill="#00395D"/><path d="M614.668 2832.126c.457-.324.927-.628 1.412-.912l-7.38-11.467v-.001c-.012.008-.023.017-.035.024-.461.28-.91.573-1.354.873l-.023.015 7.38 11.468z" fill="#FEFEFE"/><path d="M616.08 2831.214c.483-.282.98-.546 1.49-.786l-7.409-11.513-.003-.006c-.121.066-.241.135-.361.201l-.181.101a37.03 37.03 0 0 0-.907.53l-.008.005v.001l7.379 11.467zm-7.265 7.592l.014-.024c.109-.207.223-.41.34-.612a19.726 19.726 0 0 1 .417-.692l.07-.113.009-.017-11.128-7.893c-.235.348-.46.703-.68 1.062-.054.088-.11.176-.163.265l-.058.095.002.003 11.177 7.925z" fill="#00395D"/><path d="M609.664 2837.348l.013-.018c.017-.027.037-.053.054-.08.116-.176.233-.348.354-.52l.12-.17c.128-.177.26-.354.393-.528.015-.017.027-.036.042-.053l-.002-.001-11.13-7.894a33.137 33.137 0 0 0-.939 1.324l-.032.047 11.128 7.893z" fill="#FEFEFE"/><path d="M610.637 2835.977l.002.001c.022-.029.047-.058.07-.086.135-.172.272-.343.413-.51.056-.067.114-.13.171-.196.126-.145.251-.289.381-.43l.047-.053.006-.009-11.177-7.933c-.059.07-.11.143-.169.214-.297.363-.59.731-.873 1.108l11.13 7.894zm-3.91 9.75l.011-.088c.032-.282.066-.563.108-.846l.005-.03c.037-.237.081-.47.125-.704l-13.268-3.173c-.01.055-.02.111-.032.167-.099.492-.19.987-.27 1.49l13.321 3.184z" fill="#00395D"/><path d="M606.977 2844.059c.106-.554.237-1.099.391-1.635l-13.269-3.172c-.052.194-.099.388-.147.583-.058.239-.115.479-.168.72-.025.111-.051.221-.075.332l13.268 3.172z" fill="#FEFEFE"/><path d="M607.368 2842.424c.077-.271.16-.54.249-.806v-.004a23.7 23.7 0 0 1 .269-.751l.013-.037v-.002l-13.328-3.185-.001.005c-.11.345-.214.694-.313 1.045l-.108.384-.05.18 13.269 3.17zm-.008 10.452l-.052-.203a17.426 17.426 0 0 1-.27-1.103c-.005-.031-.013-.062-.02-.093l-.033-.147c-.002-.015-.007-.028-.01-.043l-13.487 2.008h-.001l.004.016c.097.548.206 1.09.329 1.628v.006l13.553-2.02-.012-.05" fill="#00395D"/><path d="M606.975 2851.287c-.006-.031-.008-.065-.014-.097-.038-.202-.07-.405-.102-.607l-.007-.039a17.421 17.421 0 0 1-.115-.86l-.01-.059-13.485 2.007c.006.055.015.11.022.164.016.135.035.268.053.403.051.361.106.721.167 1.08l.003.015h.001l13.487-2.008z" fill="#FEFEFE"/><path d="M606.727 2849.626l-.002-.02a19.16 19.16 0 0 1-.09-1.65l-.001-.017-13.55 2.018h-.004c.01.14.023.278.035.417a28.859 28.859 0 0 0 .127 1.259l13.486-2.007zm3.938 9.74h-.001c-.033-.043-.064-.088-.098-.131-.106-.14-.21-.28-.312-.42l-.186-.261a17.69 17.69 0 0 1-.312-.46c-.022-.033-.045-.063-.067-.097l-.003-.005-11.767 6.893h-.002c.017.025.035.05.051.079.277.438.562.869.856 1.298l.019.029.001-.001 11.821-6.924z" fill="#00395D"/><path d="M609.686 2857.992l-.006-.01c-.032-.05-.061-.1-.093-.151a20.125 20.125 0 0 1-.289-.466c-.07-.117-.136-.237-.204-.356-.069-.121-.138-.24-.203-.362l-.05-.088-.007-.011-11.766 6.889h-.002c.016.029.034.056.05.084.247.443.504.88.772 1.314l.029.05h.002l11.767-6.893z" fill="#FEFEFE"/><path d="M608.83 2856.541l-.022-.048c-.046-.088-.088-.177-.132-.264-.069-.137-.139-.273-.205-.41-.105-.22-.205-.444-.302-.669l-.043-.096a.211.211 0 0 0-.016-.034v-.002l-11.82 6.926.017.032c.233.478.481.954.74 1.421.008.013.013.027.02.04l11.763-6.896zm5.86 6.667l-8.347 10.781c.45.335.912.655 1.382.963l8.384-10.834-.044-.029c-.053-.03-.103-.063-.154-.094a24.278 24.278 0 0 1-.764-.48 27.972 27.972 0 0 1-.218-.149c-.07-.047-.14-.09-.207-.138-.011-.007-.021-.012-.031-.02" fill="#00395D"/><path d="M614.69 2863.208c-.016-.01-.03-.024-.046-.035-.102-.073-.201-.149-.301-.223l-.108-.08a19.014 19.014 0 0 1-.672-.528l-.005-.004c-.056-.047-.116-.09-.172-.139a.112.112 0 0 0-.017-.012l-8.355 10.775c.058.048.118.094.176.141.378.305.76.601 1.153.886l8.348-10.78z" fill="#FEFEFE"/><path d="M613.361 2862.181l-.057-.053c-.143-.123-.282-.249-.423-.376l-.017-.015a18.764 18.764 0 0 1-.664-.629c-.025-.027-.054-.048-.078-.073l-8.383 10.832v.001c.238.215.481.427.727.636.147.124.295.25.444.372l.104.086 8.347-10.78zm8.804 4.177l-.1-.018c-.247-.046-.492-.1-.736-.158a.628.628 0 0 1-.046-.008l-3.723 13.126c.526.137 1.061.256 1.599.368l.042.009v-.004l3.738-13.185c-.26-.037-.518-.081-.774-.13" fill="#00395D"/><path d="M621.283 2866.174c-.01-.002-.019-.006-.028-.009a18.727 18.727 0 0 1-1.53-.43l-.03-.01-.029-.007-3.72 13.127v.003c.145.045.296.082.444.124.387.113.774.228 1.17.328l3.723-13.126z" fill="#FEFEFE"/><path d="M619.666 2865.718a.507.507 0 0 0-.041-.018l-.023-.007a20.254 20.254 0 0 1-1.075-.397c-.109-.044-.219-.087-.327-.133-.034-.014-.07-.027-.104-.042l-.007-.002-3.739 13.188v.001c.28.103.57.193.856.29.232.078.461.163.697.235l.042.015.001-.003 3.72-13.127zm69.78-4.354h3.387c4.56 0 5.189-1.606 5.189-3.342 0-.905 0-3.022-4.831-3.022h-3.745v6.364zm0 13.266h4.429c.932 0 5.594-.176 5.594-3.662 0-2.593-1.854-3.907-5.518-3.907h-4.505v7.57zm3.827 5.694h-9.764v-31.016h9.965c6.615 0 10.728 3.171 10.728 8.272 0 2.6-1.042 4.742-2.94 6.187a8.237 8.237 0 0 1 4.385 7.322c0 5.87-4.512 9.235-12.374 9.235zm-47.053.001h-5.007l-11.873-31.014h6.565l7.934 21.182 8.19-21.182h6.332zm17.013-12.688h7.446l-3.916-9.453-3.53 9.453zm18.059 12.688h-5.293l-2.994-6.993h-11.941l-2.58 6.993h-6.291l12.212-31.017h4.854l13.188 31.017h-1.155z" fill="#00395D"/><path d="M685.693 2889.339h-86.818v-3.252h85.818z" fill="#FECC00"/><path d="M696.831 2884.2h-1.548l-2.247 3.166-2.247-3.165h-1.547v6.79h2.017l-.01-3.046 1.258 1.888v.03h1.059v-.01l1.248-1.888v3.026h2.017v-6.79zm3.006 1.688h3.265v-1.687h-5.272v6.79h5.272v-1.687h-3.265v-.89h2.796v-1.617h-2.796v-.909zm4.074-1.687v6.79h2.856c2.177 0 3.695-1.338 3.695-3.405 0-2.057-1.518-3.385-3.695-3.385h-2.856zm2.008 5.013v-3.236h.848c.95 0 1.648.67 1.648 1.608 0 .949-.699 1.628-1.648 1.628h-.848zm7.36-5.013h-2.008v6.79h2.008v-6.79zm5.662 5.822l.36.968h2.136l-2.816-6.83h-1.967l-2.816 6.83h2.147l.35-.968h2.606zm-.6-1.638h-1.407l.699-1.927.709 1.927z" fill="#00395D"/></g></svg>