<?xml version="1.0" encoding="utf-8"?>
<!-- Generator: Adobe Illustrator 15.0.2, SVG Export Plug-In . SVG Version: 6.00 Build 0)  -->
<!DOCTYPE svg PUBLIC "-//W3C//DTD SVG 1.1//EN" "http://www.w3.org/Graphics/SVG/1.1/DTD/svg11.dtd">
<svg version="1.1" id="Layer_1" xmlns="http://www.w3.org/2000/svg" xmlns:xlink="http://www.w3.org/1999/xlink" x="0px" y="0px"
	 width="500px" height="500px" viewBox="0 0 500 500" enable-background="new 0 0 500 500" xml:space="preserve">
<title>aandacht</title>
<desc>Created with Sketch.</desc>
<g id="aandacht" transform="translate(933.000000, 3852.000000)">
	<g id="Clip-2">
	</g>
	<g id="Clip-7">
	</g>
</g>
<g>
	<path fill="#00395D" d="M249.998-2.125C112.244-2.125,0,110.969,0,250.424c0,48.468,13.605,95.238,39.965,136.054l-22.959,98.637
		l102.04-20.406c39.116,24.66,85.034,37.416,130.952,37.416c137.754,0,249.997-113.096,249.997-252.55
		C500.846,110.969,388.603-2.125,249.998-2.125z M249.998,480.014c-43.367,0-85.884-12.754-122.448-36.562l-4.251-2.551
		l-76.53,15.307l17.006-73.98l-2.551-4.252c-25.51-37.414-38.265-81.633-38.265-127.55c0-126.7,102.04-229.59,227.039-229.59
		s227.038,102.89,227.038,229.59C477.887,377.125,375.847,480.014,249.998,480.014z"/>
	<circle fill="#00395D" cx="249.998" cy="392.431" r="17.858"/>
	<rect x="238.944" y="127.977" fill="#00395D" width="22.958" height="207.482"/>
</g>
</svg>
