<?xml version="1.0" encoding="utf-8"?>
<!-- Generator: Adobe Illustrator 15.0.2, SVG Export Plug-In . SVG Version: 6.00 Build 0)  -->
<!DOCTYPE svg PUBLIC "-//W3C//DTD SVG 1.1//EN" "http://www.w3.org/Graphics/SVG/1.1/DTD/svg11.dtd">
<svg version="1.1" id="Layer_1" xmlns="http://www.w3.org/2000/svg" xmlns:xlink="http://www.w3.org/1999/xlink" x="0px" y="0px"
	 width="500px" height="500px" viewBox="0 0 500 500" enable-background="new 0 0 500 500" xml:space="preserve">
<title>alle-seizoenen</title>
<desc>Created with Sketch.</desc>
<g id="Clip-2">
</g>
<path fill="#00395D" d="M498.305,240.254h-79.66l44.067-45.762l-16.102-16.102l-60.169,61.864H277.119l77.966-77.966h84.745v-22.882
	h-61.863l55.932-55.933l-16.102-16.102l-77.119,77.119c-8.475-7.627-17.797-14.407-27.966-19.492l42.373-101.694l-21.187-8.475
	l-42.373,101.694c-10.17-3.389-20.339-5.084-31.355-5.932V0.424h-22.882v110.17c-10.169,0.848-21.187,2.543-31.355,5.932
	L163.56,14.831l-21.187,8.475L184.746,125c-9.322,5.085-17.797,11.018-26.271,17.797L80.509,64.831L64.407,80.933l77.966,77.966
	c-6.78,8.475-12.712,16.949-17.797,26.271L22.881,143.645l-8.475,21.187l101.695,42.373c-3.39,10.169-5.084,20.339-5.932,31.355H0
	v22.882h110.17c0.847,10.169,2.542,21.187,5.932,31.355L14.407,335.17l8.475,21.187l101.695-42.373
	c5.085,10.17,11.865,19.491,19.492,27.966l-77.119,77.119l16.102,16.102l55.085-55.085l0.848,61.017h22.881l-0.847-83.05
	l78.813-78.813v107.627l-61.865,61.864l16.102,16.102l45.763-45.763v80.508h22.881V421.61l44.067,42.373l16.102-16.102
	l-59.322-57.627V278.391l76.271,76.271v87.288h22.882v-64.406l56.779,56.779l16.102-16.102l-55.085-55.085l61.018-0.848v-22.881
	l-83.051,0.847l-77.119-77.118h107.627l60.17,60.17l16.102-16.103l-44.068-44.067H500v-22.882H498.305z M160.169,325.848
	c-38.983-45.763-37.288-115.254,5.932-158.475c43.221-43.221,112.712-44.915,158.475-5.932L160.169,325.848z"/>
</svg>
