<?xml version="1.0" encoding="UTF-8" standalone="no"?>
<svg width="590px" height="590px" viewBox="0 0 590 590" version="1.1" xmlns="http://www.w3.org/2000/svg" >
    
    <g id="icons" stroke="none" stroke-width="1"  fill-rule="evenodd">
        <g id="annulatieverzekering" >
            <path d="M65.4818063,27.1973513 C55.6617981,27.1973513 45.8719588,30.9232225 38.4051322,38.3749648 C31.1645731,45.6004398 27.1671811,55.2394345 27.1520966,65.4667246 C27.1520966,75.7090993 31.1344041,85.3330095 38.3749632,92.5584844 L240.808928,295.007542 L38.3900477,497.411347 C23.4563946,512.345 23.4563946,536.661212 38.3749632,551.594866 C52.8259124,566.106154 78.1075313,566.106154 92.573565,551.655204 L294.992445,349.206146 L497.396241,551.594866 C512.360063,566.543604 536.676274,566.558689 551.594843,551.64012 C558.850486,544.39956 562.847878,534.77565 562.847878,524.533275 C562.847878,514.290901 558.865571,504.682075 551.640096,497.4566 L349.191047,295.007542 L551.594843,92.6037379 C558.850486,85.3631785 562.847878,75.7241838 562.847878,65.4968936 C562.862963,55.2696035 558.880655,45.6456932 551.640096,38.4051338 C544.384453,31.1645744 534.760543,27.1671823 524.533253,27.1520978 C514.290879,27.1520978 504.682054,31.1494899 497.441495,38.3749648 L294.992445,240.808938 L92.603734,38.4051338 C85.1218229,30.938307 75.3168991,27.1973513 65.4818063,27.1973513 M65.4818063,590 C47.968704,590 31.5115166,583.181807 19.1573126,570.782349 C-6.32040471,545.289546 -6.30532021,503.761921 19.1874816,478.20878 L202.403796,295.007542 L19.1723971,111.761051 C6.80310865,99.3917623 0,82.9496587 0,65.4516401 C0.0150844981,47.9687061 6.83327765,31.5266024 19.2327351,19.1573134 C44.7406214,-6.35057398 86.2682447,-6.32040498 111.8063,19.2176514 L294.992445,202.403804 L478.254013,19.1723979 C490.593132,6.81819344 507.035235,0 524.533253,0 L524.548338,0 C542.046355,0.0150844988 558.473374,6.83327794 570.857747,19.2327359 C583.211951,31.5869404 590.015059,48.0290441 589.999975,65.5119781 C589.999975,82.9798277 583.181782,99.4370158 570.797409,111.806305 L387.596179,295.007542 L570.842662,478.254033 C583.196866,490.608238 589.98489,507.050341 589.999975,524.533275 C589.999975,542.031294 583.181782,558.488482 570.797409,570.857771 C545.274438,596.335489 503.746815,596.320405 478.193675,570.797433 L294.992445,387.596196 L111.761047,570.842687 C99.4068426,583.211976 82.9647397,590 65.4818063,590" id="Fill-1"></path>
        </g>
    </g>
</svg>