<?xml version="1.0" encoding="utf-8"?>
<!-- Generator: Adobe Illustrator 15.0.2, SVG Export Plug-In . SVG Version: 6.00 Build 0)  -->
<!DOCTYPE svg PUBLIC "-//W3C//DTD SVG 1.1//EN" "http://www.w3.org/Graphics/SVG/1.1/DTD/svg11.dtd">
<svg version="1.1" id="Layer_1" xmlns="http://www.w3.org/2000/svg" xmlns:xlink="http://www.w3.org/1999/xlink" x="0px" y="0px"
	 width="500px" height="500px" viewBox="0 0 500 500" enable-background="new 0 0 500 500" xml:space="preserve">
<title>Page 1</title>
<desc>Created with Sketch.</desc>
<g>
	<path fill="#00395D" d="M426.829,29.27v63.413C380.487,39.025,312.195,4.878,236.585,4.878C126.829,4.878,29.268,75.61,0,180.488
		L70.731,200c21.951-73.171,90.243-121.95,168.292-121.95c58.536,0,112.196,29.268,143.902,75.609H297.56v73.17h202.439V29.27
		H426.829z"/>
	<path fill="#00395D" d="M260.975,421.951c-58.536,0-112.194-29.268-143.901-75.609h85.365v-73.171H0v197.562h73.171v-63.416
		c46.341,53.66,114.634,87.806,190.244,87.806c109.755,0,207.316-70.731,236.585-175.609l-70.732-19.512
		C407.316,370.732,336.585,421.951,260.975,421.951z"/>
</g>
</svg>
