<?xml version="1.0" encoding="utf-8"?>
<!-- Generator: Adobe Illustrator 15.0.2, SVG Export Plug-In . SVG Version: 6.00 Build 0)  -->
<!DOCTYPE svg PUBLIC "-//W3C//DTD SVG 1.1//EN" "http://www.w3.org/Graphics/SVG/1.1/DTD/svg11.dtd">
<svg version="1.1" id="Layer_1" xmlns="http://www.w3.org/2000/svg" xmlns:xlink="http://www.w3.org/1999/xlink" x="0px" y="0px"
	 width="500px" height="500px" viewBox="0 0 500 500" enable-background="new 0 0 500 500" xml:space="preserve">
<title>auto</title>
<desc>Created with Sketch.</desc>
<g id="Clip-2">
</g>
<path fill="#00395D" d="M464.706,224.512l-88.889-24.183l-91.505-92.158h-60.13C100.653,108.171,0,209.478,0,333.66v9.151h39.869
	c4.576,28.105,28.105,49.018,56.863,49.018c28.758,0,52.941-21.567,56.863-49.671l177.123-0.655
	c3.922,28.759,28.106,50.326,57.518,50.326c29.41,0,53.595-22.221,57.517-50.979H500v-69.281
	C500,249.347,484.966,230.394,464.706,224.512z M194.771,128.432c9.804-1.306,19.607-1.961,29.411-1.961h52.287l73.202,73.203
	h-154.9V128.432z M177.125,131.7v67.974H66.667C94.771,166.341,133.333,142.158,177.125,131.7z M96.731,373.53
	c-22.222,0-39.869-18.299-39.869-39.87c0-22.221,17.646-39.867,39.869-39.867s39.871,18.299,39.871,39.867
	C136.602,355.884,118.954,373.53,96.731,373.53z M388.235,373.53c-22.222,0-39.871-18.299-39.871-39.87
	c0-22.221,17.649-39.867,39.871-39.867c22.223,0,39.869,18.299,39.869,39.867C428.104,355.884,410.458,373.53,388.235,373.53z
	 M481.699,322.552h-36.601c-5.229-26.799-28.758-47.061-56.863-47.061c-28.104,0-51.635,20.262-56.862,47.713l-177.778,0.652
	c-4.576-27.45-28.105-48.365-56.863-48.365c-28.758,0-52.941,21.567-56.863,49.021H18.3c1.961-39.871,14.38-76.473,35.295-107.192
	h316.34l90.193,24.837c13.073,3.268,22.224,15.686,22.224,29.411v50.982H481.699z"/>
</svg>
