<?xml version="1.0" encoding="utf-8"?>
<!-- Generator: Adobe Illustrator 15.0.2, SVG Export Plug-In . SVG Version: 6.00 Build 0)  -->
<!DOCTYPE svg PUBLIC "-//W3C//DTD SVG 1.1//EN" "http://www.w3.org/Graphics/SVG/1.1/DTD/svg11.dtd">
<svg version="1.1" id="Layer_1" xmlns="http://www.w3.org/2000/svg" xmlns:xlink="http://www.w3.org/1999/xlink" x="0px" y="0px"
	 width="500px" height="500px" viewBox="0 0 500 500" enable-background="new 0 0 500 500" xml:space="preserve">
<rect x="205.133" y="183.326" fill="none" width="89.734" height="133.348"/>
<rect x="205.133" y="183.326" fill="none" width="89.734" height="133.348"/>
<rect x="205.133" y="183.326" fill="none" width="89.734" height="133.348"/>
<rect x="205.133" y="183.326" fill="none" width="89.734" height="133.348"/>
<rect x="205.133" y="183.326" fill="none" width="89.734" height="133.348"/>
<g>
	<path d="M464.814,273.414l-88.962-24.507l-91.792-92.564h-59.823c-23.028,0-45.606,3.666-67.284,10.614V59.469H32.484v168.404
		h28.174C21.871,269.619,0,324.811,0,382.51v8.748l39.754-0.128c4.18,27.917,28.045,49.401,56.927,49.401
		c29.011,0,53.005-21.74,56.992-49.917l177.923-0.899c3.537,28.625,27.789,50.816,57.121,50.816
		c29.461,0,53.84-22.449,57.185-51.332L500,388.943v-69.215C499.872,298.116,485.462,279.076,464.814,273.414z M194.52,176.155
		c9.777-1.415,19.683-2.316,29.654-2.316h52.618l73.459,74.104H194.52V176.155z M156.954,185.289
		c6.626-2.316,13.445-4.18,20.263-5.789v68.442H66.126c5.918-7.076,12.415-13.767,19.298-20.07h71.529V185.289z M49.852,210.375
		V76.965h89.735v133.346H49.852V210.375z M96.553,423.035c-22.193,0-40.268-18.204-40.268-40.59c0-22.385,18.075-40.59,40.268-40.59
		c22.192,0,40.267,18.205,40.267,40.59C136.82,404.831,118.745,423.035,96.553,423.035z M388.589,423.035
		c-22.192,0-40.268-18.204-40.268-40.59c0-22.385,18.075-40.59,40.268-40.59s40.268,18.205,40.268,40.59
		C428.792,404.831,410.781,423.035,388.589,423.035z M482.504,371.575l-37.309,0.128c-5.018-26.888-28.432-47.344-56.606-47.344
		c-28.303,0-51.846,20.714-56.67,47.858l-178.503,0.9c-4.438-27.595-28.173-48.759-56.799-48.759
		c-28.753,0-52.618,21.421-56.863,49.274l-22.193,0.063c1.608-38.98,14.088-76.418,35.444-108.259h317.188l90.056,24.828
		c13.121,3.604,22.256,15.697,22.256,29.397V371.575z"/>
	<polygon points="90.249,99.286 72.881,99.286 72.881,187.604 120.868,187.604 120.868,170.108 90.249,170.108 	"/>
</g>
</svg>
