<?xml version="1.0" encoding="utf-8"?>
<!-- Generator: Adobe Illustrator 15.0.2, SVG Export Plug-In . SVG Version: 6.00 Build 0)  -->
<!DOCTYPE svg PUBLIC "-//W3C//DTD SVG 1.1//EN" "http://www.w3.org/Graphics/SVG/1.1/DTD/svg11.dtd">
<svg version="1.1" id="Layer_1" xmlns="http://www.w3.org/2000/svg" xmlns:xlink="http://www.w3.org/1999/xlink" x="0px" y="0px"
	 width="500px" height="500px" viewBox="0 0 500 500" enable-background="new 0 0 500 500" xml:space="preserve">
<path fill="#00395D" d="M336.164,81.069c-2.548-44.992-39.899-81.494-85.74-81.494s-83.191,35.654-85.738,81.494H0v378.608h46.689
	c2.546,22.92,22.071,40.747,45.84,40.747s43.294-17.827,45.84-40.747h223.26c2.547,22.92,22.071,40.747,45.84,40.747
	c23.77,0,43.295-17.827,45.841-40.747H500V81.069H336.164z M250.424,22.495c33.107,0,60.272,25.467,62.819,58.574H187.606
	C190.153,47.962,217.318,22.495,250.424,22.495z M22.92,436.757V103.989h58.574v332.768H22.92z M92.53,477.504
	c-11.036,0-20.373-7.64-22.92-17.826h45.84C112.903,469.864,103.565,477.504,92.53,477.504z M104.415,436.757V103.989h292.02
	v332.768H104.415z M408.319,477.504c-11.035,0-20.374-7.64-22.92-17.826h45.841C427.845,469.864,419.355,477.504,408.319,477.504z
	 M477.93,436.757h-58.574V103.989h58.574V436.757z"/>
</svg>
