<?xml version="1.0" encoding="utf-8"?>
<!-- Generator: Adobe Illustrator 15.0.2, SVG Export Plug-In . SVG Version: 6.00 Build 0)  -->
<!DOCTYPE svg PUBLIC "-//W3C//DTD SVG 1.1//EN" "http://www.w3.org/Graphics/SVG/1.1/DTD/svg11.dtd">
<svg version="1.1" id="Layer_1" xmlns="http://www.w3.org/2000/svg" xmlns:xlink="http://www.w3.org/1999/xlink" x="0px" y="0px"
	 width="500px" height="500px" viewBox="0 0 500 500" enable-background="new 0 0 500 500" xml:space="preserve">
<title>VAB-banden</title>
<desc>Created with Sketch.</desc>
<g id="Clip-6">
</g>
<g>
	<path fill="#00395D" d="M250,85.885c-89.286,0-162.416,73.129-162.416,164.115c0,90.986,73.13,164.115,162.416,164.115
		c89.286,0,162.414-73.13,162.414-164.115C412.414,159.014,339.286,85.885,250,85.885z M250,109.694
		c15.307,0,29.762,2.551,44.218,7.653l-17.008,39.116c-5.952,13.605-17.856,17.857-27.21,17.857s-21.259-5.102-27.211-17.857
		l-17.006-39.966C220.238,112.245,234.694,109.694,250,109.694z M138.605,165.816l33.163,28.912
		c11.054,9.353,11.054,22.108,8.503,31.462c-2.551,9.354-11.055,18.707-25.51,20.408L110.544,250
		C110.544,218.538,120.748,189.626,138.605,165.816z M217.687,340.137l-10.204,43.367c-28.911-9.354-54.421-28.061-71.428-52.722
		l38.265-22.959c11.905-7.653,24.66-4.252,32.313,1.701C214.286,315.477,221.088,326.53,217.687,340.137z M292.517,383.504
		l-10.204-43.367c-3.4-14.456,3.401-24.66,11.055-30.612c7.653-5.103,20.408-8.504,32.312-1.701l37.415,22.108
		C346.088,355.441,321.429,374.15,292.517,383.504z M375,311.225l-37.415-22.108c-18.707-11.055-39.967-10.204-57.823,2.551
		c-17.007,12.756-24.66,33.164-20.408,54.422l10.204,43.367c-6.803,0.851-13.605,1.701-20.408,1.701
		c-6.802,0-12.755-0.851-19.558-1.701l10.204-43.367c5.102-21.258-3.401-41.666-20.408-54.422
		c-17.006-12.755-39.116-13.605-57.823-2.551l-38.266,22.959c-5.952-11.905-9.354-24.66-11.904-37.415l44.217-4.252
		c21.259-1.7,38.265-16.156,45.068-36.564c6.803-20.408,0.85-41.666-15.307-56.123l-33.163-28.911
		c9.354-9.354,20.407-17.007,31.462-22.959l17.007,39.965c8.503,19.558,27.21,32.313,48.469,32.313
		c21.259,0,39.967-11.905,48.469-32.313l17.009-39.115c11.903,5.952,22.107,14.456,31.461,22.959l-32.312,28.061
		c-16.157,14.457-22.109,35.714-15.306,56.123c6.802,20.408,23.809,34.014,45.067,36.564l42.517,4.252
		C385.204,286.565,380.952,299.319,375,311.225z M346.938,246.599c-14.456-1.701-22.108-11.054-25.51-20.408
		c-2.551-9.354-2.551-22.109,8.503-31.462l32.313-28.061c17.006,22.959,27.21,51.87,27.21,84.183L346.938,246.599z"/>
	<path fill="#00395D" d="M250,208.333c-22.959,0-41.667,18.708-41.667,41.667s18.708,41.666,41.667,41.666
		s41.666-18.707,41.666-41.666S272.959,208.333,250,208.333z M250,268.708c-10.204,0-18.708-8.504-18.708-18.708
		s8.503-18.707,18.708-18.707s18.707,8.503,18.707,18.707S260.204,268.708,250,268.708z"/>
	<path fill="#00395D" d="M250-1.701C112.245-1.701,0,111.395,0,250c0,138.605,112.245,251.701,250,251.701S500,388.606,500,250
		C500,111.395,387.755-1.701,250-1.701z M250,478.742C125,478.742,22.959,375.85,22.959,250C22.959,124.15,125,21.258,250,21.258
		S477.041,124.15,477.041,250C477.041,375.85,375,478.742,250,478.742z"/>
	<path fill="#00395D" d="M403.912,145.408l18.706-12.755c-27.21-39.965-67.175-69.728-113.095-84.184l-6.803,22.109
		C344.388,82.484,380.102,108.844,403.912,145.408z"/>
	<path fill="#00395D" d="M96.088,354.592l-18.708,12.755c27.211,39.967,67.177,69.729,113.095,84.184l6.803-22.108
		C155.612,417.518,119.898,391.157,96.088,354.592z"/>
</g>
</svg>
