<?xml version="1.0" encoding="utf-8"?>
<!-- Generator: Adobe Illustrator 15.0.2, SVG Export Plug-In . SVG Version: 6.00 Build 0)  -->
<!DOCTYPE svg PUBLIC "-//W3C//DTD SVG 1.1//EN" "http://www.w3.org/Graphics/SVG/1.1/DTD/svg11.dtd">
<svg version="1.1" id="Layer_1" xmlns="http://www.w3.org/2000/svg" xmlns:xlink="http://www.w3.org/1999/xlink" x="0px" y="0px"
	 width="500px" height="500px" viewBox="0 0 500 500" enable-background="new 0 0 500 500" xml:space="preserve">
<title>Page 1</title>
<desc>Created with Sketch.</desc>
<g>
	<path fill="#003A5D" d="M388.744,385.197c-19.992,0-36.186,16.191-36.186,36.184s16.193,36.186,36.186,36.186
		s36.186-16.193,36.186-36.186S408.736,385.197,388.744,385.197z"/>
	<path fill="#003A5D" d="M213.414,385.197c-19.992,0-36.185,16.191-36.185,36.184s16.192,36.186,36.185,36.186
		s36.186-16.193,36.186-36.186S233.406,385.197,213.414,385.197z"/>
	<path fill="#003A5D" d="M124.25,112.605l-0.699-3.698c-7.797-38.485-42.083-66.474-81.367-66.474H0v38.984h42.184
		c20.791,0,38.983,14.794,43.082,34.986l32.588,170.032c7.996,41.584,44.481,71.771,86.865,71.771h177.628
		c39.085,0,73.171-27.889,81.067-66.174L500,112.605H124.25z M349.359,319.223h-36.785l-2.399-167.633h57.478L349.359,319.223z
		 M216.014,151.59h55.177l2.399,167.633h-39.184L216.014,151.59z M156.138,279.139l-24.49-127.549h45.082l18.393,166.633
		C175.729,314.424,160.035,299.131,156.138,279.139z M425.229,284.236c-3.699,18.092-18.593,31.088-36.386,33.887l18.193-166.533
		h45.281L425.229,284.236z"/>
</g>
</svg>
