<?xml version="1.0" encoding="utf-8"?>
<!-- Generator: Adobe Illustrator 15.0.2, SVG Export Plug-In . SVG Version: 6.00 Build 0)  -->
<!DOCTYPE svg PUBLIC "-//W3C//DTD SVG 1.1//EN" "http://www.w3.org/Graphics/SVG/1.1/DTD/svg11.dtd">
<svg version="1.1" id="Layer_1" xmlns="http://www.w3.org/2000/svg" xmlns:xlink="http://www.w3.org/1999/xlink" x="0px" y="0px"
	 width="500px" height="500px" viewBox="-30 45 500 500" enable-background="new -30 45 500 500" xml:space="preserve">
<g id="icons">
	<g id="callcenter">
		<path id="Fill-24" d="M382.793,522.188H219.987H57.207v-13.738c0-93.697,74.541-172.855,162.78-172.855
			c88.252,0,162.806,79.158,162.806,172.855V522.188z M136.852,266.978c6.641,2.561,13.787,4.106,21.31,4.106h61.826v-22.812
			h-61.826c-20.176,0-36.559-16.311-36.974-36.5c0.819-54.116,44.8-97.917,98.8-97.917c54.541,0,98.9,44.624,98.9,99.463
			c0,54.838-44.359,99.463-98.9,99.463C185.117,312.781,154.469,294.467,136.852,266.978L136.852,266.978z M98.353,238.222h-5.028
			c-6.188,0-11.241-5.07-11.241-11.292v-37.146c0-3.029,1.197-5.88,3.353-8.01c2.104-2.065,4.877-3.206,7.826-3.206h0.214
			l4.877,0.088V238.222z M215.325,67.939c27.498-1.28,53.408,8.428,73.179,27.4c11.997,11.521,20.68,25.486,25.696,40.809
			c-22.318-27.502-56.243-45.105-94.213-45.105c-37.025,0-70.181,16.792-92.499,43.141
			C141.036,96.873,174.771,69.853,215.325,67.939L215.325,67.939z M341.899,178.668l7.675-0.14c3.1-0.165,5.947,1.103,8.128,3.257
			c2.181,2.155,3.378,5.031,3.378,8.099v37.083c0,6.198-5.004,11.255-11.179,11.255h-8.002V178.668z M275.297,322.07
			c25.255-13.028,45.469-34.637,56.635-61.036h17.97c18.664,0,33.861-15.272,33.861-34.067v-37.083
			c0-9.227-3.604-17.896-10.169-24.372c-6.566-6.476-15.388-9.733-24.436-9.797l-7.788,0.152
			c-2.71-29.365-15.678-56.385-37.214-77.018c-24.297-23.345-56.281-35.296-89.89-33.712
			c-60.175,2.852-108.277,50.302-115.082,110.717l-5.267-0.101c-9.667-0.279-17.833,3.27-24.36,9.733
			c-6.553,6.463-10.157,15.081-10.157,24.295v37.146c0,18.808,15.223,34.105,33.924,34.105h14.732
			c11.178,26.399,31.392,48.007,56.646,61.036C90.187,347.582,34.523,422.61,34.523,508.449V545h185.464h185.489v-36.551
			C405.477,422.61,349.813,347.582,275.297,322.07L275.297,322.07z"/>
	</g>
</g>
</svg>
