<?xml version="1.0" encoding="utf-8"?>
<!-- Generator: Adobe Illustrator 15.0.2, SVG Export Plug-In . SVG Version: 6.00 Build 0)  -->
<!DOCTYPE svg PUBLIC "-//W3C//DTD SVG 1.1//EN" "http://www.w3.org/Graphics/SVG/1.1/DTD/svg11.dtd">
<svg version="1.1" id="Layer_1" xmlns="http://www.w3.org/2000/svg" xmlns:xlink="http://www.w3.org/1999/xlink" x="0px" y="0px"
	 width="500px" height="500px" viewBox="0 0 500 500" enable-background="new 0 0 500 500" xml:space="preserve">
<g>
	<polygon points="283.081,107.745 139.254,250 283.081,392.256 315.019,360.674 203.201,250 315.019,139.326 	"/>
	<path d="M480.351,152.758c-12.573-29.794-30.651-56.516-53.585-79.451c-22.937-22.936-49.729-41.012-79.453-53.587
		C316.519,6.574,283.725-0.071,250-0.071c-33.724,0-66.519,6.645-97.313,19.648C122.893,32.152,96.17,50.229,73.235,73.164
		C50.3,96.099,32.224,122.893,19.648,152.615C6.574,183.481,0,216.205,0,249.929c0,33.724,6.645,66.519,19.648,97.313
		c12.575,29.794,30.651,56.517,53.587,79.451c22.935,22.935,49.729,41.012,79.451,53.587c30.794,13.146,63.589,19.791,97.313,19.791
		c33.725,0,66.519-6.645,97.312-19.648c29.795-12.575,56.517-30.651,79.453-53.587c22.934-22.935,41.012-49.729,53.585-79.451
		C493.427,316.519,500,283.795,500,250.071S493.354,183.552,480.351,152.758z M394.47,394.47
		c-38.582,38.582-89.883,59.874-144.47,59.874s-105.887-21.221-144.47-59.874C66.948,355.888,45.656,304.587,45.656,250
		s21.22-105.887,59.874-144.47C144.113,66.876,195.413,45.656,250,45.656s105.888,21.22,144.47,59.874
		c38.582,38.583,59.874,89.883,59.874,144.47S433.123,355.888,394.47,394.47z"/>
</g>
</svg>
