<?xml version="1.0" encoding="utf-8"?>
<!-- Generator: Adobe Illustrator 15.0.2, SVG Export Plug-In . SVG Version: 6.00 Build 0)  -->
<!DOCTYPE svg PUBLIC "-//W3C//DTD SVG 1.1//EN" "http://www.w3.org/Graphics/SVG/1.1/DTD/svg11.dtd">
<svg version="1.1" id="Layer_1" xmlns="http://www.w3.org/2000/svg" xmlns:xlink="http://www.w3.org/1999/xlink" x="0px" y="0px"
	 width="500px" height="500px" viewBox="0 0 500 500" enable-background="new 0 0 500 500" xml:space="preserve">
<polygon points="250,273.928 139.357,162.143 107.786,194.071 250,337.857 392.215,194.071 360.643,162.143 "/>
<path d="M480.356,152.714c-12.571-29.786-30.643-56.5-53.571-79.429c-22.929-22.928-49.714-41-79.429-53.571
	C316.5,6.643,283.714,0,250,0s-66.5,6.643-97.286,19.643c-29.786,12.571-56.5,30.643-79.429,53.571s-41,49.714-53.571,79.429
	C6.643,183.5,0.071,216.214,0.071,249.929c0,33.714,6.643,66.5,19.643,97.286c12.571,29.785,30.643,56.5,53.571,79.428
	c22.929,22.929,49.714,41,79.429,53.572C183.5,493.357,216.285,500,250,500s66.5-6.643,97.286-19.643
	c29.786-12.572,56.5-30.643,79.429-53.572c22.929-22.928,41-49.714,53.571-79.428c13.071-30.857,19.644-63.572,19.644-97.286
	C500,216.286,493.356,183.5,480.356,152.714z M394.429,394.429C355.856,433,304.571,454.285,250,454.285
	c-54.571,0-105.857-21.214-144.429-59.856C67,355.857,45.714,304.571,45.714,250s21.214-105.857,59.857-144.429
	C144.143,66.929,195.428,45.714,250,45.714c54.572,0,105.857,21.214,144.429,59.857C433,144.143,454.285,195.429,454.285,250
	S433.071,355.857,394.429,394.429z"/>
</svg>
