<?xml version="1.0" encoding="utf-8"?>
<!-- Generator: Adobe Illustrator 15.0.2, SVG Export Plug-In . SVG Version: 6.00 Build 0)  -->
<!DOCTYPE svg PUBLIC "-//W3C//DTD SVG 1.1//EN" "http://www.w3.org/Graphics/SVG/1.1/DTD/svg11.dtd">
<svg version="1.1" id="Layer_1" xmlns="http://www.w3.org/2000/svg" xmlns:xlink="http://www.w3.org/1999/xlink" x="0px" y="0px"
	 width="500px" height="500px" viewBox="0 0 500 500" enable-background="new 0 0 500 500" xml:space="preserve">
<g>
	<polygon points="107.786,283.072 139.357,315 250,203.214 360.644,315 392.215,283.072 250,139.285 	"/>
	<path d="M480.286,152.786c-12.57-29.786-30.643-56.5-53.571-79.428c-22.929-22.928-49.715-41-79.43-53.572
		C316.499,6.643,283.715,0,250,0s-66.5,6.643-97.286,19.643c-29.785,12.571-56.5,30.643-79.429,53.571
		c-22.929,22.929-41,49.715-53.571,79.429C6.644,183.5,0.072,216.214,0.072,249.929C0,283.715,6.643,316.499,19.644,347.284
		c12.571,29.787,30.643,56.501,53.571,79.431c22.929,22.928,49.715,41.001,79.429,53.57C183.5,493.357,216.286,500,250,500
		s66.499-6.643,97.285-19.643c29.786-12.572,56.501-30.643,79.43-53.572c22.929-22.928,41.001-49.714,53.571-79.429
		c13.071-30.857,19.643-63.571,19.643-97.285C499.929,216.357,493.286,183.571,480.286,152.786z M394.429,394.429
		C355.857,433,304.571,454.285,250,454.285c-54.572,0-105.857-21.214-144.429-59.856C67,355.857,45.715,304.571,45.715,250
		c0-54.572,21.214-105.857,59.857-144.429C144.143,66.929,195.429,45.714,250,45.714c54.571,0,105.857,21.214,144.428,59.857
		C433,144.143,454.286,195.428,454.286,250C454.286,304.571,433.071,355.857,394.429,394.429z"/>
</g>
</svg>
