<?xml version="1.0" encoding="utf-8"?>
<!-- Generator: Adobe Illustrator 15.0.2, SVG Export Plug-In . SVG Version: 6.00 Build 0)  -->
<!DOCTYPE svg PUBLIC "-//W3C//DTD SVG 1.1//EN" "http://www.w3.org/Graphics/SVG/1.1/DTD/svg11.dtd">
<svg version="1.1" id="Layer_1" xmlns="http://www.w3.org/2000/svg" xmlns:xlink="http://www.w3.org/1999/xlink" x="0px" y="0px"
	 width="500px" height="500px" viewBox="0 0 500 500" enable-background="new 0 0 500 500" xml:space="preserve">
<title>citaat</title>
<desc>Created with Sketch.</desc>
<g>
	<path fill="#00395D" d="M0,175.154v1.243v2.483v78.262h79.504v-80.745H16.771v-1.243c0-46.584,37.266-84.473,83.85-84.473V73.913
		C44.72,73.913,0,119.253,0,175.154z M62.733,193.167v46.583H16.771v-46.583H62.733z"/>
	<path fill="#00395D" d="M122.981,175.154v1.243v2.483v78.262h79.502v-80.745H139.75v-1.243c0-46.584,37.268-84.473,83.852-84.473
		V73.913C168.322,73.913,122.981,119.253,122.981,175.154z M185.714,193.167v46.583H139.75v-46.583H185.714z"/>
	<path fill="#00395D" d="M420.496,242.857v0.62v80.125h62.734v1.24c0,46.585-37.269,84.473-83.852,84.473v16.771
		c55.278,0,100.621-45.342,100.621-101.244v-1.24v-2.483v-78.262H420.496z M483.23,306.83h-45.963v-46.582h45.963V306.83z"/>
	<path fill="#00395D" d="M297.515,323.603h62.734v1.24c0,46.585-37.269,84.473-83.852,84.473v16.771
		c55.278,0,100.62-45.342,100.62-101.244v-1.24v-2.483v-78.262h-79.503V323.603z M314.286,260.248h45.963v46.582h-45.963V260.248z"
		/>
</g>
</svg>
