<?xml version="1.0" encoding="utf-8"?>
<!-- Generator: Adobe Illustrator 15.0.2, SVG Export Plug-In . SVG Version: 6.00 Build 0)  -->
<!DOCTYPE svg PUBLIC "-//W3C//DTD SVG 1.1//EN" "http://www.w3.org/Graphics/SVG/1.1/DTD/svg11.dtd">
<svg version="1.1" id="Layer_1" xmlns="http://www.w3.org/2000/svg" xmlns:xlink="http://www.w3.org/1999/xlink" x="0px" y="0px"
	 width="500px" height="500px" viewBox="0 0 500 500" enable-background="new 0 0 500 500" xml:space="preserve">
<title>citaat</title>
<desc>Created with Sketch.</desc>
<g>
	<path fill="#00395D" d="M0,271.488v2.704v5.622v175.069h177.768v-180.47H37.579v-2.702c0-104.185,83.258-189.017,187.444-189.017
		V45.116C99.909,45.116,0,146.6,0,271.488z M140.188,311.765v104.189H37.579V311.765H140.188z"/>
	<path fill="#00395D" d="M500,82.695V45.116c-123.537,0-225.022,101.483-225.022,226.372v2.704v5.622v175.069h177.767v-180.47
		H312.557v-2.702C312.557,167.527,395.817,82.695,500,82.695z M415.394,311.765v104.189H312.557V311.765H415.394z"/>
</g>
</svg>
