<?xml version="1.0" encoding="utf-8"?>
<!-- Generator: Adobe Illustrator 15.0.2, SVG Export Plug-In . SVG Version: 6.00 Build 0)  -->
<!DOCTYPE svg PUBLIC "-//W3C//DTD SVG 1.1//EN" "http://www.w3.org/Graphics/SVG/1.1/DTD/svg11.dtd">
<svg version="1.1" id="Layer_1" xmlns="http://www.w3.org/2000/svg" xmlns:xlink="http://www.w3.org/1999/xlink" x="0px" y="0px"
	 width="500px" height="500px" viewBox="0 0 500 500" enable-background="new 0 0 500 500" xml:space="preserve">
<title>depannage-2000</title>
<desc>Created with Sketch.</desc>
<g id="Clip-2">
</g>
<path fill="#00395D" d="M498.753,321.072c0-41.148-15.586-81.047-43.641-111.596l-47.382-51.122h-91.022h-8.728h-52.993
	l-25.561,61.097L78.554,94.762c-4.364-6.234-11.846-10.598-20.574-10.598c-13.716,0-24.938,11.222-24.938,24.938l0,0v45.511
	c-8.728,4.364-14.963,13.716-14.963,23.691c0,14.962,11.846,26.808,26.808,26.808c14.963,0,26.808-11.846,26.808-26.808
	c0-3.741-0.624-6.858-1.871-10.599l-15.586,6.234c0.624,1.247,0.624,2.493,0.624,3.74c0,5.611-4.364,9.976-9.975,9.976
	s-9.975-4.364-9.975-9.976c0-4.987,3.117-8.728,8.105-9.352l6.858-1.247v-34.912l103.491,134.04H0v95.387h22.444
	c0,0.623,0,1.871,0,2.494c0,28.678,23.691,51.746,52.369,51.746c18.08,0,34.289-9.354,43.641-23.691
	c9.352,14.338,25.561,23.691,43.641,23.691c28.678,0,52.369-23.068,52.369-51.746c0-0.623,0-1.871,0-2.494h67.955
	c0,0.623,0,1.871,0,2.494c0,28.678,23.69,51.746,52.369,51.746c18.079,0,34.289-9.354,43.641-23.691
	c9.353,14.338,25.562,23.691,43.642,23.691c28.678,0,52.368-23.068,52.368-51.746c0-0.623,0-1.871,0-2.494H500v-40.523H498.753z
	 M383.416,175.187h17.457l41.771,45.511c1.247,1.247,1.87,2.494,3.117,3.74h-62.345V175.187z M59.227,116.583
	c-4.364,0-8.105-3.741-8.105-8.105s3.741-8.104,8.105-8.104c4.364,0,8.104,3.74,8.104,8.104
	C66.708,113.466,63.591,116.583,59.227,116.583z M71.072,130.298c4.988-2.493,8.728-6.857,11.222-11.845l141.521,117.207
	l-12.469,30.548h-34.913L71.072,130.298z M104.115,382.17l-11.222-11.223l-11.845,11.846l11.222,10.598
	c-4.988,3.117-11.222,4.988-18.08,4.988s-13.092-1.871-18.08-4.988l10.598-10.598l-11.845-11.846l-10.599,10.598
	c-3.117-4.986-4.987-11.221-4.987-18.078c0-6.234,1.87-12.469,4.987-17.457l10.599,10.598l11.845-11.846l-11.222-11.221
	c5.611-3.117,11.845-4.988,18.08-4.988c6.858,0,12.469,1.871,18.08,4.988l-11.222,11.221l11.846,11.846l11.222-11.221
	c3.117,4.986,4.988,11.221,4.988,18.08C109.726,370.947,107.232,377.182,104.115,382.17z M191.396,382.17l-11.222-11.223
	l-11.846,11.846l11.222,10.598c-4.988,3.117-11.222,4.988-18.08,4.988s-13.092-1.871-18.08-4.988l10.599-10.598l-11.846-11.846
	l-10.599,10.598c-3.117-4.986-4.987-11.221-4.987-18.078c0-6.234,1.87-12.469,4.987-17.457l10.599,10.598l11.846-11.846
	l-11.222-11.221c5.611-3.117,11.845-4.988,18.08-4.988c6.858,0,12.469,1.871,18.08,4.988l-11.222,11.221l11.846,11.846
	l11.222-11.221c3.117,4.986,4.988,11.221,4.988,18.08C197.007,370.947,195.137,377.182,191.396,382.17z M284.912,344.762h-75.436
	c-7.481-18.703-26.184-32.418-48.005-32.418c-18.08,0-34.289,9.352-43.641,23.691c-9.352-14.34-25.561-23.691-43.641-23.691
	c-21.82,0-40.523,13.092-48.005,32.418h-9.352v-61.721h205.112l44.888-107.854h41.771v144.014
	C298.005,324.812,289.9,333.541,284.912,344.762z M363.467,382.17l-11.223-11.223l-11.846,11.846l11.223,10.598
	c-4.988,3.117-11.223,4.988-18.08,4.988s-13.092-1.871-18.08-4.988l10.6-10.598l-11.846-11.846l-10.599,10.598
	c-3.118-4.986-4.987-11.221-4.987-18.078c0-6.234,1.869-12.469,4.987-17.457l10.599,10.598l11.846-11.846l-11.223-11.221
	c5.611-3.117,11.846-4.988,18.08-4.988c6.857,0,12.469,1.871,18.08,4.988l-11.223,11.221l11.846,11.846l11.222-11.221
	c3.117,4.986,4.987,11.221,4.987,18.08C368.454,370.947,366.584,377.182,363.467,382.17z M450.748,382.17l-11.222-11.223
	l-11.846,11.846l11.222,10.598c-4.987,3.117-11.222,4.988-18.08,4.988c-6.857,0-13.092-1.871-18.079-4.988l10.599-10.598
	l-11.846-11.846l-10.598,10.598c-3.117-4.986-4.988-11.221-4.988-18.078c0-6.234,1.871-12.469,4.988-17.457l10.598,10.598
	l11.846-11.846l-11.223-11.221c5.611-3.117,11.846-4.988,18.08-4.988c6.857,0,12.469,1.871,18.08,4.988l-11.223,11.221
	l11.846,11.846l11.223-11.221c3.117,4.986,4.987,11.221,4.987,18.08C455.736,370.947,453.865,377.182,450.748,382.17z
	 M481.297,344.762h-12.469c-7.481-18.703-26.185-32.418-48.006-32.418c-18.079,0-34.289,9.352-43.641,23.691
	c-9.352-14.34-25.561-23.691-43.641-23.691c-2.494,0-5.611,0-8.104,0.623V174.563h41.147v66.085h92.27
	c14.962,23.69,23.066,51.122,23.066,79.801v24.312H481.297z"/>
</svg>
