<?xml version="1.0" encoding="utf-8"?>
<!-- Generator: Adobe Illustrator 15.0.2, SVG Export Plug-In . SVG Version: 6.00 Build 0)  -->
<!DOCTYPE svg PUBLIC "-//W3C//DTD SVG 1.1//EN" "http://www.w3.org/Graphics/SVG/1.1/DTD/svg11.dtd">
<svg version="1.1" id="Layer_1" xmlns="http://www.w3.org/2000/svg" xmlns:xlink="http://www.w3.org/1999/xlink" x="0px" y="0px"
	 width="500px" height="500px" viewBox="0 0 500 500" enable-background="new 0 0 500 500" xml:space="preserve">
<title>VAB-diagnose</title>
<desc>Created with Sketch.</desc>
<g id="Clip-2">
</g>
<path fill="#00395D" d="M500,306.021v-71.907c0-22.576-15.051-42.643-36.789-48.495l-86.955-24.247l-91.139-91.974h-60.201
	C101.17,69.397,0,171.405,0,296.823v11.705h40.133c1.673,10.033,5.853,18.396,12.542,25.92h-40.97v22.575h81.94l25.083,25.085
	L71.07,430.603h343.646l-47.658-48.494l25.083-25.085h99.499v-22.575h-57.692c6.688-8.361,10.869-17.559,12.542-28.428H500z
	 M198.161,94.481c8.361-0.835,17.559-1.673,26.755-1.673h51.004l66.89,67.726H198.161V94.481z M175.585,98.662v61.873H74.415
	C100.334,130.434,135.452,108.696,175.585,98.662z M98.662,334.448c-20.066,0-36.789-16.722-36.789-37.625
	c0-20.904,16.722-37.625,36.789-37.625c20.067,0,36.79,16.721,36.79,37.625C135.452,316.89,118.729,334.448,98.662,334.448z
	 M125.418,408.027l9.197-9.198l9.198,9.198H125.418z M134.615,366.221l-9.197-9.198h18.395L134.615,366.221z M309.364,408.027
	H175.585l-25.084-25.084l25.084-25.084h133.779l25.083,25.084L309.364,408.027z M144.648,334.448
	c5.853-7.524,10.034-16.722,12.542-26.756l171.405-0.837c1.672,10.034,5.852,20.067,12.543,27.592L144.648,334.448L144.648,334.448z
	 M341.139,408.027l9.195-9.198l9.198,9.198H341.139z M350.334,366.221l-9.195-9.198h18.393L350.334,366.221z M387.123,334.448
	c-20.065,0-36.789-16.722-36.789-37.625c0-20.904,16.724-37.625,36.789-37.625c20.067,0,36.791,16.721,36.791,37.625
	C423.914,316.89,408.027,334.448,387.123,334.448z M387.123,235.786c-28.426,0-52.676,20.067-58.527,47.66l-172.242,0.836
	c-5.853-27.593-29.264-48.496-58.528-48.496c-29.265,0-53.512,20.903-58.529,48.496H22.575
	c1.672-37.625,14.214-72.743,34.281-102.007h311.874l88.629,24.247c11.706,3.345,20.068,14.214,20.068,26.756v48.494h-31.774
	C438.964,256.688,415.552,235.786,387.123,235.786z"/>
</svg>
