<?xml version="1.0" encoding="utf-8"?>
<!-- Generator: Adobe Illustrator 15.0.2, SVG Export Plug-In . SVG Version: 6.00 Build 0)  -->
<!DOCTYPE svg PUBLIC "-//W3C//DTD SVG 1.1//EN" "http://www.w3.org/Graphics/SVG/1.1/DTD/svg11.dtd">
<svg version="1.1" id="Layer_1" xmlns="http://www.w3.org/2000/svg" xmlns:xlink="http://www.w3.org/1999/xlink" x="0px" y="0px"
	 width="500px" height="500px" viewBox="-28 -59 500 500" enable-background="new -28 -59 500 500" xml:space="preserve">
<g id="icons">
	<g id="download">
		<path id="Shape" d="M346.985,119.179h-75.007v-143.85h-99.991v143.85H96.992l124.996,119.867L346.985,119.179L346.985,119.179z
			 M455.429,275.792c-5.255-5.371-40.263-41.319-50.273-50.688c-6.613-6.217-16.102-10.032-26.041-10.032h-43.926l76.601,71.782
			H323.18c-2.545,0-4.852,1.256-5.994,3.198l-20.403,44.906H147.195l-20.404-44.906c-1.153-1.942-3.473-3.198-6.005-3.198H32.198
			l76.566-71.782H64.864c-9.918,0-19.395,3.815-26.042,10.032c-10,9.393-45.029,45.341-50.274,50.688
			c-12.224,12.479-18.954,22.441-15.755,34.736l14.031,73.701c3.199,12.318,17.267,22.441,31.297,22.441h407.794
			c14.01,0,28.088-10.123,31.298-22.441l14.009-73.701C474.383,298.233,467.678,288.271,455.429,275.792L455.429,275.792z"/>
	</g>
</g>
</svg>
