<?xml version="1.0" encoding="utf-8"?>
<!-- Generator: Adobe Illustrator 15.0.2, SVG Export Plug-In . SVG Version: 6.00 Build 0)  -->
<!DOCTYPE svg PUBLIC "-//W3C//DTD SVG 1.1//EN" "http://www.w3.org/Graphics/SVG/1.1/DTD/svg11.dtd">
<svg version="1.1" id="Layer_1" xmlns="http://www.w3.org/2000/svg" xmlns:xlink="http://www.w3.org/1999/xlink" x="0px" y="0px"
	 width="500px" height="500px" viewBox="0 0 500 500" enable-background="new 0 0 500 500" xml:space="preserve">
<title>efficiëntie</title>
<desc>Created with Sketch.</desc>
<g>
	<path fill="#00395D" d="M297.582,37.443C292.902,16.38,273.4,0,250.779,0c-22.619,0-41.341,15.601-46.803,37.443H79.953V500
		h340.094V37.443H297.582z M250.779,21.06c10.921,0,20.28,6.242,24.181,16.383h-49.141C230.498,27.302,239.858,21.06,250.779,21.06z
		 M190.717,58.504h120.904v23.4H190.717V58.504z M400.547,478.939h-0.782H101.794V58.504h67.862v44.461h163.027V58.504h67.863
		V478.939z"/>
	<rect x="292.902" y="244.149" fill="#00395D" width="21.06" height="56.162"/>
	<rect x="136.117" y="370.516" fill="#00395D" width="226.986" height="21.06"/>
	<rect x="136.117" y="420.437" fill="#00395D" width="226.986" height="21.06"/>
	<rect x="337.363" y="198.129" fill="#00395D" width="21.061" height="102.183"/>
	<path fill="#00395D" d="M195.396,310.453c32.764,0,60.062-26.521,60.062-60.062c0-33.544-26.52-60.062-60.062-60.062
		c-32.761,0-60.062,26.519-60.062,60.062C135.334,283.932,162.636,310.453,195.396,310.453z M206.317,213.729
		c16.381,4.677,28.081,19.502,28.081,37.438c0,9.365-3.12,17.941-8.579,24.965l-19.502-28.083V213.729z M185.258,213.729v40.562
		l22.619,33.539c-3.9,1.562-7.798,2.34-12.48,2.34c-21.061,0-39-17.16-39-39.002C157.177,233.231,168.878,218.406,185.258,213.729z"
		/>
</g>
</svg>
