<?xml version="1.0" encoding="utf-8"?>
<!-- Generator: Adobe Illustrator 15.0.2, SVG Export Plug-In . SVG Version: 6.00 Build 0)  -->
<!DOCTYPE svg PUBLIC "-//W3C//DTD SVG 1.1//EN" "http://www.w3.org/Graphics/SVG/1.1/DTD/svg11.dtd">
<svg version="1.1" id="Layer_1" xmlns="http://www.w3.org/2000/svg" xmlns:xlink="http://www.w3.org/1999/xlink" x="0px" y="0px"
	 width="500px" height="500px" viewBox="0 0 500 500" enable-background="new 0 0 500 500" xml:space="preserve">
<title>email</title>
<desc>Created with Sketch.</desc>
<g id="Clip-2">
</g>
<path fill="#00395D" d="M500,229.936C490.493,109.173,391.599,10.28,270.834,0.771c-73.218-5.705-145.486,20.92-197.785,72.27
	C20.75,125.339-4.923,196.656,0.781,269.873c9.509,119.812,106.5,218.706,226.312,229.165c7.606,0.951,15.213,0.951,22.822,0.951
	c42.79,0,83.677-10.459,120.762-31.379l-12.36-22.821c-38.987,21.87-83.679,30.427-128.371,26.626
	c-107.451-9.512-194.934-97.943-203.492-205.395C21.702,201.408,44.522,136.75,91.116,90.157
	c46.594-46.596,111.255-70.368,176.867-64.663c108.402,8.56,196.835,96.992,205.393,204.442v83.677
	c0,30.431-24.723,54.201-54.201,54.201c-29.478,0-54.2-24.721-54.2-54.201v-50.396c0-1.902,0-3.805,0-5.707c0-1.901,0-3.801,0-5.702
	V119.632H339.3v58.956c-24.724-33.28-63.71-55.151-107.451-55.151c-74.17,0-134.076,59.903-134.076,134.073
	c0,74.17,59.906,134.077,134.076,134.077c45.644,0,86.531-22.822,110.303-58.005c8.559,34.231,39.938,59.907,77.975,59.907
	c44.691,0,79.874-36.134,79.874-79.876V229.936z M339.3,265.118c-2.854,57.055-50.398,102.695-107.451,102.695
	c-59.907,0-108.401-48.494-108.401-108.401c0-59.903,48.495-108.401,108.401-108.401c58.004,0,104.598,45.645,107.451,102.698
	V265.118z"/>
</svg>
