<?xml version="1.0" encoding="utf-8"?>
<!-- Generator: Adobe Illustrator 15.0.2, SVG Export Plug-In . SVG Version: 6.00 Build 0)  -->
<!DOCTYPE svg PUBLIC "-//W3C//DTD SVG 1.1//EN" "http://www.w3.org/Graphics/SVG/1.1/DTD/svg11.dtd">
<svg version="1.1" id="Layer_1" xmlns="http://www.w3.org/2000/svg" xmlns:xlink="http://www.w3.org/1999/xlink" x="0px" y="0px"
	 width="500px" height="500px" viewBox="0 0 500 500" enable-background="new 0 0 500 500" xml:space="preserve">
<title>Page 1</title>
<desc>Created with Sketch.</desc>
<path fill="#00395D" d="M0,58.14v383.719h500V58.14H0z M250,232.558c-87.209,0-166.667-52.326-201.551-131.783h403.102
	C416.667,180.232,337.209,232.558,250,232.558z M129.845,246.124L44.574,356.588V176.356
	C67.83,205.427,96.899,230.619,129.845,246.124z M170.543,263.568c25.193,7.75,52.325,11.627,79.457,11.627
	c27.131,0,54.264-3.877,79.457-11.627l104.651,135.658H65.892L170.543,263.568z M370.154,246.124
	c32.946-17.442,62.016-40.696,85.271-69.768v180.232L370.154,246.124z"/>
</svg>
