<?xml version="1.0" encoding="utf-8"?>
<!-- Generator: Adobe Illustrator 15.0.2, SVG Export Plug-In . SVG Version: 6.00 Build 0)  -->
<!DOCTYPE svg PUBLIC "-//W3C//DTD SVG 1.1//EN" "http://www.w3.org/Graphics/SVG/1.1/DTD/svg11.dtd">
<svg version="1.1" id="Layer_1" xmlns="http://www.w3.org/2000/svg" xmlns:xlink="http://www.w3.org/1999/xlink" x="0px" y="0px"
	 width="500px" height="500px" viewBox="0 0 500 500" enable-background="new 0 0 500 500" xml:space="preserve">
<title>Facebook</title>
<desc>Created with Sketch.</desc>
<path fill="#00395D" d="M402.195,0.499H96.806C42.914,0.499,0,44.411,0,97.306v305.389c0,25.948,9.98,49.9,28.942,68.862
	c17.964,17.964,42.915,27.944,68.862,27.944l0,0h169.661V292.914h-44.91v-45.908h44.91v-73.853c0-20.958,5.988-37.924,17.965-48.901
	c13.972-13.973,34.93-20.959,63.871-20.959h54.891v48.902h-36.926c-16.967,0-32.934,14.971-32.934,30.938v62.874h68.861
	c-1.996,18.962-3.992,35.929-5.988,46.906h-63.871v206.587h68.861l0,0c25.948,0,49.9-9.98,68.862-27.944S500,428.643,500,402.694
	V98.304C499.002,44.411,455.09,0.499,402.195,0.499z M472.056,401.696c0,18.962-6.985,36.927-20.958,49.9
	c-12.975,12.975-30.938,20.958-49.9,20.958l0,0h-42.914V319.86h59.881l1.996-10.979c0-0.998,5.987-35.928,8.981-74.85l0.998-13.973
	h-70.858v-35.928c0.998-1.996,3.992-4.99,6.986-4.99h63.872V76.348h-81.837c-35.928,0-63.871,9.979-82.834,27.943
	c-16.966,16.967-24.95,39.921-24.95,68.862v45.908h-44.91v99.801h44.91v152.694H97.804l0,0c-18.962,0-35.928-6.985-49.9-20.958
	c-12.974-12.974-20.958-30.938-20.958-49.9V95.31c0-38.923,31.936-69.86,69.86-69.86h305.389c38.922,0,69.86,31.936,69.86,69.86
	V401.696L472.056,401.696z"/>
</svg>
