<?xml version="1.0" encoding="utf-8"?>
<!-- Generator: Adobe Illustrator 15.0.2, SVG Export Plug-In . SVG Version: 6.00 Build 0)  -->
<!DOCTYPE svg PUBLIC "-//W3C//DTD SVG 1.1//EN" "http://www.w3.org/Graphics/SVG/1.1/DTD/svg11.dtd">
<svg version="1.1" id="Layer_1" xmlns="http://www.w3.org/2000/svg" xmlns:xlink="http://www.w3.org/1999/xlink" x="0px" y="0px"
	 width="500px" height="500px" viewBox="130 10 500 500" enable-background="new 130 10 500 500" xml:space="preserve">
<g id="icons">
	<g id="fietsbijstand">
		<path id="Fill-1" d="M532.553,413.251c-43.935,0-79.675-35.801-79.675-79.81c0-25.971,12.499-49.014,31.731-63.591l40.303,68.13
			l15.283-9.079l-40.321-68.17c9.981-4.529,21.019-7.11,32.679-7.11c43.936,0,79.676,35.811,79.676,79.82
			C612.229,377.45,576.488,413.251,532.553,413.251L532.553,413.251z M390.5,283.953c-5.697,9.751-13.309,17.999-22.155,24.526
			l-54.025-98.304c6.772-2.72,14.069-4.213,21.543-4.213h100.092L390.5,283.953z M227.457,413.251
			c-43.935,0-79.685-35.801-79.685-79.81c0-44.01,35.75-79.82,79.685-79.82c8.471,0,16.626,1.365,24.298,3.827l-49.494,84.894
			h104.348C302.166,382.168,268.38,413.251,227.457,413.251L227.457,413.251z M306.609,324.541h-73.386l34.792-59.675
			C288.966,277.356,303.775,299.133,306.609,324.541L306.609,324.541z M285.451,234.949c3.574-6.112,8.225-11.353,13.565-15.705
			l53.937,98.135c-8.916,3.976-18.562,6.29-28.523,6.854c-2.981-31.824-21.326-59.18-47.47-74.717L285.451,234.949z M532.553,235.82
			c-14.957,0-29.086,3.501-41.763,9.563l-80.09-135.37c-7.701-12.985-21.849-21.065-36.916-21.065h-44.498v17.801h44.498
			c8.827,0,17.12,4.728,21.622,12.343l40.865,69.07H335.863c-10.515,0-20.744,2.265-30.152,6.349l-10.031-18.256
			c-7.681-12.896-21.78-20.917-36.787-20.917h-41.151v17.802h41.151c8.777,0,17.021,4.688,21.365,11.966l10.061,18.306
			c-8.057,6.013-14.997,13.628-20.2,22.558l-9.271,15.893c-10.436-3.837-21.651-6.042-33.391-6.042
			c-53.739,0-97.457,43.792-97.457,97.622c0,53.819,43.718,97.611,97.457,97.611c50.836,0,92.649-39.213,97.013-89.018
			c33.479-1.562,64.372-19.957,81.364-49.112l45.87-78.683l23.804,40.231c-24.426,17.752-40.4,46.491-40.4,78.97
			c0,53.819,43.718,97.611,97.446,97.611c53.729,0,97.447-43.792,97.447-97.611C630,279.611,586.282,235.82,532.553,235.82
			L532.553,235.82z"/>
	</g>
</g>
</svg>
