<?xml version="1.0" encoding="utf-8"?>
<!-- Generator: Adobe Illustrator 15.0.2, SVG Export Plug-In . SVG Version: 6.00 Build 0)  -->
<!DOCTYPE svg PUBLIC "-//W3C//DTD SVG 1.1//EN" "http://www.w3.org/Graphics/SVG/1.1/DTD/svg11.dtd">
<svg version="1.1" id="Layer_1" xmlns="http://www.w3.org/2000/svg" xmlns:xlink="http://www.w3.org/1999/xlink" x="0px" y="0px"
	 width="500px" height="500px" viewBox="0 0 500 500" enable-background="new 0 0 500 500" xml:space="preserve">
<title>VAB-fleets-services</title>
<desc>Created with Sketch.</desc>
<g id="Clip-2">
</g>
<g>
	<path fill="#00395D" d="M222.781,380.016l-39.489-11.177l-43.215-43.211h-30.548C49.175,325.628,0,374.805,0,435.9v10.43h28.313
		v-1.49c3.724,13.408,16.391,23.844,31.293,23.844s26.823-9.687,31.292-23.097h63.334c3.724,13.41,16.391,23.097,31.293,23.097
		s27.569-9.687,31.293-23.844h26.079v-38C242.898,394.92,234.701,383.743,222.781,380.016z M59.607,448.567
		c-6.705,0-12.667-5.964-12.667-12.667c0-6.707,5.962-12.667,12.667-12.667c6.708,0,12.667,5.96,12.667,12.667
		C72.273,442.604,66.314,448.567,59.607,448.567z M185.527,448.567c-6.707,0-12.667-5.964-12.667-12.667
		c0-6.707,5.96-12.667,12.667-12.667c6.705,0,12.667,5.96,12.667,12.667C198.194,442.604,192.231,448.567,185.527,448.567z
		 M216.076,425.467c-4.47-12.667-16.392-21.607-30.549-21.607s-26.824,8.94-31.293,21.607H90.155
		c-4.47-12.667-16.391-22.349-31.293-22.349c-14.901,0-27.568,10.429-31.293,23.838v-1.489h-7.452
		c5.218-44.702,43.215-79.725,88.667-79.725h21.606l40.98,40.98l44.705,11.92c3.725,0.747,5.959,3.727,5.959,7.456v19.368H216.076z"
		/>
	<path fill="#00395D" d="M479.838,232.49l-39.49-11.178L397.129,178.1h-30.544c-60.355,0-109.533,49.176-109.533,110.274v10.43
		h28.313v-1.49c3.729,13.408,16.396,23.844,31.299,23.844c14.899,0,26.818-9.687,31.294-23.103h63.328
		c3.728,13.416,16.395,23.103,31.294,23.103c14.903,0,27.571-9.687,31.293-23.844h26.081v-38
		C500.696,247.391,492.505,236.217,479.838,232.49z M317.407,301.039c-6.708,0-12.667-5.964-12.667-12.665
		c0-6.707,5.959-12.667,12.667-12.667c6.707,0,12.666,5.96,12.666,12.667C329.326,295.824,324.114,301.039,317.407,301.039z
		 M443.327,301.039c-6.707,0-12.666-5.964-12.666-12.665c0-6.707,5.959-12.667,12.666-12.667s12.667,5.96,12.667,12.667
		C455.994,295.824,450.034,301.039,443.327,301.039z M473.873,277.197c-4.471-12.667-16.39-21.61-30.546-21.61
		s-26.823,8.943-30.551,22.354H348.7c-4.471-12.667-16.39-22.354-31.294-22.354c-14.898,0-27.564,10.434-31.293,23.843v-1.489
		h-7.449c5.212-44.706,43.212-79.724,88.661-79.724h21.613l40.974,40.98l44.708,11.919c3.728,0.747,5.959,3.728,5.959,7.454v18.627
		H473.873z"/>
	<path fill="#00395D" d="M285.365,150.532c3.729,13.411,16.396,23.841,31.299,23.841c14.899,0,26.818-9.684,31.294-23.097h63.328
		c3.728,13.413,16.395,23.097,31.294,23.097c14.903,0,27.571-9.684,31.293-23.841h26.081v-38
		c0.742-12.667-7.449-23.844-20.116-26.824l-39.49-11.176l-43.219-43.215h-30.544c-60.355,0-109.533,49.178-109.533,110.273v10.433
		h28.313V150.532z M317.407,154.256c-6.708,0-12.667-5.962-12.667-12.667c0-6.707,5.959-12.667,12.667-12.667
		c6.707,0,12.666,5.96,12.666,12.667C330.073,148.294,324.114,154.256,317.407,154.256z M443.327,154.256
		c-6.707,0-12.666-5.962-12.666-12.667c0-6.707,5.959-12.667,12.666-12.667s12.667,5.96,12.667,12.667
		C455.994,148.294,450.034,154.256,443.327,154.256z M367.325,51.436h21.613l40.974,40.979l44.708,11.92
		c3.728,0.744,5.959,3.727,5.959,7.452v18.626h-6.706c-4.471-12.667-16.39-21.606-30.546-21.606s-26.823,8.939-30.551,22.352H348.7
		c-4.471-12.667-16.39-22.352-31.294-22.352c-14.898,0-27.564,10.429-31.293,23.841v-1.489h-7.449
		C283.876,86.453,321.876,51.436,367.325,51.436z"/>
	<path fill="#00395D" d="M222.781,232.49l-39.489-11.178L140.077,178.1h-30.548C49.175,178.1,0,227.275,0,288.374v10.43h28.313
		v-0.749c3.724,13.416,16.391,23.844,31.293,23.844s26.823-9.687,31.292-23.095h63.334c3.724,13.408,16.391,23.095,31.293,23.095
		s27.569-9.687,31.293-23.844h26.079v-37.994C242.898,247.391,234.701,236.217,222.781,232.49z M59.607,301.039
		c-6.705,0-12.667-5.964-12.667-12.665c0-6.707,5.962-12.667,12.667-12.667c6.708,0,12.667,5.96,12.667,12.667
		C72.273,295.824,66.314,301.039,59.607,301.039z M185.527,301.039c-6.707,0-12.667-5.964-12.667-12.665
		c0-6.707,5.96-12.667,12.667-12.667c6.705,0,12.667,5.96,12.667,12.667C198.194,295.824,192.231,301.039,185.527,301.039z
		 M216.076,277.197c-4.47-12.667-16.392-21.61-30.549-21.61s-26.824,8.943-31.293,22.354H90.155
		c-4.47-12.667-16.391-22.354-31.293-22.354c-14.901,0-27.568,10.434-31.293,23.843v-1.489h-7.452
		c5.218-44.706,43.215-79.724,88.667-79.724h21.606l40.98,40.98l44.705,11.919c3.725,0.747,5.959,3.728,5.959,7.454v18.627H216.076z
		"/>
	<path fill="#00395D" d="M479.838,380.016l-39.49-11.177l-43.219-43.211h-30.544c-60.355,0-109.533,49.177-109.533,110.272v10.43
		h28.313v-1.49c3.729,13.408,16.396,23.844,31.299,23.844c14.899,0,26.818-9.687,31.294-23.097h63.328
		c3.728,13.41,16.395,23.097,31.294,23.097c14.903,0,27.571-9.687,31.293-23.844h26.081v-38
		C500.696,394.92,492.505,383.743,479.838,380.016z M317.407,448.567c-6.708,0-12.667-5.964-12.667-12.667
		c0-6.707,5.959-12.667,12.667-12.667c6.707,0,12.666,5.96,12.666,12.667C330.073,442.604,324.114,448.567,317.407,448.567z
		 M443.327,448.567c-6.707,0-12.666-5.964-12.666-12.667c0-6.707,5.959-12.667,12.666-12.667s12.667,5.96,12.667,12.667
		C455.994,442.604,450.034,448.567,443.327,448.567z M473.873,425.467c-4.471-12.667-16.39-21.607-30.546-21.607
		s-26.823,8.94-30.551,21.607H348.7c-4.471-12.667-16.39-22.349-31.294-22.349c-14.898,0-27.564,10.429-31.293,23.838v-1.489h-7.449
		c5.212-44.702,43.212-79.725,88.661-79.725h21.613l40.974,40.98l44.708,11.92c3.728,0.747,5.959,3.727,5.959,7.456v19.368H473.873z
		"/>
	<path fill="#00395D" d="M222.781,85.708l-39.489-11.176l-43.215-43.215h-30.548C49.175,31.316,0,80.494,0,141.589v10.433h28.313
		v-1.49c3.724,13.411,16.391,23.841,31.293,23.841s26.823-9.684,31.292-23.097h63.334c3.724,13.413,16.391,23.097,31.293,23.097
		s27.569-9.684,31.293-23.841h26.079v-38C242.898,99.865,234.701,88.688,222.781,85.708z M59.607,154.256
		c-6.705,0-12.667-5.962-12.667-12.667c0-6.707,5.962-12.667,12.667-12.667c6.708,0,12.667,5.96,12.667,12.667
		C72.273,148.294,66.314,154.256,59.607,154.256z M185.527,154.256c-6.707,0-12.667-5.962-12.667-12.667
		c0-6.707,5.96-12.667,12.667-12.667c6.705,0,12.667,5.96,12.667,12.667C198.194,148.294,192.231,154.256,185.527,154.256z
		 M216.076,130.413c-4.47-12.667-16.392-21.606-30.549-21.606s-26.824,8.939-31.293,22.352H90.155
		c-4.47-12.667-16.391-22.352-31.293-22.352c-14.901,0-27.568,10.429-31.293,23.841v-1.489h-7.452
		c5.218-44.706,43.215-79.723,88.667-79.723h21.606l40.98,40.979l44.705,11.92c3.725,0.744,5.959,3.727,5.959,7.452v18.626H216.076z
		"/>
</g>
</svg>
