<?xml version="1.0" encoding="utf-8"?>
<!-- Generator: Adobe Illustrator 15.0.2, SVG Export Plug-In . SVG Version: 6.00 Build 0)  -->
<!DOCTYPE svg PUBLIC "-//W3C//DTD SVG 1.1//EN" "http://www.w3.org/Graphics/SVG/1.1/DTD/svg11.dtd">
<svg version="1.1" id="Layer_1" xmlns="http://www.w3.org/2000/svg" xmlns:xlink="http://www.w3.org/1999/xlink" x="0px" y="0px"
	 width="500px" height="500px" viewBox="0 0 500 500" enable-background="new 0 0 500 500" xml:space="preserve">
<title>Page 1</title>
<desc>Created with Sketch.</desc>
<path fill="#00395D" d="M250,0C113.208,0,0,110.849,0,250c0,136.792,110.849,250,250,250c139.152,0,250-110.849,250-250
	C497.642,110.849,386.793,0,250,0z M250,58.962c40.095,0,80.188,14.151,110.849,35.377l-264.15,264.15
	c-23.585-30.66-35.377-68.396-35.377-110.848C58.962,143.868,143.868,58.962,250,58.962z M250,438.678
	c-42.453,0-80.188-14.149-110.849-35.376l264.15-264.151c23.586,30.661,35.377,68.396,35.377,110.849
	C438.679,353.774,353.774,438.678,250,438.678z"/>
</svg>
