<?xml version="1.0" encoding="utf-8"?>
<!-- Generator: Adobe Illustrator 15.0.2, SVG Export Plug-In . SVG Version: 6.00 Build 0)  -->
<!DOCTYPE svg PUBLIC "-//W3C//DTD SVG 1.1//EN" "http://www.w3.org/Graphics/SVG/1.1/DTD/svg11.dtd">
<svg version="1.1" id="Layer_1" xmlns="http://www.w3.org/2000/svg" xmlns:xlink="http://www.w3.org/1999/xlink" x="0px" y="0px"
	 width="500px" height="500px" viewBox="0 0 500 500" enable-background="new 0 0 500 500" xml:space="preserve">
<title>foutparkeerders</title>
<desc>Created with Sketch.</desc>
<g>
	<path fill="#00395D" d="M386.242,119.856l-7.637-11.031L142.713,342.172l11.031,7.636c29.699,20.365,63.64,30.549,96.733,30.549
		c43.274,0,85.701-16.123,117.945-48.368C426.124,275.137,433.761,185.193,386.242,119.856z M283.57,235.257
		c14.425-4.243,24.606-14.426,28.001-28.002l22.062-21.213c0.849,3.393,0.849,7.637,0.849,11.03
		c0,35.639-25.456,56.002-67.884,56.002h-0.848L283.57,235.257z M230.112,287.865v11.03h-11.031L230.112,287.865z M352.302,315.867
		c-46.67,45.821-117.098,54.307-173.102,22.911l16.971-16.972h56.852v-45.82h12.729c55.154,0,91.642-31.395,91.642-78.914
		c0-11.03-1.697-20.365-5.091-29.699l22.91-22.91C407.456,199.619,398.971,270.047,352.302,315.867z"/>
	<path fill="#00395D" d="M347.21,80.823c-66.187-47.517-156.979-39.88-214.679,17.819c-57.701,57.701-65.337,146.797-17.82,212.983
		l7.637,11.03L358.241,89.309L347.21,80.823z M254.72,158.889h-24.607v24.607l-22.062,21.213v-62.792h61.094
		c0.849,0,0.849,0,1.697,0L254.72,158.889z M292.055,122.402c-7.637-1.697-14.425-2.546-22.91-2.546H185.14v108.612l-59.397,58.548
		c-32.245-55.155-23.759-125.583,22.91-171.404s117.946-54.306,173.101-22.91L292.055,122.402z"/>
	<path fill="#00395D" d="M404.062,63.003c-84.854-84.005-223.165-84.005-308.018,0c-84.854,84.006-84.854,220.62,0,304.625
		c32.244,32.244,72.975,51.761,114.552,59.397V500h22.911v-70.43c5.091,0,10.182,0.85,16.122,0.85c5.091,0,10.183,0,16.122-0.85V500
		h22.911v-72.975c42.426-7.637,82.308-27.153,114.552-59.397C488.916,283.623,488.916,147.009,404.062,63.003z M387.939,351.505
		c-75.52,74.671-199.405,74.671-274.925,0c-75.52-75.519-75.52-196.859,0-272.378c38.184-37.336,87.399-56.004,137.462-56.004
		c50.063,0,99.278,18.667,137.463,56.004C463.459,154.646,463.459,276.834,387.939,351.505z"/>
</g>
</svg>
