<?xml version="1.0" encoding="utf-8"?>
<!-- Generator: Adobe Illustrator 15.0.2, SVG Export Plug-In . SVG Version: 6.00 Build 0)  -->
<!DOCTYPE svg PUBLIC "-//W3C//DTD SVG 1.1//EN" "http://www.w3.org/Graphics/SVG/1.1/DTD/svg11.dtd">
<svg version="1.1" id="Layer_1" xmlns="http://www.w3.org/2000/svg" xmlns:xlink="http://www.w3.org/1999/xlink" x="0px" y="0px"
	 width="500px" height="500px" viewBox="0 0 500 500" enable-background="new 0 0 500 500" xml:space="preserve">
<title>gezin</title>
<desc>Created with Sketch.</desc>
<g id="gezin" transform="translate(1126.000000, 3650.000000)">
	<g id="Clip-2">
	</g>
	<g id="Clip-5">
	</g>
</g>
<g>
	<path fill="#00395D" d="M273.264,176.934c17.693-11.796,30.144-31.455,30.144-54.392c0-35.386-28.833-64.22-64.875-64.22
		s-64.876,28.834-64.876,64.22c0,22.937,11.796,42.596,30.145,54.392c-29.488,13.106-49.804,41.939-50.459,76.016
		c-8.519-11.14-20.314-20.314-33.421-26.213c17.693-11.795,29.489-31.454,29.489-53.735c0-35.386-28.834-64.22-64.875-64.22
		c-36.042,0-64.876,28.834-64.876,64.22c0,22.937,12.451,43.251,30.144,54.392C20.314,241.154,0,270.643,0,304.718v136.96h325.033
		V254.915C324.378,220.184,303.407,190.04,273.264,176.934z M36.696,173.657c0-25.558,20.971-46.527,47.183-46.527
		c26.213,0,47.183,20.97,47.183,46.527c0,24.901-20.314,45.871-45.217,46.526c0,0,0,0-0.655,0s-1.311,0-1.966,0
		C57.012,219.528,36.696,198.559,36.696,173.657z M152.687,423.984H17.037V305.373c0-36.041,28.834-66.186,64.876-67.496
		c0.655,0,0.655,0,1.311,0s1.966,0,2.621,0c36.698,0.655,66.842,30.8,66.842,67.496V423.984z M191.35,122.542
		c0-25.557,20.97-46.526,47.183-46.526s47.182,20.97,47.182,46.526c0,25.558-20.969,46.528-47.182,46.528
		S191.35,148.755,191.35,122.542z M306.684,423.984H171.035V254.915c0-37.353,30.145-67.497,68.152-67.497
		c37.353,0,68.152,30.145,68.152,67.497v169.069H306.684z"/>
	<path fill="#00395D" d="M456.75,292.924c11.14-9.176,18.349-22.281,18.349-38.009c0-26.867-22.281-48.493-49.148-48.493
		s-49.148,21.626-49.148,48.493c0,15.072,7.209,28.833,18.35,38.009c-25.558,11.794-42.596,36.696-42.596,66.186v81.913H500v-81.913
		C499.345,329.62,482.307,304.718,456.75,292.924z M394.495,254.915c0-17.038,13.762-30.8,31.455-30.8
		c17.038,0,31.455,13.762,31.455,30.8s-13.762,30.8-31.455,30.8C408.912,286.37,394.495,271.953,394.495,254.915z M481.651,423.33
		H369.594v-64.221c0-30.8,24.901-55.701,55.701-55.701s55.702,24.901,55.702,55.701v64.221H481.651z"/>
</g>
</svg>
