<?xml version="1.0" encoding="utf-8"?>
<!-- Generator: Adobe Illustrator 15.0.2, SVG Export Plug-In . SVG Version: 6.00 Build 0)  -->
<!DOCTYPE svg PUBLIC "-//W3C//DTD SVG 1.1//EN" "http://www.w3.org/Graphics/SVG/1.1/DTD/svg11.dtd">
<svg version="1.1" id="Layer_1" xmlns="http://www.w3.org/2000/svg" xmlns:xlink="http://www.w3.org/1999/xlink" x="0px" y="0px"
	 width="500px" height="500px" viewBox="0 0 500 500" enable-background="new 0 0 500 500" xml:space="preserve">
<title>individu</title>
<desc>Created with Sketch.</desc>
<g id="Clip-2">
</g>
<path fill="#00395D" d="M305.932,233.898c39.831-20.339,66.949-61.864,66.949-110.169C372.881,55.086,317.797,0,250,0
	c-67.796,0-122.881,55.933-122.881,123.729c0,48.305,27.119,89.83,66.949,110.169C118.645,259.322,62.712,335.594,62.712,422.881
	V500h374.575v-77.119C437.289,336.44,381.355,260.17,305.932,233.898z M150,123.729c0-55.932,44.915-100.848,100-100.848
	c55.084,0,100,44.916,100,100.848c0,55.933-44.915,100.847-100,100.847C194.916,224.576,150,179.662,150,123.729z M414.407,477.118
	H85.593v-54.237c0-94.915,75.424-175.423,164.407-175.423c88.982,0,164.406,80.509,164.406,175.423L414.407,477.118L414.407,477.118
	z"/>
</svg>
