<?xml version="1.0" encoding="utf-8"?>
<!-- Generator: Adobe Illustrator 15.0.2, SVG Export Plug-In . SVG Version: 6.00 Build 0)  -->
<!DOCTYPE svg PUBLIC "-//W3C//DTD SVG 1.1//EN" "http://www.w3.org/Graphics/SVG/1.1/DTD/svg11.dtd">
<svg version="1.1" id="Layer_1" xmlns="http://www.w3.org/2000/svg" xmlns:xlink="http://www.w3.org/1999/xlink" x="0px" y="0px"
	 width="500px" height="500px" viewBox="0 0 500 500" enable-background="new 0 0 500 500" xml:space="preserve">
<title>Page 1</title>
<desc>Created with Sketch.</desc>
<g id="Page-1" transform="translate(1153.000000, 1731.000000)">
	<path id="Fill-1" fill="#00395D" d="M-876.078-1352.151c0,19.23-15.387,34.616-34.616,34.616
		c-19.231,0-34.618-15.386-34.618-34.616c0-19.231,15.386-34.616,34.618-34.616
		C-891.465-1386.768-876.078-1371.383-876.078-1352.151"/>
	<path fill="#00395D" d="M-904.924-1231c-46.155,0-88.461-11.539-126.923-34.616l-109.614,21.152l25-105.769
		c-25-40.383-36.539-84.613-36.539-130.768c0-138.459,111.539-250,250-250c138.459,0,249.998,111.541,249.998,250
		C-653.003-1344.462-766.465-1231-904.924-1231z M-1024.153-1311.769l7.693,3.846c32.691,21.154,71.152,32.691,111.539,32.691
		c113.462,0,207.691-92.307,207.691-207.691c0-113.461-92.307-207.693-207.691-207.693c-113.461,0-207.693,92.309-207.693,207.693
		c0,40.385,11.539,80.769,34.616,115.385l5.77,7.692l-13.459,57.691L-1024.153-1311.769z"/>
	<path fill="#00395D" d="M-889.54-1413.69h-42.307v-71.153h21.155c30.768,0,55.768-25,55.768-55.769c0-30.77-25-55.77-55.768-55.77
		c-19.232,0-36.54,9.616-46.155,25l-36.539-25c19.23-26.923,48.077-44.231,82.694-44.231c53.845,0,98.075,44.231,98.075,98.075
		c0,46.155-32.691,86.539-76.924,96.155V-1413.69z"/>
</g>
</svg>
