<?xml version="1.0" encoding="utf-8"?>
<!-- Generator: Adobe Illustrator 15.0.2, SVG Export Plug-In . SVG Version: 6.00 Build 0)  -->
<!DOCTYPE svg PUBLIC "-//W3C//DTD SVG 1.1//EN" "http://www.w3.org/Graphics/SVG/1.1/DTD/svg11.dtd">
<svg version="1.1" id="Layer_1" xmlns="http://www.w3.org/2000/svg" xmlns:xlink="http://www.w3.org/1999/xlink" x="0px" y="0px"
	 width="500px" height="500px" viewBox="0 0 500 500" enable-background="new 0 0 500 500" xml:space="preserve">
<title>Page 1</title>
<desc>Created with Sketch.</desc>
<g id="Clip-4">
</g>
<g>
	<path fill="#00395D" d="M206.521,321.904c-8.361,23.412,3.345,50.168,27.592,58.529c5.017,1.674,10.033,2.51,15.05,2.51
		c6.689,0,13.378-1.672,20.065-4.18c10.871-5.018,19.233-14.215,23.412-25.92c6.688-17.559,17.559-133.781,20.067-157.192
		l4.18-43.479l-24.247,35.954C278.429,208.194,213.21,304.346,206.521,321.904z M270.904,346.154
		c-1.675,5.852-6.691,10.033-11.707,12.543c-5.852,2.508-11.706,3.342-17.559,0.834c-11.706-4.18-18.395-18.393-14.214-30.1
		c3.344-9.197,31.772-51.84,58.529-91.138C280.937,285.953,274.247,336.955,270.904,346.154z"/>
	<path fill="#00395D" d="M249.164,33.444C112.04,33.444,0,145.484,0,282.609c0,66.889,25.919,129.598,73.578,176.422l8.362,7.525
		l40.97-40.971l-15.887-15.889L81.94,434.781c-35.954-39.297-56.021-88.627-58.529-141.303h35.117v-22.574H23.411
		c2.508-54.35,24.248-102.845,58.529-140.47l25.083,25.084l15.887-15.886l-25.083-25.083c37.625-34.281,86.12-55.185,140.468-58.528
		v35.117h22.576V56.02c54.348,2.509,102.843,24.247,140.469,58.528l-25.083,25.083l15.884,15.886l25.084-25.084
		c34.282,37.625,55.185,86.956,58.529,140.47h-35.117v22.574h35.954c-2.509,52.676-22.575,102.006-58.529,141.303l-25.084-25.084
		l-15.886,15.889l40.97,40.971l8.361-7.525C474.081,412.207,500,349.498,500,282.609C498.329,145.484,386.288,33.444,249.164,33.444
		z"/>
</g>
</svg>
