<?xml version="1.0" encoding="utf-8"?>
<!-- Generator: Adobe Illustrator 15.0.2, SVG Export Plug-In . SVG Version: 6.00 Build 0)  -->
<!DOCTYPE svg PUBLIC "-//W3C//DTD SVG 1.1//EN" "http://www.w3.org/Graphics/SVG/1.1/DTD/svg11.dtd">
<svg version="1.1" id="Layer_1" xmlns="http://www.w3.org/2000/svg" xmlns:xlink="http://www.w3.org/1999/xlink" x="0px" y="0px"
	 width="500px" height="500px" viewBox="0 0 500 500" enable-background="new 0 0 500 500" xml:space="preserve">
<title>koppel</title>
<desc>Created with Sketch.</desc>
<g id="Clip-2">
</g>
<path fill="#00395D" d="M404.722,176.645c27.825-16.864,46.374-46.375,46.374-80.944c0-52.277-42.158-94.436-94.435-94.436
	S262.226,43.423,262.226,95.7c0,34.569,18.55,64.923,46.374,80.944c-35.412,13.49-65.767,43.001-81.787,80.101
	c-10.961-8.432-22.766-16.021-36.256-21.079c27.825-16.864,46.374-46.374,46.374-80.944c0-52.277-42.159-94.435-94.435-94.435
	c-52.277,0-94.435,42.157-94.435,94.435c0,34.57,18.55,64.923,46.375,80.944C39.628,256.745,0,312.394,0,375.632v123.104h285.834
	v-59.866H500V315.767C499.156,253.372,458.684,198.566,404.722,176.645z M284.991,95.7c0-39.63,32.04-71.67,71.669-71.67
	s71.67,32.04,71.67,71.67c0,39.628-32.041,71.669-71.67,71.669S284.991,135.328,284.991,95.7z M69.983,155.564
	c0-39.629,32.04-71.669,71.669-71.669c39.629,0,71.67,32.04,71.67,71.669s-32.041,71.67-71.67,71.67
	C102.023,227.234,69.983,195.193,69.983,155.564z M262.226,477.656H21.922V377.318c0-67.454,55.649-126.476,119.73-126.476
	c64.081,0,119.731,59.021,119.731,126.476v100.338H262.226z M476.391,417.791H284.991v-40.473
	c0-39.629-15.177-75.885-40.472-102.867c17.707-49.746,63.238-83.474,112.142-83.474c64.081,0,119.729,59.022,119.729,126.476
	V417.791z"/>
</svg>
