<?xml version="1.0" encoding="utf-8"?>
<!-- Generator: Adobe Illustrator 15.0.2, SVG Export Plug-In . SVG Version: 6.00 Build 0)  -->
<!DOCTYPE svg PUBLIC "-//W3C//DTD SVG 1.1//EN" "http://www.w3.org/Graphics/SVG/1.1/DTD/svg11.dtd">
<svg version="1.1" id="Layer_1" xmlns="http://www.w3.org/2000/svg" xmlns:xlink="http://www.w3.org/1999/xlink" x="0px" y="0px"
	 width="500px" height="500px" viewBox="0 0 500 500" enable-background="new 0 0 500 500" xml:space="preserve">
<title>Page 1</title>
<desc>Created with Sketch.</desc>
<g>
	<rect x="2.825" y="161.017" fill="#00395D" width="104.52" height="333.333"/>
	<path fill="#00395D" d="M56.497,5.65C22.6,5.65,0,28.249,0,56.498c0,28.248,19.774,50.847,53.672,50.847
		c33.898,0,56.498-22.599,56.498-50.847C110.17,28.249,87.571,5.65,56.497,5.65z"/>
	<path fill="#00395D" d="M378.531,152.542c-56.497,0-90.395,31.074-104.52,53.674h-2.825v-45.199h-90.396V494.35h104.52V310.735
		c0-39.549,19.774-64.972,56.498-64.972c36.723,0,53.672,28.247,53.672,73.445V494.35H500V296.611
		C497.176,197.74,446.328,152.542,378.531,152.542z"/>
</g>
</svg>
