<?xml version="1.0" encoding="utf-8"?>
<!-- Generator: Adobe Illustrator 15.0.2, SVG Export Plug-In . SVG Version: 6.00 Build 0)  -->
<!DOCTYPE svg PUBLIC "-//W3C//DTD SVG 1.1//EN" "http://www.w3.org/Graphics/SVG/1.1/DTD/svg11.dtd">
<svg version="1.1" id="Layer_1" xmlns="http://www.w3.org/2000/svg" xmlns:xlink="http://www.w3.org/1999/xlink" x="0px" y="0px"
	 width="500px" height="500px" viewBox="0 0 500 500" enable-background="new 0 0 500 500" xml:space="preserve">
<title>LinkedIn</title>
<desc>Created with Sketch.</desc>
<g>
	<path fill="#00395D" d="M403.58-2.982H97.415C43.737-2.982,0,40.755,0,95.427v309.146c0,25.845,9.94,50.696,28.827,69.581
		c17.893,18.888,42.743,28.828,68.588,28.828h305.169c25.846,0,50.697-9.94,68.59-28.828C490.06,455.27,500,430.418,500,404.573
		V96.421C500,41.75,457.257-2.982,403.58-2.982z M474.156,403.58h-0.995c0,18.885-6.958,36.778-20.874,50.694
		c-12.922,13.918-30.815,20.876-49.703,20.876H97.415c-18.886,0-36.779-6.958-49.702-20.876
		c-12.922-13.916-20.875-30.814-20.875-50.694V94.433c0-38.768,31.809-70.576,70.576-70.576H403.58
		c38.768,0,70.576,31.809,70.576,71.57V403.58z"/>
	<rect x="116.302" y="199.801" fill="#00395D" width="56.66" height="183.896"/>
	<path fill="#00395D" d="M145.129,115.308c-17.893,0-29.821,12.923-29.821,28.828s11.929,28.827,29.821,28.827
		c18.887,0,30.815-12.922,30.815-28.827C173.956,127.237,163.022,115.308,145.129,115.308z"/>
	<path fill="#00395D" d="M321.074,195.825c-30.815,0-48.708,17.893-56.659,29.82h-0.996v-25.845h-49.701v183.896h56.659V282.307
		c0-21.87,10.936-35.785,30.816-35.785c20.875,0,28.827,15.904,28.827,39.761v96.422h56.659v-108.35
		C385.687,221.67,357.854,195.825,321.074,195.825z"/>
</g>
</svg>
