<?xml version="1.0" encoding="utf-8"?>
<!-- Generator: Adobe Illustrator 15.0.2, SVG Export Plug-In . SVG Version: 6.00 Build 0)  -->
<!DOCTYPE svg PUBLIC "-//W3C//DTD SVG 1.1//EN" "http://www.w3.org/Graphics/SVG/1.1/DTD/svg11.dtd">
<svg version="1.1" id="Layer_1" xmlns="http://www.w3.org/2000/svg" xmlns:xlink="http://www.w3.org/1999/xlink" x="0px" y="0px"
	 width="500px" height="500px" viewBox="0 0 500 500" enable-background="new 0 0 500 500" xml:space="preserve">
<title>locatie-vlootbeheer</title>
<desc>Created with Sketch.</desc>
<g>
	<path fill="#00395D" d="M463.233,324.346l-87.418-23.691l-90.685-90.687h-60.458C101.307,209.967,0,309.639,0,432.188v11.439
		h40.033c4.901,26.963,29.41,48.201,58.008,48.201c29.411,0,53.103-21.238,58.823-48.201l171.566-0.816
		c4.902,27.779,29.414,49.836,58.824,49.836c29.413,0,53.922-22.057,58.823-49.836H500v-70.262
		C499.181,349.672,484.476,330.066,463.233,324.346z M197.712,234.476c8.988-0.813,17.973-1.632,26.96-1.632h50.656l67.809,66.992
		H197.712V234.476z M175.652,238.564v61.272H73.529C100.491,269.607,135.621,248.369,175.652,238.564z M98.041,469.77
		c-20.426,0-37.582-16.336-37.582-36.762s16.34-36.764,37.582-36.764c20.423,0,37.581,16.338,37.581,36.764
		S118.463,469.77,98.041,469.77z M387.254,469.77c-20.423,0-37.582-16.336-37.582-36.762s16.34-36.764,37.582-36.764
		c20.426,0,37.582,16.338,37.582,36.764C424.02,453.434,407.68,469.77,387.254,469.77z M477.123,419.934h-32.681
		c-5.718-26.145-29.41-45.752-58.005-45.752c-28.594,0-52.286,19.607-58.008,46.572l-172.385,0.812
		c-5.718-26.959-29.41-47.385-58.005-47.385c-28.598,0-53.106,20.426-58.008,48.203H22.876
		c1.632-36.764,14.706-71.074,34.312-100.49h312.093l89.051,23.695c12.257,3.264,20.423,13.887,20.423,26.141v48.203H477.123z"/>
	<path fill="#00395D" d="M374.184,258.984l73.529-112.741c0.816-0.818,15.521-26.146,15.521-49.841
		c0-49.018-40.032-89.05-89.868-89.05c-49.018,0-89.869,40.032-89.869,89.05c0,26.146,15.523,49.841,16.34,51.474L374.184,258.984z
		 M374.184,29.411c36.763,0,66.992,30.229,66.992,66.992c0,17.975-12.254,38.401-12.254,38.401l-54.738,84.147l-54.74-82.517
		c0,0-13.07-19.606-13.07-39.214C306.373,59.64,336.602,29.411,374.184,29.411z"/>
	<path fill="#00395D" d="M374.184,139.705c24.509,0,44.935-20.425,44.935-44.934s-20.426-44.935-44.935-44.935
		c-24.512,0-44.935,20.426-44.935,44.935C329.249,120.098,348.855,139.705,374.184,139.705z M374.184,72.712
		c12.254,0,22.874,9.804,22.874,22.877s-10.62,22.877-22.874,22.877c-12.258,0-22.877-9.804-22.877-22.877
		S361.11,72.712,374.184,72.712z"/>
</g>
</svg>
