<?xml version="1.0" encoding="utf-8"?>
<!-- Generator: Adobe Illustrator 15.0.2, SVG Export Plug-In . SVG Version: 6.00 Build 0)  -->
<!DOCTYPE svg PUBLIC "-//W3C//DTD SVG 1.1//EN" "http://www.w3.org/Graphics/SVG/1.1/DTD/svg11.dtd">
<svg version="1.1" id="Layer_1" xmlns="http://www.w3.org/2000/svg" xmlns:xlink="http://www.w3.org/1999/xlink" x="0px" y="0px"
	 width="500px" height="500px" viewBox="0 0 500 500" enable-background="new 0 0 500 500" xml:space="preserve">
<title>Page 1</title>
<desc>Created with Sketch.</desc>
<g>
	<path fill="#00395D" d="M249.999,0C151.605,0,71.284,80.321,71.284,176.707c0,52.209,30.12,100.402,32.129,102.41L247.989,500
		l150.605-224.898c0-2.008,30.121-50.2,30.121-98.395C428.716,78.313,348.395,0,249.999,0z M356.427,251.006L247.993,415.664
		l-106.428-162.65c-2.01,0-26.106-38.152-26.106-76.307c0-72.287,60.241-130.522,132.53-130.522s132.529,58.233,132.531,130.526
		C380.521,210.846,356.427,251.006,356.427,251.006z"/>
	<path fill="#00395D" d="M247.989,86.344c-50.201,0-90.361,40.16-90.361,88.355c0,48.192,40.16,88.354,90.361,88.354
		c48.193,0,90.361-40.161,90.361-88.354C338.351,126.504,298.19,86.344,247.989,86.344z M247.989,218.873
		c-24.095,0-44.175-20.08-44.175-44.174c0-24.097,20.08-44.177,44.175-44.177c24.096,0,44.176,20.08,44.176,44.177
		C292.165,198.793,272.085,218.873,247.989,218.873z"/>
</g>
</svg>
