<?xml version="1.0" encoding="utf-8"?>
<!-- Generator: Adobe Illustrator 15.0.2, SVG Export Plug-In . SVG Version: 6.00 Build 0)  -->
<!DOCTYPE svg PUBLIC "-//W3C//DTD SVG 1.1//EN" "http://www.w3.org/Graphics/SVG/1.1/DTD/svg11.dtd">
<svg version="1.1" id="Layer_1" xmlns="http://www.w3.org/2000/svg" xmlns:xlink="http://www.w3.org/1999/xlink" x="0px" y="0px"
	 width="500px" height="500px" viewBox="70 45 500 500" enable-background="new 70 45 500 500" xml:space="preserve">
<g id="icons">
	<g id="VAB-magazine">
		<path id="Fill-1" d="M91.092,121.308v370.503c32.155-10.57,110.842-35.097,148.492-35.097c31.686,0,55.028,12.89,69.875,24.843
			V154.939c0-38.529-31.346-69.863-69.875-69.863C202.543,85.076,116.38,112.871,91.092,121.308L91.092,121.308z M400.415,456.715
			c37.65,0,116.338,24.526,148.492,35.097V121.308c-25.288-8.437-111.451-36.232-148.492-36.232
			c-38.529,0-69.863,31.334-69.863,69.863v326.549C345.352,469.559,368.647,456.715,400.415,456.715L400.415,456.715z
			 M319.994,526.017l-8.694-12.633c-0.997-1.417-25.3-35.576-71.715-35.576c-43.439,0-154.468,38.249-155.593,38.635L70,521.282
			V106.227l7.101-2.46c4.688-1.605,115.505-39.783,162.483-39.783c34.826,0,65.129,19.675,80.421,48.478
			c15.281-28.803,45.583-48.478,80.41-48.478c46.978,0,157.796,38.178,162.483,39.783l7.102,2.46v415.055l-13.992-4.84
			c-1.113-0.386-112.154-38.635-155.593-38.635c-46.638,0-70.707,34.124-71.715,35.576L319.994,526.017z"/>
		<path id="Fill-4" d="M145.873,212.035v70.917l102.768-17.448V194.61L145.873,212.035z M124.781,307.912V194.223l144.953-24.584
			v113.688L124.781,307.912z"/>
		<polygon id="Fill-6" points="270.345,326.871 124.889,353.683 124.889,375.127 270.345,348.327 		"/>
		<polygon id="Fill-8" points="513.389,286.64 367.933,259.817 367.933,281.273 513.389,308.096 		"/>
		<polygon id="Fill-10" points="513.389,353.636 367.933,326.813 367.933,348.27 513.389,375.092 		"/>
		<polygon id="Fill-12" points="367.938,214.268 513.396,241.091 513.396,219.635 367.938,192.812 		"/>
	</g>
</g>
</svg>
