<?xml version="1.0" encoding="utf-8"?>
<!-- Generator: Adobe Illustrator 15.0.2, SVG Export Plug-In . SVG Version: 6.00 Build 0)  -->
<!DOCTYPE svg PUBLIC "-//W3C//DTD SVG 1.1//EN" "http://www.w3.org/Graphics/SVG/1.1/DTD/svg11.dtd">
<svg version="1.1" id="Layer_1" xmlns="http://www.w3.org/2000/svg" xmlns:xlink="http://www.w3.org/1999/xlink" x="0px" y="0px"
	 width="500px" height="500px" viewBox="0 0 500 500" enable-background="new 0 0 500 500" xml:space="preserve">
<title>media</title>
<desc>Created with Sketch.</desc>
<g id="Clip-2">
</g>
<path fill="#00395D" d="M83.476,0.426v162.691H0v301.535l196.764,34.922V196.337l-54.515-9.369h67.291v262.351h22.998v-88.585
	h161.841v-22.999c-29.812,0-54.515-21.295-60.477-49.404H500v-50.254v-23.001V0.426H83.476z M173.765,215.076v256.389
	L22.998,445.061v-256.39L173.765,215.076z M477.002,264.481h-166.95v11.924c0,23.851,10.222,45.146,26.405,60.479h-89.438
	c17.036-15.332,26.406-37.48,26.406-60.479v-11.924h-40.887v-27.257h244.464V264.481z M232.538,318.995v-31.516h17.036
	C247.019,299.403,241.056,310.478,232.538,318.995z M477.002,214.226H232.538v-51.108H106.474V23.424h370.528V214.226z"/>
</svg>
