<?xml version="1.0" encoding="utf-8"?>
<!-- Generator: Adobe Illustrator 15.0.2, SVG Export Plug-In . SVG Version: 6.00 Build 0)  -->
<!DOCTYPE svg PUBLIC "-//W3C//DTD SVG 1.1//EN" "http://www.w3.org/Graphics/SVG/1.1/DTD/svg11.dtd">
<svg version="1.1" id="Layer_1" xmlns="http://www.w3.org/2000/svg" xmlns:xlink="http://www.w3.org/1999/xlink" x="0px" y="0px"
	 width="500px" height="500px" viewBox="0 0 500 500" enable-background="new 0 0 500 500" xml:space="preserve">
<title>mobile-app</title>
<desc>Created with Sketch.</desc>
<g id="Clip-8">
</g>
<g>
	<path fill="#00395D" d="M211.604,19.624c-17.065-17.064-45.222-17.064-63.14,0L17.917,149.317
		C9.385,157.85,5.12,168.941,5.12,180.887c0,11.945,4.266,23.037,12.798,31.57l271.33,268.774
		c8.534,8.531,20.479,12.797,31.572,12.797c11.092,0,23.037-4.266,31.571-12.797l130.544-129.695
		c17.065-17.064,17.065-45.223,0-62.289L211.604,19.624z M34.13,195.392c-4.267-4.266-5.973-9.385-5.973-14.505
		c0-5.973,2.561-11.092,5.973-14.504L164.677,36.688c4.265-4.265,9.385-5.971,15.356-5.971c5.12,0,11.093,1.707,15.359,5.971
		l8.532,8.533L43.515,204.777L34.13,195.392z M59.728,220.136L220.137,60.579l186.859,185.155L246.587,405.289L59.728,220.136z
		 M466.724,334.471L336.178,464.164c-8.532,8.531-21.331,8.531-29.865,0l-42.661-41.809l160.409-159.559l42.663,41.811
		C474.403,313.139,474.403,325.939,466.724,334.471z"/>
	<path fill="#00395D" d="M348.977,349.828c-11.946,11.945-11.946,31.57,0,43.518c5.973,5.971,13.652,9.385,22.184,9.385
		c8.534,0,16.211-3.414,22.187-9.385c5.971-5.975,9.385-13.652,9.385-22.186c0-8.531-3.414-16.211-9.385-22.184
		C381.398,337.883,360.922,337.883,348.977,349.828z M376.281,377.133c-3.414,3.41-7.68,3.41-11.094,0
		c-3.412-3.414-3.412-7.68,0-11.092c2.56-2.561,8.531-2.561,11.094,0c1.705,1.705,2.56,3.412,2.56,5.119
		S377.986,375.426,376.281,377.133z"/>
	<path fill="#00395D" d="M372.867,87.029c22.185,0,40.957,17.919,40.957,40.104h23.037c0-34.984-29.013-63.141-63.994-63.141V87.029
		z"/>
	<path fill="#00395D" d="M476.963,127.133H500C500,58.021,442.833,1.706,372.867,1.706v23.037
		C430.035,24.743,476.963,70.818,476.963,127.133z"/>
	<path fill="#00395D" d="M86.177,372.867H63.14c0,34.98,29.009,63.139,63.994,63.139v-23.037
		C104.095,412.969,86.177,395.051,86.177,372.867z"/>
	<path fill="#00395D" d="M23.037,372.867H0c0,69.111,57.167,125.428,127.133,125.428v-23.041
		C69.966,475.254,23.037,429.18,23.037,372.867z"/>
</g>
</svg>
