<?xml version="1.0" encoding="utf-8"?>
<!-- Generator: Adobe Illustrator 15.0.2, SVG Export Plug-In . SVG Version: 6.00 Build 0)  -->
<!DOCTYPE svg PUBLIC "-//W3C//DTD SVG 1.1//EN" "http://www.w3.org/Graphics/SVG/1.1/DTD/svg11.dtd">
<svg version="1.1" id="Layer_1" xmlns="http://www.w3.org/2000/svg" xmlns:xlink="http://www.w3.org/1999/xlink" x="0px" y="0px"
	 width="500px" height="500px" viewBox="0 0 500 500" enable-background="new 0 0 500 500" xml:space="preserve">
<title>Page 1</title>
<desc>Created with Sketch.</desc>
<g id="Clip-2">
</g>
<g>
	<path fill="#00395D" d="M500,194.66c0-22.447-14.706-41.796-35.604-47.214l-88.235-23.993L284.83,31.347h-60.371
		C100.619,31.347,0,132.74,0,257.354v10.062h39.474c4.645,27.863,28.638,48.761,58.05,48.761s53.405-21.671,58.05-49.535
		l26.315-0.774c-11.61,31.734-13.158,66.564-2.322,99.071c12.385,37.927,38.7,68.886,73.53,87.462
		c20.896,10.835,44.118,16.253,67.337,16.253c15.48,0,30.96-2.32,46.44-7.739c37.925-12.385,68.885-38.7,86.687-74.304
		s20.897-76.625,9.289-114.551c-0.774-2.322-1.549-4.645-3.098-7.74H500V194.66L500,194.66z M196.595,53.019
		c9.288-1.549,18.576-2.322,27.864-2.322h51.857l70.434,70.433H196.595V53.019L196.595,53.019z M176.471,56.889v65.015H70.434
		C97.523,90.17,134.675,66.95,176.471,56.889z M97.523,296.054c-20.898,0-38.7-17.803-38.7-38.7c0-21.672,17.028-38.7,38.7-38.7
		c20.897,0,38.7,17.802,38.7,38.7C136.224,278.251,118.421,296.054,97.523,296.054z M435.759,378.097
		c-15.48,30.96-41.796,53.406-75.077,64.241c-32.508,10.837-67.338,7.74-98.297-7.74c-30.96-15.479-53.406-42.569-64.242-75.077
		c-10.836-33.282-7.739-68.111,7.74-99.07c15.479-30.96,41.796-53.406,75.077-64.242c13.157-4.644,26.316-6.191,40.248-6.191
		c20.124,0,40.247,4.644,58.049,13.931c30.96,15.48,53.406,42.57,64.243,75.078C454.335,311.533,451.238,347.137,435.759,378.097z
		 M479.876,244.97h-29.411c-13.932-25.542-35.604-46.44-61.92-59.598c-35.604-17.803-75.852-21.672-113.777-9.289
		c-35.604,11.61-65.015,36.378-83.591,68.886l-36.378,0.774c-5.418-27.865-28.638-48.762-58.05-48.762
		c-28.638,0-52.631,20.897-58.05,48.762H19.35c1.548-38.7,14.706-74.304,34.83-104.49h314.241l89.01,24.768
		c12.384,3.096,20.898,14.706,20.898,27.864v51.084H479.876z"/>
	<path fill="#00395D" d="M291.022,224.846c-24.769,8.513-44.893,25.542-57.276,48.761c-11.609,23.22-13.932,50.31-6.191,75.077
		c7.74,24.769,25.542,45.666,48.762,57.276c13.932,6.966,29.411,10.835,44.117,10.835c10.062,0,20.124-1.547,30.186-4.644
		c51.084-17.027,79.722-72.756,62.694-124.613C397.06,236.456,342.106,208.592,291.022,224.846z M321.208,240.326
		c5.418,0,11.609,0.773,17.027,2.322l-8.515,20.124c-2.32,5.418-6.965,5.418-8.513,5.418c-1.549,0-6.192-0.773-8.515-5.418
		l-8.514-20.124C309.598,241.1,315.016,240.326,321.208,240.326z M251.549,283.669c0.774-1.548,1.548-3.095,2.32-4.644
		l16.255,13.932c4.644,3.87,3.096,8.514,3.096,10.062c-0.774,1.549-2.321,6.192-7.739,6.192l-21.672,2.322
		C244.583,302.245,247.679,292.184,251.549,283.669z M294.892,369.583l-4.644,20.897c-1.549-0.773-3.096-1.548-4.645-2.321
		c-8.513-4.644-16.254-10.835-23.22-17.802l18.576-10.837c4.644-3.095,9.288,0,10.062,0.774
		C292.57,361.069,296.44,364.165,294.892,369.583z M351.394,391.255l-4.644-20.897c-1.549-5.419,2.32-8.515,3.869-10.062
		c1.549-0.774,5.418-3.096,10.062-0.774l18.575,10.837C371.518,378.87,362.229,385.837,351.394,391.255z M390.867,354.103
		l-19.35-11.609c-10.062-6.191-22.447-5.418-32.509,1.548c-10.062,6.967-13.932,18.576-11.608,30.96l4.644,21.673
		c-7.741,0.772-15.479,0.772-22.446,0l4.644-21.673c2.323-11.609-1.547-23.22-11.608-30.96c-10.062-6.966-22.447-7.739-32.509-1.548
		l-19.35,11.609c-1.548-3.095-3.096-6.966-4.645-10.835c-1.547-3.871-2.321-6.966-2.321-10.836l22.445-2.322
		c11.61-0.774,21.672-9.288,25.542-20.124c3.87-11.609,0.774-23.22-8.514-31.733l-17.028-14.707
		c5.419-5.417,11.61-10.062,18.576-13.157l9.287,20.898c4.644,10.835,14.706,17.801,27.091,17.801
		c11.609,0,22.445-6.966,27.09-17.801l9.288-20.898c6.965,3.87,13.157,7.74,18.575,13.157l-17.028,14.707
		c-9.288,7.74-12.383,20.124-8.514,31.733c3.87,11.61,13.157,19.35,25.542,20.124l22.446,2.322
		C396.285,339.396,393.963,347.137,390.867,354.103z M376.936,309.985c-5.418-0.774-7.741-5.418-7.741-6.192
		c-0.773-1.548-1.546-6.191,3.098-10.062l16.253-13.932c3.097,4.644,5.418,10.062,6.966,15.479
		c1.549,5.419,3.097,11.61,3.097,17.028L376.936,309.985z"/>
	<path fill="#00395D" d="M315.016,300.698c-10.062,3.095-15.48,13.931-12.384,23.993c3.096,10.062,13.933,15.479,23.22,12.384
		c10.062-3.096,15.48-13.932,12.384-23.993C335.914,303.02,325.077,297.602,315.016,300.698z"/>
</g>
</svg>
