<?xml version="1.0" encoding="utf-8"?>
<!-- Generator: Adobe Illustrator 15.0.2, SVG Export Plug-In . SVG Version: 6.00 Build 0)  -->
<!DOCTYPE svg PUBLIC "-//W3C//DTD SVG 1.1//EN" "http://www.w3.org/Graphics/SVG/1.1/DTD/svg11.dtd">
<svg version="1.1" id="Layer_1" xmlns="http://www.w3.org/2000/svg" xmlns:xlink="http://www.w3.org/1999/xlink" x="0px" y="0px"
	 width="500px" height="500px" viewBox="0 0 500 500" enable-background="new 0 0 500 500" xml:space="preserve">
<g>
	<path d="M447.785,204.589l-37.025-40.823h22.31c15.349,0,28.798-8.781,35.047-22.942c6.251-14.162,3.798-30.063-6.407-41.614
		l-36.867-41.535H0v278.481c0,28.64,22.389,51.82,50.396,53.323c4.984,29.904,30.775,52.848,61.788,52.848
		c31.012,0,56.725-22.784,61.787-52.532h99.605h10.601H325c5.062,29.826,30.775,52.532,61.788,52.532
		c31.012,0,56.725-22.784,61.787-52.532H500v-49.841C500,289.716,481.486,241.614,447.785,204.589z M432.199,219.066
		c2.136,2.373,4.113,4.905,6.092,7.357H338.37v-62.5h43.75L432.199,219.066z M112.263,420.966
		c-22.864,0-41.535-18.749-41.535-41.852c0-23.102,18.671-41.851,41.535-41.851s41.535,18.749,41.535,41.851
		C153.798,402.217,135.127,420.966,112.263,420.966z M284.177,142.643h-10.601v225.871H174.05
		c-5.062-29.748-30.774-52.532-61.787-52.532c-30.854,0-56.566,22.627-61.709,52.295c-16.377-1.424-29.352-15.111-29.352-31.963
		V79.035h394.146l30.538,34.493c4.668,5.222,5.696,12.184,2.849,18.671c-2.849,6.408-8.703,10.285-15.744,10.285L284.177,142.643z
		 M386.788,420.966c-22.864,0-41.535-18.749-41.535-41.852c0-23.102,18.671-41.851,41.535-41.851
		c22.863,0,41.535,18.749,41.535,41.851C428.323,402.217,409.731,420.966,386.788,420.966z M478.797,368.435h-30.222
		c-5.062-29.747-30.775-52.532-61.787-52.532c-31.013,0-56.726,22.785-61.788,52.532h-30.222V164.003h22.39v83.861h136.233
		c16.456,27.61,25.396,59.336,25.396,92.089V368.435L478.797,368.435z"/>
	<path d="M79.351,247.785h138.607V142.168H79.351V247.785z M100.554,163.528h96.202v62.896h-96.202V163.528z"/>
</g>
</svg>
