<?xml version="1.0" encoding="utf-8"?>
<!-- Generator: Adobe Illustrator 15.0.2, SVG Export Plug-In . SVG Version: 6.00 Build 0)  -->
<!DOCTYPE svg PUBLIC "-//W3C//DTD SVG 1.1//EN" "http://www.w3.org/Graphics/SVG/1.1/DTD/svg11.dtd">
<svg version="1.1" id="Layer_1" xmlns="http://www.w3.org/2000/svg" xmlns:xlink="http://www.w3.org/1999/xlink" x="0px" y="0px"
	 width="500px" height="500px" viewBox="0 0 500 500" enable-background="new 0 0 500 500" xml:space="preserve">
<g>
	<path d="M407.909,253.44c-8.616,0-16.977,1.223-24.888,3.473l-21.928-59.808c0.963,0.065,1.929,0.13,2.958,0.13h27.266v-61.544
		h-27.266c-8.746,0-16.721,3.794-22.252,9.839c-9.195-18.327-28.037-30.226-48.617-30.226h-55.369v17.492h55.369
		c15.435,0,29.454,9.904,34.792,24.566l3.022,8.167l-88.683,27.589c-21.993,6.816-44.694,9.968-67.652,9.646V59.614H49.324v132.99
		l-38.07-3.344v81.736h27.268C15.241,287.975,0,315.691,0,346.945c0,51.511,41.351,93.44,92.09,93.44
		c47.91,0,87.331-37.234,91.703-84.694h18.908c14.855,0,29.324-4.309,41.864-12.412l69.84-45.209l-15.756-35.948
		c17.557-9.26,31.447-25.209,37.942-45.209l6.238-19.1l23.986,65.467c-30.225,15.369-51.061,47.074-51.061,83.665
		c0,51.511,41.35,93.44,92.09,93.44c50.804,0,92.154-41.93,92.154-93.439C500,295.435,458.714,253.44,407.909,253.44z
		 M66.688,77.106h90.611v134.662H66.688V77.106z M92.154,422.829c-41.222,0-74.727-34.083-74.727-75.948
		c0-41.864,33.568-75.948,74.727-75.948c29.132,0,55.434,17.234,67.652,43.602l-30.869,14.79
		c-6.494-14.018-20.577-23.665-36.848-23.665c-19.485,0-35.82,13.955-39.743,32.477h-16.27v17.49h16.335
		c3.986,18.585,20.321,32.478,39.742,32.478c19.485,0,35.819-13.956,39.742-32.478h34.471
		C162.187,393.377,130.481,422.829,92.154,422.829z M145.852,270.933h104.952l-75.241,36.077
		C168.746,292.412,158.392,280.064,145.852,270.933z M113.89,355.626c-3.408,8.747-11.832,14.984-21.671,14.984
		c-9.84,0-18.264-6.237-21.672-14.984H113.89z M70.482,338.136c3.408-8.812,11.833-14.984,21.672-14.984
		c9.325,0,17.428,5.594,21.157,13.697l-2.7,1.287H70.482z M235.241,328.489c-9.711,6.302-20.9,9.646-32.477,9.646h-51.704
		l133.892-64.181l7.652,17.428L235.241,328.489z M320.129,211.383c-8.232,25.145-31.254,42.058-57.3,42.058H28.681v-45.081
		l20.708,1.802v19.1h125.338v-8.939c24.694,0.321,49.132-3.022,72.798-10.418l81.414-25.338L320.129,211.383z M351.062,166.432
		c0-7.268,5.852-13.249,12.99-13.249h9.903v26.496h-9.903C356.913,179.679,351.062,173.763,351.062,166.432z M407.909,422.829
		c-41.221,0-74.727-34.083-74.727-75.948c0-29.066,16.142-54.341,39.744-67.138l12.089,33.056
		c-10.74,7.459-17.812,19.934-17.812,34.082c0,22.766,18.263,41.223,40.706,41.223c22.444,0,40.708-18.521,40.708-41.223
		c0-22.7-18.264-41.222-40.708-41.222c-2.314,0-4.565,0.192-6.816,0.578l-12.089-32.86c6.044-1.608,12.347-2.444,18.842-2.444
		c41.223,0,74.79,34.084,74.79,75.948C482.636,388.746,449.132,422.829,407.909,422.829z M391.384,330.16l14.854,40.387
		c-12.091-0.9-21.608-11.189-21.608-23.666C384.63,340.387,387.202,334.469,391.384,330.16z M407.331,323.151
		c12.99-0.386,23.923,10.418,23.923,23.729c0,7.396-3.279,13.955-8.489,18.327L407.331,323.151z"/>
	<polygon points="108.36,99.679 90.997,99.679 90.997,188.682 139.355,188.682 139.355,171.189 108.36,171.189 	"/>
</g>
</svg>
