<?xml version="1.0" encoding="utf-8"?>
<!-- Generator: Adobe Illustrator 15.0.2, SVG Export Plug-In . SVG Version: 6.00 Build 0)  -->
<!DOCTYPE svg PUBLIC "-//W3C//DTD SVG 1.1//EN" "http://www.w3.org/Graphics/SVG/1.1/DTD/svg11.dtd">
<svg version="1.1" id="Layer_1" xmlns="http://www.w3.org/2000/svg" xmlns:xlink="http://www.w3.org/1999/xlink" x="0px" y="0px"
	 width="500px" height="500px" viewBox="130 -5 500 500" enable-background="new 130 -5 500 500" xml:space="preserve">
<g id="icons">
	<g id="motorbijstand">
		<path id="Fill-1" d="M552.617,331.016l-15.129-40.859c0.089,0,0.168-0.021,0.257-0.021c12.741,0,23.104,10.427,23.104,23.236
			C560.849,320.461,557.611,326.746,552.617,331.016L552.617,331.016z M521.165,297.266l14.488,39.143
			c-11.745-1.083-21.011-10.942-21.011-23.037C514.643,307.105,517.148,301.445,521.165,297.266L521.165,297.266z M537.745,388.311
			c-41.064,0-74.481-33.611-74.481-74.939c0-28.567,15.979-53.441,39.407-66.072l11.941,32.242
			c-10.698,7.427-17.734,19.8-17.734,33.83c0,22.68,18.336,41.119,40.867,41.119c22.54,0,40.867-18.439,40.867-41.119
			c0-22.669-18.327-41.109-40.867-41.109c-2.27,0-4.451,0.309-6.622,0.665l-11.862-32.062c5.921-1.529,12.089-2.434,18.484-2.434
			c41.074,0,74.491,33.623,74.491,74.94C612.236,354.699,578.819,388.311,537.745,388.311L537.745,388.311z M493.888,121.856h9.691
			v25.708h-9.691c-7.047,0-12.771-5.779-12.771-12.859C481.117,127.615,486.841,121.856,493.888,121.856L493.888,121.856z
			 M449.823,179.111c-8.152,24.795-31.067,41.446-57.033,41.446H159.005V176.46l127.645,11.221
			c30.723,2.69,61.306-0.547,90.824-9.662l80.925-24.973L449.823,179.111z M365.108,294.951c-9.672,6.196-20.844,9.483-32.331,9.483
			h-50.529l132.5-62.955l7.441,16.821L365.108,294.951z M243.572,322.308c-3.483,8.401-11.724,14.31-21.317,14.31
			s-17.833-5.908-21.317-14.31H243.572z M240.641,304.435h-39.703c3.494-8.392,11.724-14.3,21.317-14.3
			c9.139,0,16.994,5.413,20.735,13.188L240.641,304.435z M305.559,273.593c-6.691-14.18-16.718-26.175-28.956-35.162h102.953
			L305.559,273.593z M222.255,388.311c-41.064,0-74.491-33.611-74.491-74.939c0-41.317,33.426-74.94,74.491-74.94
			c28.945,0,54.891,17.001,67.119,42.857l-30.367,14.428c-6.592-13.822-20.518-23.454-36.752-23.454
			c-19.471,0-35.755,13.793-39.831,32.173H166.17v17.873h16.254c4.076,18.38,20.36,32.183,39.831,32.183
			c19.481,0,35.755-13.803,39.831-32.183h34.078C291.752,359.425,260.319,388.311,222.255,388.311L222.255,388.311z
			 M537.745,220.558c-8.566,0-16.836,1.271-24.712,3.485l-21.791-58.873c0.889,0.069,1.737,0.268,2.646,0.268h27.456v-61.455
			h-27.456c-8.764,0-16.64,3.794-22.215,9.781c-9.267-18.111-27.989-29.948-48.536-29.948h-55.305v17.874h55.305
			c15.347,0,29.242,9.721,34.601,24.179l2.892,7.805l-88.366,27.257c-27.307,8.431-55.562,11.459-84.063,8.946l-146.958-12.898
			v81.453h26.824C145.05,255.322,130,282.579,130,313.371c0,51.178,41.39,92.813,92.255,92.813
			c47.864,0,87.311-36.879,91.801-83.877h18.722c14.872,0,29.36-4.25,41.884-12.293l69.98-44.933l-15.771-35.607
			c17.487-9.205,31.314-24.953,37.817-44.743l6.03-18.36l23.735,64.126c-30.16,15.272-50.954,46.641-50.954,82.874
			c0,51.178,41.381,92.813,92.245,92.813c50.874,0,92.255-41.636,92.255-92.813S588.619,220.558,537.745,220.558L537.745,220.558z"
			/>
	</g>
</g>
</svg>
