<?xml version="1.0" encoding="utf-8"?>
<!-- Generator: Adobe Illustrator 15.0.2, SVG Export Plug-In . SVG Version: 6.00 Build 0)  -->
<!DOCTYPE svg PUBLIC "-//W3C//DTD SVG 1.1//EN" "http://www.w3.org/Graphics/SVG/1.1/DTD/svg11.dtd">
<svg version="1.1" id="Layer_1" xmlns="http://www.w3.org/2000/svg" xmlns:xlink="http://www.w3.org/1999/xlink" x="0px" y="0px"
	 width="500px" height="500px" viewBox="0 0 500 500" enable-background="new 0 0 500 500" xml:space="preserve">
<title>Page 1</title>
<desc>Created with Sketch.</desc>
<g>
	<polygon fill="#00395D" points="225.914,294.232 172.067,228.847 139.375,257.693 225.914,363.462 364.376,186.539 329.76,159.616 
			"/>
	<path fill="#00395D" d="M250.914,0c-138.462,0-250,111.54-250,250c0,46.155,13.461,92.309,36.539,130.77l-25,105.77l109.615-21.153
		C160.529,488.463,204.76,500,248.991,500c138.461,0,250-111.537,250-250C502.838,113.462,389.375,0,250.914,0z M250.914,457.692
		c-40.385,0-78.847-11.538-111.539-32.692l-7.692-3.846l-61.539,11.538l13.461-57.691l-5.77-7.693
		c-23.077-34.615-34.615-74.999-34.615-115.385c0-113.461,92.308-207.693,207.693-207.693c113.462,0,207.692,92.309,207.692,207.693
		C458.606,365.385,366.299,457.692,250.914,457.692z"/>
</g>
</svg>
