<?xml version="1.0" encoding="utf-8"?>
<!-- Generator: Adobe Illustrator 15.0.2, SVG Export Plug-In . SVG Version: 6.00 Build 0)  -->
<!DOCTYPE svg PUBLIC "-//W3C//DTD SVG 1.1//EN" "http://www.w3.org/Graphics/SVG/1.1/DTD/svg11.dtd">
<svg version="1.1" id="Layer_1" xmlns="http://www.w3.org/2000/svg" xmlns:xlink="http://www.w3.org/1999/xlink" x="0px" y="0px"
	 width="500px" height="500px" viewBox="0 0 500 500" enable-background="new 0 0 500 500" xml:space="preserve">
<title>onderhoud</title>
<desc>Created with Sketch.</desc>
<g id="Clip-2">
</g>
<path fill="#00395D" d="M480.578,387.292L250.911,166.067c11.819-44.756-0.846-92.034-34.62-124.122
	C179.139,5.635,123.408-3.653,76.125,17.457l-15.198,6.755l81.06,78.524l-44.755,46.445l-81.06-78.527L9.42,85.852
	c-19.422,48.973-8.446,103.015,29.553,139.32c33.773,32.088,81.06,43.062,125.811,29.556l229.67,222.066
	c11.82,11.826,27.019,16.889,43.062,16.889s32.088-5.909,44.755-18.575C494.092,463.289,500,447.244,500,431.2
	C499.154,414.312,492.398,398.273,480.578,387.292z M465.381,459.064c-15.198,15.198-39.684,16.044-54.885,0.846L170.694,228.55
	l-6.757,2.532c-37.994,14.357-80.213,5.07-108.923-22.794c-26.175-25.332-37.152-62.484-29.553-97.104l71.772,69.239l75.997-79.373
	l-71.772-69.24c34.617-9.288,71.772,0,98.79,26.178c28.71,27.864,38.841,69.241,26.175,107.232l-2.532,6.756l239.801,231.361
	c7.6,6.755,11.824,16.891,11.824,27.018C476.361,441.335,472.137,451.469,465.381,459.064z"/>
</svg>
