<?xml version="1.0" encoding="utf-8"?>
<!-- Generator: Adobe Illustrator 15.0.2, SVG Export Plug-In . SVG Version: 6.00 Build 0)  -->
<!DOCTYPE svg PUBLIC "-//W3C//DTD SVG 1.1//EN" "http://www.w3.org/Graphics/SVG/1.1/DTD/svg11.dtd">
<svg version="1.1" id="Layer_1" xmlns="http://www.w3.org/2000/svg" xmlns:xlink="http://www.w3.org/1999/xlink" x="0px" y="0px"
	 width="500px" height="500px" viewBox="0 0 500 500" enable-background="new 0 0 500 500" xml:space="preserve">
<title>ongevalsdetectie</title>
<desc>Created with Sketch.</desc>
<g>
	<path fill="#00395D" d="M483.648,378.55l-119.62-117.9c33.561-63.682,23.234-144.577-30.122-197.934
		c-66.265-66.265-174.698-66.265-240.963,0c-42.169,41.309-57.659,98.968-46.472,152.324C18.933,227.087,0,253.766,0,284.746v99.829
		c0,31.841,20.654,61.102,50.774,71.427l55.938,19.794c19.794,6.885,41.309,11.188,62.823,11.188h26.678h41.309
		c22.375,0,41.308-18.072,41.308-40.448c0-11.187-4.304-21.514-12.048-29.259s-18.072-12.048-29.26-12.048h-18.072v-54.217
		c25.817-0.86,50.773-6.885,74.011-18.933l119.62,117.9c10.327,9.466,23.236,14.629,36.145,14.629
		c12.909,0,25.819-5.163,36.145-14.629c9.466-9.469,14.631-22.376,14.631-36.145C498.278,400.925,493.115,388.017,483.648,378.55z
		 M105.852,450.839L58.52,433.627c-21.515-7.745-35.284-27.538-35.284-49.912v-99.828c0-19.794,12.048-37.867,29.26-47.333
		c8.605,23.236,21.515,45.611,40.447,63.683c4.303,4.304,8.606,8.604,13.77,12.048L105.852,450.839z M105.852,281.304
		c-14.63-15.489-24.957-33.562-31.842-52.495l31.842-11.188V281.304z M194.492,405.229v38.726v18.933h-26.679
		c-12.908,0-26.678-1.721-39.587-5.163V327.775c20.654,11.188,43.029,18.072,65.404,20.654L194.492,405.229z M194.492,224.506
		v101.549c-23.236-2.582-45.611-11.188-65.404-24.957v-92.082c11.188-2.583,23.235-4.303,34.423-4.303l0,0h30.981V224.506z
		 M235.8,428.463c5.163,0,9.467,1.723,12.909,5.165c3.441,3.441,5.163,7.745,5.163,12.049c0,9.465-7.745,17.21-18.072,17.21h-18.072
		v-35.283L235.8,428.463z M217.728,327.775v-63.683H235.8l0,0c11.188,0,21.515-4.303,29.261-12.048
		c7.744-7.746,12.048-18.073,12.048-28.4c0-11.188-4.304-21.514-12.048-29.259c-7.746-7.746-18.073-12.048-29.261-12.048h-18.072
		l0,0h-54.217l0,0c-18.934,0-37.006,3.442-54.217,9.466l-41.309,14.631c-7.744-44.751,6.024-92.943,40.447-128.228
		c28.399-28.398,66.266-43.029,104.132-43.029c37.865,0,75.73,14.631,104.132,43.029c57.658,56.798,57.658,149.742,0,206.54
		C289.156,312.285,253.872,326.055,217.728,327.775z M217.728,240.857v-35.285H235.8c4.303,0,9.467,1.722,12.909,5.164
		c3.441,3.442,5.163,7.746,5.163,12.049c0,4.302-1.722,9.465-5.163,12.047c-3.442,3.442-7.746,5.164-12.909,5.164l0,0h-18.072
		V240.857z M312.393,319.17c7.744-5.163,14.629-11.188,21.514-17.211c6.885-6.885,12.049-13.771,18.072-20.655l28.4,28.399
		l-38.727,38.727L312.393,319.17z M466.437,433.627c-10.327,10.327-28.399,10.327-38.726,0l-70.569-69.707l38.729-38.726
		l70.566,69.706c5.164,5.165,7.745,12.049,7.745,18.935C475.044,421.578,471.601,428.463,466.437,433.627z"/>
	<path fill="#00395D" d="M123.063,95.418l16.351,16.351c38.727-38.727,102.41-38.727,141.137,0l16.351-16.351
		C249.569,48.086,171.256,48.086,123.063,95.418z"/>
</g>
</svg>
