<?xml version="1.0" encoding="utf-8"?>
<!-- Generator: Adobe Illustrator 15.0.2, SVG Export Plug-In . SVG Version: 6.00 Build 0)  -->
<!DOCTYPE svg PUBLIC "-//W3C//DTD SVG 1.1//EN" "http://www.w3.org/Graphics/SVG/1.1/DTD/svg11.dtd">
<svg version="1.1" id="Layer_1" xmlns="http://www.w3.org/2000/svg" xmlns:xlink="http://www.w3.org/1999/xlink" x="0px" y="0px"
	 width="500px" height="500px" viewBox="0 0 500 500" enable-background="new 0 0 500 500" xml:space="preserve">
<g>
	<title>online</title>
	<desc>Created with Sketch.</desc>
	<g id="Clip-4">
	</g>
</g>
<g>
	<path fill="#00395D" d="M181.242,168.194l55.711,121.298l16.221-45.134l41.607,34.556l11.989-14.811l-40.902-33.85l43.723-23.978
		L181.242,168.194z M241.186,221.086l-6.348,17.631l-18.336-40.197l43.019,12.693L241.186,221.086z"/>
	<path fill="#00395D" d="M95.91,331.806h308.181V118.124H95.91V331.806z M115.656,137.165h270.099v175.599H115.656V137.165z"/>
	<path fill="#00395D" d="M452.046,358.604V144.922c0-40.197-32.44-73.342-72.639-73.342H121.298
		c-40.197,0-72.638,33.145-72.638,73.342v213.682H0v9.873c0,33.146,26.799,59.943,59.944,59.943h380.112
		c33.146,0,59.943-26.798,59.943-59.943v-9.873H452.046z M67.701,144.922c0-29.618,23.978-53.597,53.597-53.597h258.109
		c29.62,0,53.598,23.978,53.598,53.597v213.682H67.701V144.922z M439.352,409.38H59.239c-19.041,0-35.262-13.399-39.493-31.03
		h28.209h404.091h26.798C474.613,395.98,459.098,409.38,439.352,409.38z"/>
</g>
</svg>
