<?xml version="1.0" encoding="utf-8"?>
<!-- Generator: Adobe Illustrator 15.0.2, SVG Export Plug-In . SVG Version: 6.00 Build 0)  -->
<!DOCTYPE svg PUBLIC "-//W3C//DTD SVG 1.1//EN" "http://www.w3.org/Graphics/SVG/1.1/DTD/svg11.dtd">
<svg version="1.1" id="Layer_1" xmlns="http://www.w3.org/2000/svg" xmlns:xlink="http://www.w3.org/1999/xlink" x="0px" y="0px"
	 width="500px" height="500px" viewBox="45 10 500 500" enable-background="new 45 10 500 500" xml:space="preserve">
<g id="icons">
	<g id="pechbijstand">
		<path id="Fill-1" d="M492.394,458.7l-351.359-0.075c0.725-1.059,1.413-2.13,2.062-3.265l32.229-55.318l317.118-0.088
			c7.904,0,15.352,3.062,20.952,8.607c5.613,5.546,8.706,12.932,8.693,20.797C522.089,445.542,508.762,458.7,492.394,458.7
			L492.394,458.7z M105.229,457.705c-1.731,0.466-3.513,0.757-5.257,0.907h-4.926c-4.29-0.353-8.49-1.664-12.347-3.869
			c-14.141-8.092-19.003-26.091-10.806-40.131l175.425-300.781c0.483,0.958,1.005,1.89,1.54,2.823l32.585,55.861L123.24,444.017
			C119.294,450.811,112.892,455.676,105.229,457.705L105.229,457.705z M400.926,377.291l-212.375,0.063l106.13-182.152
			L400.926,377.291z M265.749,83.052c2.049-7.587,6.976-13.953,13.861-17.86c14.103-8.092,32.292-3.251,40.502,10.789
			l176.227,301.437c-1.298-0.114-2.597-0.151-3.896-0.151l-65.067,0.024l-158.662-271.98
			C264.743,98.53,263.687,90.627,265.749,83.052L265.749,83.052z M536.98,401.655L339.943,64.625
			c-14.498-24.88-46.739-33.414-71.789-19.095c-10.577,6.037-18.545,15.314-22.835,26.443l-0.038-0.012L52.049,403.269
			c-14.511,24.867-5.893,56.768,19.182,71.124c7.09,4.059,14.854,6.378,22.784,6.907h0.026c1.145,0.075,2.291,0.113,3.437,0.113
			c1.133,0,2.278-0.038,3.411-0.113l391.505,0.088c29.008,0,52.606-23.343,52.606-52.017
			C545.013,419.401,542.213,409.872,536.98,401.655L536.98,401.655z"/>
		<path id="Fill-4" d="M301.323,109.956c5.247,0,9.5-4.248,9.5-9.489s-4.253-9.489-9.5-9.489c-5.246,0-9.488,4.248-9.488,9.489
			S296.077,109.956,301.323,109.956"/>
		<path id="Fill-6" d="M92.468,426.26c-5.25,0-9.494,4.249-9.494,9.479c0,5.252,4.244,9.5,9.494,9.5s9.494-4.248,9.494-9.5
			C101.962,430.509,97.718,426.26,92.468,426.26"/>
		<path id="Fill-8" d="M484.874,426.26c-5.251,0-9.494,4.249-9.494,9.479c0,5.252,4.243,9.5,9.494,9.5
			c5.249,0,9.493-4.248,9.493-9.5C494.367,430.509,490.123,426.26,484.874,426.26"/>
	</g>
</g>
</svg>
