<?xml version="1.0" encoding="utf-8"?>
<!-- Generator: Adobe Illustrator 15.0.2, SVG Export Plug-In . SVG Version: 6.00 Build 0)  -->
<!DOCTYPE svg PUBLIC "-//W3C//DTD SVG 1.1//EN" "http://www.w3.org/Graphics/SVG/1.1/DTD/svg11.dtd">
<svg version="1.1" id="Layer_1" xmlns="http://www.w3.org/2000/svg" xmlns:xlink="http://www.w3.org/1999/xlink" x="0px" y="0px"
	 width="500px" height="500px" viewBox="0 0 500 500" enable-background="new 0 0 500 500" xml:space="preserve">
<g>
	<path d="M500,291.053c0-48.158-17.895-94.21-50.395-129.671l-54.343-59.408H227.764v218.093h-15.593V101.974h-52.96l-33.355,72.697
		H0v163.158h52.96c-0.329,2.302-0.526,4.671-0.526,7.039c0,29.343,23.816,53.158,53.092,53.158s53.157-23.815,53.157-53.158
		c0-2.368-0.197-4.737-0.525-7.039h54.013h15.593h8.881H338.75c-0.329,2.302-0.526,4.671-0.526,7.039
		c0,29.343,23.815,53.158,53.158,53.158c29.342,0,53.092-23.815,53.092-53.158c0-2.368-0.197-4.737-0.526-7.039H500V291.053z
		 M105.592,380.264c-19.54,0-35.395-15.855-35.395-35.396c0-19.539,15.855-35.395,35.395-35.395s35.394,15.921,35.394,35.395
		C140.986,364.408,125.066,380.264,105.592,380.264z M194.474,320.066h-41.907c-8.948-16.843-26.58-28.355-46.974-28.355
		c-20.329,0-38.026,11.513-46.974,28.355H17.697V192.434h119.474l33.421-72.697h23.882V320.066z M361.118,119.737h26.316
		l49.079,53.684c0.395,0.395,0.723,0.855,1.052,1.316h-76.447V119.737z M245.526,119.737h62.236v54.934h-62.236V119.737z
		 M391.382,380.264c-19.54,0-35.395-15.855-35.395-35.396c0-19.539,15.854-35.395,35.395-35.395
		c19.539,0,35.395,15.921,35.395,35.395C426.776,364.408,410.855,380.264,391.382,380.264z M482.303,320.066h-43.947
		c-8.882-16.843-26.579-28.355-46.974-28.355c-20.329,0-38.026,11.513-46.974,28.355h-98.882V192.434h79.935v-72.697h17.96v72.697
		h108.093c19.868,28.882,30.789,63.092,30.789,98.684V320.066z"/>
	<polygon points="314.079,213.816 302.895,252.895 291.382,213.816 276.315,213.816 295.526,272.236 295.789,273.026 
		309.539,273.026 328.421,215.329 328.947,213.816 	"/>
	<path d="M361.776,213.816h-12.697l-20.132,59.21h13.75l3.487-11.908h17.828l3.619,11.908h13.947l-19.605-58.421L361.776,213.816z
		 M349.803,249.605l5.329-17.435l5.329,17.435H349.803z"/>
	<path d="M426.842,241.974c2.896-2.04,5.658-5.593,5.658-11.579c0-10.395-6.776-16.579-18.026-16.579h-19.737v59.21h20.132
		c11.711,0,19.343-6.974,19.343-17.829C434.211,248.486,430.789,243.947,426.842,241.974z M407.368,225.789h6.185
		c2.368,0,6.315,0.725,6.315,5.592c0,5.264-5.065,5.79-7.236,5.79h-5.264V225.789z M413.224,261.053h-5.855V248.75h6.711
		c6.382,0,7.105,4.342,7.105,6.25C421.185,259.014,418.486,261.053,413.224,261.053z"/>
</g>
</svg>
