<?xml version="1.0" encoding="utf-8"?>
<!-- Generator: Adobe Illustrator 15.0.2, SVG Export Plug-In . SVG Version: 6.00 Build 0)  -->
<!DOCTYPE svg PUBLIC "-//W3C//DTD SVG 1.1//EN" "http://www.w3.org/Graphics/SVG/1.1/DTD/svg11.dtd">
<svg version="1.1" id="Layer_1" xmlns="http://www.w3.org/2000/svg" xmlns:xlink="http://www.w3.org/1999/xlink" x="0px" y="0px"
	 width="500px" height="500px" viewBox="0 0 500 500" enable-background="new 0 0 500 500" xml:space="preserve">
<path d="M250,0C112.142,0,0,112.152,0,249.994C0,387.849,112.142,500,250,500c137.857,0,250-112.151,250-250.006
	C500,112.152,387.857,0,250,0z M173.297,36.466c-22.01,22.859-40.11,55.238-52.245,94.319H57.004
	C83.836,87.516,124.695,53.969,173.297,36.466z M44.59,153.631h70.243c-6.232,26.21-9.824,54.832-10.599,84.939H23.431
	C24.941,208.311,32.342,179.651,44.59,153.631z M23.431,261.418h80.803c0.787,30.588,4.456,59.668,10.865,86.221H45.212
	C32.595,321.275,24.955,292.171,23.431,261.418z M57.778,370.484h63.655c12.134,38.521,30.095,70.432,51.863,93.05
	C125.178,446.196,84.624,413.145,57.778,370.484z M238.576,476.074c-39.145-6.664-72.946-47.254-92.861-105.59h92.861V476.074z
	 M238.576,347.639h-99.678c-6.841-26.363-10.991-55.468-11.829-86.221h111.507V347.639z M238.576,238.57H127.069
	c0.825-30.26,4.836-58.919,11.5-84.939h100.007V238.57z M238.576,130.785h-93.28c19.852-59.021,53.856-100.145,93.28-106.872
	V130.785z M476.582,238.57h-80.829c-0.749-30.107-4.354-58.729-10.586-84.939h70.229C467.67,179.651,475.058,208.311,476.582,238.57
	z M442.996,130.785H378.96c-12.146-39.081-30.247-71.459-52.257-94.319C375.305,53.969,416.163,87.516,442.996,130.785z
	 M261.423,23.913c39.426,6.727,73.442,47.851,93.281,106.872h-93.281V23.913z M261.423,153.631h100.021
	c6.65,26.02,10.661,54.68,11.475,84.939H261.423V153.631z M261.423,261.418h111.496c-0.825,30.753-4.964,59.857-11.817,86.221
	h-99.679V261.418z M261.423,476.074v-105.59h92.862C334.37,428.82,300.568,469.41,261.423,476.074z M326.703,463.534
	c21.769-22.618,39.729-54.527,51.864-93.05h63.653C415.376,413.145,374.822,446.196,326.703,463.534z M454.788,347.639H384.9
	c6.41-26.553,10.078-55.633,10.853-86.221h80.829C475.033,292.171,467.404,321.275,454.788,347.639z"/>
</svg>
