<?xml version="1.0" encoding="utf-8"?>
<!-- Generator: Adobe Illustrator 15.0.2, SVG Export Plug-In . SVG Version: 6.00 Build 0)  -->
<!DOCTYPE svg PUBLIC "-//W3C//DTD SVG 1.1//EN" "http://www.w3.org/Graphics/SVG/1.1/DTD/svg11.dtd">
<svg version="1.1" id="Layer_1" xmlns="http://www.w3.org/2000/svg" xmlns:xlink="http://www.w3.org/1999/xlink" x="0px" y="0px"
	 width="500px" height="500px" viewBox="0 0 500 500" enable-background="new 0 0 500 500" xml:space="preserve">
<title>reportage</title>
<desc>Created with Sketch.</desc>
<g>
	<rect x="84.856" y="98.173" fill="#00395D" width="172.755" height="22.071"/>
	<path fill="#00395D" d="M192.922,216.133h41.858c59.36,0,108.065-48.706,108.065-108.065C342.846,48.705,294.141,0,234.78,0
		H108.448C49.087,0,0.381,48.705,0.381,108.067c0,59.359,48.706,108.065,108.066,108.065h3.044v41.097L192.922,216.133z
		 M108.448,193.303c-47.184,0-85.235-38.053-85.235-85.235c0-47.186,38.051-85.236,85.235-85.236H234.78
		c47.183,0,85.235,38.051,85.235,85.236c0,47.183-38.053,85.235-85.235,85.235h-47.185L133.562,220.7v-27.397H108.448z"/>
	<rect x="240.869" y="315.067" fill="#00395D" width="172.754" height="22.069"/>
	<rect x="240.869" y="366.817" fill="#00395D" width="172.754" height="22.069"/>
	<path fill="#00395D" d="M390.791,242.77h-126.33c-59.361,0-108.067,48.706-108.067,108.066S205.1,458.904,264.461,458.904h41.855
		L388.51,500v-41.096h3.043c59.361,0,108.066-48.707,108.066-108.068C498.859,290.715,450.914,242.77,390.791,242.77z
		 M390.791,436.072h-25.113v27.396l-54.795-27.396h-47.184c-47.184,0-85.236-38.052-85.236-85.236
		c0-47.184,38.052-85.235,85.236-85.235h126.332c47.182,0,85.234,38.052,85.234,85.235
		C475.266,398.021,437.977,436.072,390.791,436.072z"/>
</g>
</svg>
