<?xml version="1.0" encoding="utf-8"?>
<!-- Generator: Adobe Illustrator 15.0.2, SVG Export Plug-In . SVG Version: 6.00 Build 0)  -->
<!DOCTYPE svg PUBLIC "-//W3C//DTD SVG 1.1//EN" "http://www.w3.org/Graphics/SVG/1.1/DTD/svg11.dtd">
<svg version="1.1" id="Layer_1" xmlns="http://www.w3.org/2000/svg" xmlns:xlink="http://www.w3.org/1999/xlink" x="0px" y="0px"
	 width="500px" height="500px" viewBox="0 0 500 500" enable-background="new 0 0 500 500" xml:space="preserve">
<title>routeplanner</title>
<desc>Created with Sketch.</desc>
<g id="Clip-2">
</g>
<path fill="#00395D" d="M440.978,340.643c-32.882,0-59.023,26.135-59.023,59.02c0,16.863,9.276,32.039,10.965,33.729l26.979,42.158
	H220.911c-65.769,0-112.985-41.318-112.985-97.807c0-53.965,43.845-97.812,97.808-97.812h21.079
	c47.216,0,86.005-38.783,86.005-86.002c0-47.216-38.789-86.002-86.005-86.002H69.984l19.392-30.354
	c0.845-1.686,8.433-14.334,8.433-26.982c0-26.98-21.923-48.904-48.906-48.904C21.923,1.686,0,23.609,0,50.59
	c0,14.334,7.588,26.982,9.275,27.825l33.726,52.275h183.812c34.568,0,63.238,27.825,63.238,63.238s-27.824,63.24-63.238,63.24
	h-21.079c-66.61,0-120.573,53.961-120.573,120.574c0,69.98,57.335,120.572,135.75,120.572H446.88l43.001-65.768
	C490.726,430.857,500,415.68,500,399.662C500,366.777,473.019,340.643,440.978,340.643z M26.983,66.611
	c-1.686-2.531-5.06-9.275-5.06-16.021c0-14.334,11.804-26.139,26.138-26.139c14.335,0,26.139,11.804,26.139,26.139
	c0,5.901-3.374,13.491-5.061,15.177L48.061,98.651L26.983,66.611z M470.49,420.742l-29.513,45.531l-29.509-44.689
	c-1.69-2.529-6.747-12.645-6.747-21.078c0-20.234,16.021-36.256,36.256-36.256c20.238,0,36.255,16.021,36.255,36.256
	C477.232,407.25,472.176,417.369,470.49,420.742z"/>
</svg>
