<?xml version="1.0" encoding="utf-8"?>
<!-- Generator: Adobe Illustrator 15.0.2, SVG Export Plug-In . SVG Version: 6.00 Build 0)  -->
<!DOCTYPE svg PUBLIC "-//W3C//DTD SVG 1.1//EN" "http://www.w3.org/Graphics/SVG/1.1/DTD/svg11.dtd">
<svg version="1.1" id="Layer_1" xmlns="http://www.w3.org/2000/svg" xmlns:xlink="http://www.w3.org/1999/xlink" x="0px" y="0px"
	 width="500px" height="500px" viewBox="0 0 500 500" enable-background="new 0 0 500 500" xml:space="preserve">
<g>
	<path d="M306.095,331.423c3.268-13.155,4.776-28.319,4.776-46.082h-22.873c0,15.584-0.755,29.157-3.604,40.719
		c-31.252-6.87-65.855-10.808-103.727-10.808c-39.128,0-65.102-8.379-74.989-24.214c-11.646-18.685-1.675-48.093,8.798-69.458
		L93.95,211.525c-18.936,38.625-21.533,69.458-7.708,91.579c14.495,23.208,46.25,35.021,94.343,35.021
		c34.269,0,65.604,3.52,94.175,9.469c-15.165,21.364-47.254,31.754-114.451,31.754C41.165,379.348,0.947,462.212,0.947,500h22.874
		c0-19.438,24.298-97.863,136.739-97.863c77.082,0,118.641-13.069,137.492-48.93C414.011,384.542,476.18,457.688,476.18,500h22.873
		C499.053,449.979,433.197,366.445,306.095,331.423z"/>
	<path d="M111.544,208.593c3.938,1.424,7.96,2.011,11.897,2.011c14.83,0,28.823-9.216,34.017-24.046l4.357-12.4l109.424,38.541
		l-4.357,12.4c-3.184,9.049-2.681,18.852,1.509,27.481c4.188,8.714,11.479,15.25,20.527,18.434c3.938,1.34,7.959,2.095,11.981,2.095
		c5.278,0,10.557-1.174,15.5-3.52c8.714-4.105,15.25-11.395,18.434-20.528l11.98-33.933l15.836-44.993l-0.587-77.083
		c-0.167-27.566-17.762-52.199-43.819-61.331L238.898,3.737c-26.141-9.217-55.466-1.005-72.977,20.444l-48.596,59.404
		l-18.098,51.445l-9.719,27.565C82.974,181.362,92.86,201.974,111.544,208.593z M313.301,241.521
		c-1.174,3.352-3.604,5.949-6.703,7.541c-3.184,1.508-6.703,1.676-10.055,0.503c-3.351-1.173-5.948-3.519-7.457-6.703
		c-1.508-3.184-1.676-6.703-0.502-10.054l4.357-12.4l24.8,8.713L313.301,241.521z M183.684,38.675
		c11.479-13.992,30.665-19.438,47.673-13.406l79.346,27.984c16.925,5.949,28.403,22.036,28.487,39.966l0.335,40.553L158.213,69.76
		L183.684,38.675z M137.602,95.063l5.278-6.452l196.897,69.542l0.083,8.211l-14.494,41.223l-155.842-54.88l0,0l-44.155-15.5
		l-2.262-0.837L137.602,95.063z M111.125,170.219l4.357-12.4l24.801,8.714l-4.357,12.4c-2.43,6.787-9.886,10.473-16.756,8.043
		C112.299,184.63,108.696,177.089,111.125,170.219z"/>
</g>
</svg>
