<?xml version="1.0" encoding="utf-8"?>
<!-- Generator: Adobe Illustrator 15.0.2, SVG Export Plug-In . SVG Version: 6.00 Build 0)  -->
<!DOCTYPE svg PUBLIC "-//W3C//DTD SVG 1.1//EN" "http://www.w3.org/Graphics/SVG/1.1/DTD/svg11.dtd">
<svg version="1.1" id="Layer_1" xmlns="http://www.w3.org/2000/svg" xmlns:xlink="http://www.w3.org/1999/xlink" x="0px" y="0px"
	 width="500px" height="500px" viewBox="47 48.5 500 500" enable-background="new 47 48.5 500 500" xml:space="preserve">
<g id="icons">
	<g id="safe-drivers">
		<path id="Combined-Shape" d="M158.554,257.036c3.941,1.394,7.964,2.045,11.929,2.045c14.854,0,28.792-9.255,34.003-24.039
			l4.376-12.42l109.457,38.562l-4.376,12.419c-3.199,9.072-2.673,18.841,1.486,27.513c4.146,8.683,11.437,15.23,20.508,18.418
			c3.92,1.382,7.965,2.067,12.009,2.067c5.302,0,10.592-1.188,15.505-3.553c8.685-4.147,15.219-11.438,18.43-20.521l11.963-33.957
			l15.858-45.018l-0.594-77.031c-0.206-27.536-17.802-52.169-43.784-61.321l-79.374-27.97c-26.152-9.209-55.448-0.994-72.986,20.463
			l-48.582,59.436l-18.121,51.427l-9.712,27.547C129.967,229.832,139.827,250.432,158.554,257.036z M184.604,143.488l5.268-6.444
			l196.897,69.514l0.057,8.181l-14.521,41.235l-155.846-54.912v-0.011l-44.126-15.539l-2.251-0.8L184.604,143.488z M230.661,87.148
			c11.46-14.007,30.632-19.4,47.691-13.368l79.386,27.981c16.921,5.953,28.38,22.005,28.518,39.943l0.32,40.539L205.25,118.226
			L230.661,87.148z M360.319,289.942c-1.178,3.313-3.564,5.987-6.729,7.506c-3.166,1.497-6.729,1.69-10.055,0.526
			c-3.314-1.166-5.975-3.553-7.495-6.718c-1.519-3.176-1.714-6.741-0.536-10.055l4.376-12.42l24.827,8.741L360.319,289.942z
			 M182.937,227.455c-2.4,6.821-9.918,10.5-16.784,8.032c-6.856-2.411-10.455-9.94-8.044-16.796l4.364-12.42l24.84,8.753
			L182.937,227.455z M353.082,379.892c3.257-13.149,4.812-28.358,4.812-46.079h-22.853c0,15.584-0.777,29.135-3.575,40.756
			c-31.272-6.855-65.824-10.844-103.688-10.844c-39.167,0-65.092-8.387-74.986-24.222c-11.654-18.716-1.634-48.102,8.832-69.468
			l-20.532-10.042c-18.909,38.618-21.503,69.444-7.678,91.588c14.476,23.216,46.228,34.996,94.364,34.996
			c34.266,0,65.629,3.541,94.205,9.507c-15.15,21.331-47.234,31.717-114.475,31.717c-119.387,0-159.559,82.883-159.559,120.7h22.852
			c0-19.423,24.313-97.849,136.707-97.849c77.09,0,118.656-13.095,137.509-48.959c115.98,31.341,178.182,104.441,178.182,146.808
			h22.853C546.051,498.468,480.193,414.867,353.082,379.892z"/>
	</g>
</g>
</svg>
