<?xml version="1.0" encoding="utf-8"?>
<!-- Generator: Adobe Illustrator 15.0.2, SVG Export Plug-In . SVG Version: 6.00 Build 0)  -->
<!DOCTYPE svg PUBLIC "-//W3C//DTD SVG 1.1//EN" "http://www.w3.org/Graphics/SVG/1.1/DTD/svg11.dtd">
<svg version="1.1" id="Layer_1" xmlns="http://www.w3.org/2000/svg" xmlns:xlink="http://www.w3.org/1999/xlink" x="0px" y="0px"
	 width="500px" height="500px" viewBox="0 0 500 500" enable-background="new 0 0 500 500" xml:space="preserve">
<path fill="#00395D" d="M481.112,389.561L361.49,269.938c33.577-69.255,20.986-155.298-37.776-214.062
	C288.038,20.199,239.769,1.312,189.402,1.312c-50.368,0-98.636,18.888-134.312,54.563c-73.452,73.455-73.452,193.077,0,268.63
	c35.677,35.676,83.945,54.562,134.312,54.562c27.283,0,54.564-6.297,79.748-18.886l119.622,119.622
	c12.592,12.59,29.382,18.886,46.171,18.886c16.788,0,33.577-6.296,46.17-18.886C493.703,467.21,500,450.421,500,433.631
	C500,416.844,493.703,402.152,481.112,389.561z M191.5,332.897c-37.774,0-73.452-14.689-100.733-41.973
	c-27.283-27.283-41.973-62.959-41.973-100.734c0-37.776,14.69-73.453,41.973-100.735c27.282-27.283,62.959-41.974,100.733-41.974
	c37.776,0,73.453,14.69,100.735,41.974c27.283,27.282,41.973,62.959,41.973,100.735c0,37.775-14.689,73.451-41.973,100.734
	C264.952,318.208,229.275,332.897,191.5,332.897z M447.533,446.225c-6.296,6.295-18.887,6.295-25.184,0L311.122,334.995
	c4.198-4.195,8.395-8.394,12.592-12.592c4.197-4.195,8.394-8.395,12.593-12.592l111.228,111.227c4.196,4.2,4.196,8.396,4.196,12.593
	C453.829,439.927,451.73,444.127,447.533,446.225z"/>
</svg>
