<?xml version="1.0" encoding="utf-8"?>
<!-- Generator: Adobe Illustrator 15.0.2, SVG Export Plug-In . SVG Version: 6.00 Build 0)  -->
<!DOCTYPE svg PUBLIC "-//W3C//DTD SVG 1.1//EN" "http://www.w3.org/Graphics/SVG/1.1/DTD/svg11.dtd">
<svg version="1.1" id="Layer_1" xmlns="http://www.w3.org/2000/svg" xmlns:xlink="http://www.w3.org/1999/xlink" x="0px" y="0px"
	 width="500px" height="500px" viewBox="-6.5 -7 500 500" enable-background="new -6.5 -7 500 500" xml:space="preserve">
<g id="icons">
	<g id="search">
		<polygon id="Stroke-8" points="374.656,312.791 312.258,375.189 327.974,390.905 390.373,328.507 		"/>
		<path id="Stroke-1" d="M324.289,278.138l137.538,137.539c12.598,12.597,12.601,33.05-0.019,45.65
			c-12.614,12.604-33.023,12.596-45.65-0.032L278.62,323.757l-15.717,15.717l137.538,137.538
			c21.303,21.303,55.781,21.317,77.074,0.041c21.311-21.278,21.306-55.814,0.028-77.092L340.006,262.422L324.289,278.138
			L324.289,278.138z"/>
		<path id="Stroke-3" d="M63.868,295.792C-0.321,231.603-0.321,127.546,63.867,63.37C128.056-0.82,232.114-0.82,296.291,63.368
			c64.189,64.178,64.189,168.235,0,232.424C232.114,359.98,128.056,359.98,63.868,295.792L63.868,295.792z M48.151,311.508
			c72.869,72.869,191.001,72.869,263.858,0c72.868-72.868,72.868-191-0.001-263.856C239.152-25.216,121.02-25.216,48.151,47.652
			C-24.717,120.508-24.717,238.64,48.151,311.508L48.151,311.508z"/>
		<path id="Stroke-5" d="M112.965,246.695c-37.073-37.074-37.073-97.172-0.001-134.233L97.25,96.743
			c-45.755,45.741-45.755,119.914-0.001,165.668L112.965,246.695L112.965,246.695z"/>
	</g>
</g>
</svg>
