<?xml version="1.0" encoding="utf-8"?>
<!-- Generator: Adobe Illustrator 15.0.2, SVG Export Plug-In . SVG Version: 6.00 Build 0)  -->
<!DOCTYPE svg PUBLIC "-//W3C//DTD SVG 1.1//EN" "http://www.w3.org/Graphics/SVG/1.1/DTD/svg11.dtd">
<svg version="1.1" id="Layer_1" xmlns="http://www.w3.org/2000/svg" xmlns:xlink="http://www.w3.org/1999/xlink" x="0px" y="0px"
	 width="500px" height="500px" viewBox="0 0 500 500" enable-background="new 0 0 500 500" xml:space="preserve">
<title>sms</title>
<desc>Created with Sketch.</desc>
<g id="Clip-2">
</g>
<g>
	<path fill="#00395D" d="M249.997,0C113.403,0,2.106,112.141,2.106,250.422c0,48.059,13.49,94.434,39.628,134.906l-22.765,97.806
		l101.179-20.234C158.934,487.353,204.465,500,249.997,500c136.595,0,247.893-112.144,247.893-250.422
		C498.729,112.141,387.432,0,249.997,0z M249.997,478.076c-43.001,0-85.16-12.648-121.416-36.254l-4.217-2.528L48.48,454.471
		l16.863-73.355l-2.531-4.219c-25.294-37.099-37.942-80.945-37.942-126.475c0-125.633,101.179-227.657,225.126-227.657
		s225.125,102.023,225.125,227.657C475.967,376.054,374.788,478.076,249.997,478.076z"/>
	<circle fill="#00395D" cx="175.798" cy="284.148" r="17.705"/>
	<circle fill="#00395D" cx="242.408" cy="284.148" r="17.705"/>
	<circle fill="#00395D" cx="309.863" cy="284.148" r="17.705"/>
</g>
</svg>
