<?xml version="1.0" encoding="utf-8"?>
<!-- Generator: Adobe Illustrator 15.0.2, SVG Export Plug-In . SVG Version: 6.00 Build 0)  -->
<!DOCTYPE svg PUBLIC "-//W3C//DTD SVG 1.1//EN" "http://www.w3.org/Graphics/SVG/1.1/DTD/svg11.dtd">
<svg version="1.1" id="Layer_1" xmlns="http://www.w3.org/2000/svg" xmlns:xlink="http://www.w3.org/1999/xlink" x="0px" y="0px"
	 width="500px" height="500px" viewBox="0 0 500 500" enable-background="new 0 0 500 500" xml:space="preserve">
<title>efficiëntie</title>
<desc>Created with Sketch.</desc>
<g>
	<path fill="#00395D" d="M297.582,37.442C292.901,16.381,273.4,0,250.779,0c-22.62,0-41.341,15.601-46.801,37.442H79.954V500
		h340.093V37.442H297.582z M250.779,21.061c10.922,0,20.281,6.241,24.182,16.381h-49.142
		C230.499,27.302,239.859,21.061,250.779,21.061z M190.718,58.503h120.904v23.4H190.718V58.503z M399.766,478.939H101.794V58.503
		h67.862v44.461h163.027V58.503h67.862v420.437H399.766z"/>
	<rect x="292.901" y="244.149" fill="#00395D" width="21.062" height="56.162"/>
	<rect x="136.116" y="370.514" fill="#00395D" width="226.989" height="21.062"/>
	<rect x="136.116" y="420.437" fill="#00395D" width="226.989" height="21.061"/>
	<rect x="337.363" y="198.128" fill="#00395D" width="21.061" height="102.184"/>
	<path fill="#00395D" d="M195.398,310.452c32.761,0,60.062-26.521,60.062-60.062c0-33.542-26.521-60.062-60.062-60.062
		c-32.761,0-60.062,26.521-60.062,60.062C135.335,283.932,162.637,310.452,195.398,310.452z M206.318,213.729
		c16.381,4.68,28.082,19.501,28.082,37.442c0,9.359-3.12,17.939-8.581,24.96l-19.501-28.081V213.729z M185.257,213.729v40.562
		l22.621,33.541c-3.9,1.56-7.8,2.341-12.48,2.341c-21.061,0-39.002-17.161-39.002-39.001
		C157.176,233.229,168.877,218.408,185.257,213.729z"/>
</g>
</svg>
