<?xml version="1.0" encoding="utf-8"?>
<!-- Generator: Adobe Illustrator 15.0.2, SVG Export Plug-In . SVG Version: 6.00 Build 0)  -->
<!DOCTYPE svg PUBLIC "-//W3C//DTD SVG 1.1//EN" "http://www.w3.org/Graphics/SVG/1.1/DTD/svg11.dtd">
<svg version="1.1" id="Layer_1" xmlns="http://www.w3.org/2000/svg" xmlns:xlink="http://www.w3.org/1999/xlink" x="0px" y="0px"
	 width="500px" height="500px" viewBox="0 0 500 500" enable-background="new 0 0 500 500" xml:space="preserve">
<title>takelen</title>
<desc>Created with Sketch.</desc>
<path fill="#00395D" d="M99.968,97.269c10.88,0,21.759,5.021,35.986,16.737L500,432.023V220.291L188.678,22.785
	C168.592,10.232,145.16,2.7,120.89,2.7H76.535c-25.106,0-45.192,20.085-45.192,45.191v3.348c0,21.76,15.901,40.17,35.986,44.354
	v43.519c-25.944,4.185-40.17,26.78-43.518,39.334l-0.836,2.511l15.063,102.1v19.249c0,10.042-3.348,20.085-8.369,28.454
	l-16.738,25.943c-13.39,23.433-16.737,51.05-8.369,76.157c8.369,25.106,27.617,46.028,52.724,56.908
	c11.716,5.021,24.27,7.531,37.66,7.531c30.964,0,59.419-14.227,76.993-39.333c24.27-33.476,23.433-77.831,0-110.47l-10.042-14.228
	l-46.029,78.668c-4.185,6.694-11.716,10.879-19.249,10.879c-4.185,0-8.369-0.836-11.716-3.347
	c-10.042-5.859-13.39-20.086-6.695-30.965l27.617-47.703c6.695-11.716,10.042-24.271,10.042-37.66v-19.248l15.064-104.611
	l-0.836-2.512c-3.348-11.715-15.901-32.638-39.334-38.495V94.757h9.206V97.269z M91.599,305.652c0,9.207-2.511,18.412-7.532,25.944
	L56.45,379.3c-12.554,21.759-5.858,49.376,15.064,61.929c7.532,4.185,15.064,6.695,23.433,6.695
	c15.901,0,30.964-8.368,39.333-22.596l27.617-46.865c8.369,21.758,5.858,47.702-8.369,67.787
	c-13.39,18.412-35.149,29.292-58.582,29.292c-10.043,0-19.249-1.675-28.454-5.858c-19.249-8.37-33.476-23.434-40.171-43.519
	c-6.695-19.249-4.185-40.17,5.858-56.909l16.738-25.106c8.369-12.553,12.553-26.78,12.553-41.008V293.1h31.802L91.599,305.652z
	 M106.663,183.467l-12.553,87.037H58.123L45.57,183.467c2.51-5.857,10.879-21.758,30.964-21.758
	C95.783,161.709,104.152,177.609,106.663,183.467z M76.535,74.673c-12.554,0-22.596-10.043-22.596-22.596v-3.349
	c0-12.553,10.042-22.595,22.596-22.595h44.355c20.085,0,39.333,5.857,56.071,15.9l300.443,190.811v149.802L151.018,97.269
	c-12.554-10.88-29.291-22.596-51.05-22.596H76.535z"/>
</svg>
