<?xml version="1.0" encoding="utf-8"?>
<!-- Generator: Adobe Illustrator 15.0.2, SVG Export Plug-In . SVG Version: 6.00 Build 0)  -->
<!DOCTYPE svg PUBLIC "-//W3C//DTD SVG 1.1//EN" "http://www.w3.org/Graphics/SVG/1.1/DTD/svg11.dtd">
<svg version="1.1" id="Layer_1" xmlns="http://www.w3.org/2000/svg" xmlns:xlink="http://www.w3.org/1999/xlink" x="0px" y="0px"
	 width="500px" height="500px" viewBox="0 0 500 500" enable-background="new 0 0 500 500" xml:space="preserve">
<g>
	<path d="M148.634,282.172l-42.503,65.272c-0.928,1.435-8.771,14.843-8.771,28.589c0,28.335,23.022,51.358,51.358,51.358
		c28.335,0,51.357-23.023,51.357-51.358c0-14.758-8.349-27.999-9.36-29.432L148.634,282.172z M148.718,404.62
		c-15.77,0-28.588-12.816-28.588-28.587c0-6.324,3.964-14.336,5.313-16.529l23.275-35.671l22.938,35.249
		c1.434,2.277,5.65,10.12,5.65,17.035C177.307,391.804,164.488,404.62,148.718,404.62z"/>
	<path d="M478.538,0l-37.19,37.189c-26.986,26.986-41.828,62.827-41.828,101.029v217.575c0,17.288-14.083,31.372-31.372,31.372
		c-16.359,0-29.684-13.325-29.684-29.77V231.911c0-27.239-20.24-49.671-46.383-53.55V72.356H5.439V500h286.558V201.467
		c13.577,3.542,23.613,15.77,23.613,30.443v125.401c0,28.925,23.527,52.538,52.454,52.538c29.853,0,54.14-24.288,54.14-54.141
		V138.218v-0.337h48.49V39.888l23.866-23.866L478.538,0z M269.229,477.231H28.208V95.125h241.02V477.231z M448.01,115.111h-23.528
		c3.626-18.636,11.638-36.093,23.528-51.104V115.111z"/>
	<path d="M239.712,125.653H57.725V252.15h181.987V125.653z M216.942,229.465H80.494v-80.958h136.448V229.465z"/>
</g>
</svg>
