<?xml version="1.0" encoding="utf-8"?>
<!-- Generator: Adobe Illustrator 15.0.2, SVG Export Plug-In . SVG Version: 6.00 Build 0)  -->
<!DOCTYPE svg PUBLIC "-//W3C//DTD SVG 1.1//EN" "http://www.w3.org/Graphics/SVG/1.1/DTD/svg11.dtd">
<svg version="1.1" id="Layer_1" xmlns="http://www.w3.org/2000/svg" xmlns:xlink="http://www.w3.org/1999/xlink" x="0px" y="0px"
	 width="500px" height="500px" viewBox="0 0 500 500" enable-background="new 0 0 500 500" xml:space="preserve">
<title>techniek</title>
<desc>Created with Sketch.</desc>
<g id="techniek" transform="translate(527.000000, 3851.000000)">
	<g id="Clip-7">
	</g>
	<g id="Clip-10">
	</g>
</g>
<g>
	<path fill="#00395D" d="M167.483,251.225c-44.118,0-80.881,35.947-80.881,80.062c0,44.121,35.947,80.066,80.881,80.066
		s80.881-35.945,80.881-80.066C247.549,287.172,211.602,251.225,167.483,251.225z M167.483,389.297
		c-31.862,0-58.008-26.141-58.008-58.01c0-31.859,26.146-58.002,58.008-58.002c31.864,0,58.008,26.143,58.008,58.002
		C225.491,363.156,199.347,389.297,167.483,389.297z"/>
	<path fill="#00395D" d="M289.217,267.564l25.324-25.327l-57.188-57.188l-25.328,25.327c-7.353-4.087-15.521-7.352-23.693-9.804
		v-35.131h-81.697v35.131c-8.171,2.452-16.34,5.717-23.693,9.804l-25.328-25.327l-57.188,57.188l25.325,25.327
		c-4.083,7.354-7.353,15.525-9.804,23.691H0v80.885h35.947c2.451,8.17,5.721,15.523,9.804,23.695l-25.325,25.32l57.188,57.195
		l25.328-25.328c7.353,4.082,15.521,7.352,23.693,9.805v35.131h81.697v-35.131c8.171-2.451,16.34-5.723,23.693-9.805l25.328,25.328
		l57.188-57.195l-25.324-25.32c4.082-7.354,7.352-15.525,9.803-23.695h35.947v-80.885H299.02
		C295.75,283.09,292.483,274.918,289.217,267.564z M312.09,349.264h-31.045l-2.451,8.17c-2.451,11.439-7.353,22.877-13.889,32.68
		l-4.902,7.354l22.061,21.244l-26.146,26.141l-22.057-21.238l-7.353,4.902c-10.622,6.533-21.242,10.617-33.496,13.887l-8.171,1.631
		v30.23h-36.763v-30.23l-8.171-1.631c-11.438-2.451-22.874-7.354-33.497-13.887l-7.352-4.902l-22.058,21.238l-26.146-26.141
		l22.059-21.244l-4.901-7.354c-6.537-10.621-10.623-21.24-13.889-32.68l-2.451-8.17H20.426V312.5h31.045l2.451-8.172
		c2.451-11.436,7.352-22.877,13.889-32.68l4.901-7.354l-22.059-21.238l26.146-26.147l22.058,21.245l7.352-4.901
		c10.623-6.54,21.242-10.622,33.497-13.892l8.171-1.633V187.5h36.763v30.229l8.171,1.633c11.438,2.45,22.875,7.352,33.496,13.892
		l7.353,4.901l22.057-21.245l26.146,26.147l-22.061,21.238l4.902,7.354c6.536,10.623,10.623,21.244,13.889,32.68l2.451,8.172h31.045
		V349.264z"/>
	<path fill="#00395D" d="M500,238.155v-22.058h-19.607c-1.638-7.353-4.089-14.711-8.171-20.425l13.892-13.894l-15.524-15.522
		L456.7,180.147c-6.536-4.082-13.073-7.352-20.427-8.171V152.37h-22.057v19.606c-7.353,1.637-14.709,4.089-20.426,8.171
		l-13.89-13.891l-15.523,15.522l13.889,13.894c-4.083,5.714-7.353,13.072-8.169,20.425h-19.606v22.058h19.606
		c1.635,7.353,4.086,14.707,8.169,20.425l-13.889,13.887l15.523,15.523l13.89-13.891c6.536,4.088,13.073,7.352,20.426,8.172v19.605
		h22.057v-19.605c7.354-1.633,14.705-4.084,20.427-8.172l13.889,13.891l15.524-15.523l-13.892-13.887
		c4.082-5.719,7.352-13.073,8.171-20.425H500z M424.02,261.846c-19.609,0-35.131-15.525-35.131-34.313s15.521-34.312,35.131-34.312
		c19.607,0,35.131,15.523,35.131,34.312S443.627,261.846,424.02,261.846z"/>
	<path fill="#00395D" d="M341.504,124.59c4.901-7.353,8.987-16.337,10.619-25.327h23.692V77.206h-23.692
		c-1.632-8.984-5.718-17.975-10.619-25.327l17.156-16.338l-15.523-15.524l-17.157,16.337c-7.353-4.902-16.341-8.985-25.327-10.62
		V2.042h-22.059v23.693c-8.987,1.635-17.972,4.903-25.327,10.62L236.11,20.017L220.59,35.541l17.155,16.338
		c-4.901,7.353-8.987,16.343-10.622,25.327h-23.692v22.058h23.692c1.635,8.99,5.721,17.975,10.622,25.327l-17.155,16.343
		l15.521,15.519l17.156-16.338c7.355,4.903,16.34,8.985,25.327,10.623v23.689h22.059v-23.689
		c8.986-1.638,17.975-4.901,25.327-10.623l17.157,16.338l15.523-15.519L341.504,124.59z M289.217,129.493
		c-22.877,0-41.668-18.788-41.668-41.665s18.792-41.664,41.668-41.664c22.873,0,41.664,18.787,41.664,41.664
		S312.09,129.493,289.217,129.493z"/>
</g>
</svg>
