<?xml version="1.0" encoding="utf-8"?>
<!-- Generator: Adobe Illustrator 15.0.2, SVG Export Plug-In . SVG Version: 6.00 Build 0)  -->
<!DOCTYPE svg PUBLIC "-//W3C//DTD SVG 1.1//EN" "http://www.w3.org/Graphics/SVG/1.1/DTD/svg11.dtd">
<svg version="1.1" id="Layer_1" xmlns="http://www.w3.org/2000/svg" xmlns:xlink="http://www.w3.org/1999/xlink" x="0px" y="0px"
	 width="500px" height="500px" viewBox="0 0 500 500" enable-background="new 0 0 500 500" xml:space="preserve">
<title>telefoon</title>
<desc>Created with Sketch.</desc>
<g id="telefoon" transform="translate(648.000000, 2325.000000)">
	<path id="Fill-1" d="M-592.624-2264.768l108.281,108.08l29.795-24.495l-111.78-111.781
		C-572.826-2286.764-582.824-2276.666-592.624-2264.768L-592.624-2264.768z M-316.871-1990.316l108.981,109.281
		c11.197-9.198,21.098-18.796,28.296-26.396l-114.081-112.68L-316.871-1990.316z M-606.521-2246.172
		c-9.298,13.998-16.497,29.195-17.797,43.394c-6.499,76.086,27.795,144.176,118.379,234.959l0.8,0.8
		c90.984,90.284,159.373,124.479,235.259,117.68c13.799-1.2,28.995-8.498,43.293-17.997l-104.382-104.682l-19.296,24.896l-8.1-3.3
		c-2-0.801-48.291-20.195-96.382-67.888c-47.893-47.991-67.389-94.284-68.189-96.184l-3.2-7.898l23.996-19.797L-606.521-2246.172z
		 M-288.676-1825.444c-75.287,0-144.274-37.594-232.56-125.178l-0.9-0.899c-95.984-96.184-132.177-169.471-124.979-253.156
		c4.599-53.291,70.987-110.58,73.787-112.98l8.099-6.897l144.875,144.976l-77.687,63.887c7.299,14.498,26.096,47.594,59.59,81.187
		c33.394,33.194,66.389,51.89,80.986,59.189l61.489-79.286L-148-1908.629l-6.898,8.099c-2.399,2.799-59.49,69.387-112.781,74.087
		C-274.778-1825.745-281.777-1825.444-288.676-1825.444L-288.676-1825.444z"/>
</g>
</svg>
