<?xml version="1.0" encoding="utf-8"?>
<!-- Generator: Adobe Illustrator 15.0.2, SVG Export Plug-In . SVG Version: 6.00 Build 0)  -->
<!DOCTYPE svg PUBLIC "-//W3C//DTD SVG 1.1//EN" "http://www.w3.org/Graphics/SVG/1.1/DTD/svg11.dtd">
<svg version="1.1" id="Layer_1" xmlns="http://www.w3.org/2000/svg" xmlns:xlink="http://www.w3.org/1999/xlink" x="0px" y="0px"
	 width="500px" height="500px" viewBox="0 0 500 500" enable-background="new 0 0 500 500" xml:space="preserve">
<title>VAB-telematics</title>
<desc>Created with Sketch.</desc>
<g>
	<path fill="#00395D" d="M463.236,325.98l-87.418-23.695l-90.688-90.685h-60.458C101.307,211.601,0,312.088,0,436.275v11.436h40.033
		c4.901,27.777,29.41,48.205,58.008,48.205c29.411,0,53.103-21.244,58.821-49.023l171.571-0.812
		c4.902,28.592,29.411,49.836,58.821,49.836s53.924-22.064,58.826-50.656H500v-70.262
		C499.181,352.121,484.476,331.695,463.236,325.98z M197.712,235.294c8.988-0.819,17.973-1.635,26.96-1.635h50.655l67.812,67.808
		H197.712V235.294z M175.652,239.376v61.278H73.529C100.491,271.242,135.621,249.999,175.652,239.376z M98.041,473.039
		c-20.426,0-37.582-16.344-37.582-37.582c0-21.244,16.34-37.582,37.582-37.582c20.423,0,37.581,16.338,37.581,37.582
		C135.621,456.695,118.463,473.039,98.041,473.039z M387.254,473.039c-20.426,0-37.582-16.344-37.582-37.582
		c0-21.244,16.343-37.582,37.582-37.582c20.426,0,37.582,16.338,37.582,37.582C424.836,456.695,407.68,473.039,387.254,473.039z
		 M477.123,422.383h-32.68c-5.719-26.141-29.412-46.566-58.009-46.566c-28.591,0-52.286,20.426-58.002,46.566l-172.388,0.82
		c-5.718-26.961-29.41-48.205-58.005-48.205c-28.598,0-53.106,21.244-58.008,48.205H22.876
		c1.632-37.582,14.706-71.898,34.312-101.311h312.09l89.056,24.51c12.255,3.27,20.42,13.891,20.42,26.145v49.836H477.123z"/>
	<path fill="#00395D" d="M321.081,124.999l17.155-14.706c-23.695-27.778-58.008-44.118-93.955-44.118
		c-37.582,0-72.712,17.156-96.405,46.568l17.156,13.891c19.606-24.512,48.201-38.402,79.249-38.402
		C273.693,89.052,302.287,102.122,321.081,124.999z"/>
	<path fill="#00395D" d="M244.282,26.958c48.202,0,93.136,21.242,124.184,58.007l17.156-14.705
		c-35.131-41.668-86.605-66.177-141.34-66.177c-57.191,0-109.479,25.324-145.425,70.261l17.156,13.887
		C147.876,49.835,194.443,26.958,244.282,26.958z"/>
	<path fill="#00395D" d="M196.078,151.959l17.156,13.888c7.356-9.804,18.791-14.705,30.229-14.705
		c11.438,0,22.061,4.901,29.413,13.889l17.156-14.705c-11.436-13.89-28.597-22.061-46.569-22.061
		C225.491,129.085,208.332,137.253,196.078,151.959z"/>
</g>
</svg>
