<?xml version="1.0" encoding="utf-8"?>
<!-- Generator: Adobe Illustrator 15.0.2, SVG Export Plug-In . SVG Version: 6.00 Build 0)  -->
<!DOCTYPE svg PUBLIC "-//W3C//DTD SVG 1.1//EN" "http://www.w3.org/Graphics/SVG/1.1/DTD/svg11.dtd">
<svg version="1.1" id="Layer_1" xmlns="http://www.w3.org/2000/svg" xmlns:xlink="http://www.w3.org/1999/xlink" x="0px" y="0px"
	 width="500px" height="500px" viewBox="0 0 500 500" enable-background="new 0 0 500 500" xml:space="preserve">
<title>tip</title>
<desc>Created with Sketch.</desc>
<g>
	<path fill="#00395D" d="M250.422,140.389c-61.551,0-111.299,49.748-111.299,111.296c0,33.73,16.019,66.614,42.159,87.692
		l15.177,106.241c0.842,29.51,24.452,53.116,53.963,53.116c29.509,0,53.96-23.606,53.96-53.116l15.178-106.241
		c26.14-21.078,42.161-53.121,42.161-86.848C361.722,190.978,311.974,140.389,250.422,140.389z M281.62,443.085v1.689
		c0,16.86-14.336,31.198-31.198,31.198c-16.863,0-31.198-14.338-31.198-31.198l-0.845-7.591h64.925L281.62,443.085z
		 M285.833,413.575h-70.824l-4.218-32.882h80.946L285.833,413.575z M302.699,324.2l-4.218,2.528l-4.213,32.043h-86.847
		l-4.218-32.043l-4.215-2.528c-22.765-16.866-37.1-43.846-37.1-71.671c0-48.903,39.628-88.531,88.534-88.531
		c48.903,0,88.532,39.628,88.532,88.531C338.954,280.354,325.467,307.334,302.699,324.2z"/>
	<rect x="238.616" y="1.266" fill="#00395D" width="22.765" height="80.101"/>
	<rect x="415.682" y="230.609" fill="#00395D" width="84.318" height="22.765"/>
	
		<rect x="352.205" y="86.37" transform="matrix(-0.7071 0.7071 -0.7071 -0.7071 738.7432 -110.4926)" fill="#00395D" width="80.101" height="22.766"/>
	
		<rect x="61.273" y="86.981" transform="matrix(0.707 0.7072 -0.7072 0.707 99.2493 -42.8357)" fill="#00395D" width="80.1" height="22.767"/>
	<rect y="230.609" fill="#00395D" width="84.316" height="22.765"/>
</g>
</svg>
