<?xml version="1.0" encoding="utf-8"?>
<!-- Generator: Adobe Illustrator 15.0.2, SVG Export Plug-In . SVG Version: 6.00 Build 0)  -->
<!DOCTYPE svg PUBLIC "-//W3C//DTD SVG 1.1//EN" "http://www.w3.org/Graphics/SVG/1.1/DTD/svg11.dtd">
<svg version="1.1" id="Layer_1" xmlns="http://www.w3.org/2000/svg" xmlns:xlink="http://www.w3.org/1999/xlink" x="0px" y="0px"
	 width="500px" height="500px" viewBox="0 0 500 500" enable-background="new 0 0 500 500" xml:space="preserve">
<title>Page 1</title>
<desc>Created with Sketch.</desc>
<g>
	<path fill="#00395D" d="M494.951,248.735c-73.234-95.114-149.832-147.304-227.275-154.882c-3.365-0.842-7.576-0.842-10.94-0.842
		c-1.685,0-3.368,0-5.052,0c-0.843,0-0.843,0-1.684,0c-0.84,0-1.684,0-2.524,0c-3.367,0-7.576,0-10.943,0
		C97.644,100.589,7.576,243.687,4.208,249.578L0,256.313l5.051,5.892c76.598,93.433,156.565,142.254,239.057,144.783
		c2.524,0,4.208,0,6.732,0h0.843l0,0c3.367,0,6.732,0,10.101,0c138.89-6.734,230.639-139.734,234.005-145.626l4.211-6.735
		L494.951,248.735z M26.936,254.627c11.786-16.833,45.455-61.444,94.275-95.957c-18.516,26.092-29.459,57.238-29.459,91.751
		s10.943,66.498,30.303,91.752C90.068,321.129,58.081,291.665,26.936,254.627z M254.209,385.102c-2.525,0-5.049,0-7.576,0
		c-1.684,0-4.208,0-5.892,0c-1.684,0-3.368,0-5.052,0c-67.338-7.578-120.37-64.816-120.37-133.838
		c0-73.231,58.924-133,132.156-134.681c1.684,0,3.365,0,5.05,0c0.843,0,0.843,0,1.684,0c4.207,0,8.418,0.839,13.467,0.839
		c66.5,8.421,118.689,64.815,118.689,133.842C384.682,322.811,326.6,382.578,254.209,385.102z M374.578,345.54
		c20.203-26.94,32.83-59.768,32.83-95.962c0-30.303-9.26-58.924-24.41-83.334c29.459,22.729,58.922,52.188,88.383,89.226
		C459.596,271.465,425.084,313.551,374.578,345.54z"/>
	<path fill="#00395D" d="M249.16,249.578v-51.347c-31.146,0-56.397,25.254-56.397,57.238c0,31.146,25.251,57.237,57.238,57.237
		c31.146,0,57.238-25.249,57.238-57.237c0-1.682,0-3.368-0.841-5.049H249.16V249.578z"/>
</g>
</svg>
