<?xml version="1.0" encoding="utf-8"?>
<!-- Generator: Adobe Illustrator 15.0.2, SVG Export Plug-In . SVG Version: 6.00 Build 0)  -->
<!DOCTYPE svg PUBLIC "-//W3C//DTD SVG 1.1//EN" "http://www.w3.org/Graphics/SVG/1.1/DTD/svg11.dtd">
<svg version="1.1" id="Layer_1" xmlns="http://www.w3.org/2000/svg" xmlns:xlink="http://www.w3.org/1999/xlink" x="0px" y="0px"
	 width="500px" height="500px" viewBox="0 0 500 500" enable-background="new 0 0 500 500" xml:space="preserve">
<title>VAB-training-&amp;-consult</title>
<desc>Created with Sketch.</desc>
<g id="Clip-2">
</g>
<path fill="#00395D" d="M250,42.228L0,182.435l106.42,59.962v189.192l46.452,12.669c32.096,8.444,64.189,13.515,97.128,13.515
	c32.939,0,65.033-4.225,97.129-13.515l46.452-12.669V242.396l35.472-20.268v130.065h22.806V209.46L500,182.435L250,42.228z
	 M369.933,414.694l-29.562,8.449c-59.121,16.89-122.464,16.89-181.588,0l-29.561-8.449V255.911L250,323.478l120.778-67.566v158.783
	H369.933z M250,297.299L47.298,183.275L250,69.258l202.702,114.018L250,297.299z"/>
</svg>
