<?xml version="1.0" encoding="utf-8"?>
<!-- Generator: Adobe Illustrator 15.0.2, SVG Export Plug-In . SVG Version: 6.00 Build 0)  -->
<!DOCTYPE svg PUBLIC "-//W3C//DTD SVG 1.1//EN" "http://www.w3.org/Graphics/SVG/1.1/DTD/svg11.dtd">
<svg version="1.1" id="Layer_1" xmlns="http://www.w3.org/2000/svg" xmlns:xlink="http://www.w3.org/1999/xlink" x="0px" y="0px"
	 width="500px" height="500px" viewBox="0 0 500 500" enable-background="new 0 0 500 500" xml:space="preserve">
<title>transport-&amp;-recovery</title>
<desc>Created with Sketch.</desc>
<path fill="#00395D" d="M192.437,146.219l9.244-1.68V84.034c0.842,0,0.842,0.841,1.681,0.841l278.151,263.023l15.967-16.807
	L239.496,86.556c17.648-5.885,30.251-22.689,30.251-42.02v-0.839l215.129,115.966l10.921-20.168L245.379,5.042l0,0
	C239.496,1.681,232.772,0,225.21,0C200,0,179.833,20.168,179.833,45.378v0.839v80.675c-14.286,6.721-23.53,21.007-23.53,36.973
	c0,15.967,10.085,30.252,23.53,36.975v45.377c-44.539,5.044-85.715,25.211-118.488,57.142
	C23.529,341.177,2.521,391.597,2.521,445.378v11.764h35.295C42.858,481.513,64.706,500,90.757,500
	c26.05,0,47.899-18.487,52.941-43.695l150.418-0.842c1.684,10.924,6.724,20.167,15.126,28.57
	C319.328,494.119,332.775,500,347.898,500l0,0c26.894,0,48.739-19.329,53.784-44.537h47.898v-63.866
	c0-20.167-13.446-38.654-33.613-43.698l-77.311-21.009l-80.675-80.672h-53.781h-0.839v-40.336
	c19.327-2.521,34.453-19.327,34.453-39.494c0-5.043-0.84-10.926-3.362-15.968l-21.008,8.405c0.841,2.521,1.681,4.201,1.681,6.721
	c0,10.083-8.402,17.646-17.646,17.646c-10.083,0-17.646-8.402-17.646-17.646C177.311,154.622,184.034,147.059,192.437,146.219z
	 M223.53,22.689c12.604,0,22.688,10.083,22.688,22.689c0,12.604-10.085,22.689-22.688,22.689c-11.766,0-21.85-9.244-21.85-21.85
	v-0.839l0,0C201.681,32.772,211.765,22.689,223.53,22.689z M347.06,476.473L347.06,476.473c-8.402,0-16.808-3.363-22.69-9.244
	c-5.883-5.883-9.244-14.285-9.244-22.692c0-8.401,3.361-16.805,9.244-22.688c5.883-5.881,14.288-9.243,22.69-9.243
	c17.646,0,31.932,14.284,31.932,31.931C378.99,462.188,364.706,476.473,347.06,476.473z M201.681,266.389h0.842h44.537
	l57.143,57.144h-103.36v-57.144H201.681z M201.681,346.22h128.571l78.991,21.849c10.085,2.521,16.81,11.764,16.81,21.85v41.176
	h-26.054c-5.883-23.529-26.89-41.176-52.939-41.176c-25.211,0-47.061,17.646-52.943,42.018l-92.436,0.837V346.22L201.681,346.22z
	 M90.757,476.473c-17.648,0-31.934-14.284-31.934-31.935c0-8.403,3.362-16.807,9.244-22.688c5.883-5.883,14.285-9.245,22.689-9.245
	l0,0c8.403,0,15.966,3.362,22.689,9.245c5.882,5.881,9.244,14.284,9.244,22.688C121.849,462.188,107.563,476.473,90.757,476.473z
	 M178.991,432.772h-35.293c-5.042-24.37-26.892-42.854-52.941-42.854l0,0c-14.286,0-28.571,5.883-38.657,15.964
	c-7.562,7.565-12.604,16.809-14.284,26.891H25.21c1.681-31.091,11.764-61.341,29.412-86.553h124.369V432.772z M178.991,323.532
	H72.27c1.681-1.684,3.361-3.362,4.201-5.046c27.731-27.731,63.866-45.377,102.521-50.42V323.532z"/>
</svg>
