<?xml version="1.0" encoding="utf-8"?>
<!-- Generator: Adobe Illustrator 15.0.2, SVG Export Plug-In . SVG Version: 6.00 Build 0)  -->
<!DOCTYPE svg PUBLIC "-//W3C//DTD SVG 1.1//EN" "http://www.w3.org/Graphics/SVG/1.1/DTD/svg11.dtd">
<svg version="1.1" id="Layer_1" xmlns="http://www.w3.org/2000/svg" xmlns:xlink="http://www.w3.org/1999/xlink" x="0px" y="0px"
	 width="500px" height="500px" viewBox="0 0 500 500" enable-background="new 0 0 500 500" xml:space="preserve">
<g>
	<path d="M451.317,229.358l-52.485-57.78H289.651v211.366h-21.522V117.191h-81.817v-67.83H54.318v67.83H0v284.288h47.121
		c4.413,27.839,28.313,49.159,57.17,49.159c28.789,0,52.756-21.389,57.102-49.159h67.764h38.973h21.522h33.203h14.804
		c4.412,27.839,28.312,49.159,57.168,49.159c28.857,0,52.757-21.389,57.171-49.159H500v-45.966
		C500,308.731,482.688,263.918,451.317,229.358z M72.651,67.762h95.328v141.703H72.651V67.762z M104.291,432.171
		c-21.862,0-39.652-17.926-39.652-39.926c0-21.998,17.79-39.922,39.652-39.922c21.863,0,39.585,17.924,39.585,39.922
		C143.876,414.245,126.154,432.171,104.291,432.171z M249.797,382.944h-20.641h-67.764c-4.412-27.839-28.312-49.158-57.102-49.158
		c-28.856,0-52.757,21.387-57.17,49.158H18.332V135.66h35.986v92.341h131.993V135.66h63.417v247.285H249.797z M348.725,190.046
		h42.028l45.561,50.177h-87.589V190.046z M394.826,432.171c-21.796,0-39.583-17.926-39.583-39.926
		c0-21.998,17.787-39.922,39.583-39.922c21.863,0,39.654,17.924,39.654,39.922C434.48,414.245,416.621,432.171,394.826,432.171z
		 M481.668,382.944h-29.671c-4.414-27.839-28.313-49.158-57.171-49.158c-28.788,0-52.688,21.387-57.168,49.158h-14.804h-14.869
		V190.046h22.406v68.646h120.655c19.758,28.246,30.552,61.854,30.552,96.822v27.431H481.668z"/>
	<polygon points="116.513,91.526 98.181,91.526 98.181,185.226 149.104,185.226 149.104,166.757 116.513,166.757 	"/>
</g>
</svg>
