<?xml version="1.0" encoding="utf-8"?>
<!-- Generator: Adobe Illustrator 15.0.2, SVG Export Plug-In . SVG Version: 6.00 Build 0)  -->
<!DOCTYPE svg PUBLIC "-//W3C//DTD SVG 1.1//EN" "http://www.w3.org/Graphics/SVG/1.1/DTD/svg11.dtd">
<svg version="1.1" id="Layer_1" xmlns="http://www.w3.org/2000/svg" xmlns:xlink="http://www.w3.org/1999/xlink" x="0px" y="0px"
	 width="500px" height="500px" viewBox="0 0 500 500" enable-background="new 0 0 500 500" xml:space="preserve">
<title>VAB-tweedehands</title>
<desc>Created with Sketch.</desc>
<g id="Clip-2">
</g>
<g id="Clip-27">
</g>
<g>
	<path fill="#00395D" d="M439.911,248.516v-2.225c0-17.804-11.868-33.383-28.931-37.834l-66.025-17.804l-68.991-68.993h-46.735
		c-78.635,0-145.402,53.414-165.431,125.372C22.255,261.129,0,279.676,0,301.188c0,51.188,129.081,78.637,250,78.637
		c120.922,0,250-27.449,250-78.637C500,280.416,479.228,262.613,439.911,248.516z M210.683,143.174
		c5.935-0.741,12.612-1.483,18.546-1.483h37.833l48.221,47.479H210.683V143.174z M190.653,146.886v43.026h-71.959
		C137.982,169.14,162.462,154.303,190.653,146.886z M102.374,209.94h235.906l67.508,18.547c8.16,2.225,14.095,9.643,14.095,18.545
		v34.866h-21.514c-5.193-20.029-23.74-34.866-45.253-34.866c-22.253,0-40.799,14.836-45.252,35.61l-128.338,0.74
		c-4.451-20.77-23.739-36.35-45.994-36.35s-40.801,15.581-45.993,36.35h-9.645C79.376,255.936,88.28,230.712,102.374,209.94z
		 M379.823,293.027c0,14.836-11.868,26.707-26.708,26.707c-14.836,0-26.707-11.871-26.707-26.707s11.871-26.707,26.707-26.707
		C367.955,266.32,379.823,278.191,379.823,293.027z M160.237,293.027c0,14.836-11.869,26.707-26.706,26.707
		c-14.837,0-26.706-11.871-26.706-26.707s11.868-26.707,26.706-26.707C148.368,266.32,160.237,278.191,160.237,293.027z
		 M250,359.793c-142.432,0-229.97-34.125-229.97-58.605c0-8.16,10.386-19.289,38.575-31.156c-0.741,7.416-1.483,14.834-1.483,22.256
		v10.385h30.417c4.451,20.77,23.738,36.348,45.993,36.348s41.543-15.578,45.994-37.092l127.596-0.74
		c4.451,21.514,22.998,37.832,45.994,37.832s42.286-16.318,45.993-37.832h40.803v-31.158c28.932,11.129,40.06,22.996,40.06,31.158
		C479.971,325.668,392.435,359.793,250,359.793z"/>
	<path fill="#00395D" d="M48.962,117.952l53.411-53.412L78.635,40.801c-14.837-14.837-38.576-14.837-53.413,0
		c-14.835,14.837-14.835,38.576,0,53.412L48.962,117.952z M39.317,55.639c3.709-3.709,8.159-5.193,12.612-5.193
		c4.45,0,8.901,1.484,12.61,5.193l9.645,9.643L48.962,89.763l-9.645-9.646C31.9,73.442,31.9,62.314,39.317,55.639z"/>
	<polygon fill="#00395D" points="81.602,112.018 117.211,146.143 131.306,132.047 95.698,97.181 	"/>
	<polygon fill="#00395D" points="62.314,178.042 81.602,172.849 68.992,131.307 49.704,136.498 	"/>
	<polygon fill="#00395D" points="160.237,80.86 118.694,68.25 112.76,87.538 154.303,100.148 	"/>
	<path fill="#00395D" d="M438.428,94.213c7.417-7.417,11.129-16.32,11.129-26.707c0-10.384-3.712-19.288-11.129-26.705
		c-14.836-14.837-38.576-14.837-53.412,0L361.277,64.54l53.41,53.412L438.428,94.213z M399.109,55.639
		c6.678-6.676,17.806-6.676,25.224,0c3.71,2.966,5.194,7.417,5.194,12.612c0,4.45-1.484,8.901-5.194,12.61l-9.646,9.645
		l-25.22-24.483L399.109,55.639z"/>
	<polygon fill="#00395D" points="347.182,146.143 381.307,112.018 367.211,97.922 333.086,132.047 	"/>
	<polygon fill="#00395D" points="401.336,178.042 413.204,136.498 393.918,131.307 381.307,172.849 	"/>
	<polygon fill="#00395D" points="350.148,87.538 344.953,68.25 302.671,80.86 308.604,100.148 	"/>
	<polygon fill="#00395D" points="85.311,403.561 36.35,403.561 36.35,418.398 52.671,418.398 52.671,468.844 68.992,468.844 
		68.992,418.398 85.311,418.398 	"/>
	<polygon fill="#00395D" points="114.985,454.008 114.985,443.621 141.691,443.621 141.691,428.043 114.985,428.043 
		114.985,418.398 142.432,418.398 142.432,403.561 98.665,403.561 98.665,468.844 142.432,468.844 142.432,454.008 	"/>
	<polygon fill="#00395D" points="241.099,403.561 221.811,403.561 204.749,428.043 204.749,403.561 188.428,403.561 
		188.428,468.844 204.749,468.844 204.749,443.621 221.069,468.844 241.841,468.844 218.842,434.717 	"/>
	<path fill="#00395D" d="M281.158,402.076L281.158,402.076c-9.645,0-17.807,3.711-23.74,10.389c-5.19,5.934-8.16,14.836-8.16,23.736
		c0,17.062,11.126,34.125,31.9,34.125c20.77,0,31.897-17.062,31.897-34.125S301.928,402.076,281.158,402.076z M281.158,455.49
		c-11.128,0-15.579-10.383-15.579-19.289c0-5.189,1.483-10.385,3.71-13.352c2.968-3.711,6.675-5.195,11.125-5.195l0,0
		c11.129,0,15.579,10.389,15.579,19.291C295.993,445.107,292.287,455.49,281.158,455.49z"/>
	<path fill="#00395D" d="M357.565,402.076L357.565,402.076c-9.641,0-17.802,3.711-23.736,10.389
		c-5.194,5.934-8.161,14.836-8.161,23.736c0,17.062,11.128,34.125,31.897,34.125c20.773,0,31.902-17.062,31.902-34.125
		C390.207,419.139,379.079,402.076,357.565,402.076z M357.565,455.49c-11.126,0-15.578-10.383-15.578-19.289
		c0-5.189,1.482-10.385,3.711-13.352c2.966-3.711,6.677-5.195,11.128-5.195l0,0c11.129,0,15.579,10.389,15.579,19.291
		C373.145,445.107,368.694,454.748,357.565,455.49z"/>
	<path fill="#00395D" d="M427.3,402.82h-22.253v66.023h16.319V446.59h6.677c5.935,0,11.125-1.482,15.578-5.193
		c4.452-3.713,7.419-9.646,7.419-16.32C451.04,408.754,438.428,402.82,427.3,402.82z M426.56,431.75h-5.193v-14.096h5.193
		c5.935,0,8.157,4.451,8.157,7.422C433.978,429.527,431.75,431.75,426.56,431.75z"/>
</g>
</svg>
