<?xml version="1.0" encoding="utf-8"?>
<!-- Generator: Adobe Illustrator 15.0.2, SVG Export Plug-In . SVG Version: 6.00 Build 0)  -->
<!DOCTYPE svg PUBLIC "-//W3C//DTD SVG 1.1//EN" "http://www.w3.org/Graphics/SVG/1.1/DTD/svg11.dtd">
<svg version="1.1" id="Layer_1" xmlns="http://www.w3.org/2000/svg" xmlns:xlink="http://www.w3.org/1999/xlink" x="0px" y="0px"
	 width="500px" height="500px" viewBox="0 0 500 500" enable-background="new 0 0 500 500" xml:space="preserve">
<title>Page 1</title>
<desc>Created with Sketch.</desc>
<g id="Clip-5">
</g>
<path fill="#00395D" d="M500,92.104c-19.139,7.177-38.278,14.354-57.416,16.747l0,0c21.53-11.962,35.885-33.492,45.454-57.416
	c-19.14,11.962-40.67,19.139-64.594,23.924c-28.708-26.316-45.454-33.493-74.163-33.493c-57.416,0-102.87,45.454-102.87,102.871
	c0,7.176,0,16.746,2.393,23.924c-86.125-4.785-162.68-45.455-212.918-107.656c-9.569,14.354-14.354,33.492-14.354,52.631
	c0,35.887,19.139,66.986,45.455,86.125c-16.746,0-33.493-4.784-47.847-11.962c0,0,0,0,0,2.393
	c0,50.239,35.885,93.301,83.732,102.871c-9.569,2.393-16.747,4.784-26.316,4.784c-7.177,0-11.961,0-19.139-2.393
	c14.354,40.669,50.239,71.771,95.694,71.771C117.224,395.934,2.392,410.286,0,410.286c45.454,28.709,100.478,47.848,157.895,47.848
	c191.387,0,294.258-157.895,294.258-296.65c0-2.393,0-7.177,0-14.354C468.898,130.382,488.038,111.243,500,92.104z"/>
</svg>
