<?xml version="1.0" encoding="utf-8"?>
<!-- Generator: Adobe Illustrator 15.0.2, SVG Export Plug-In . SVG Version: 6.00 Build 0)  -->
<!DOCTYPE svg PUBLIC "-//W3C//DTD SVG 1.1//EN" "http://www.w3.org/Graphics/SVG/1.1/DTD/svg11.dtd">
<svg version="1.1" id="Layer_1" xmlns="http://www.w3.org/2000/svg" xmlns:xlink="http://www.w3.org/1999/xlink" x="0px" y="0px"
	 width="500px" height="500px" viewBox="0 0 500 500" enable-background="new 0 0 500 500" xml:space="preserve">
<title>Twitter</title>
<desc>Created with Sketch.</desc>
<g>
	<path fill="#00395D" d="M394.891,163.064c13.755-7.857,23.576-21.607,28.488-36.342c-11.787,6.876-24.555,11.787-38.312,15.716
		c-1.964-2.947-4.911-5.893-6.875-8.84c-21.608-20.636-36.347-24.564-57.954-24.564c-44.205,0-79.569,36.351-79.569,80.551l0,0
		c-43.222-5.894-83.497-28.484-111.004-63.845l-11.786-14.741l-9.822,16.706c-6.88,11.786-10.809,26.521-10.809,40.271
		c0,9.823,1.964,19.645,4.911,28.484l-5.893-2.947v22.601c0,18.662,5.893,36.342,16.702,50.093l6.875,20.627
		c5.894,19.653,18.662,35.368,35.364,45.19c-22.596,6.876-50.097,10.805-59.924,11.787l-39.293,2.945l33.4,21.609
		c32.417,20.636,69.746,32.422,109.039,32.422c126.719,0,201.376-103.141,201.376-203.345c0-1.964,0-4.911,0-8.84
		c12.769-9.822,24.556-21.608,33.395-34.377C421.414,158.153,408.646,161.101,394.891,163.064L394.891,163.064z M198.43,373.277
		c-20.631,0-40.275-3.93-58.942-10.806c23.577-4.911,50.102-12.769,63.853-23.573l29.471-23.572l-37.329-0.982
		c-15.72,0-30.453-7.857-39.293-19.645c3.929,0,7.858-0.982,10.804-1.965l54.026-14.742l-55.008-10.805
		c-17.679-3.928-32.417-16.696-38.311-33.394c3.929,0.981,8.84,0.981,12.769,0.981l46.168,1.965l-38.306-25.538
		c-14.738-9.831-23.578-26.528-23.578-44.208c0-2.947,0-5.894,0.982-8.841c35.364,34.378,81.533,55.996,130.648,57.96l17.685,0.982
		l-3.934-17.689c-0.982-3.928-0.982-7.857-0.982-11.786c0-29.467,23.577-54.021,53.049-54.021c14.733,0,23.573,1.965,39.294,17.68
		c13.75,13.751,13.75,41.253,13.75,44.2C374.264,282.903,308.446,373.277,198.43,373.277z"/>
	<path fill="#00395D" d="M401.771,0H99.212C46.168,0,2.947,43.223,2.947,97.247v305.505c0,25.538,9.822,50.093,28.489,68.764
		C49.115,490.178,73.675,500,99.212,500l0,0h301.575l0,0c25.538,0,50.098-9.822,67.777-28.484
		c18.666-18.671,28.488-43.226,28.488-68.764V98.229C497.053,44.209,454.814,0,401.771,0z M470.529,401.77
		c0,18.661-6.875,36.342-20.626,50.093c-12.772,13.761-30.453,20.636-49.116,20.636l0,0H99.212l0,0
		c-18.662,0-36.342-6.875-49.115-20.636c-12.769-13.751-20.626-30.448-20.626-50.093V96.265c0-38.306,31.431-70.727,69.741-70.727
		h302.558c38.311,0,69.741,31.438,69.741,70.727V401.77H470.529z"/>
</g>
</svg>
