<?xml version="1.0" encoding="utf-8"?>
<!-- Generator: Adobe Illustrator 15.0.2, SVG Export Plug-In . SVG Version: 6.00 Build 0)  -->
<!DOCTYPE svg PUBLIC "-//W3C//DTD SVG 1.1//EN" "http://www.w3.org/Graphics/SVG/1.1/DTD/svg11.dtd">
<svg version="1.1" id="Layer_1" xmlns="http://www.w3.org/2000/svg" xmlns:xlink="http://www.w3.org/1999/xlink" x="0px" y="0px"
	 width="500px" height="500px" viewBox="0 0 500 500" enable-background="new 0 0 500 500" xml:space="preserve">
<title>verkeersinfo</title>
<desc>Created with Sketch.</desc>
<g id="verkeersinfo" transform="translate(528.000000, 4455.000000)">
	<g id="Clip-2">
	</g>
	<g id="Clip-5">
	</g>
	<g id="Clip-10">
	</g>
</g>
<g>
	<path fill="#00395D" d="M341.195,216.196h-80.188c-5.506,0-10.221,0.786-14.938,2.357l-5.504-14.937
		c-8.647-24.371-32.232-40.88-58.176-40.88h-80.188c-25.944,0-50.314,16.509-58.963,41.666l-25.157,69.182v45.6v21.225v12.579
		c0,18.869,14.937,33.805,33.806,33.805c18.867,0,33.804-14.936,33.804-33.805v-12.579h22.013l-16.509,46.384v45.599v21.226v12.579
		C91.196,485.062,106.132,500,125,500s33.805-14.938,33.805-33.805v-14.15H270.44v12.579c0,18.866,14.936,33.805,33.805,33.805
		s33.805-14.938,33.805-33.805v-12.579v-21.229v-37.734h17.297v12.579c0,18.866,14.936,33.804,33.805,33.804
		c18.868,0,33.804-14.938,33.804-33.804v-12.579v-21.226v-45.599L397.8,257.074C391.51,232.704,367.926,216.196,341.195,216.196z
		 M261.008,237.421h80.188c17.295,0,33.018,11.007,38.522,26.73l11.005,29.873h-90.408c-11.792-11.792-27.515-18.866-44.024-18.866
		h-37.737l3.931-10.22C227.988,248.428,243.71,237.421,261.008,237.421z M305.032,352.987H125.786l10.221-29.089
		c6.29-16.508,21.226-27.515,39.308-27.515h80.188c17.298,0,33.021,11.007,38.522,26.73L305.032,352.987z M62.894,210.692
		c6.288-16.51,21.227-27.516,39.308-27.516h80.188c17.296,0,33.019,11.006,38.522,26.73l6.29,16.509
		c-5.503,3.932-10.22,7.863-14.151,13.365H53.459L62.894,210.692z M66.037,352.2h-0.786c0,7.077-5.502,12.579-12.578,12.579
		s-12.579-5.502-12.579-12.579v-12.576h25.943V352.2z M86.478,318.396v-0.788H39.308v-41.665l5.504-14.936h156.445l-4.716,14.15
		H176.1c-25.943,0-50.314,16.508-58.961,41.666l-0.786,1.572H86.478z M139.151,465.408h-0.786c0,7.077-5.504,12.579-12.58,12.579
		c-7.075,0-12.578-5.502-12.578-12.579v-13.363h25.943V465.408z M271.225,430.816H159.592h-47.171v-41.665l5.503-14.938h194.182
		l5.502,14.938v41.665H271.225z M319.184,465.408h-0.787c0,7.077-5.503,12.579-12.58,12.579c-7.074,0-12.576-5.502-12.576-12.579
		v-13.363h25.943V465.408z M404.874,406.445h-0.785c0,7.077-5.505,12.579-12.579,12.579c-7.077,0-12.579-5.502-12.579-12.579
		v-12.576h25.943V406.445z M404.089,330.188v41.669h-47.171h-22.012l-20.441-55.819c0,0,0-0.784-0.787-0.784h84.906L404.089,330.188
		z"/>
	<path fill="#00395D" d="M386.008,0c-52.674,0-95.914,43.239-95.914,95.912c0,17.296,4.719,34.592,13.367,49.528l-9.437,42.453
		l44.025-8.648c14.938,8.648,31.448,12.579,47.958,12.579c52.67,0,95.91-43.239,95.91-95.912S438.678,0,386.008,0z M386.008,170.598
		c-14.151,0-28.302-3.931-40.097-11.793l-3.931-2.357l-19.654,3.931l4.719-18.868l-2.359-3.931
		c-8.648-12.579-12.579-26.73-12.579-41.667c0-40.881,33.805-74.686,74.686-74.686c40.882,0,74.686,33.804,74.686,74.686
		C461.478,136.792,426.886,170.598,386.008,170.598z"/>
	<circle fill="#00395D" cx="386.008" cy="134.434" r="12.579"/>
	<rect x="375.787" y="46.384" fill="#00395D" width="21.226" height="60.535"/>
</g>
</svg>
