<?xml version="1.0" encoding="utf-8"?>
<!-- Generator: Adobe Illustrator 15.0.2, SVG Export Plug-In . SVG Version: 6.00 Build 0)  -->
<!DOCTYPE svg PUBLIC "-//W3C//DTD SVG 1.1//EN" "http://www.w3.org/Graphics/SVG/1.1/DTD/svg11.dtd">
<svg version="1.1" id="Layer_1" xmlns="http://www.w3.org/2000/svg" xmlns:xlink="http://www.w3.org/1999/xlink" x="0px" y="0px"
	 width="500px" height="500px" viewBox="128 -36 500 500" enable-background="new 128 -36 500 500" xml:space="preserve">
<g id="icons">
	<g id="vervangwagen">
		<g id="Group-19">
			<path id="Fill-17" d="M610.229,286.527l-36.925,0.159c-5.085-26.786-28.573-47.104-56.73-47.104
				c-28.326,0-51.902,20.564-56.81,47.589l-178.041,0.911c-4.532-27.47-28.296-48.5-56.938-48.5
				c-28.81,0-52.682,21.277-57.017,48.976l-21.8,0.06c1.678-39.625,14.553-76.376,35.454-107.234H498.15l89.973,24.686
				c13.013,3.566,22.105,15.523,22.105,29.065V286.527z M516.573,337.703c-22.066,0-40.016-17.999-40.016-40.149
				c0-22.13,17.949-40.14,40.016-40.14s40.025,18.01,40.025,40.14C556.599,319.704,538.64,337.703,516.573,337.703L516.573,337.703z
				 M224.785,337.703c-22.066,0-40.015-17.999-40.015-40.149c0-22.13,17.949-40.14,40.015-40.14s40.016,18.01,40.016,40.14
				C264.801,319.704,246.852,337.703,224.785,337.703L224.785,337.703z M305.132,95.814v67.738H194.919
				C223.058,130.317,261.444,106.107,305.132,95.814L305.132,95.814z M404.87,90.296l73.011,73.256H322.904V92.426
				c9.616-1.387,19.45-2.13,29.441-2.13H404.87z M628,235.135c0-21.565-14.474-40.576-35.197-46.271l-88.848-24.369l-91.73-92.028
				h-59.879C228.646,72.466,128,173.439,128,297.554v8.945l39.749-0.109c4.255,27.787,28.178,49.145,57.037,49.145
				c29.027,0,53.058-21.614,57.116-49.62l177.418-0.911c3.663,28.461,27.911,50.531,57.254,50.531
				c29.511,0,53.896-22.328,57.332-51.017L628,304.289V235.135z"/>
		</g>
		<polygon id="Fill-20" points="330.237,210.708 319.049,249.79 307.55,210.708 292.474,210.708 311.678,269.162 311.938,269.955 
			325.704,269.955 344.606,212.233 345.105,210.708 		"/>
		<polygon id="Fill-29" points="330.237,210.708 319.049,249.79 307.55,210.708 292.474,210.708 311.678,269.162 311.938,269.955 
			325.704,269.955 344.606,212.233 345.105,210.708 		"/>
		<path id="Fill-31" d="M371.314,210.708h-12.665l-20.123,59.247h13.761l3.459-11.882h17.835l3.604,11.882h13.973l-19.584-58.474
			L371.314,210.708z M370.055,246.521h-10.638l5.295-17.447L370.055,246.521z"/>
		<path id="Fill-33" d="M436.435,238.905c2.912-2.062,5.671-5.597,5.671-11.595c0-10.408-6.745-16.602-18.048-16.602h-19.742v59.247
			h20.16c11.731,0,19.313-6.986,19.313-17.808C443.789,245.377,440.364,240.873,436.435,238.905z M416.95,245.655h6.688
			c6.412,0,7.107,4.379,7.107,6.266c0,4.009-2.674,6.028-7.954,6.028h-5.842V245.655z M422.23,234.103h-5.28v-11.389h6.185
			c2.378,0,6.346,0.732,6.346,5.587C429.48,233.535,424.419,234.103,422.23,234.103z"/>
	</g>
</g>
</svg>
