<?xml version="1.0" encoding="utf-8"?>
<!-- Generator: Adobe Illustrator 15.0.2, SVG Export Plug-In . SVG Version: 6.00 Build 0)  -->
<!DOCTYPE svg PUBLIC "-//W3C//DTD SVG 1.1//EN" "http://www.w3.org/Graphics/SVG/1.1/DTD/svg11.dtd">
<svg version="1.1" id="Layer_1" xmlns="http://www.w3.org/2000/svg" xmlns:xlink="http://www.w3.org/1999/xlink" x="0px" y="0px"
	 width="500px" height="500px" viewBox="0 0 500 500" enable-background="new 0 0 500 500" xml:space="preserve">
<title>vliegtuig</title>
<desc>Created with Sketch.</desc>
<g id="Clip-12">
</g>
<g>
	<circle fill="#00395D" cx="208.535" cy="217.749" r="9.394"/>
	<circle fill="#00395D" cx="252.997" cy="217.749" r="9.394"/>
	<circle fill="#00395D" cx="297.46" cy="217.749" r="9.394"/>
	<circle fill="#00395D" cx="341.923" cy="217.749" r="9.394"/>
	<circle fill="#00395D" cx="386.385" cy="217.749" r="9.394"/>
	<path fill="#00395D" d="M479.066,193.326c-14.403-15.029-33.816-23.17-55.108-23.17h-74.521l-101.45-74.522l-0.626-0.626
		c-12.525-8.141-26.302-11.898-41.332-11.898h-58.866l49.473,87.047H97.065l-36.321-48.221H0l36.948,98.318
		c8.767,28.807,31.311,45.715,60.118,45.715H211.04l-71.391,150.922h54.482c21.292,0,41.332-8.768,55.735-23.797l120.236-127.125
		h129.004l0.626-17.534C501.611,228.395,493.47,208.355,479.066,193.326z M177.223,100.018h29.433
		c11.272,0,22.544,3.132,31.938,9.394l82.037,60.745H216.675L177.223,100.018z M484.076,249.688H364.467L239.22,381.821
		c-11.272,11.899-26.928,18.788-43.209,18.788h-27.554l71.391-150.922H98.944c-30.686,0-40.705-23.171-43.836-33.817l-28.807-75.773
		h27.554l36.322,48.22h334.408c16.281,0,31.312,6.263,42.583,18.16C478.44,218.376,484.702,233.405,484.076,249.688L484.076,249.688
		z"/>
</g>
</svg>
