<?xml version="1.0" encoding="utf-8"?>
<!-- Generator: Adobe Illustrator 15.0.2, SVG Export Plug-In . SVG Version: 6.00 Build 0)  -->
<!DOCTYPE svg PUBLIC "-//W3C//DTD SVG 1.1//EN" "http://www.w3.org/Graphics/SVG/1.1/DTD/svg11.dtd">
<svg version="1.1" id="Layer_1" xmlns="http://www.w3.org/2000/svg" xmlns:xlink="http://www.w3.org/1999/xlink" x="0px" y="0px"
	 width="500px" height="500px" viewBox="0 0 500 500" enable-background="new 0 0 500 500" xml:space="preserve">
<title>vragen</title>
<desc>Created with Sketch.</desc>
<g id="Clip-2">
</g>
<g>
	<path fill="#00395D" d="M249.997,0C113.402,0,2.105,112.144,2.105,250.423c0,48.059,13.49,94.433,39.628,134.905l-22.765,97.81
		L120.148,462.9c38.786,24.452,84.316,37.1,129.849,37.1C386.59,500,497.89,387.856,497.89,249.578
		C498.729,112.144,387.434,0,249.997,0z M249.997,478.077c-43.001,0-85.161-12.647-121.416-36.255l-4.218-2.528L48.48,454.471
		l16.863-73.357l-2.531-4.215c-25.293-37.101-37.941-80.946-37.941-126.476c0-125.632,101.179-227.657,225.126-227.657
		s225.125,102.025,225.125,227.657C475.968,376.054,374.786,478.077,249.997,478.077z"/>
	<circle fill="#00395D" cx="242.408" cy="391.232" r="17.708"/>
	<path fill="#00395D" d="M242.408,92.75c-33.727,0-65.766,16.859-85.16,45.529l18.549,12.648
		c15.177-21.924,39.628-35.41,65.766-35.41c43.847,0,80.104,36.254,80.104,80.1c0,44.686-35.416,80.102-80.104,80.102h-10.958V345.7
		h22.765v-46.375c51.432-5.901,91.062-49.747,91.062-102.867C345.274,139.124,298.9,92.75,242.408,92.75z"/>
</g>
</svg>
