<?xml version="1.0" encoding="utf-8"?>
<!-- Generator: Adobe Illustrator 15.0.2, SVG Export Plug-In . SVG Version: 6.00 Build 0)  -->
<!DOCTYPE svg PUBLIC "-//W3C//DTD SVG 1.1//EN" "http://www.w3.org/Graphics/SVG/1.1/DTD/svg11.dtd">
<svg version="1.1" id="Layer_1" xmlns="http://www.w3.org/2000/svg" xmlns:xlink="http://www.w3.org/1999/xlink" x="0px" y="0px"
	 width="500px" height="500px" viewBox="85 45 500 500" enable-background="new 85 45 500 500" xml:space="preserve">
<g id="icons">
	<g id="webwinkel">
		<path id="Fill-21" d="M528.536,327.888c-5.047,24.706-25.643,43.03-50.237,45.96l22.167-202.408h59.983L528.536,327.888z
			 M188.104,171.439h59.271l22.255,203.009h-40.134L188.104,171.439z M332.588,374.448h-42.796l-22.233-203.009h55.417
			L332.588,374.448z M343.06,171.439h61.063l-9.612,203.009h-41.861L343.06,171.439z M458.059,374.448h-43.476l9.613-203.009h56.096
			L458.059,374.448z M491.108,479.279c0,8.253-6.717,14.981-14.982,14.981c-8.265,0-14.981-6.729-14.981-14.981
			c0-8.266,6.717-14.982,14.981-14.982C484.392,464.297,491.108,471.014,491.108,479.279L491.108,479.279z M316.114,479.279
			c0,8.253-6.718,14.981-14.993,14.981c-8.243,0-14.96-6.729-14.96-14.981c0-8.266,6.717-14.982,14.96-14.982
			C309.396,464.297,316.114,471.014,316.114,479.279L316.114,479.279z M184.016,151.389l-2.606-12.81
			c-7.43-36.436-39.822-62.88-77.016-62.88H85V95.75h19.394c27.702,0,51.83,19.705,57.377,46.851l52.833,259.117
			c6.015,29.463,28.415,52.354,56.441,59.917c-3.052,5.201-4.935,11.173-4.935,17.645c0,19.304,15.718,35.021,35.011,35.021
			c19.326,0,35.043-15.718,35.043-35.021c0-5.381-1.326-10.415-3.498-14.982h111.926c-2.172,4.567-3.498,9.602-3.498,14.982
			c0,19.304,15.718,35.021,35.032,35.021c19.315,0,35.033-15.718,35.033-35.021c0-19.315-15.718-35.033-35.033-35.033H291.251
			c-27.524,0-51.496-19.571-56.998-46.539l-0.669-3.207h237.942c37.015,0,69.273-26.333,76.647-62.613L585,151.389H184.016z"/>
	</g>
</g>
</svg>
