<?xml version="1.0" encoding="utf-8"?>
<!-- Generator: Adobe Illustrator 15.0.2, SVG Export Plug-In . SVG Version: 6.00 Build 0)  -->
<!DOCTYPE svg PUBLIC "-//W3C//DTD SVG 1.1//EN" "http://www.w3.org/Graphics/SVG/1.1/DTD/svg11.dtd">
<svg version="1.1" id="Layer_1" xmlns="http://www.w3.org/2000/svg" xmlns:xlink="http://www.w3.org/1999/xlink" x="0px" y="0px"
	 width="500px" height="500px" viewBox="0 0 500 500" enable-background="new 0 0 500 500" xml:space="preserve">
<title>wegeninfo</title>
<desc>Created with Sketch.</desc>
<g id="Clip-2">
</g>
<g>
	<path fill="#00395D" d="M407.274,0c-52.426,0-95.462,43.035-95.462,95.465c0,17.213,4.694,34.426,13.305,49.29l-9.393,42.256
		l43.82-8.61c14.867,8.61,31.299,12.523,47.729,12.523c52.427,0,95.466-43.035,95.466-95.459C502.74,43.035,460.482,0,407.274,0z
		 M407.274,169.799c-14.084,0-28.167-3.912-39.904-11.737l-3.913-2.348l-19.561,3.912l4.693-18.784l-2.349-3.912
		c-8.606-12.515-12.519-26.601-12.519-41.465c0-40.693,33.647-74.337,74.334-74.337c40.689,0,74.336,33.644,74.336,74.337
		C482.393,136.151,448.746,169.799,407.274,169.799z"/>
	<path fill="#00395D" d="M407.274,46.169c-6.913,0-12.519,5.603-12.519,12.516s5.605,12.522,12.519,12.522
		c6.917,0,12.521-5.609,12.521-12.522S414.191,46.169,407.274,46.169z"/>
	<rect x="397.105" y="89.205" fill="#00395D" width="21.124" height="56.335"/>
	<path fill="#00395D" d="M162.361,75.896c-58.684,0-102.504,32.87-129.108,97.814C13.691,219.873,2.736,283.254-1.958,366.982
		l-0.782,17.214l292.642-129.113c1.566,4.698,2.35,9.396,3.912,14.871c3.131,12.519,5.479,24.26,7.043,36.774l-50.859,33.646
		l11.736,17.998l43.035-28.171c10.955,71.991,11.737,140.063,11.737,169.798h21.128c0-39.123-2.349-140.063-23.474-233.958
		C285.209,139.278,234.349,75.896,162.361,75.896z M19.952,350.549C30.907,177.623,76.288,97.028,162.361,97.028
		c53.99,0,94.68,46.162,121.284,136.931L19.952,350.549z"/>
	<polygon fill="#00395D" points="37.87,479.111 49.483,496.761 102.438,461.93 90.825,444.28 	"/>
	
		<rect x="165.015" y="368.647" transform="matrix(-0.5497 -0.8354 0.8354 -0.5497 -62.3409 767.0673)" fill="#00395D" width="21.126" height="63.379"/>
</g>
</svg>
