<?xml version="1.0" encoding="utf-8"?>
<!-- Generator: Adobe Illustrator 15.0.2, SVG Export Plug-In . SVG Version: 6.00 Build 0)  -->
<!DOCTYPE svg PUBLIC "-//W3C//DTD SVG 1.1//EN" "http://www.w3.org/Graphics/SVG/1.1/DTD/svg11.dtd">
<svg version="1.1" id="Layer_1" xmlns="http://www.w3.org/2000/svg" xmlns:xlink="http://www.w3.org/1999/xlink" x="0px" y="0px"
	 width="500px" height="500px" viewBox="0 0 500 500" enable-background="new 0 0 500 500" xml:space="preserve">
<title>winterbanden</title>
<desc>Created with Sketch.</desc>
<polygon fill="#00395D" points="500,237.691 421.901,237.691 464.347,193.548 448.217,177.419 389.643,237.691 280.136,237.691 
	356.536,161.29 441.426,161.29 441.426,138.369 379.457,138.369 435.484,82.343 419.355,66.214 362.479,122.24 361.631,58.574 
	338.71,58.574 339.558,145.161 262.309,222.41 262.309,112.054 322.581,51.782 306.451,35.653 262.309,79.795 262.309,0 239.389,0 
	239.389,79.795 193.548,35.653 177.419,51.782 239.389,112.054 239.389,221.561 161.291,143.464 161.291,58.574 138.37,58.574 
	138.37,120.543 82.343,64.516 65.365,80.645 122.241,137.521 58.574,138.369 58.574,161.29 145.161,160.441 222.411,237.691 
	112.054,237.691 51.783,177.419 35.654,193.548 78.947,237.691 0,237.691 0,260.61 79.796,260.61 35.654,306.451 51.783,322.58 
	112.054,260.61 224.108,260.61 146.01,338.709 58.574,338.709 58.574,361.63 123.09,361.63 65.365,419.354 82.343,435.483 
	137.521,380.305 138.37,441.426 161.291,441.426 159.593,357.385 239.389,278.438 239.389,386.248 177.419,448.217 193.548,464.346 
	239.389,418.507 239.389,500 262.309,500 262.309,421.9 306.451,464.346 322.581,448.217 262.309,389.643 262.309,277.589 
	338.71,353.99 338.71,441.426 361.631,441.426 361.631,376.91 419.355,434.636 435.484,417.657 380.306,362.479 441.426,361.63 
	441.426,338.709 357.385,340.407 278.438,260.61 386.249,260.61 448.217,322.58 464.347,306.451 418.507,260.61 500,260.61 "/>
</svg>
