<?xml version="1.0" encoding="utf-8"?>
<!-- Generator: Adobe Illustrator 15.0.2, SVG Export Plug-In . SVG Version: 6.00 Build 0)  -->
<!DOCTYPE svg PUBLIC "-//W3C//DTD SVG 1.1//EN" "http://www.w3.org/Graphics/SVG/1.1/DTD/svg11.dtd">
<svg version="1.1" id="Layer_1" xmlns="http://www.w3.org/2000/svg" xmlns:xlink="http://www.w3.org/1999/xlink" x="0px" y="0px"
	 width="500px" height="500px" viewBox="0 0 500 500" enable-background="new 0 0 500 500" xml:space="preserve">
<g>
	<path fill="#00395D" d="M492.788,131.009c-4.807-43.267-40.865-74.518-84.134-74.518H93.75c-43.269,0-79.327,33.655-86.538,76.921
		c-9.616,76.925-9.616,156.251,0,235.579c4.807,43.267,40.865,74.518,84.134,74.518h317.309c43.269,0,79.327-31.251,84.134-74.518
		C502.404,289.663,502.404,210.337,492.788,131.009z M439.904,359.375c-2.404,16.825-14.423,26.442-31.25,26.442H91.346
		c-16.827,0-28.846-12.018-31.25-28.847c-9.614-72.116-9.614-146.634,0-221.153c2.405-16.825,16.827-28.847,31.25-28.847H406.25
		c16.827,0,28.846,12.021,31.25,28.847C449.52,212.741,449.52,287.259,439.904,359.375z"/>
	<polygon fill="#00395D" points="201.923,342.55 329.327,256.008 201.923,169.47 	"/>
</g>
</svg>
