<?xml version="1.0" encoding="utf-8"?>
<!-- Generator: Adobe Illustrator 15.0.2, SVG Export Plug-In . SVG Version: 6.00 Build 0)  -->
<!DOCTYPE svg PUBLIC "-//W3C//DTD SVG 1.1//EN" "http://www.w3.org/Graphics/SVG/1.1/DTD/svg11.dtd">
<svg version="1.1" id="Layer_1" xmlns="http://www.w3.org/2000/svg" xmlns:xlink="http://www.w3.org/1999/xlink" x="0px" y="0px"
	 width="500px" height="500px" viewBox="0 0 500 500" enable-background="new 0 0 500 500" xml:space="preserve">
<title>Youtube</title>
<desc>Created with Sketch.</desc>
<g>
	<path fill="#00395D" d="M401.77,0H99.214C46.169,0,2.947,43.222,2.947,97.25v305.501c0,25.54,9.823,50.099,28.487,68.762
		C49.116,490.177,73.674,500,99.214,500l0,0h301.571l0,0c25.541,0,50.1-9.823,67.781-28.487
		c18.663-18.663,28.486-43.222,28.486-68.762V98.231C497.053,44.205,454.813,0,401.77,0z M470.53,401.77
		c0,18.662-6.876,36.345-20.628,50.097c-12.77,13.754-30.452,20.63-49.117,20.63l0,0H99.214l0,0
		c-18.663,0-36.346-6.876-49.115-20.63C37.328,438.114,29.47,421.415,29.47,401.77V96.267c0-38.31,31.434-69.743,69.744-69.743
		H401.77c38.311,0,69.744,31.434,69.744,70.727v304.52H470.53z"/>
	<path fill="#00395D" d="M353.635,127.701H148.33c-26.522,0-48.133,19.646-52.062,46.17c-5.894,51.08-5.894,102.16,0,153.24
		c2.946,25.541,25.54,45.187,51.08,45.187h206.287c25.54,0,48.135-19.646,51.081-45.187c5.894-51.08,5.894-103.143,0-154.224
		C400.785,146.366,379.175,127.701,353.635,127.701z M378.192,323.183c-1.964,12.771-11.787,21.612-24.558,21.612H147.348
		c-12.77,0-23.575-9.823-24.558-22.594c-5.895-48.134-5.895-98.231,0-146.365c1.965-12.771,12.771-22.594,25.54-22.594h205.305
		c12.771,0,23.576,9.823,24.558,22.594C384.087,224.951,384.087,274.067,378.192,323.183z"/>
	<polygon fill="#00395D" points="219.058,310.413 301.571,253.438 219.058,196.464 	"/>
</g>
</svg>
