<?xml version="1.0" encoding="utf-8"?>
<!-- Generator: Adobe Illustrator 15.0.2, SVG Export Plug-In . SVG Version: 6.00 Build 0)  -->
<!DOCTYPE svg PUBLIC "-//W3C//DTD SVG 1.1//EN" "http://www.w3.org/Graphics/SVG/1.1/DTD/svg11.dtd">
<svg version="1.1" id="Layer_1" xmlns="http://www.w3.org/2000/svg" xmlns:xlink="http://www.w3.org/1999/xlink" x="0px" y="0px"
	 width="500px" height="500px" viewBox="-6.5 -7 500 500" enable-background="new -6.5 -7 500 500" xml:space="preserve">
<g>
	<path d="M477.544,399.961l-132.719-132.72c37.574-70.55,26.642-160.141-32.817-219.59C239.152-25.216,121.02-25.216,48.151,47.652
		c-72.868,72.855-72.868,190.987,0,263.856c59.461,59.46,149.056,70.392,219.601,32.813l132.689,132.689
		c21.303,21.303,55.781,21.317,77.074,0.041C498.826,455.774,498.821,421.238,477.544,399.961z M63.868,295.792
		C-0.321,231.603-0.321,127.546,63.867,63.37C128.056-0.82,232.114-0.82,296.291,63.368c64.189,64.178,64.189,168.235,0,232.424
		C232.114,359.98,128.056,359.98,63.868,295.792z M312.009,311.509c7.784-7.785,14.73-16.091,20.852-24.799l33.938,33.938
		l-45.644,45.645l-33.936-33.936C295.924,326.236,304.227,319.291,312.009,311.509z M461.809,461.327
		c-12.614,12.604-33.023,12.596-45.65-0.032l-79.287-79.286l45.645-45.645l79.312,79.312
		C474.425,428.273,474.428,448.727,461.809,461.327z"/>
	<path d="M112.964,112.462L97.25,96.743c-45.755,45.741-45.755,119.914-0.001,165.668l15.716-15.716
		C75.892,209.621,75.892,149.523,112.964,112.462z"/>
</g>
</svg>
