<?xml version="1.0" encoding="utf-8"?>
<!-- Generator: Adobe Illustrator 15.0.2, SVG Export Plug-In . SVG Version: 6.00 Build 0)  -->
<!DOCTYPE svg PUBLIC "-//W3C//DTD SVG 1.1//EN" "http://www.w3.org/Graphics/SVG/1.1/DTD/svg11.dtd">
<svg version="1.1" id="Layer_1" xmlns="http://www.w3.org/2000/svg" xmlns:xlink="http://www.w3.org/1999/xlink" x="0px" y="0px"
	 width="500px" height="500px" viewBox="0 0 500 500" enable-background="new 0 0 500 500" xml:space="preserve">
<title>zomerbanden</title>
<desc>Created with Sketch.</desc>
<g id="Clip-2">
</g>
<path fill="#00395D" d="M500,261.5v-23H389.268c-0.852-11.071-2.555-21.293-5.963-31.516l102.215-42.588l-8.518-21.296
	l-102.215,42.589c-5.111-9.369-11.072-18.738-17.887-26.405l78.364-78.364l-16.184-16.184L340.717,143.1
	c-8.519-6.813-17.037-12.776-26.406-17.889L356.9,22.998l-21.295-8.518l-42.59,102.215c-10.223-3.407-20.443-5.11-31.516-5.962V0
	h-22.999v110.733c-11.073,0.852-21.294,2.555-31.516,5.962l-42.59-102.215l-21.294,8.518l42.59,102.214
	c-9.37,5.112-18.74,11.075-26.406,17.889L80.919,64.736L64.736,80.919l78.365,78.364c-6.814,8.52-12.776,17.036-17.888,26.405
	L22.998,143.1l-8.518,21.296l102.215,42.588c-3.407,10.223-5.111,20.444-5.962,31.516H0v23h110.733
	c0.851,11.072,2.555,21.293,5.962,31.516L14.48,335.604l8.518,21.297l102.215-42.59c5.111,9.369,11.073,18.738,17.888,26.404
	L64.736,419.08l16.184,16.184l78.365-78.363c8.518,6.812,17.036,12.775,26.406,17.887l-42.59,102.215l21.294,8.518l42.59-102.215
	c10.222,3.408,20.443,5.111,31.516,5.963V500H261.5V389.268c11.072-0.852,21.293-2.555,31.516-5.963l42.59,102.215l21.295-8.518
	l-42.59-102.215c9.369-5.111,18.738-11.074,26.406-17.887l78.364,78.363l16.184-16.184L356.9,340.715
	c6.814-8.52,12.775-17.035,17.887-26.404l102.215,42.59l8.518-21.297l-102.215-42.588c3.408-10.223,5.111-20.443,5.963-31.516H500z
	 M249.574,367.973c-64.736,0-117.546-52.812-117.546-117.547c0-64.736,52.811-117.547,117.546-117.547
	c64.737,0,117.547,52.811,117.547,117.547C367.121,315.16,314.311,367.973,249.574,367.973z"/>
</svg>
